<?xml version="1.0" standalone="no"?>
 <!DOCTYPE svg PUBLIC "-//W3C//DTD SVG 1.1//EN" 
 "http://www.w3.org/Graphics/SVG/1.1/DTD/svg11.dtd"> 
<svg
  xmlns:svg="http://www.w3.org/2000/svg"
  xmlns="http://www.w3.org/2000/svg"
  xmlns:xlink="http://www.w3.org/1999/xlink"
  version="1.1"
  width="29.700220cm" height="21.000720cm" viewBox="0 0 116930 82680">
<title>SVG Picture created as BatteryBoost-B_SilkS.svg date 2021/05/16 09:51:59 </title>
  <desc>Picture generated by PCBNEW </desc>
<g style="fill:#000000; fill-opacity:1;stroke:#000000; stroke-opacity:1;
stroke-linecap:round; stroke-linejoin:round;"
 transform="translate(0 0) scale(1 1)">
</g>
<g style="fill:#000000; fill-opacity:0.0; 
stroke:#000000; stroke-width:-0.000393701; stroke-opacity:1; 
stroke-linecap:round; stroke-linejoin:round;">
</g>
<g style="fill:#000000; fill-opacity:0.0; 
stroke:#000000; stroke-width:78.7402; stroke-opacity:1; 
stroke-linecap:round; stroke-linejoin:round;">
<path d="M0 0
L393 0
" />
<path d="M0 393
L0 0
" />
</g>
<g style="fill:#000000; fill-opacity:0.0; 
stroke:#000000; stroke-width:19.685; stroke-opacity:1; 
stroke-linecap:round; stroke-linejoin:round;">
<path d="M1181 15748
L0 14566
" />
<path d="M30708 14566
L29527 15748
" />
<path d="M29527 0
L30708 1181
" />
<path d="M0 1181
L1181 0
" />
<path d="M30708 14566
L30708 1181
" />
<path d="M1181 15748
L29527 15748
" />
<path d="M29527 0
L1181 0
" />
<path d="M0 1181
L0 14566
" />
</g>
<g style="fill:#000000; fill-opacity:0.0; 
stroke:#000000; stroke-width:47.2441; stroke-opacity:1; 
stroke-linecap:round; stroke-linejoin:round;">
<path d="M12795 10433
L11220 10433
" />
<path d="M12795 11417
L12598 11614
" />
<path d="M10826 10826
L10826 11417
" />
<path d="M11220 10433
L10826 10826
" />
<path d="M11417 11614
L11220 11417
" />
<path d="M12598 11614
L11417 11614
" />
<path d="M12007 10826
L11220 11220
" />
<path d="M12007 11023
L12795 11417
" />
<path d="M12795 11220
L12007 10826
" />
<path d="M12204 11417
L12007 11220
" />
<path d="M11614 10629
L11220 10826
" />
<path d="M12795 10826
L12401 10629
" />
<path d="M12401 11417
L12598 11417
" />
<path d="M11811 11417
L12204 11417
" />
<path d="M12007 11220
L11811 11417
" />
<path d="M11614 11417
L11417 11417
" />
<path d="M13188 10826
L12795 10433
" />
<path d="M13188 11417
L13188 10826
" />
<path d="M11220 11023
L12007 10629
" />
<path d="M11220 11417
L12007 11023
" />
<path d="M11220 11811
L12795 11811
" />
<path d="M12007 10629
L12795 11023
" />
<path d="M12401 7086
L12598 7086
" />
<path d="M11614 7086
L11417 7086
" />
<path d="M12204 7086
L11811 7086
" />
<path d="M12007 7283
L12204 7086
" />
<path d="M11811 7086
L12007 7283
" />
<path d="M12401 7874
L12795 7677
" />
<path d="M11220 7677
L11614 7874
" />
<path d="M12007 7874
L11220 7480
" />
<path d="M12795 7480
L12007 7874
" />
<path d="M12007 7677
L12795 7283
" />
<path d="M11220 7283
L12007 7677
" />
<path d="M12007 7480
L11220 7086
" />
<path d="M12795 7086
L12007 7480
" />
<path d="M12598 6889
L12795 7086
" />
<path d="M11417 6889
L12598 6889
" />
<path d="M11220 7086
L11417 6889
" />
<path d="M13188 7677
L13188 7086
" />
<path d="M12795 8070
L13188 7677
" />
<path d="M11220 8070
L12795 8070
" />
<path d="M10826 7677
L11220 8070
" />
<path d="M10826 7086
L10826 7677
" />
<path d="M12795 6692
L11220 6692
" />
<path d="M9251 11417
L9448 11220
" />
<path d="M10433 8464
L10236 8661
" />
<path d="M10433 8070
L10236 8267
" />
<path d="M10236 7480
L10039 7677
" />
<path d="M13582 8070
L13779 8267
" />
<path d="M13582 8464
L13779 8661
" />
<path d="M10826 9448
L11023 9251
" />
<path d="M13188 8464
L13582 8070
" />
<path d="M12598 9251
L12795 9448
" />
<path d="M12795 9055
L12598 9251
" />
<path d="M13582 8858
L10433 8858
" />
<path d="M10039 8070
L10039 8464
" />
<path d="M14173 7480
L14173 8464
" />
<path d="M13582 7086
L13976 7480
" />
<path d="M13582 7677
L13582 7086
" />
<path d="M11614 9448
L11811 9251
" />
<path d="M10433 9055
L10629 9251
" />
<path d="M13779 7677
L13976 7874
" />
<path d="M10236 7677
L10039 7874
" />
<path d="M10236 7480
L10236 7677
" />
<path d="M13976 8070
L13582 7677
" />
<path d="M10039 7480
L10039 7677
" />
<path d="M11023 9251
L10826 9055
" />
<path d="M11811 9251
L11614 9055
" />
<path d="M13779 7480
L13976 7677
" />
<path d="M14566 11220
L14763 11417
" />
<path d="M14566 7283
L14763 7086
" />
<path d="M10826 8464
L13188 8464
" />
<path d="M13385 8661
L10629 8661
" />
<path d="M13779 8661
L13582 8858
" />
<path d="M13385 9251
L13582 9055
" />
<path d="M10433 8858
L10236 8661
" />
<path d="M12401 9055
L12204 9251
" />
<path d="M14370 10039
L13976 9645
" />
<path d="M10433 7086
L10039 7480
" />
<path d="M11417 9251
L11220 9055
" />
<path d="M13779 10236
L13582 10039
" />
<path d="M10433 7086
L10433 7677
" />
<path d="M13976 7480
L13976 7677
" />
<path d="M13188 9055
L12992 9251
" />
<path d="M12992 9251
L13188 9448
" />
<path d="M13779 7480
L13779 7677
" />
<path d="M13582 9448
L13385 9251
" />
<path d="M10039 7086
L10236 7086
" />
<path d="M14173 11023
L14173 10039
" />
<path d="M9645 7480
L9645 8464
" />
<path d="M9645 8464
L10039 8858
" />
<path d="M13976 9251
L13976 8858
" />
<path d="M10433 10433
L10236 10236
" />
<path d="M10826 10039
L10433 10433
" />
<path d="M13582 10433
L13779 10236
" />
<path d="M10039 11220
L9842 11220
" />
<path d="M14370 9842
L14370 8661
" />
<path d="M11023 8267
L10629 7874
" />
<path d="M10236 11417
L10039 11417
" />
<path d="M10433 7677
L10039 8070
" />
<path d="M10039 7283
L9842 7283
" />
<path d="M12204 9251
L12401 9448
" />
<path d="M13779 10826
L13976 10629
" />
<path d="M10236 11023
L10236 10826
" />
<path d="M10236 9842
L10433 9645
" />
<path d="M13779 7086
L13976 7086
" />
<path d="M10433 8070
L10826 8464
" />
<path d="M13976 8464
L13976 8070
" />
<path d="M10629 9251
L10433 9448
" />
<path d="M10433 9645
L13582 9645
" />
<path d="M9842 7480
L9842 8464
" />
<path d="M9842 12007
L10039 11811
" />
<path d="M11220 9448
L11417 9251
" />
<path d="M13582 10826
L13976 10433
" />
<path d="M10039 9645
L9645 10039
" />
<path d="M13582 9645
L13779 9842
" />
<path d="M12992 8267
L11023 8267
" />
<path d="M13976 10433
L13976 10039
" />
<path d="M10039 9251
L10039 9645
" />
<path d="M9842 11023
L9842 10039
" />
<path d="M14370 11023
L14370 10039
" />
<path d="M10236 11614
L10629 11614
" />
<path d="M13188 10039
L10826 10039
" />
<path d="M10629 7874
L10629 6889
" />
<path d="M10433 10039
L10236 9842
" />
<path d="M13779 6889
L13385 6889
" />
<path d="M13582 11417
L13976 11023
" />
<path d="M13976 11023
L13976 10826
" />
<path d="M10039 10433
L10433 10826
" />
<path d="M9645 10039
L9645 11023
" />
<path d="M10039 8858
L10039 9251
" />
<path d="M13976 6692
L14173 6496
" />
<path d="M14173 12007
L13976 11811
" />
<path d="M13976 7283
L14173 7283
" />
<path d="M10236 10236
L10433 10039
" />
<path d="M13582 11417
L13582 10826
" />
<path d="M13582 10039
L13779 9842
" />
<path d="M10629 9842
L13385 9842
" />
<path d="M13582 10433
L13188 10039
" />
<path d="M10236 8267
L10433 8464
" />
<path d="M13976 11220
L14173 11220
" />
<path d="M9448 7283
L9251 7086
" />
<path d="M10236 10826
L10039 10629
" />
<path d="M10039 10039
L10039 10433
" />
<path d="M10433 10826
L10433 11417
" />
<path d="M13385 7874
L12992 8267
" />
<path d="M13779 11023
L13779 10826
" />
<path d="M13976 9645
L13976 9251
" />
<path d="M14370 8464
L14370 7480
" />
<path d="M13779 8267
L13582 8464
" />
<path d="M13779 11023
L13976 10826
" />
<path d="M13976 8858
L14370 8464
" />
<path d="M13385 10629
L13385 11614
" />
<path d="M10629 11614
L10629 10629
" />
<path d="M10236 11023
L10039 10826
" />
<path d="M9842 9645
L9842 8858
" />
<path d="M9645 9842
L9645 8661
" />
<path d="M11023 10236
L12992 10236
" />
<path d="M9448 10236
L9448 8267
" />
<path d="M10039 11023
L10039 10826
" />
<path d="M10039 6692
L9842 6496
" />
<path d="M10629 10629
L11023 10236
" />
<path d="M10629 6889
L10236 6889
" />
<path d="M14173 8858
L14173 9645
" />
<path d="M13976 11417
L13779 11417
" />
<path d="M13385 6889
L13385 7874
" />
<path d="M14566 8464
L14566 8267
" />
<path d="M13385 11614
L13779 11614
" />
<path d="M14566 10236
L14566 8464
" />
<path d="M10433 11417
L10039 11023
" />
<path d="M12992 10236
L13385 10629
" />
<path d="M12795.3 11811 A393.701 393.701 0.0 0 0 13189 11417.3" />
<path d="M10826.8 11417.3 A393.701 393.701 0.0 0 0 11220.5 11811" />
<path d="M13189 7086.61 A393.701 393.701 0.0 0 0 12795.3 6692.91" />
<path d="M11220.5 6692.91 A393.701 393.701 0.0 0 0 10826.8 7086.61" />
<path d="M13385.8 6889.76 A393.701 393.701 0.0 0 0 12992.1 6496.06" />
<path d="M9645.67 11023.6 A590.551 590.551 0.0 0 0 10236.2 11614.2" />
<path d="M9448.82 11220.5 A590.551 590.551 0.0 0 0 10039.4 11811" />
<path d="M13779.5 11614.2 A590.551 590.551 0.0 0 0 14370.1 11023.6" />
<path d="M14370.1 7480.31 A590.551 590.551 0.0 0 0 13779.5 6889.76" />
<path d="M14566.9 7283.46 A590.551 590.551 0.0 0 0 13976.4 6692.91" />
<path d="M14173.2 12007.9 A590.551 590.551 0.0 0 0 14763.8 11417.3" />
<path d="M10629.9 11614.2 A393.701 393.701 0.0 0 0 11023.6 12007.9" />
<path d="M14763.8 7086.61 A590.551 590.551 0.0 0 0 14173.2 6496.06" />
<path d="M9842.52 6496.06 A590.551 590.551 0.0 0 0 9251.97 7086.61" />
<path d="M9251.97 11417.3 A590.551 590.551 0.0 0 0 9842.52 12007.9" />
<path d="M11023.6 6496.06 A393.701 393.701 0.0 0 0 10629.9 6889.76" />
<path d="M13976.4 11811 A590.551 590.551 0.0 0 0 14566.9 11220.5" />
<path d="M10236.2 6889.76 A590.551 590.551 0.0 0 0 9645.67 7480.31" />
<path d="M12992.1 12007.9 A393.701 393.701 0.0 0 0 13385.8 11614.2" />
<path d="M10039.4 6692.91 A590.551 590.551 0.0 0 0 9448.82 7283.46" />
<path d="M14173 3149
L14566 3543
" />
<path d="M14173 3543
L14173 3149
" />
<path d="M14566 3543
L14173 3543
" />
<path d="M18110 3543
L17716 3543
" />
<path d="M18110 3149
L18110 3543
" />
<path d="M17716 3543
L18110 3149
" />
<path d="M14566 5118
L14960 5118
" />
<path d="M14173 5511
L16141 5511
" />
<path d="M16929 3937
L16535 3543
" />
<path d="M15354 5118
L14960 4724
" />
<path d="M18690 0
L13592 0
" />
<path d="M13592 2480
L13779 5118
" />
<path d="M17716 3149
L18690 2480
" />
<path d="M15748 5118
L15354 5118
" />
<path d="M18503 5118
L18110 5511
" />
<path d="M18690 2480
L18503 5118
" />
<path d="M13592 0
L13592 2480
" />
<path d="M13592 2480
L18690 2480
" />
<path d="M14960 3543
L14566 3149
" />
<path d="M19291 1574
L18690 2480
" />
<path d="M14960 4724
L14960 3543
" />
<path d="M16929 5118
L17322 4724
" />
<path d="M18690 0
L18690 2480
" />
<path d="M16535 3543
L15748 3543
" />
<path d="M16929 3937
L15748 3149
" />
<path d="M14566 2755
L17716 2755
" />
<path d="M15354 3543
L14566 2755
" />
<path d="M14566 3149
L13592 2480
" />
<path d="M16141 1968
L18690 0
" />
<path d="M15748 3149
L16535 3149
" />
<path d="M19291 393
L19291 1574
" />
<path d="M14173 1968
L13779 2362
" />
<path d="M18110 787
L18503 787
" />
<path d="M16141 2362
L13592 0
" />
<path d="M13385 393
L13385 1574
" />
<path d="M17322 3543
L17716 3149
" />
<path d="M16141 5511
L15748 5118
" />
<path d="M17716 5118
L17322 5118
" />
<path d="M14960 1968
L14173 1968
" />
<path d="M16535 3149
L15354 3937
" />
<path d="M14960 5118
L15354 5511
" />
<path d="M16929 5511
L15748 5511
" />
<path d="M13779 5511
L13385 5118
" />
<path d="M12992 393
L12992 1574
" />
<path d="M13385 0
L13385 393
" />
<path d="M13385 2755
L13385 5118
" />
<path d="M18897 5118
L18503 5511
" />
<path d="M18897 1574
L18690 2480
" />
<path d="M17322 5118
L16929 5511
" />
<path d="M15748 3543
L15354 3937
" />
<path d="M15354 3937
L15354 3543
" />
<path d="M17716 2755
L16929 3543
" />
<path d="M16929 3543
L16929 3937
" />
<path d="M14566 1181
L13779 1181
" />
<path d="M14960 1574
L14173 1574
" />
<path d="M13592 0
L16141 1968
" />
<path d="M18897 1574
L18897 393
" />
<path d="M13779 5118
L14173 5511
" />
<path d="M17322 1968
L18110 1968
" />
<path d="M16535 5118
L16929 5118
" />
<path d="M18897 2755
L18897 5118
" />
<path d="M18110 5511
L16141 5511
" />
<path d="M14566 393
L14960 393
" />
<path d="M15354 1968
L14960 1574
" />
<path d="M15354 5511
L14960 5118
" />
<path d="M16141 5511
L16535 5118
" />
<path d="M17322 4724
L17322 3543
" />
<path d="M16929 1968
L17322 1574
" />
<path d="M16929 4330
L16929 4724
" />
<path d="M17716 1181
L18503 1181
" />
<path d="M18897 393
L18897 0
" />
<path d="M17716 393
L17322 393
" />
<path d="M14960 393
L15354 0
" />
<path d="M15354 4330
L15354 4724
" />
<path d="M19685 393
L19291 0
" />
<path d="M12992 1574
L13592 2480
" />
<path d="M18110 1968
L18503 2362
" />
<path d="M13385 1574
L13592 2480
" />
<path d="M18690 0
L16141 2362
" />
<path d="M17322 1574
L18110 1574
" />
<path d="M14173 787
L13779 787
" />
<path d="M12598 393
L12992 0
" />
<path d="M17322 393
L16929 0
" />
<path d="M27755 4133
L27755 3937
" />
<path d="M28543 7677
L28543 7874
" />
<path d="M28346 7677
L28346 7874
" />
<path d="M28346 7874
L28149 7677
" />
<path d="M26771 7874
L26574 7677
" />
<path d="M28740 3937
L28543 4133
" />
<path d="M27559 4133
L27559 3937
" />
<path d="M26968 4133
L26968 3937
" />
<path d="M27559 3937
L27362 4133
" />
<path d="M27559 7677
L27559 7874
" />
<path d="M26574 7874
L26377 7677
" />
<path d="M26377 7677
L26377 7874
" />
<path d="M29330 4330
L28937 3937
" />
<path d="M28346 4133
L28346 3937
" />
<path d="M28976 7480
L26102 7480
" />
<path d="M29133 4330
L29133 7480
" />
<path d="M27755 3937
L27559 4133
" />
<path d="M27952 4133
L27952 3937
" />
<path d="M28976 4330
L26102 4330
" />
<path d="M26771 4133
L26771 3937
" />
<path d="M28149 3937
L27952 4133
" />
<path d="M28149 4133
L28149 3937
" />
<path d="M26968 3937
L26771 4133
" />
<path d="M27362 4133
L27362 3937
" />
<path d="M27165 4133
L27165 3937
" />
<path d="M26377 3937
L26181 4133
" />
<path d="M28740 7874
L28543 7677
" />
<path d="M28149 7677
L28149 7874
" />
<path d="M27952 7677
L27952 7874
" />
<path d="M27755 7677
L27755 7874
" />
<path d="M28543 7874
L28346 7677
" />
<path d="M26574 4133
L26574 3937
" />
<path d="M27559 7874
L27362 7677
" />
<path d="M27362 7677
L27362 7874
" />
<path d="M26771 3937
L26574 4133
" />
<path d="M27165 3937
L26968 4133
" />
<path d="M26377 4133
L26377 3937
" />
<path d="M26102 4330
L26102 7480
" />
<path d="M28937 4133
L29133 4330
" />
<path d="M27755 7874
L27559 7677
" />
<path d="M27362 7874
L27165 7677
" />
<path d="M28543 4133
L28543 3937
" />
<path d="M27165 7677
L27165 7874
" />
<path d="M26968 7677
L26968 7874
" />
<path d="M26968 7874
L26771 7677
" />
<path d="M26771 7677
L26771 7874
" />
<path d="M26574 7677
L26574 7874
" />
<path d="M26377 7874
L26181 7677
" />
<path d="M27952 3937
L27755 4133
" />
<path d="M28543 3937
L28346 4133
" />
<path d="M28346 3937
L28149 4133
" />
<path d="M26574 3937
L26377 4133
" />
<path d="M27165 7874
L26968 7677
" />
<path d="M29527 5708
L30511 5708
" />
<path d="M29527 6102
L30511 6102
" />
<path d="M28976 5905
L28976 4330
" />
<path d="M27362 3937
L27165 4133
" />
<path d="M27952 7874
L27755 7677
" />
<path d="M28149 7874
L27952 7677
" />
<path d="M29330 7480
L28937 7874
" />
<path d="M29330 5905
L30511 5905
" />
<path d="M28976 5905
L28976 7480
" />
<path d="M29527 4330
L30511 4330
" />
<path d="M29133 7480
L28937 7677
" />
<path d="M29527 7480
L30511 7480
" />
<path d="M29527 7677
L29330 7874
" />
<path d="M29330 6102
L29330 7283
" />
<path d="M29527 4133
L29330 3937
" />
<path d="M29330 5708
L29330 4527
" />
<path d="M28543 4527
L28740 4724
" />
<path d="M26377 4724
L26968 4527
" />
<path d="M28346 4527
L28740 4921
" />
<path d="M28149 4527
L28740 5118
" />
<path d="M28740 7086
L28543 7283
" />
<path d="M28149 7283
L28740 6692
" />
<path d="M28346 5905
L28740 5511
" />
<path d="M28740 6299
L28346 5905
" />
<path d="M28149 6102
L28346 5905
" />
<path d="M28149 5708
L28346 5905
" />
<path d="M28346 5905
L28149 5708
" />
<path d="M28149 5708
L28740 5511
" />
<path d="M28149 6102
L28740 6299
" />
<path d="M28346 7283
L28740 6889
" />
<path d="M28740 5511
L28740 6299
" />
<path d="M30314 6299
L29527 6102
" />
<path d="M30511 5708
L30314 5511
" />
<path d="M30314 5511
L29527 5708
" />
<path d="M26377 4724
L26771 4921
" />
<path d="M30511 7480
L30314 7283
" />
<path d="M30314 7283
L29527 7480
" />
<path d="M26377 7086
L26771 6889
" />
<path d="M30511 4330
L30314 4527
" />
<path d="M30314 4527
L29527 4330
" />
<path d="M30511 6102
L30314 6299
" />
<path d="M26377 4724
L26968 4724
" />
<path d="M26377 7086
L26968 7283
" />
<path d="M26377 7086
L26968 7086
" />
<path d="M9055 4330
L9055 3740
" />
<path d="M9055 4330
L9251 3740
" />
<path d="M6692 4330
L6692 3740
" />
<path d="M8070 196
L8267 393
" />
<path d="M6496 393
L6299 1181
" />
<path d="M6299 196
L6496 393
" />
<path d="M9055 4330
L8858 3937
" />
<path d="M9251 393
L9448 1181
" />
<path d="M9448 196
L9251 393
" />
<path d="M6692 4330
L6889 3937
" />
<path d="M7480 393
L7677 1181
" />
<path d="M7677 196
L7480 393
" />
<path d="M8267 393
L8070 1181
" />
<path d="M7480 1968
L8267 1968
" />
<path d="M9251 2362
L8858 1968
" />
<path d="M8070 2559
L8267 1968
" />
<path d="M7677 2559
L7480 1968
" />
<path d="M7874 2362
L7677 2559
" />
<path d="M7677 2559
L7874 2362
" />
<path d="M8070 2559
L7874 2362
" />
<path d="M8267 1968
L7874 2362
" />
<path d="M7874 2362
L7480 1968
" />
<path d="M9251 2559
L8661 1968
" />
<path d="M9055 1968
L9251 2165
" />
<path d="M6496 2559
L7086 1968
" />
<path d="M6496 2362
L6889 1968
" />
<path d="M6692 4330
L6496 3740
" />
<path d="M6496 2165
L6692 1968
" />
<path d="M7677 1377
L6496 1377
" />
<path d="M6102 1181
L5905 1377
" />
<path d="M8070 1377
L9251 1377
" />
<path d="M9645 1181
L9842 1377
" />
<path d="M9448 1181
L9448 196
" />
<path d="M9448 1574
L9645 1771
" />
<path d="M6299 1181
L6299 196
" />
<path d="M7874 1732
L9448 1732
" />
<path d="M7874 1377
L7874 196
" />
<path d="M9448 1377
L9842 1771
" />
<path d="M9842 2559
L9645 2755
" />
<path d="M9842 2755
L9645 2952
" />
<path d="M5905 3346
L6102 3543
" />
<path d="M7874 1732
L6299 1732
" />
<path d="M8070 1181
L8070 196
" />
<path d="M7677 1181
L7677 196
" />
<path d="M9842 3543
L9645 3740
" />
<path d="M5905 4133
L6102 4330
" />
<path d="M5905 2362
L6102 2559
" />
<path d="M5905 2165
L6102 2362
" />
<path d="M5905 2755
L6102 2952
" />
<path d="M9842 4330
L9645 4527
" />
<path d="M9645 4133
L9842 4133
" />
<path d="M9645 3937
L9842 3937
" />
<path d="M9842 3740
L9645 3937
" />
<path d="M9645 3740
L9842 3740
" />
<path d="M9645 3543
L9842 3543
" />
<path d="M6102 2165
L5905 2165
" />
<path d="M9842 3346
L9645 3543
" />
<path d="M9842 2952
L9645 3149
" />
<path d="M6102 1771
L6299 1574
" />
<path d="M6299 4606
L9448 4606
" />
<path d="M6102 4330
L5905 4330
" />
<path d="M5905 3543
L6102 3740
" />
<path d="M5905 3937
L6102 4133
" />
<path d="M9645 3346
L9842 3346
" />
<path d="M9842 3149
L9645 3346
" />
<path d="M6102 4133
L5905 4133
" />
<path d="M9842 2165
L9645 2362
" />
<path d="M9645 2952
L9842 2952
" />
<path d="M9645 2755
L9842 2755
" />
<path d="M9645 2559
L9842 2559
" />
<path d="M9842 1968
L9645 2165
" />
<path d="M5905 4330
L6102 4527
" />
<path d="M6102 3543
L5905 3543
" />
<path d="M6102 3346
L5905 3346
" />
<path d="M5905 3740
L6102 3937
" />
<path d="M6102 2559
L5905 2559
" />
<path d="M5905 2559
L6102 2755
" />
<path d="M6102 3937
L5905 3937
" />
<path d="M6299 1732
L6299 4606
" />
<path d="M6102 2755
L5905 2755
" />
<path d="M5905 2952
L6102 3149
" />
<path d="M6299 1574
L9448 1574
" />
<path d="M9448 1732
L9448 4606
" />
<path d="M6102 2362
L5905 2362
" />
<path d="M6299 1377
L5905 1771
" />
<path d="M9645 4330
L9842 4330
" />
<path d="M9842 4133
L9645 4330
" />
<path d="M9645 3149
L9842 3149
" />
<path d="M5905 3149
L6102 3346
" />
<path d="M6102 3740
L5905 3740
" />
<path d="M6102 3149
L5905 3149
" />
<path d="M5905 1968
L6102 2165
" />
<path d="M9842 3937
L9645 4133
" />
<path d="M9842 2362
L9645 2559
" />
<path d="M9645 2362
L9842 2362
" />
<path d="M9645 2165
L9842 2165
" />
<path d="M6102 2952
L5905 2952
" />
<path d="M2952 4330
L3149 4527
" />
<path d="M984 4330
L787 4527
" />
<path d="M984 8267
L787 8070
" />
<path d="M1181 4330
L984 4330
" />
<path d="M2755 4330
L2952 4330
" />
<path d="M1181 8267
L984 8267
" />
<path d="M1023 4429
L2755 4429
" />
<path d="M2755 8169
L2755 4429
" />
<path d="M1023 4429
L1023 8169
" />
<path d="M1023 8169
L2755 8169
" />
<path d="M3149 7874
L3149 7677
" />
<path d="M3149 8070
L3149 7874
" />
<path d="M3149 7677
L2952 7480
" />
<path d="M3149 4921
L2952 5118
" />
<path d="M3149 4724
L3149 4921
" />
<path d="M3149 4527
L3149 4724
" />
<path d="M2952 8267
L3149 8070
" />
<path d="M2952 7677
L2952 8070
" />
<path d="M2952 5314
L2952 7283
" />
<path d="M2952 8267
L2755 8267
" />
<path d="M3149 5118
L3149 7480
" />
<path d="M2559 4133
L1377 4133
" />
<path d="M2952 4527
L2952 4921
" />
<path d="M1574 4330
L2362 4330
" />
<path d="M1377 8464
L2559 8464
" />
<path d="M1574 8267
L2362 8267
" />
<path d="M787 5511
L590 5511
" />
<path d="M590 6692
L787 6692
" />
<path d="M787 6692
L590 6889
" />
<path d="M590 6889
L787 6889
" />
<path d="M787 6889
L590 7086
" />
<path d="M590 7086
L787 7086
" />
<path d="M787 6496
L590 6692
" />
<path d="M787 7874
L590 7677
" />
<path d="M787 4724
L590 4921
" />
<path d="M787 7677
L787 7086
" />
<path d="M787 4921
L787 5511
" />
<path d="M787 6299
L590 6102
" />
<path d="M590 6102
L590 6496
" />
<path d="M590 6496
L787 6299
" />
<path d="M393 6299
L590 6102
" />
<path d="M393 6299
L590 6496
" />
<path d="M590 5511
L787 5708
" />
<path d="M787 5708
L590 5708
" />
<path d="M590 5708
L787 5905
" />
<path d="M787 5905
L590 5905
" />
<path d="M590 5905
L787 6102
" />
<path d="M590 5314
L787 4921
" />
<path d="M590 5314
L590 5511
" />
<path d="M590 7086
L590 7283
" />
<path d="M590 7283
L787 7677
" />
<path d="M196 6299
L590 5314
" />
<path d="M196 6299
L590 7283
" />
<path d="M393 6496
L590 7283
" />
<path d="M393 6102
L590 5314
" />
<g >
</g>
<g >
</g>
<g >
</g>
<g >
</g>
<g >
</g>
<g >
</g>
<g >
</g>
<g >
</g>
<g >
</g>
<g >
</g>
<g >
</g>
<g >
</g>
<g >
</g>
<g >
</g>
<g >
</g>
<g >
</g>
<g >
</g>
<g >
</g>
<g >
</g>
<g >
</g>
<g >
</g>
<g >
</g>
<g >
</g>
<g >
</g>
<g >
</g>
<g >
</g>
<g >
</g>
<g >
</g>
<g >
</g>
<g >
</g>
<g >
</g>
<g >
</g>
<g >
</g>
<g >
</g>
<g >
</g>
<g >
</g>
<g >
</g>
<g >
</g>
<g >
</g>
<g >
</g>
<g >
</g>
</g> 
</svg>
