<?xml version="1.0" standalone="no"?>
 <!DOCTYPE svg PUBLIC "-//W3C//DTD SVG 1.1//EN" 
 "http://www.w3.org/Graphics/SVG/1.1/DTD/svg11.dtd"> 
<svg
  xmlns:svg="http://www.w3.org/2000/svg"
  xmlns="http://www.w3.org/2000/svg"
  xmlns:xlink="http://www.w3.org/1999/xlink"
  version="1.1"
  width="29.700220cm" height="21.000720cm" viewBox="0 0 116930 82680">
<title>SVG Picture created as BatteryBoost-B_Cu.svg date 2021/05/16 09:51:59 </title>
  <desc>Picture generated by PCBNEW </desc>
<g style="fill:#000000; fill-opacity:1;stroke:#000000; stroke-opacity:1;
stroke-linecap:round; stroke-linejoin:round;"
 transform="translate(0 0) scale(1 1)">
</g>
<g style="fill:#000000; fill-opacity:0.0; 
stroke:#000000; stroke-width:-0.000393701; stroke-opacity:1; 
stroke-linecap:round; stroke-linejoin:round;">
</g>
<g style="fill:#000000; fill-opacity:0.0; 
stroke:#000000; stroke-width:78.7402; stroke-opacity:1; 
stroke-linecap:round; stroke-linejoin:round;">
<path d="M0 0
L393 0
" />
<path d="M0 393
L0 0
" />
</g>
<g style="fill:#000000; fill-opacity:0.0; 
stroke:#000000; stroke-width:19.685; stroke-opacity:1; 
stroke-linecap:round; stroke-linejoin:round;">
<path d="M1181 15748
L0 14566
" />
<path d="M30708 14566
L29527 15748
" />
<path d="M29527 0
L30708 1181
" />
<path d="M0 1181
L1181 0
" />
<path d="M30708 14566
L30708 1181
" />
<path d="M1181 15748
L29527 15748
" />
<path d="M29527 0
L1181 0
" />
<path d="M0 1181
L0 14566
" />
<g >
</g>
<g >
</g>
<g >
</g>
<g >
</g>
<g >
</g>
<g >
</g>
<g >
</g>
<g >
</g>
<g >
</g>
<g >
</g>
<g style="fill:#000000; fill-opacity:0.0; 
stroke:#000000; stroke-width:19.685; stroke-opacity:1; 
stroke-linecap:round; stroke-linejoin:round;">
</g>
<g style="fill:#000000; fill-opacity:1.0; 
stroke:#000000; stroke-width:0; stroke-opacity:1; 
stroke-linecap:round; stroke-linejoin:round;">
<circle cx="21653.5" cy="11614.2" r="314.961" /> 
</g>
<g style="fill:#000000; fill-opacity:1.0; 
stroke:#000000; stroke-width:39.3701; stroke-opacity:1; 
stroke-linecap:round; stroke-linejoin:round;">
</g>
<g style="fill:#000000; fill-opacity:1.0; 
stroke:#000000; stroke-width:0; stroke-opacity:1; 
stroke-linecap:round; stroke-linejoin:round;">
<path style="fill:#000000; fill-opacity:1.0; 
stroke:#000000; stroke-width:0; stroke-opacity:1; 
stroke-linecap:round; stroke-linejoin:round;fill-rule:evenodd;"
d="M 21338.6,10511.8
21968.5,10511.8
21968.5,11141.7
21338.6,11141.7
Z" /> 
</g>
<g >
</g>
<g style="fill:#000000; fill-opacity:1.0; 
stroke:#000000; stroke-width:0; stroke-opacity:1; 
stroke-linecap:round; stroke-linejoin:round;">
<circle cx="4330.71" cy="6299.21" r="314.961" /> 
</g>
<g style="fill:#000000; fill-opacity:1.0; 
stroke:#000000; stroke-width:39.3701; stroke-opacity:1; 
stroke-linecap:round; stroke-linejoin:round;">
</g>
<g style="fill:#000000; fill-opacity:1.0; 
stroke:#000000; stroke-width:0; stroke-opacity:1; 
stroke-linecap:round; stroke-linejoin:round;">
<path style="fill:#000000; fill-opacity:1.0; 
stroke:#000000; stroke-width:0; stroke-opacity:1; 
stroke-linecap:round; stroke-linejoin:round;fill-rule:evenodd;"
d="M 5433.07,5984.25
5433.07,6614.17
4803.15,6614.17
4803.15,5984.25
Z" /> 
</g>
<g >
</g>
<g style="fill:#000000; fill-opacity:1.0; 
stroke:#000000; stroke-width:0; stroke-opacity:1; 
stroke-linecap:round; stroke-linejoin:round;">
<circle cx="5511.81" cy="9645.67" r="393.701" /> 
</g>
<g style="fill:#000000; fill-opacity:1.0; 
stroke:#000000; stroke-width:39.3701; stroke-opacity:1; 
stroke-linecap:round; stroke-linejoin:round;">
</g>
<g style="fill:#000000; fill-opacity:1.0; 
stroke:#000000; stroke-width:0; stroke-opacity:1; 
stroke-linecap:round; stroke-linejoin:round;">
<path style="fill:#000000; fill-opacity:1.0; 
stroke:#000000; stroke-width:0; stroke-opacity:1; 
stroke-linecap:round; stroke-linejoin:round;fill-rule:evenodd;"
d="M 7874.02,9251.97
7874.02,10039.4
7086.61,10039.4
7086.61,9251.97
Z" /> 
</g>
<g >
</g>
<g >
</g>
<g >
</g>
<g >
</g>
<g style="fill:#000000; fill-opacity:1.0; 
stroke:#000000; stroke-width:0; stroke-opacity:1; 
stroke-linecap:round; stroke-linejoin:round;">
</g>
<g style="fill:#000000; fill-opacity:1.0; 
stroke:#000000; stroke-width:905.512; stroke-opacity:1; 
stroke-linecap:round; stroke-linejoin:round;">
</g>
<g style="fill:#000000; fill-opacity:0.0; 
stroke:#000000; stroke-width:905.512; stroke-opacity:1; 
stroke-linecap:round; stroke-linejoin:round;">
<path d="M14291 4232
L14291 4507
" />
<path d="M16141 4232
L16141 4507
" />
<path d="M17992 4232
L17992 4507
" />
</g>
<g >
</g>
<g style="fill:#000000; fill-opacity:0.0; 
stroke:#000000; stroke-width:905.512; stroke-opacity:1; 
stroke-linecap:round; stroke-linejoin:round;">
</g>
<g style="fill:#000000; fill-opacity:1.0; 
stroke:#000000; stroke-width:0; stroke-opacity:1; 
stroke-linecap:round; stroke-linejoin:round;">
<circle cx="27559.1" cy="6655.51" r="531.496" /> 
</g>
<g style="fill:#000000; fill-opacity:1.0; 
stroke:#000000; stroke-width:39.3701; stroke-opacity:1; 
stroke-linecap:round; stroke-linejoin:round;">
</g>
<g style="fill:#000000; fill-opacity:1.0; 
stroke:#000000; stroke-width:0; stroke-opacity:1; 
stroke-linecap:round; stroke-linejoin:round;">
<circle cx="27559.1" cy="5155.51" r="531.496" /> 
</g>
<g style="fill:#000000; fill-opacity:1.0; 
stroke:#000000; stroke-width:39.3701; stroke-opacity:1; 
stroke-linecap:round; stroke-linejoin:round;">
</g>
<g >
</g>
<g style="fill:#000000; fill-opacity:1.0; 
stroke:#000000; stroke-width:39.3701; stroke-opacity:1; 
stroke-linecap:round; stroke-linejoin:round;">
</g>
<g style="fill:#000000; fill-opacity:1.0; 
stroke:#000000; stroke-width:0; stroke-opacity:1; 
stroke-linecap:round; stroke-linejoin:round;">
<circle cx="7124.02" cy="3149.61" r="531.496" /> 
</g>
<g style="fill:#000000; fill-opacity:1.0; 
stroke:#000000; stroke-width:39.3701; stroke-opacity:1; 
stroke-linecap:round; stroke-linejoin:round;">
</g>
<g style="fill:#000000; fill-opacity:1.0; 
stroke:#000000; stroke-width:0; stroke-opacity:1; 
stroke-linecap:round; stroke-linejoin:round;">
<circle cx="8624.02" cy="3149.61" r="531.496" /> 
</g>
<g style="fill:#000000; fill-opacity:1.0; 
stroke:#000000; stroke-width:39.3701; stroke-opacity:1; 
stroke-linecap:round; stroke-linejoin:round;">
</g>
<g >
</g>
<g style="fill:#000000; fill-opacity:1.0; 
stroke:#000000; stroke-width:39.3701; stroke-opacity:1; 
stroke-linecap:round; stroke-linejoin:round;">
</g>
<g style="fill:#000000; fill-opacity:1.0; 
stroke:#000000; stroke-width:433.071; stroke-opacity:1; 
stroke-linecap:round; stroke-linejoin:round;">
</g>
<g style="fill:#000000; fill-opacity:0.0; 
stroke:#000000; stroke-width:433.071; stroke-opacity:1; 
stroke-linecap:round; stroke-linejoin:round;">
<path d="M21417 728
L21417 1003
" />
</g>
<g style="fill:#000000; fill-opacity:1.0; 
stroke:#000000; stroke-width:0; stroke-opacity:1; 
stroke-linecap:round; stroke-linejoin:round;">
<circle cx="21879.9" cy="1968.5" r="253.937" /> 
</g>
<g style="fill:#000000; fill-opacity:1.0; 
stroke:#000000; stroke-width:39.3701; stroke-opacity:1; 
stroke-linecap:round; stroke-linejoin:round;">
</g>
<g style="fill:#000000; fill-opacity:1.0; 
stroke:#000000; stroke-width:0; stroke-opacity:1; 
stroke-linecap:round; stroke-linejoin:round;">
<circle cx="23789.4" cy="1968.5" r="253.937" /> 
</g>
<g style="fill:#000000; fill-opacity:1.0; 
stroke:#000000; stroke-width:39.3701; stroke-opacity:1; 
stroke-linecap:round; stroke-linejoin:round;">
</g>
<g style="fill:#000000; fill-opacity:1.0; 
stroke:#000000; stroke-width:433.071; stroke-opacity:1; 
stroke-linecap:round; stroke-linejoin:round;">
</g>
<g style="fill:#000000; fill-opacity:0.0; 
stroke:#000000; stroke-width:433.071; stroke-opacity:1; 
stroke-linecap:round; stroke-linejoin:round;">
<path d="M21417 728
L21417 1003
" />
<path d="M24251 1003
L24251 728
" />
</g>
<g >
</g>
<g >
</g>
<g style="fill:#000000; fill-opacity:0.0; 
stroke:#000000; stroke-width:433.071; stroke-opacity:1; 
stroke-linecap:round; stroke-linejoin:round;">
</g>
<g style="fill:#000000; fill-opacity:1.0; 
stroke:#000000; stroke-width:0; stroke-opacity:1; 
stroke-linecap:round; stroke-linejoin:round;">
<circle cx="1968.5" cy="5299.21" r="354.331" /> 
</g>
<g style="fill:#000000; fill-opacity:1.0; 
stroke:#000000; stroke-width:39.3701; stroke-opacity:1; 
stroke-linecap:round; stroke-linejoin:round;">
</g>
<g style="fill:#000000; fill-opacity:1.0; 
stroke:#000000; stroke-width:0; stroke-opacity:1; 
stroke-linecap:round; stroke-linejoin:round;">
<circle cx="1968.5" cy="6299.21" r="354.331" /> 
</g>
<g style="fill:#000000; fill-opacity:1.0; 
stroke:#000000; stroke-width:39.3701; stroke-opacity:1; 
stroke-linecap:round; stroke-linejoin:round;">
</g>
<g style="fill:#000000; fill-opacity:1.0; 
stroke:#000000; stroke-width:0; stroke-opacity:1; 
stroke-linecap:round; stroke-linejoin:round;">
<circle cx="1968.5" cy="7299.21" r="354.331" /> 
</g>
<g style="fill:#000000; fill-opacity:1.0; 
stroke:#000000; stroke-width:39.3701; stroke-opacity:1; 
stroke-linecap:round; stroke-linejoin:round;">
</g>
<g >
</g>
<g >
</g>
<g >
</g>
<g >
</g>
<g >
</g>
<g >
</g>
<g >
</g>
<g >
</g>
<g >
</g>
<g >
</g>
<g >
</g>
<g >
</g>
<g >
</g>
<g >
</g>
<g >
</g>
<g >
</g>
<g style="fill:#000000; fill-opacity:1.0; 
stroke:#000000; stroke-width:39.3701; stroke-opacity:1; 
stroke-linecap:round; stroke-linejoin:round;">
</g>
<g style="fill:#000000; fill-opacity:1.0; 
stroke:#000000; stroke-width:0; stroke-opacity:1; 
stroke-linecap:round; stroke-linejoin:round;">
<circle cx="1968.5" cy="13779.5" r="1102.36" /> 
</g>
<g style="fill:#000000; fill-opacity:1.0; 
stroke:#000000; stroke-width:39.3701; stroke-opacity:1; 
stroke-linecap:round; stroke-linejoin:round;">
</g>
<g style="fill:#000000; fill-opacity:1.0; 
stroke:#000000; stroke-width:0; stroke-opacity:1; 
stroke-linecap:round; stroke-linejoin:round;">
<circle cx="1968.5" cy="13779.5" r="708.661" /> 
</g>
<g style="fill:#000000; fill-opacity:1.0; 
stroke:#000000; stroke-width:39.3701; stroke-opacity:1; 
stroke-linecap:round; stroke-linejoin:round;">
</g>
<g >
</g>
<g style="fill:#000000; fill-opacity:1.0; 
stroke:#000000; stroke-width:39.3701; stroke-opacity:1; 
stroke-linecap:round; stroke-linejoin:round;">
</g>
<g style="fill:#000000; fill-opacity:1.0; 
stroke:#000000; stroke-width:0; stroke-opacity:1; 
stroke-linecap:round; stroke-linejoin:round;">
<circle cx="28740.2" cy="1968.5" r="1102.36" /> 
</g>
<g style="fill:#000000; fill-opacity:1.0; 
stroke:#000000; stroke-width:39.3701; stroke-opacity:1; 
stroke-linecap:round; stroke-linejoin:round;">
</g>
<g style="fill:#000000; fill-opacity:1.0; 
stroke:#000000; stroke-width:0; stroke-opacity:1; 
stroke-linecap:round; stroke-linejoin:round;">
<circle cx="28740.2" cy="1968.5" r="708.661" /> 
</g>
<g style="fill:#000000; fill-opacity:1.0; 
stroke:#000000; stroke-width:39.3701; stroke-opacity:1; 
stroke-linecap:round; stroke-linejoin:round;">
</g>
<g >
</g>
<g style="fill:#000000; fill-opacity:1.0; 
stroke:#000000; stroke-width:39.3701; stroke-opacity:1; 
stroke-linecap:round; stroke-linejoin:round;">
</g>
<g style="fill:#000000; fill-opacity:1.0; 
stroke:#000000; stroke-width:0; stroke-opacity:1; 
stroke-linecap:round; stroke-linejoin:round;">
<circle cx="28740.2" cy="13779.5" r="1102.36" /> 
</g>
<g style="fill:#000000; fill-opacity:1.0; 
stroke:#000000; stroke-width:39.3701; stroke-opacity:1; 
stroke-linecap:round; stroke-linejoin:round;">
</g>
<g style="fill:#000000; fill-opacity:1.0; 
stroke:#000000; stroke-width:0; stroke-opacity:1; 
stroke-linecap:round; stroke-linejoin:round;">
<circle cx="28740.2" cy="13779.5" r="708.661" /> 
</g>
<g style="fill:#000000; fill-opacity:1.0; 
stroke:#000000; stroke-width:39.3701; stroke-opacity:1; 
stroke-linecap:round; stroke-linejoin:round;">
</g>
<g >
</g>
<g style="fill:#000000; fill-opacity:1.0; 
stroke:#000000; stroke-width:39.3701; stroke-opacity:1; 
stroke-linecap:round; stroke-linejoin:round;">
</g>
<g style="fill:#000000; fill-opacity:1.0; 
stroke:#000000; stroke-width:0; stroke-opacity:1; 
stroke-linecap:round; stroke-linejoin:round;">
<circle cx="1968.5" cy="1968.5" r="1102.36" /> 
</g>
<g style="fill:#000000; fill-opacity:1.0; 
stroke:#000000; stroke-width:39.3701; stroke-opacity:1; 
stroke-linecap:round; stroke-linejoin:round;">
</g>
<g style="fill:#000000; fill-opacity:1.0; 
stroke:#000000; stroke-width:0; stroke-opacity:1; 
stroke-linecap:round; stroke-linejoin:round;">
<circle cx="1968.5" cy="1968.5" r="708.661" /> 
</g>
<g style="fill:#000000; fill-opacity:1.0; 
stroke:#000000; stroke-width:39.3701; stroke-opacity:1; 
stroke-linecap:round; stroke-linejoin:round;">
</g>
<g >
</g>
<g style="fill:#000000; fill-opacity:1.0; 
stroke:#000000; stroke-width:39.3701; stroke-opacity:1; 
stroke-linecap:round; stroke-linejoin:round;">
</g>
<g style="fill:#000000; fill-opacity:1.0; 
stroke:#000000; stroke-width:0; stroke-opacity:1; 
stroke-linecap:round; stroke-linejoin:round;">
<circle cx="21063" cy="3641.73" r="157.48" /> 
</g>
<g style="fill:#000000; fill-opacity:1.0; 
stroke:#000000; stroke-width:39.3701; stroke-opacity:1; 
stroke-linecap:round; stroke-linejoin:round;">
</g>
<g style="fill:#000000; fill-opacity:1.0; 
stroke:#000000; stroke-width:0; stroke-opacity:1; 
stroke-linecap:round; stroke-linejoin:round;">
<circle cx="26378" cy="1476.38" r="157.48" /> 
</g>
<g style="fill:#000000; fill-opacity:1.0; 
stroke:#000000; stroke-width:39.3701; stroke-opacity:1; 
stroke-linecap:round; stroke-linejoin:round;">
</g>
<g style="fill:#000000; fill-opacity:1.0; 
stroke:#000000; stroke-width:0; stroke-opacity:1; 
stroke-linecap:round; stroke-linejoin:round;">
<circle cx="16830.7" cy="10925.2" r="157.48" /> 
</g>
<g style="fill:#000000; fill-opacity:1.0; 
stroke:#000000; stroke-width:39.3701; stroke-opacity:1; 
stroke-linecap:round; stroke-linejoin:round;">
</g>
<g style="fill:#000000; fill-opacity:1.0; 
stroke:#000000; stroke-width:0; stroke-opacity:1; 
stroke-linecap:round; stroke-linejoin:round;">
<circle cx="10334.6" cy="1279.53" r="157.48" /> 
</g>
<g style="fill:#000000; fill-opacity:1.0; 
stroke:#000000; stroke-width:39.3701; stroke-opacity:1; 
stroke-linecap:round; stroke-linejoin:round;">
</g>
<g style="fill:#000000; fill-opacity:1.0; 
stroke:#000000; stroke-width:0; stroke-opacity:1; 
stroke-linecap:round; stroke-linejoin:round;">
<circle cx="23031.5" cy="12204.7" r="157.48" /> 
</g>
<g style="fill:#000000; fill-opacity:1.0; 
stroke:#000000; stroke-width:39.3701; stroke-opacity:1; 
stroke-linecap:round; stroke-linejoin:round;">
</g>
<g style="fill:#000000; fill-opacity:1.0; 
stroke:#000000; stroke-width:0; stroke-opacity:1; 
stroke-linecap:round; stroke-linejoin:round;">
<circle cx="25000" cy="5905.51" r="157.48" /> 
</g>
<g style="fill:#000000; fill-opacity:1.0; 
stroke:#000000; stroke-width:39.3701; stroke-opacity:1; 
stroke-linecap:round; stroke-linejoin:round;">
</g>
<g style="fill:#000000; fill-opacity:1.0; 
stroke:#000000; stroke-width:0; stroke-opacity:1; 
stroke-linecap:round; stroke-linejoin:round;">
<circle cx="21259.8" cy="6299.21" r="157.48" /> 
</g>
<g style="fill:#000000; fill-opacity:1.0; 
stroke:#000000; stroke-width:39.3701; stroke-opacity:1; 
stroke-linecap:round; stroke-linejoin:round;">
</g>
<g style="fill:#000000; fill-opacity:1.0; 
stroke:#000000; stroke-width:0; stroke-opacity:1; 
stroke-linecap:round; stroke-linejoin:round;">
<circle cx="23346.5" cy="2874.02" r="157.48" /> 
</g>
<g style="fill:#000000; fill-opacity:1.0; 
stroke:#000000; stroke-width:39.3701; stroke-opacity:1; 
stroke-linecap:round; stroke-linejoin:round;">
</g>
<g style="fill:#000000; fill-opacity:1.0; 
stroke:#000000; stroke-width:0; stroke-opacity:1; 
stroke-linecap:round; stroke-linejoin:round;">
<circle cx="25000" cy="12204.7" r="157.48" /> 
</g>
<g style="fill:#000000; fill-opacity:1.0; 
stroke:#000000; stroke-width:39.3701; stroke-opacity:1; 
stroke-linecap:round; stroke-linejoin:round;">
</g>
<g style="fill:#000000; fill-opacity:1.0; 
stroke:#000000; stroke-width:0; stroke-opacity:1; 
stroke-linecap:round; stroke-linejoin:round;">
<circle cx="21860.2" cy="5600.39" r="157.48" /> 
</g>
<g style="fill:#000000; fill-opacity:1.0; 
stroke:#000000; stroke-width:39.3701; stroke-opacity:1; 
stroke-linecap:round; stroke-linejoin:round;">
</g>
<g style="fill:#000000; fill-opacity:1.0; 
stroke:#000000; stroke-width:0; stroke-opacity:1; 
stroke-linecap:round; stroke-linejoin:round;">
<circle cx="21850.4" cy="8267.72" r="157.48" /> 
</g>
<g style="fill:#000000; fill-opacity:1.0; 
stroke:#000000; stroke-width:39.3701; stroke-opacity:1; 
stroke-linecap:round; stroke-linejoin:round;">
</g>
<g style="fill:#000000; fill-opacity:1.0; 
stroke:#000000; stroke-width:0; stroke-opacity:1; 
stroke-linecap:round; stroke-linejoin:round;">
<circle cx="26082.7" cy="12500" r="157.48" /> 
</g>
<g style="fill:#000000; fill-opacity:1.0; 
stroke:#000000; stroke-width:39.3701; stroke-opacity:1; 
stroke-linecap:round; stroke-linejoin:round;">
</g>
<g style="fill:#000000; fill-opacity:1.0; 
stroke:#000000; stroke-width:0; stroke-opacity:1; 
stroke-linecap:round; stroke-linejoin:round;">
<circle cx="22637.8" cy="12401.6" r="157.48" /> 
</g>
<g style="fill:#000000; fill-opacity:1.0; 
stroke:#000000; stroke-width:39.3701; stroke-opacity:1; 
stroke-linecap:round; stroke-linejoin:round;">
</g>
<g style="fill:#000000; fill-opacity:1.0; 
stroke:#000000; stroke-width:0; stroke-opacity:1; 
stroke-linecap:round; stroke-linejoin:round;">
<circle cx="20472.4" cy="8070.87" r="157.48" /> 
</g>
<g style="fill:#000000; fill-opacity:1.0; 
stroke:#000000; stroke-width:39.3701; stroke-opacity:1; 
stroke-linecap:round; stroke-linejoin:round;">
</g>
<g style="fill:#000000; fill-opacity:1.0; 
stroke:#000000; stroke-width:0; stroke-opacity:1; 
stroke-linecap:round; stroke-linejoin:round;">
<circle cx="12007.9" cy="9251.97" r="157.48" /> 
</g>
<g style="fill:#000000; fill-opacity:1.0; 
stroke:#000000; stroke-width:39.3701; stroke-opacity:1; 
stroke-linecap:round; stroke-linejoin:round;">
</g>
<g style="fill:#000000; fill-opacity:1.0; 
stroke:#000000; stroke-width:0; stroke-opacity:1; 
stroke-linecap:round; stroke-linejoin:round;">
<circle cx="26378" cy="6692.91" r="157.48" /> 
</g>
<g style="fill:#000000; fill-opacity:1.0; 
stroke:#000000; stroke-width:39.3701; stroke-opacity:1; 
stroke-linecap:round; stroke-linejoin:round;">
</g>
<g style="fill:#000000; fill-opacity:1.0; 
stroke:#000000; stroke-width:0; stroke-opacity:1; 
stroke-linecap:round; stroke-linejoin:round;">
<circle cx="29527.6" cy="7480.31" r="157.48" /> 
</g>
<g style="fill:#000000; fill-opacity:1.0; 
stroke:#000000; stroke-width:39.3701; stroke-opacity:1; 
stroke-linecap:round; stroke-linejoin:round;">
</g>
<g style="fill:#000000; fill-opacity:1.0; 
stroke:#000000; stroke-width:0; stroke-opacity:1; 
stroke-linecap:round; stroke-linejoin:round;">
<circle cx="14862.2" cy="8169.29" r="157.48" /> 
</g>
<g style="fill:#000000; fill-opacity:1.0; 
stroke:#000000; stroke-width:39.3701; stroke-opacity:1; 
stroke-linecap:round; stroke-linejoin:round;">
</g>
<g style="fill:#000000; fill-opacity:1.0; 
stroke:#000000; stroke-width:0; stroke-opacity:1; 
stroke-linecap:round; stroke-linejoin:round;">
<circle cx="13681.1" cy="5413.39" r="157.48" /> 
</g>
<g style="fill:#000000; fill-opacity:1.0; 
stroke:#000000; stroke-width:39.3701; stroke-opacity:1; 
stroke-linecap:round; stroke-linejoin:round;">
</g>
<g style="fill:#000000; fill-opacity:1.0; 
stroke:#000000; stroke-width:0; stroke-opacity:1; 
stroke-linecap:round; stroke-linejoin:round;">
<circle cx="3149.61" cy="11417.3" r="157.48" /> 
</g>
<g style="fill:#000000; fill-opacity:1.0; 
stroke:#000000; stroke-width:39.3701; stroke-opacity:1; 
stroke-linecap:round; stroke-linejoin:round;">
</g>
<g style="fill:#000000; fill-opacity:1.0; 
stroke:#000000; stroke-width:0; stroke-opacity:1; 
stroke-linecap:round; stroke-linejoin:round;">
<circle cx="14173.2" cy="14960.6" r="157.48" /> 
</g>
<g style="fill:#000000; fill-opacity:1.0; 
stroke:#000000; stroke-width:39.3701; stroke-opacity:1; 
stroke-linecap:round; stroke-linejoin:round;">
</g>
<g style="fill:#000000; fill-opacity:1.0; 
stroke:#000000; stroke-width:0; stroke-opacity:1; 
stroke-linecap:round; stroke-linejoin:round;">
<circle cx="16535.4" cy="14173.2" r="157.48" /> 
</g>
<g style="fill:#000000; fill-opacity:1.0; 
stroke:#000000; stroke-width:39.3701; stroke-opacity:1; 
stroke-linecap:round; stroke-linejoin:round;">
</g>
<g style="fill:#000000; fill-opacity:1.0; 
stroke:#000000; stroke-width:0; stroke-opacity:1; 
stroke-linecap:round; stroke-linejoin:round;">
<circle cx="26574.8" cy="8464.57" r="157.48" /> 
</g>
<g style="fill:#000000; fill-opacity:1.0; 
stroke:#000000; stroke-width:39.3701; stroke-opacity:1; 
stroke-linecap:round; stroke-linejoin:round;">
</g>
<g style="fill:#000000; fill-opacity:1.0; 
stroke:#000000; stroke-width:0; stroke-opacity:1; 
stroke-linecap:round; stroke-linejoin:round;">
<circle cx="25984.3" cy="7283.46" r="157.48" /> 
</g>
<g style="fill:#000000; fill-opacity:1.0; 
stroke:#000000; stroke-width:39.3701; stroke-opacity:1; 
stroke-linecap:round; stroke-linejoin:round;">
</g>
<g style="fill:#000000; fill-opacity:1.0; 
stroke:#000000; stroke-width:0; stroke-opacity:1; 
stroke-linecap:round; stroke-linejoin:round;">
<circle cx="19488.2" cy="5708.66" r="157.48" /> 
</g>
<g style="fill:#000000; fill-opacity:1.0; 
stroke:#000000; stroke-width:39.3701; stroke-opacity:1; 
stroke-linecap:round; stroke-linejoin:round;">
</g>
<g style="fill:#000000; fill-opacity:1.0; 
stroke:#000000; stroke-width:0; stroke-opacity:1; 
stroke-linecap:round; stroke-linejoin:round;">
<circle cx="21259.8" cy="9744.09" r="157.48" /> 
</g>
<g style="fill:#000000; fill-opacity:1.0; 
stroke:#000000; stroke-width:39.3701; stroke-opacity:1; 
stroke-linecap:round; stroke-linejoin:round;">
</g>
<g >
</g>
<g style="fill:#000000; fill-opacity:1.0; 
stroke:#000000; stroke-width:39.3701; stroke-opacity:1; 
stroke-linecap:round; stroke-linejoin:round;">
</g>
<g style="fill:#000000; fill-opacity:1.0; 
stroke:#000000; stroke-width:196.85; stroke-opacity:1; 
stroke-linecap:round; stroke-linejoin:round;">
</g>
<g style="fill:#000000; fill-opacity:0.0; 
stroke:#000000; stroke-width:196.85; stroke-opacity:1; 
stroke-linecap:round; stroke-linejoin:round;">
<path d="M21860 5600
L21860 4360
" />
<path d="M21860 4360
L23346 2874
" />
<path d="M21850 8267
L21850 5610
" />
<path d="M25000 11417
L21850 8267
" />
<path d="M21850 5610
L21860 5600
" />
<path d="M25000 12204
L25000 11417
" />
<path d="M25925 12657
L22893 12657
" />
<path d="M26082 12500
L25925 12657
" />
<path d="M22893 12657
L22637 12401
" />
</g>
<g style="fill:#000000; fill-opacity:0.0; 
stroke:#000000; stroke-width:393.701; stroke-opacity:1; 
stroke-linecap:round; stroke-linejoin:round;">
<path d="M20472 8070
L18307 8070
" />
<path d="M18307 8070
L17125 9251
" />
<path d="M17125 9251
L12007 9251
" />
</g>
<g style="fill:#000000; fill-opacity:0.0; 
stroke:#000000; stroke-width:196.85; stroke-opacity:1; 
stroke-linecap:round; stroke-linejoin:round;">
<path d="M26377 6692
L26377 7086
" />
<path d="M26377 7086
L27165 7874
" />
<path d="M29133 7874
L29527 7480
" />
<path d="M27165 7874
L29133 7874
" />
</g>
<g style="fill:#000000; fill-opacity:0.0; 
stroke:#000000; stroke-width:255.906; stroke-opacity:1; 
stroke-linecap:round; stroke-linejoin:round;">
<path d="M14862 6594
L14862 8169
" />
<path d="M13681 5413
L14862 6594
" />
<path d="M14173 14960
L6692 14960
" />
<path d="M6692 14960
L3149 11417
" />
<path d="M7086 14173
L16535 14173
" />
<path d="M1968 9055
L7086 14173
" />
<path d="M1968 7299
L1968 9055
" />
</g>
<g style="fill:#000000; fill-opacity:0.0; 
stroke:#000000; stroke-width:196.85; stroke-opacity:1; 
stroke-linecap:round; stroke-linejoin:round;">
<path d="M26574 7874
L25984 7283
" />
<path d="M26574 8464
L26574 7874
" />
</g>
<g style="fill:#000000; fill-opacity:0.0; 
stroke:#000000; stroke-width:255.906; stroke-opacity:1; 
stroke-linecap:round; stroke-linejoin:round;">
<path d="M19488 5708
L19980 5708
" />
<path d="M19980 5708
L21259 6988
" />
<path d="M21259 6988
L21259 9744
" />
</g>
<g >
</g>
<g style="fill:#000000; fill-opacity:0.0; 
stroke:#000000; stroke-width:255.906; stroke-opacity:1; 
stroke-linecap:round; stroke-linejoin:round;">
<g >
</g>
<g style="fill:#000000; fill-opacity:1.0; 
stroke:#000000; stroke-width:100; stroke-opacity:1; 
stroke-linecap:round; stroke-linejoin:round;">
<path style="fill:#000000; fill-opacity:1.0; 
stroke:#000000; stroke-width:100; stroke-opacity:1; 
stroke-linecap:round; stroke-linejoin:round;fill-rule:evenodd;"
d="M 30448.8,1288.73
30448.8,14459.3
29419.9,15488.2
1288.73,15488.2
259.843,14459.3
259.843,11377.2
2742.13,11377.2
2742.13,11457.5
2757.79,11536.2
2788.5,11610.3
2833.1,11677.1
2889.85,11733.8
2956.59,11778.4
2990.07,11792.3
6412.53,15214.8
6424.37,15229.2
6438.79,15241
6481.92,15276.4
6547.58,15311.5
6618.82,15333.1
6674.35,15338.6
6674.35,15338.6
6692.91,15340.4
6711.48,15338.6
14020.9,15338.6
14054.4,15352.5
14133.1,15368.1
14213.4,15368.1
14292.1,15352.5
14366.2,15321.7
14433,15277.1
14489.7,15220.4
14534.3,15153.6
14565,15079.5
14580.7,15000.8
14580.7,14920.5
14565,14841.8
14534.3,14767.6
14489.7,14700.9
14433,14644.1
14366.2,14599.5
14292.1,14568.8
14213.4,14553.1
14133.1,14553.1
14054.4,14568.8
14020.9,14582.7
6849.47,14582.7
3524.58,11257.8
3510.71,11224.3
3466.12,11157.6
3409.36,11100.8
3342.62,11056.2
3268.46,11025.5
3189.74,11009.8
3109.47,11009.8
3030.75,11025.5
2956.59,11056.2
2889.85,11100.8
2833.1,11157.6
2788.5,11224.3
2757.79,11298.5
2742.13,11377.2
259.843,11377.2
259.843,5239.69
1364.17,5239.69
1364.17,5358.73
1387.4,5475.49
1432.95,5585.47
1499.09,5684.45
1583.27,5768.63
1629.04,5799.21
1583.27,5829.8
1499.09,5913.97
1432.95,6012.95
1387.4,6122.94
1364.17,6239.69
1364.17,6358.73
1387.4,6475.49
1432.95,6585.47
1499.09,6684.45
1583.27,6768.63
1629.04,6799.21
1583.27,6829.8
1499.09,6913.97
1432.95,7012.95
1387.4,7122.94
1364.17,7239.69
1364.17,7358.73
1387.4,7475.49
1432.95,7585.47
1499.09,7684.45
1583.27,7768.63
1590.55,7773.49
1590.55,9036.55
1588.72,9055.12
1596.02,9129.21
1617.63,9200.45
1652.73,9266.11
1688.12,9309.24
1699.96,9323.66
1714.38,9335.5
6806.23,14427.4
6818.07,14441.8
6832.49,14453.6
6875.62,14489
6898.49,14501.2
6941.28,14524.1
7012.52,14545.7
7068.05,14551.2
7068.05,14551.2
7086.61,14553
7105.18,14551.2
16383.1,14551.2
16416.6,14565
16495.3,14580.7
16575.6,14580.7
16654.3,14565
16728.4,14534.3
16795.2,14489.7
16851.9,14433
16896.5,14366.2
16927.3,14292.1
16942.9,14213.4
16942.9,14133.1
16927.3,14054.4
16896.5,13980.2
16851.9,13913.5
16795.2,13856.7
16728.4,13812.1
16654.3,13781.4
16575.6,13765.7
16495.3,13765.7
16416.6,13781.4
16383.1,13795.3
7243.17,13795.3
3959.7,10511.8
21087.4,10511.8
21087.4,11141.7
21092.2,11190.7
21106.5,11237.9
21129.7,11281.3
21161,11319.4
21199,11350.6
21242.4,11373.8
21289.6,11388.1
21338.6,11392.9
21968.5,11392.9
22017.5,11388.1
22064.6,11373.8
22108.1,11350.6
22146.1,11319.4
22177.4,11281.3
22200.6,11237.9
22214.9,11190.7
22219.7,11141.7
22219.7,10511.8
22214.9,10462.8
22200.6,10415.7
22177.4,10372.2
22146.1,10334.2
22108.1,10302.9
22064.6,10279.7
22017.5,10265.4
21968.5,10260.6
21338.6,10260.6
21289.6,10265.4
21242.4,10279.7
21199,10302.9
21161,10334.2
21129.7,10372.2
21106.5,10415.7
21092.2,10462.8
21087.4,10511.8
3959.7,10511.8
2699.86,9251.97
6835.4,9251.97
6835.4,10039.4
6840.23,10088.4
6854.53,10135.5
6877.74,10178.9
6908.98,10217
6947.05,10248.2
6990.48,10271.5
7037.61,10285.8
7086.61,10290.6
7874.02,10290.6
7923.02,10285.8
7970.15,10271.5
8013.58,10248.2
8051.65,10217
8082.89,10178.9
8106.1,10135.5
8120.4,10088.4
8125.23,10039.4
8125.23,9251.97
11558.9,9251.97
11567.5,9339.57
11593,9423.8
11634.5,9501.43
11690.4,9569.47
11758.4,9625.31
11836,9666.8
11920.3,9692.35
11985.9,9698.82
17104,9698.82
17126,9700.98
17147.9,9698.82
17147.9,9698.82
17213.6,9692.35
17297.8,9666.8
17375.4,9625.31
17443.5,9569.47
17457.5,9552.42
18492.2,8517.72
20494.4,8517.72
20560,8511.25
20644.3,8485.7
20721.9,8444.21
20789.9,8388.37
20845.8,8320.32
20881.9,8252.77
20881.9,9591.75
20868,9625.24
20852.4,9703.96
20852.4,9784.23
20868,9862.95
20898.7,9937.11
20943.3,10003.8
21000.1,10060.6
21066.8,10105.2
21141,10135.9
21219.7,10151.6
21300,10151.6
21378.7,10135.9
21452.9,10105.2
21519.6,10060.6
21576.4,10003.8
21620.9,9937.11
21651.7,9862.95
21667.3,9784.23
21667.3,9703.96
21651.7,9625.24
21637.8,9591.76
21637.8,8615.74
21657.4,8628.82
21731.5,8659.54
21753.9,8663.99
24651.6,11561.6
24651.6,11992.7
24638.9,12011.7
24608.2,12085.9
24592.5,12164.6
24592.5,12244.9
24605.3,12309.1
23038,12309.1
23034.1,12305.1
23029.6,12282.7
22998.9,12208.6
22954.3,12141.8
22897.5,12085.1
22830.8,12040.5
22756.7,12009.8
22677.9,11994.1
22597.7,11994.1
22518.9,12009.8
22444.8,12040.5
22378,12085.1
22321.3,12141.8
22276.7,12208.6
22246,12282.7
22230.3,12361.4
22230.3,12441.7
22246,12520.4
22276.7,12594.6
22321.3,12661.3
22378,12718.1
22444.8,12762.7
22518.9,12793.4
22541.3,12797.8
22635.2,12891.8
22646.1,12905
22659.4,12916
22659.4,12916
22687.6,12939.1
22699.2,12948.6
22759.7,12980.9
22825.4,13000.9
22876.6,13005.9
22876.6,13005.9
22893.7,13007.6
22910.8,13005.9
25908.1,13005.9
25925.2,13007.6
25942.3,13005.9
25942.3,13005.9
25993.5,13000.9
26059.2,12980.9
26119.7,12948.6
26172.8,12905
26180.1,12896.1
26201.5,12891.8
26275.7,12861.1
26342.4,12816.5
26399.2,12759.8
26443.8,12693
26474.5,12618.9
26490.2,12540.1
26490.2,12459.9
26474.5,12381.1
26443.8,12307
26399.2,12240.2
26342.4,12183.5
26275.7,12138.9
26201.5,12108.2
26122.8,12092.5
26042.5,12092.5
25963.8,12108.2
25889.7,12138.9
25822.9,12183.5
25766.2,12240.2
25721.6,12307
25720.7,12309.1
25394.7,12309.1
25407.5,12244.9
25407.5,12164.6
25391.8,12085.9
25361.1,12011.7
25348.4,11992.7
25348.4,11434.4
25350.1,11417.3
25348.4,11400.2
25348.4,11400.2
25343.4,11349
25323.5,11283.3
25291.1,11222.8
25247.6,11169.8
25234.3,11158.8
22246.7,8171.24
22242.2,8148.86
22211.5,8074.7
22198.8,8055.73
22198.8,7243.33
25576.8,7243.33
25576.8,7323.6
25592.4,7402.32
25623.1,7476.48
25667.7,7543.22
25724.5,7599.98
25791.2,7644.57
25865.4,7675.29
25887.8,7679.74
26226.4,8018.34
26226.4,8252.58
26213.7,8271.55
26183,8345.71
26167.3,8424.43
26167.3,8504.7
26183,8583.42
26213.7,8657.58
26258.3,8724.32
26315,8781.08
26381.8,8825.67
26455.9,8856.39
26534.7,8872.05
26614.9,8872.05
26693.7,8856.39
26767.8,8825.67
26834.6,8781.08
26891.3,8724.32
26935.9,8657.58
26966.6,8583.42
26982.3,8504.7
26982.3,8424.43
26966.6,8345.71
26935.9,8271.55
26923.2,8252.58
26923.2,8126.05
26931.1,8132.49
26931.1,8132.49
26950,8148.06
26970.8,8165.12
27031.4,8197.48
27097.1,8217.4
27148.2,8222.44
27148.2,8222.44
27165.4,8224.13
27182.5,8222.44
29116.7,8222.44
29133.9,8224.13
29151,8222.44
29151,8222.44
29202.2,8217.4
29267.8,8197.48
29328.4,8165.12
29381.4,8121.58
29392.3,8108.29
29624,7876.59
29646.4,7872.14
29720.6,7841.42
29787.3,7796.83
29844.1,7740.07
29888.7,7673.33
29919.4,7599.17
29935,7520.45
29935,7440.18
29919.4,7361.46
29888.7,7287.3
29844.1,7220.56
29787.3,7163.8
29720.6,7119.21
29646.4,7088.49
29567.7,7072.83
29487.4,7072.83
29408.7,7088.49
29334.5,7119.21
29267.8,7163.8
29211,7220.56
29166.5,7287.3
29135.7,7361.46
29131.3,7383.84
28989.5,7525.59
27309.7,7525.59
26726.4,6942.29
26726.4,6904.9
26739.1,6885.93
26769.8,6811.77
26781.6,6752.56
26807.6,6883.47
26866.5,7025.69
26952,7153.69
27060.9,7262.54
27188.9,7348.06
27331.1,7406.98
27482.1,7437.01
27636,7437.01
27787,7406.98
27929.2,7348.06
28057.2,7262.54
28166.1,7153.69
28251.6,7025.69
28310.5,6883.47
28340.6,6732.48
28340.6,6578.54
28310.5,6427.56
28251.6,6285.33
28166.1,6157.34
28057.2,6048.48
27929.2,5962.96
27787,5904.05
27636,5874.02
27482.1,5874.02
27331.1,5904.05
27188.9,5962.96
27060.9,6048.48
26952,6157.34
26866.5,6285.33
26807.6,6427.56
26777.6,6578.54
26777.6,6613.19
26769.8,6574.06
26739.1,6499.9
26694.5,6433.16
26637.7,6376.4
26571,6331.81
26496.8,6301.09
26418.1,6285.43
26337.8,6285.43
26259.1,6301.09
26184.9,6331.81
26118.2,6376.4
26061.4,6433.16
26016.8,6499.9
25986.1,6574.06
25970.5,6652.78
25970.5,6733.05
25986.1,6811.77
26012.7,6875.98
25944.1,6875.98
25865.4,6891.64
25791.2,6922.36
25724.5,6966.95
25667.7,7023.71
25623.1,7090.45
25592.4,7164.61
25576.8,7243.33
22198.8,7243.33
22198.8,5827.11
22221.3,5793.41
22252.1,5719.25
22267.7,5640.53
22267.7,5560.26
22252.1,5481.54
22221.3,5407.38
22208.7,5388.4
22208.7,4504.56
23442.9,3270.29
23465.3,3265.84
23539.5,3235.12
23606.2,3190.53
23663,3133.77
23707.6,3067.03
23738.3,2992.87
23753.9,2914.15
23753.9,2833.88
23738.3,2755.16
23707.6,2681
23663,2614.26
23606.2,2557.51
23539.5,2512.91
23465.3,2482.19
23386.6,2466.54
23306.3,2466.54
23227.6,2482.19
23153.4,2512.91
23086.7,2557.51
23029.9,2614.26
22985.4,2681
22954.6,2755.16
22950.2,2777.54
21626,4101.76
21612.7,4112.67
21601.8,4125.96
21601.8,4125.97
21569.1,4165.72
21536.8,4226.25
21516.9,4291.93
21510.1,4360.24
21511.8,4377.35
21511.8,5388.4
21499.1,5407.38
21468.4,5481.54
21452.8,5560.26
21452.8,5640.53
21468.4,5719.25
21499.1,5793.41
21502,5797.65
21502,6695.81
20260.7,5454.54
20248.9,5440.12
20191.3,5392.88
20125.7,5357.79
20054.4,5336.18
19998.9,5330.71
19998.9,5330.71
19980.3,5328.88
19961.8,5330.71
19640.5,5330.71
19607,5316.84
19528.3,5301.18
19448.1,5301.18
19369.3,5316.84
19295.2,5347.56
19228.4,5392.15
19171.7,5448.91
19127.1,5515.65
19096.4,5589.8
19080.7,5668.53
19080.7,5748.79
19096.4,5827.52
19127.1,5901.68
19171.7,5968.41
19228.4,6025.17
19295.2,6069.77
19369.3,6100.48
19448.1,6116.14
19528.3,6116.14
19607,6100.48
19640.5,6086.61
19823.8,6086.61
20881.9,7144.74
20881.9,7888.96
20845.8,7821.41
20789.9,7753.37
20721.9,7697.53
20644.3,7656.03
20560,7630.48
20494.4,7624.02
18329,7624.02
18307.1,7621.85
18285.1,7624.02
18219.5,7630.48
18135.3,7656.03
18057.6,7697.53
18006.6,7739.37
18006.6,7739.38
17989.6,7753.37
17975.6,7770.41
16940.9,8805.12
11985.9,8805.12
11920.3,8811.58
11836,8837.14
11758.4,8878.63
11690.4,8934.47
11634.5,9002.51
11593,9080.14
11567.5,9164.37
11558.9,9251.97
8125.23,9251.97
8120.4,9202.96
8106.1,9155.83
8082.89,9112.4
8051.65,9074.34
8013.58,9043.1
7970.15,9019.88
7923.02,9005.59
7874.02,9000.76
7086.61,9000.76
7037.61,9005.59
6990.48,9019.88
6947.05,9043.1
6908.98,9074.34
6877.74,9112.4
6854.53,9155.83
6840.23,9202.96
6835.4,9251.97
2699.86,9251.97
2346.46,8898.57
2346.46,7773.49
2353.74,7768.63
2437.92,7684.45
2504.05,7585.47
2549.61,7475.49
2572.83,7358.73
2572.83,7239.69
2549.61,7122.94
2504.05,7012.95
2437.92,6913.97
2353.74,6829.8
2307.97,6799.21
2353.74,6768.63
2437.92,6684.45
2504.05,6585.47
2549.61,6475.49
2572.83,6358.73
2572.83,6239.69
2549.61,6122.94
2504.05,6012.95
2484.88,5984.25
4551.94,5984.25
4551.94,6614.17
4556.77,6663.18
4571.06,6710.31
4594.28,6753.74
4625.52,6791.81
4663.59,6823.05
4707.02,6846.26
4754.14,6860.56
4803.15,6865.38
5433.07,6865.38
5482.08,6860.56
5529.2,6846.26
5572.64,6823.05
5610.7,6791.81
5641.94,6753.74
5665.16,6710.31
5679.45,6663.18
5684.28,6614.17
5684.28,5984.25
5679.45,5935.24
5665.16,5888.12
5641.94,5844.69
5610.7,5806.62
5572.64,5775.38
5529.2,5752.16
5482.08,5737.87
5433.07,5733.04
4803.15,5733.04
4754.14,5737.87
4707.02,5752.16
4663.59,5775.38
4625.52,5806.62
4594.28,5844.69
4571.06,5888.12
4556.77,5935.24
4551.94,5984.25
2484.88,5984.25
2437.92,5913.97
2353.74,5829.8
2307.97,5799.21
2353.74,5768.63
2437.92,5684.45
2504.05,5585.47
2549.61,5475.49
2569.95,5373.25
13273.6,5373.25
13273.6,5453.52
13289.3,5532.24
13320,5606.4
13364.6,5673.14
13421.3,5729.9
13488.1,5774.49
13521.6,5788.36
14484.3,6751.04
14484.3,8016.95
14470.4,8050.43
14454.7,8129.16
14454.7,8209.42
14470.4,8288.15
14501.1,8362.31
14545.7,8429.04
14602.5,8485.8
14669.2,8530.4
14743.3,8561.11
14822.1,8576.77
14902.3,8576.77
14981.1,8561.11
15055.2,8530.4
15122,8485.8
15178.7,8429.04
15223.3,8362.31
15254,8288.15
15269.7,8209.42
15269.7,8129.16
15254,8050.43
15240.2,8016.95
15240.2,6613.06
15242,6594.49
15240.2,6575.92
15234.7,6520.4
15213.1,6449.15
15204.5,6433.16
15178,6383.49
15142.6,6340.36
15130.8,6325.94
15116.3,6314.11
14056.1,5253.85
14042.2,5220.37
13997.6,5153.63
13984.9,5140.93
14021.1,5160.28
14153.6,5200.46
14291.3,5214.03
14429.1,5200.46
14561.6,5160.28
14683.7,5095.02
14790.7,5007.2
14878.5,4900.19
14943.7,4778.11
14983.9,4645.64
14994.1,4542.39
14994.1,4197.76
15439,4197.76
15439,4542.39
15449.1,4645.64
15489.3,4778.11
15554.6,4900.19
15642.4,5007.2
15749.4,5095.02
15871.5,5160.28
16004,5200.46
16141.7,5214.03
16279.5,5200.46
16412,5160.28
16534.1,5095.02
16641.1,5007.2
16728.9,4900.19
16794.1,4778.11
16834.3,4645.64
16844.5,4542.39
16844.5,4197.76
17289.4,4197.76
17289.4,4542.39
17299.5,4645.64
17339.7,4778.11
17405,4900.19
17492.8,5007.2
17599.8,5095.02
17721.9,5160.28
17854.4,5200.46
17992.1,5214.03
18129.9,5200.46
18262.4,5160.28
18384.4,5095.02
18491.5,5007.2
18579.3,4900.19
18644.5,4778.11
18684.7,4645.64
18694.9,4542.39
18694.9,4197.76
18684.7,4094.52
18644.5,3962.05
18579.3,3839.96
18491.5,3732.96
18384.4,3645.14
18262.4,3579.88
18129.9,3539.7
17992.1,3526.13
17854.4,3539.7
17721.9,3579.88
17599.8,3645.14
17492.8,3732.96
17405,3839.96
17339.7,3962.05
17299.5,4094.52
17289.4,4197.76
16844.5,4197.76
16844.5,4197.76
16834.3,4094.52
16794.1,3962.05
16728.9,3839.96
16641.1,3732.96
16534.1,3645.14
16412,3579.88
16279.5,3539.7
16141.7,3526.13
16004,3539.7
15871.5,3579.88
15749.4,3645.14
15642.4,3732.96
15554.6,3839.96
15489.3,3962.05
15449.1,4094.52
15439,4197.76
14994.1,4197.76
14994.1,4197.76
14983.9,4094.52
14943.7,3962.05
14878.5,3839.96
14790.7,3732.96
14683.7,3645.14
14561.6,3579.88
14429.1,3539.7
14291.3,3526.13
14153.6,3539.7
14021.1,3579.88
13899,3645.14
13792,3732.96
13704.2,3839.96
13638.9,3962.05
13598.8,4094.52
13588.6,4197.76
13588.6,4542.39
13598.8,4645.64
13638.9,4778.11
13704.2,4900.19
13792,5007.2
13819.2,5029.55
13800,5021.56
13721.2,5005.91
13641,5005.91
13562.2,5021.56
13488.1,5052.28
13421.3,5096.88
13364.6,5153.63
13320,5220.37
13289.3,5294.53
13273.6,5373.25
2569.95,5373.25
2572.83,5358.73
2572.83,5239.69
2549.61,5122.94
2504.05,5012.95
2437.92,4913.97
2353.74,4829.8
2254.76,4763.66
2144.78,4718.11
2028.03,4694.88
1908.98,4694.88
1792.23,4718.11
1682.25,4763.66
1583.27,4829.8
1499.09,4913.97
1432.95,5012.95
1387.4,5122.94
1364.17,5239.69
259.843,5239.69
259.843,3072.64
7842.52,3072.64
7842.52,3226.58
7872.55,3377.56
7931.46,3519.78
8016.99,3647.78
8125.84,3756.63
8253.84,3842.16
8396.06,3901.07
8547.05,3931.1
8700.99,3931.1
8851.97,3901.07
8994.19,3842.16
9122.19,3756.63
9231.04,3647.78
9316.57,3519.78
9375.48,3377.56
9405.51,3226.58
9405.51,3072.64
9375.48,2921.65
9316.57,2779.43
9231.04,2651.43
9122.19,2542.58
8994.19,2457.05
8851.97,2398.14
8700.99,2368.11
8547.05,2368.11
8396.06,2398.14
8253.84,2457.05
8125.84,2542.58
8016.99,2651.43
7931.46,2779.43
7872.55,2921.65
7842.52,3072.64
259.843,3072.64
259.843,1288.73
1288.73,259.843
29419.9,259.843
Z" /> 
</g>
</g>
</g> 
</svg>
