<?xml version="1.0" standalone="no"?>
 <!DOCTYPE svg PUBLIC "-//W3C//DTD SVG 1.1//EN" 
 "http://www.w3.org/Graphics/SVG/1.1/DTD/svg11.dtd"> 
<svg
  xmlns:svg="http://www.w3.org/2000/svg"
  xmlns="http://www.w3.org/2000/svg"
  xmlns:xlink="http://www.w3.org/1999/xlink"
  version="1.1"
  width="29.700220cm" height="21.000720cm" viewBox="0 0 116930 82680">
<title>SVG Picture created as BatteryBoost-F_SilkS.svg date 2021/05/16 09:51:59 </title>
  <desc>Picture generated by PCBNEW </desc>
<g style="fill:#000000; fill-opacity:1;stroke:#000000; stroke-opacity:1;
stroke-linecap:round; stroke-linejoin:round;"
 transform="translate(0 0) scale(1 1)">
</g>
<g style="fill:#000000; fill-opacity:0.0; 
stroke:#000000; stroke-width:-0.000393701; stroke-opacity:1; 
stroke-linecap:round; stroke-linejoin:round;">
</g>
<g style="fill:#000000; fill-opacity:0.0; 
stroke:#000000; stroke-width:78.7402; stroke-opacity:1; 
stroke-linecap:round; stroke-linejoin:round;">
<path d="M0 0
L393 0
" />
<path d="M0 393
L0 0
" />
</g>
<g style="fill:#000000; fill-opacity:0.0; 
stroke:#000000; stroke-width:196.85; stroke-opacity:1; 
stroke-linecap:round; stroke-linejoin:round;">
<path d="M30314 6791
L29724 6791
" />
<path d="M30019 4724
L30019 5314
" />
<path d="M30019 6496
L30019 7086
" />
<path d="M6692 688
L7283 688
" />
<path d="M8759 393
L8759 984
" />
<path d="M8464 688
L9055 688
" />
</g>
<g style="fill:#000000; fill-opacity:0.0; 
stroke:#000000; stroke-width:19.685; stroke-opacity:1; 
stroke-linecap:round; stroke-linejoin:round;">
<path d="M1181 15748
L0 14566
" />
<path d="M30708 14566
L29527 15748
" />
<path d="M29527 0
L30708 1181
" />
<path d="M0 1181
L1181 0
" />
<path d="M30708 14566
L30708 1181
" />
<path d="M1181 15748
L29527 15748
" />
<path d="M29527 0
L1181 0
" />
<path d="M0 1181
L0 14566
" />
</g>
<g style="fill:#000000; fill-opacity:0.0; 
stroke:#000000; stroke-width:47.2441; stroke-opacity:1; 
stroke-linecap:round; stroke-linejoin:round;">
<path d="M24370 11570
L23405 11570
" />
<path d="M23661 12838
L24370 12838
" />
<path d="M25850 14262
L25850 13690
" />
<path d="M25133 14262
L25133 13690
" />
<path d="M22996 14262
L22996 13690
" />
<path d="M22279 14262
L22279 13690
" />
<path d="M23787 9649
L23787 9074
" />
<path d="M25031 9649
L25031 8799
" />
<path d="M25031 9649
L24665 9649
" />
<path d="M23787 9649
L24153 9649
" />
<path d="M21622 9649
L21622 9074
" />
<path d="M22866 9649
L22866 8799
" />
<path d="M22866 9649
L22500 9649
" />
<path d="M21622 9649
L21988 9649
" />
<path d="M24118 7511
L24118 7145
" />
<path d="M24118 6267
L24118 6633
" />
<path d="M24118 6267
L23267 6267
" />
<path d="M24118 7511
L23543 7511
" />
<path d="M6437 5374
L6437 7066
" />
<path d="M6437 7066
L8681 7066
" />
<path d="M6437 5374
L8681 5374
" />
<path d="M9448 11220
L9251 11417
" />
<path d="M10039 11811
L9842 12007
" />
<path d="M13976 11811
L14173 12007
" />
<path d="M14566 11220
L14763 11417
" />
<path d="M14566 7283
L14763 7086
" />
<path d="M14173 6496
L13976 6692
" />
<path d="M9842 6496
L10039 6692
" />
<path d="M9251 7086
L9448 7283
" />
<path d="M13779 11614
L13385 11614
" />
<path d="M12204 9251
L12401 9055
" />
<path d="M12401 9448
L12204 9251
" />
<path d="M12598 9251
L12795 9055
" />
<path d="M12795 9448
L12598 9251
" />
<path d="M12992 9251
L13188 9055
" />
<path d="M13188 9448
L12992 9251
" />
<path d="M13582 9055
L13385 9251
" />
<path d="M13385 9251
L13582 9448
" />
<path d="M11811 9251
L11614 9448
" />
<path d="M11614 9055
L11811 9251
" />
<path d="M11417 9251
L11220 9448
" />
<path d="M11220 9055
L11417 9251
" />
<path d="M11023 9251
L10826 9448
" />
<path d="M10826 9055
L11023 9251
" />
<path d="M10629 9251
L10433 9055
" />
<path d="M10433 9448
L10629 9251
" />
<path d="M13385 9842
L10629 9842
" />
<path d="M10433 9645
L10236 9842
" />
<path d="M13582 9645
L10433 9645
" />
<path d="M13779 9842
L13582 9645
" />
<path d="M10236 11023
L10236 10826
" />
<path d="M10236 11023
L10039 10826
" />
<path d="M13976 10039
L13976 10433
" />
<path d="M10433 10826
L10039 10433
" />
<path d="M10826 10039
L13188 10039
" />
<path d="M10039 11417
L10236 11417
" />
<path d="M13779 11417
L13976 11417
" />
<path d="M10433 10433
L10236 10236
" />
<path d="M13582 10826
L13582 11417
" />
<path d="M13582 10039
L13779 9842
" />
<path d="M10236 10236
L10433 10039
" />
<path d="M13976 10433
L13582 10826
" />
<path d="M13582 10433
L13779 10236
" />
<path d="M10433 10433
L10826 10039
" />
<path d="M13976 11220
L14173 11220
" />
<path d="M13582 11417
L13976 11023
" />
<path d="M10039 11220
L9842 11220
" />
<path d="M10433 11417
L10433 10826
" />
<path d="M13976 11023
L13976 10826
" />
<path d="M10039 10433
L10039 10039
" />
<path d="M10236 10826
L10039 10629
" />
<path d="M10433 10039
L10236 9842
" />
<path d="M13188 10039
L13582 10433
" />
<path d="M13779 10826
L13976 10629
" />
<path d="M9842 11023
L9842 10039
" />
<path d="M14173 11023
L14173 10039
" />
<path d="M10039 11023
L10039 10826
" />
<path d="M10433 11417
L10039 11023
" />
<path d="M13779 11023
L13976 10826
" />
<path d="M13779 11023
L13779 10826
" />
<path d="M13779 10236
L13582 10039
" />
<path d="M10629 8661
L13385 8661
" />
<path d="M13582 8858
L13779 8661
" />
<path d="M10433 8858
L13582 8858
" />
<path d="M10236 8661
L10433 8858
" />
<path d="M10433 8464
L10236 8661
" />
<path d="M10236 8267
L10433 8464
" />
<path d="M13582 8464
L13779 8661
" />
<path d="M13779 8267
L13582 8464
" />
<path d="M13582 8070
L13779 8267
" />
<path d="M10433 8070
L10236 8267
" />
<path d="M10826 8464
L10433 8070
" />
<path d="M13188 8464
L10826 8464
" />
<path d="M13582 8070
L13188 8464
" />
<path d="M14173 7480
L14173 8464
" />
<path d="M9842 7480
L9842 8464
" />
<path d="M10039 7283
L9842 7283
" />
<path d="M10236 7086
L10039 7086
" />
<path d="M13976 7283
L14173 7283
" />
<path d="M13976 7086
L13779 7086
" />
<path d="M13779 7677
L13976 7874
" />
<path d="M13779 7480
L13779 7677
" />
<path d="M10236 7677
L10039 7874
" />
<path d="M10236 7480
L10236 7677
" />
<path d="M10236 7480
L10039 7677
" />
<path d="M13779 7480
L13976 7677
" />
<path d="M13976 7480
L13976 7677
" />
<path d="M13582 7086
L13976 7480
" />
<path d="M13976 8070
L13976 8464
" />
<path d="M13582 7677
L13976 8070
" />
<path d="M13582 7086
L13582 7677
" />
<path d="M10039 7480
L10039 7677
" />
<path d="M10433 7086
L10039 7480
" />
<path d="M10433 7677
L10433 7086
" />
<path d="M10039 8070
L10433 7677
" />
<path d="M10039 8464
L10039 8070
" />
<path d="M9448 8267
L9448 10236
" />
<path d="M14566 10039
L14566 10236
" />
<path d="M14566 8267
L14566 10039
" />
<path d="M14173 9645
L14173 8858
" />
<path d="M14370 8661
L14370 9842
" />
<path d="M9645 8661
L9645 9842
" />
<path d="M9842 8858
L9842 9645
" />
<path d="M14370 10039
L14370 11023
" />
<path d="M13976 9645
L14370 10039
" />
<path d="M13976 8858
L13976 9251
" />
<path d="M14370 7480
L14370 8464
" />
<path d="M14370 8464
L13976 8858
" />
<path d="M13976 9251
L13976 9645
" />
<path d="M13385 6889
L13779 6889
" />
<path d="M10236 6889
L10629 6889
" />
<path d="M9645 8464
L9645 7480
" />
<path d="M10039 8858
L9645 8464
" />
<path d="M10039 9251
L10039 8858
" />
<path d="M10039 9645
L10039 9251
" />
<path d="M9645 10039
L10039 9645
" />
<path d="M9645 11023
L9645 10039
" />
<path d="M10629 11614
L10236 11614
" />
<path d="M10629 10629
L10629 11614
" />
<path d="M13385 10629
L12992 10236
" />
<path d="M11023 10236
L10629 10629
" />
<path d="M12992 10236
L11023 10236
" />
<path d="M13385 11614
L13385 10629
" />
<path d="M13385 7874
L13385 6889
" />
<path d="M12992 8267
L13385 7874
" />
<path d="M11023 8267
L12992 8267
" />
<path d="M10629 7874
L11023 8267
" />
<path d="M10629 6889
L10629 7874
" />
<path d="M10629.9 11614.2 A393.701 393.701 0.0 0 0 11023.6 12007.9" />
<path d="M12992.1 12007.9 A393.701 393.701 0.0 0 0 13385.8 11614.2" />
<path d="M13385.8 6889.76 A393.701 393.701 0.0 0 0 12992.1 6496.06" />
<path d="M11023.6 6496.06 A393.701 393.701 0.0 0 0 10629.9 6889.76" />
<path d="M14173.2 12007.9 A590.551 590.551 0.0 0 0 14763.8 11417.3" />
<path d="M13976.4 11811 A590.551 590.551 0.0 0 0 14566.9 11220.5" />
<path d="M14763.8 7086.61 A590.551 590.551 0.0 0 0 14173.2 6496.06" />
<path d="M14566.9 7283.46 A590.551 590.551 0.0 0 0 13976.4 6692.91" />
<path d="M9842.52 6496.06 A590.551 590.551 0.0 0 0 9251.97 7086.61" />
<path d="M10039.4 6692.91 A590.551 590.551 0.0 0 0 9448.82 7283.46" />
<path d="M9251.97 11417.3 A590.551 590.551 0.0 0 0 9842.52 12007.9" />
<path d="M9448.82 11220.5 A590.551 590.551 0.0 0 0 10039.4 11811" />
<path d="M9645.67 11023.6 A590.551 590.551 0.0 0 0 10236.2 11614.2" />
<path d="M13779.5 11614.2 A590.551 590.551 0.0 0 0 14370.1 11023.6" />
<path d="M14370.1 7480.31 A590.551 590.551 0.0 0 0 13779.5 6889.76" />
<path d="M10236.2 6889.76 A590.551 590.551 0.0 0 0 9645.67 7480.31" />
<path d="M21688 7194
L21688 6634
" />
<path d="M22405 7194
L22405 6634
" />
<circle cx="21653.5" cy="11220.5" r="1031.5" /> 
<path d="M21244 11220
L20637 11220
" />
<path d="M22669 11220
L22062 11220
" />
<path d="M21244 11236
L20637 11236
" />
<path d="M22669 11236
L22062 11236
" />
<path d="M22668 11251
L22062 11251
" />
<path d="M21244 11251
L20638 11251
" />
<path d="M22668 11267
L22062 11267
" />
<path d="M21244 11267
L20638 11267
" />
<path d="M22667 11283
L22062 11283
" />
<path d="M21244 11283
L20639 11283
" />
<path d="M22666 11299
L22062 11299
" />
<path d="M21244 11299
L20640 11299
" />
<path d="M22664 11314
L22062 11314
" />
<path d="M21244 11314
L20642 11314
" />
<path d="M22663 11330
L22062 11330
" />
<path d="M21244 11330
L20643 11330
" />
<path d="M22661 11346
L22062 11346
" />
<path d="M21244 11346
L20645 11346
" />
<path d="M22659 11362
L22062 11362
" />
<path d="M21244 11362
L20647 11362
" />
<path d="M22657 11377
L22062 11377
" />
<path d="M21244 11377
L20649 11377
" />
<path d="M22654 11393
L22062 11393
" />
<path d="M21244 11393
L20652 11393
" />
<path d="M22651 11409
L22062 11409
" />
<path d="M21244 11409
L20655 11409
" />
<path d="M22648 11425
L22062 11425
" />
<path d="M21244 11425
L20658 11425
" />
<path d="M22645 11440
L22062 11440
" />
<path d="M21244 11440
L20661 11440
" />
<path d="M22642 11456
L22062 11456
" />
<path d="M21244 11456
L20664 11456
" />
<path d="M22638 11472
L22062 11472
" />
<path d="M21244 11472
L20668 11472
" />
<path d="M22634 11488
L22062 11488
" />
<path d="M21244 11488
L20672 11488
" />
<path d="M22629 11504
L22062 11504
" />
<path d="M21244 11504
L20677 11504
" />
<path d="M22625 11520
L22062 11520
" />
<path d="M21244 11520
L20681 11520
" />
<path d="M22620 11535
L22062 11535
" />
<path d="M21244 11535
L20687 11535
" />
<path d="M22614 11551
L22062 11551
" />
<path d="M21244 11551
L20692 11551
" />
<path d="M22609 11567
L22062 11567
" />
<path d="M21244 11567
L20697 11567
" />
<path d="M22603 11583
L22062 11583
" />
<path d="M21244 11583
L20703 11583
" />
<path d="M22597 11598
L22062 11598
" />
<path d="M21244 11598
L20709 11598
" />
<path d="M22591 11614
L22062 11614
" />
<path d="M21244 11614
L20715 11614
" />
<path d="M22584 11630
L22062 11630
" />
<path d="M21244 11630
L20722 11630
" />
<path d="M22577 11646
L22062 11646
" />
<path d="M21244 11646
L20729 11646
" />
<path d="M22570 11661
L22062 11661
" />
<path d="M21244 11661
L20736 11661
" />
<path d="M22562 11677
L22062 11677
" />
<path d="M21244 11677
L20744 11677
" />
<path d="M22555 11693
L22062 11693
" />
<path d="M21244 11693
L20751 11693
" />
<path d="M22546 11709
L22062 11709
" />
<path d="M21244 11709
L20760 11709
" />
<path d="M22538 11724
L22062 11724
" />
<path d="M21244 11724
L20768 11724
" />
<path d="M22529 11740
L22062 11740
" />
<path d="M21244 11740
L20777 11740
" />
<path d="M22519 11756
L22062 11756
" />
<path d="M21244 11756
L20787 11756
" />
<path d="M22509 11772
L22062 11772
" />
<path d="M21244 11772
L20797 11772
" />
<path d="M22499 11787
L22062 11787
" />
<path d="M21244 11787
L20807 11787
" />
<path d="M22488 11803
L22062 11803
" />
<path d="M21244 11803
L20818 11803
" />
<path d="M22478 11819
L22062 11819
" />
<path d="M21244 11819
L20828 11819
" />
<path d="M22466 11835
L22062 11835
" />
<path d="M21244 11835
L20840 11835
" />
<path d="M22454 11850
L22062 11850
" />
<path d="M21244 11850
L20852 11850
" />
<path d="M22442 11866
L22062 11866
" />
<path d="M21244 11866
L20864 11866
" />
<path d="M22429 11882
L22062 11882
" />
<path d="M21244 11882
L20877 11882
" />
<path d="M22416 11898
L22062 11898
" />
<path d="M21244 11898
L20890 11898
" />
<path d="M22401 11913
L22062 11913
" />
<path d="M21244 11913
L20905 11913
" />
<path d="M22387 11929
L22062 11929
" />
<path d="M21244 11929
L20919 11929
" />
<path d="M22372 11945
L22062 11945
" />
<path d="M21244 11945
L20934 11945
" />
<path d="M22356 11961
L22062 11961
" />
<path d="M21244 11961
L20950 11961
" />
<path d="M22339 11976
L22062 11976
" />
<path d="M21244 11976
L20967 11976
" />
<path d="M22322 11992
L22062 11992
" />
<path d="M21244 11992
L20984 11992
" />
<path d="M22304 12008
L22062 12008
" />
<path d="M21244 12008
L21002 12008
" />
<path d="M22285 12024
L21021 12024
" />
<path d="M22265 12039
L21041 12039
" />
<path d="M22244 12055
L21062 12055
" />
<path d="M22221 12071
L21085 12071
" />
<path d="M22198 12087
L21109 12087
" />
<path d="M22172 12102
L21134 12102
" />
<path d="M22146 12118
L21161 12118
" />
<path d="M22117 12134
L21189 12134
" />
<path d="M22085 12150
L21221 12150
" />
<path d="M22051 12165
L21255 12165
" />
<path d="M22013 12181
L21293 12181
" />
<path d="M21970 12197
L21336 12197
" />
<path d="M21920 12212
L21387 12212
" />
<path d="M21857 12228
L21449 12228
" />
<path d="M21765 12244
L21541 12244
" />
<path d="M22234 10116
L22234 10313
" />
<path d="M22332 10214
L22135 10214
" />
<circle cx="4724.41" cy="6299.21" r="1031.5" /> 
<path d="M4724 5889
L4724 5283
" />
<path d="M4724 7314
L4724 6708
" />
<path d="M4708 5889
L4708 5283
" />
<path d="M4708 7314
L4708 6708
" />
<path d="M4692 7314
L4692 6708
" />
<path d="M4692 5889
L4692 5283
" />
<path d="M4677 7314
L4677 6708
" />
<path d="M4677 5889
L4677 5284
" />
<path d="M4661 7313
L4661 6708
" />
<path d="M4661 5889
L4661 5285
" />
<path d="M4645 7312
L4645 6708
" />
<path d="M4645 5889
L4645 5286
" />
<path d="M4629 7310
L4629 6708
" />
<path d="M4629 5889
L4629 5287
" />
<path d="M4614 7309
L4614 6708
" />
<path d="M4614 5889
L4614 5289
" />
<path d="M4598 7307
L4598 6708
" />
<path d="M4598 5889
L4598 5290
" />
<path d="M4582 7305
L4582 6708
" />
<path d="M4582 5889
L4582 5292
" />
<path d="M4566 7303
L4566 6708
" />
<path d="M4566 5889
L4566 5295
" />
<path d="M4551 7300
L4551 6708
" />
<path d="M4551 5889
L4551 5298
" />
<path d="M4535 7297
L4535 6708
" />
<path d="M4535 5889
L4535 5300
" />
<path d="M4519 7294
L4519 6708
" />
<path d="M4519 5889
L4519 5303
" />
<path d="M4503 7291
L4503 6708
" />
<path d="M4503 5889
L4503 5307
" />
<path d="M4488 7287
L4488 6708
" />
<path d="M4488 5889
L4488 5310
" />
<path d="M4472 7283
L4472 6708
" />
<path d="M4472 5889
L4472 5314
" />
<path d="M4456 7279
L4456 6708
" />
<path d="M4456 5889
L4456 5318
" />
<path d="M4440 7275
L4440 6708
" />
<path d="M4440 5889
L4440 5322
" />
<path d="M4424 7270
L4424 6708
" />
<path d="M4424 5889
L4424 5327
" />
<path d="M4409 7265
L4409 6708
" />
<path d="M4409 5889
L4409 5332
" />
<path d="M4393 7260
L4393 6708
" />
<path d="M4393 5889
L4393 5337
" />
<path d="M4377 7255
L4377 6708
" />
<path d="M4377 5889
L4377 5343
" />
<path d="M4361 7249
L4361 6708
" />
<path d="M4361 5889
L4361 5348
" />
<path d="M4346 7243
L4346 6708
" />
<path d="M4346 5889
L4346 5355
" />
<path d="M4330 7237
L4330 6708
" />
<path d="M4330 5889
L4330 5361
" />
<path d="M4314 7230
L4314 6708
" />
<path d="M4314 5889
L4314 5368
" />
<path d="M4298 7223
L4298 6708
" />
<path d="M4298 5889
L4298 5374
" />
<path d="M4283 7216
L4283 6708
" />
<path d="M4283 5889
L4283 5382
" />
<path d="M4267 7208
L4267 6708
" />
<path d="M4267 5889
L4267 5389
" />
<path d="M4251 7200
L4251 6708
" />
<path d="M4251 5889
L4251 5397
" />
<path d="M4235 7192
L4235 6708
" />
<path d="M4235 5889
L4235 5406
" />
<path d="M4220 7183
L4220 6708
" />
<path d="M4220 5889
L4220 5414
" />
<path d="M4204 7174
L4204 6708
" />
<path d="M4204 5889
L4204 5423
" />
<path d="M4188 7165
L4188 6708
" />
<path d="M4188 5889
L4188 5433
" />
<path d="M4172 7155
L4172 6708
" />
<path d="M4172 5889
L4172 5442
" />
<path d="M4157 7145
L4157 6708
" />
<path d="M4157 5889
L4157 5453
" />
<path d="M4141 7134
L4141 6708
" />
<path d="M4141 5889
L4141 5463
" />
<path d="M4125 7124
L4125 6708
" />
<path d="M4125 5889
L4125 5474
" />
<path d="M4109 7112
L4109 6708
" />
<path d="M4109 5889
L4109 5486
" />
<path d="M4094 7100
L4094 6708
" />
<path d="M4094 5889
L4094 5498
" />
<path d="M4078 7088
L4078 6708
" />
<path d="M4078 5889
L4078 5510
" />
<path d="M4062 7075
L4062 6708
" />
<path d="M4062 5889
L4062 5523
" />
<path d="M4046 7061
L4046 6708
" />
<path d="M4046 5889
L4046 5536
" />
<path d="M4031 7047
L4031 6708
" />
<path d="M4031 5889
L4031 5550
" />
<path d="M4015 7033
L4015 6708
" />
<path d="M4015 5889
L4015 5565
" />
<path d="M3999 7018
L3999 6708
" />
<path d="M3999 5889
L3999 5580
" />
<path d="M3983 7001
L3983 6708
" />
<path d="M3983 5889
L3983 5596
" />
<path d="M3968 6985
L3968 6708
" />
<path d="M3968 5889
L3968 5612
" />
<path d="M3952 6968
L3952 6708
" />
<path d="M3952 5889
L3952 5630
" />
<path d="M3936 6950
L3936 6708
" />
<path d="M3936 5889
L3936 5648
" />
<path d="M3920 6931
L3920 5667
" />
<path d="M3905 6911
L3905 5687
" />
<path d="M3889 6889
L3889 5708
" />
<path d="M3873 6867
L3873 5731
" />
<path d="M3857 6843
L3857 5754
" />
<path d="M3842 6818
L3842 5779
" />
<path d="M3826 6791
L3826 5806
" />
<path d="M3810 6762
L3810 5835
" />
<path d="M3794 6731
L3794 5866
" />
<path d="M3779 6697
L3779 5901
" />
<path d="M3763 6659
L3763 5938
" />
<path d="M3747 6616
L3747 5982
" />
<path d="M3731 6565
L3731 6032
" />
<path d="M3716 6503
L3716 6095
" />
<path d="M3700 6411
L3700 6187
" />
<path d="M5828 6879
L5631 6879
" />
<path d="M5730 6978
L5730 6781
" />
<circle cx="6496.06" cy="9645.67" r="2015.75" /> 
<path d="M6496 11645
L6496 7645
" />
<path d="M6480 11645
L6480 7645
" />
<path d="M6464 11645
L6464 7645
" />
<path d="M6448 11645
L6448 7646
" />
<path d="M6433 11644
L6433 7646
" />
<path d="M6417 11644
L6417 7646
" />
<path d="M6401 11643
L6401 7647
" />
<path d="M6385 11642
L6385 7648
" />
<path d="M6370 11641
L6370 7649
" />
<path d="M6354 11640
L6354 7650
" />
<path d="M6338 11639
L6338 7651
" />
<path d="M6322 11638
L6322 7652
" />
<path d="M6307 11637
L6307 7654
" />
<path d="M6291 11635
L6291 7655
" />
<path d="M6275 11633
L6275 7657
" />
<path d="M6259 11631
L6259 7659
" />
<path d="M6244 11629
L6244 7661
" />
<path d="M6228 11627
L6228 7663
" />
<path d="M6212 11625
L6212 7665
" />
<path d="M6196 11623
L6196 7667
" />
<path d="M6180 11621
L6180 7670
" />
<path d="M6164 11618
L6164 7672
" />
<path d="M6149 11615
L6149 7675
" />
<path d="M6133 11612
L6133 7678
" />
<path d="M6117 11610
L6117 7681
" />
<path d="M6101 11607
L6101 7684
" />
<path d="M6086 11603
L6086 7687
" />
<path d="M6070 11600
L6070 7690
" />
<path d="M6054 11596
L6054 7694
" />
<path d="M6038 11593
L6038 7698
" />
<path d="M6023 11589
L6023 7701
" />
<path d="M6007 11585
L6007 7705
" />
<path d="M5991 11581
L5991 10134
" />
<path d="M5991 9157
L5991 7709
" />
<path d="M5975 11577
L5975 10134
" />
<path d="M5975 9157
L5975 7713
" />
<path d="M5960 11573
L5960 10134
" />
<path d="M5960 9157
L5960 7717
" />
<path d="M5944 11568
L5944 10134
" />
<path d="M5944 9157
L5944 7722
" />
<path d="M5928 11564
L5928 10134
" />
<path d="M5928 9157
L5928 7726
" />
<path d="M5912 11559
L5912 10134
" />
<path d="M5912 9157
L5912 7731
" />
<path d="M5897 11555
L5897 10134
" />
<path d="M5897 9157
L5897 7736
" />
<path d="M5881 11550
L5881 10134
" />
<path d="M5881 9157
L5881 7741
" />
<path d="M5865 11544
L5865 10134
" />
<path d="M5865 9157
L5865 7746
" />
<path d="M5850 11539
L5850 10134
" />
<path d="M5850 9157
L5850 7751
" />
<path d="M5834 11534
L5834 10134
" />
<path d="M5834 9157
L5834 7757
" />
<path d="M5818 11528
L5818 10134
" />
<path d="M5818 9157
L5818 7762
" />
<path d="M5802 11522
L5802 10134
" />
<path d="M5802 9157
L5802 7768
" />
<path d="M5787 11517
L5787 10134
" />
<path d="M5787 9157
L5787 7774
" />
<path d="M5771 11511
L5771 10134
" />
<path d="M5771 9157
L5771 7780
" />
<path d="M5755 11505
L5755 10134
" />
<path d="M5755 9157
L5755 7786
" />
<path d="M5739 11498
L5739 10134
" />
<path d="M5739 9157
L5739 7792
" />
<path d="M5724 11492
L5724 10134
" />
<path d="M5724 9157
L5724 7799
" />
<path d="M5708 11485
L5708 10134
" />
<path d="M5708 9157
L5708 7805
" />
<path d="M5692 11479
L5692 10134
" />
<path d="M5692 9157
L5692 7812
" />
<path d="M5676 11472
L5676 10134
" />
<path d="M5676 9157
L5676 7819
" />
<path d="M5661 11464
L5661 10134
" />
<path d="M5661 9157
L5661 7826
" />
<path d="M5645 11457
L5645 10134
" />
<path d="M5645 9157
L5645 7833
" />
<path d="M5629 11450
L5629 10134
" />
<path d="M5629 9157
L5629 7840
" />
<path d="M5613 11442
L5613 10134
" />
<path d="M5613 9157
L5613 7848
" />
<path d="M5598 11435
L5598 10134
" />
<path d="M5598 9157
L5598 7856
" />
<path d="M5582 11427
L5582 10134
" />
<path d="M5582 9157
L5582 7864
" />
<path d="M5566 11418
L5566 10134
" />
<path d="M5566 9157
L5566 7872
" />
<path d="M5550 11410
L5550 10134
" />
<path d="M5550 9157
L5550 7880
" />
<path d="M5535 11402
L5535 10134
" />
<path d="M5535 9157
L5535 7888
" />
<path d="M5519 11393
L5519 10134
" />
<path d="M5519 9157
L5519 7897
" />
<path d="M5503 11384
L5503 10134
" />
<path d="M5503 9157
L5503 7906
" />
<path d="M5487 11375
L5487 10134
" />
<path d="M5487 9157
L5487 7915
" />
<path d="M5472 11366
L5472 10134
" />
<path d="M5472 9157
L5472 7924
" />
<path d="M5456 11357
L5456 10134
" />
<path d="M5456 9157
L5456 7934
" />
<path d="M5440 11347
L5440 10134
" />
<path d="M5440 9157
L5440 7943
" />
<path d="M5424 11337
L5424 10134
" />
<path d="M5424 9157
L5424 7953
" />
<path d="M5409 11327
L5409 10134
" />
<path d="M5409 9157
L5409 7963
" />
<path d="M5393 11317
L5393 10134
" />
<path d="M5393 9157
L5393 7973
" />
<path d="M5377 11307
L5377 10134
" />
<path d="M5377 9157
L5377 7983
" />
<path d="M5361 11296
L5361 10134
" />
<path d="M5361 9157
L5361 7994
" />
<path d="M5346 11285
L5346 10134
" />
<path d="M5346 9157
L5346 8005
" />
<path d="M5330 11274
L5330 10134
" />
<path d="M5330 9157
L5330 8016
" />
<path d="M5314 11263
L5314 10134
" />
<path d="M5314 9157
L5314 8027
" />
<path d="M5298 11251
L5298 10134
" />
<path d="M5298 9157
L5298 8039
" />
<path d="M5283 11240
L5283 10134
" />
<path d="M5283 9157
L5283 8051
" />
<path d="M5267 11228
L5267 10134
" />
<path d="M5267 9157
L5267 8062
" />
<path d="M5251 11216
L5251 10134
" />
<path d="M5251 9157
L5251 8075
" />
<path d="M5235 11203
L5235 10134
" />
<path d="M5235 9157
L5235 8087
" />
<path d="M5220 11190
L5220 10134
" />
<path d="M5220 9157
L5220 8100
" />
<path d="M5204 11177
L5204 10134
" />
<path d="M5204 9157
L5204 8113
" />
<path d="M5188 11164
L5188 10134
" />
<path d="M5188 9157
L5188 8126
" />
<path d="M5172 11151
L5172 10134
" />
<path d="M5172 9157
L5172 8140
" />
<path d="M5157 11137
L5157 10134
" />
<path d="M5157 9157
L5157 8153
" />
<path d="M5141 11123
L5141 10134
" />
<path d="M5141 9157
L5141 8168
" />
<path d="M5125 11108
L5125 10134
" />
<path d="M5125 9157
L5125 8182
" />
<path d="M5109 11094
L5109 10134
" />
<path d="M5109 9157
L5109 8197
" />
<path d="M5094 11078
L5094 10134
" />
<path d="M5094 9157
L5094 8212
" />
<path d="M5078 11063
L5078 10134
" />
<path d="M5078 9157
L5078 8227
" />
<path d="M5062 11047
L5062 10134
" />
<path d="M5062 9157
L5062 8243
" />
<path d="M5046 11031
L5046 10134
" />
<path d="M5046 9157
L5046 8259
" />
<path d="M5031 11014
L5031 10134
" />
<path d="M5031 9157
L5031 8276
" />
<path d="M5015 10998
L5015 8292
" />
<path d="M4999 10981
L4999 8310
" />
<path d="M4983 10963
L4983 8327
" />
<path d="M4968 10945
L4968 8346
" />
<path d="M4952 10926
L4952 8364
" />
<path d="M4936 10907
L4936 8383
" />
<path d="M4920 10888
L4920 8403
" />
<path d="M4905 10868
L4905 8422
" />
<path d="M4889 10848
L4889 8443
" />
<path d="M4873 10826
L4873 8464
" />
<path d="M4857 10805
L4857 8486
" />
<path d="M4842 10783
L4842 8508
" />
<path d="M4826 10759
L4826 8531
" />
<path d="M4810 10736
L4810 8555
" />
<path d="M4794 10712
L4794 8579
" />
<path d="M4779 10687
L4779 8604
" />
<path d="M4763 10661
L4763 8630
" />
<path d="M4747 10633
L4747 8657
" />
<path d="M4731 10605
L4731 8685
" />
<path d="M4716 10576
L4716 8714
" />
<path d="M4700 10546
L4700 8744
" />
<path d="M4684 10515
L4684 8775
" />
<path d="M4668 10482
L4668 8809
" />
<path d="M4653 10447
L4653 8843
" />
<path d="M4637 10411
L4637 8880
" />
<path d="M4621 10372
L4621 8918
" />
<path d="M4605 10331
L4605 8959
" />
<path d="M4590 10287
L4590 9003
" />
<path d="M4574 10240
L4574 9051
" />
<path d="M4558 10188
L4558 9103
" />
<path d="M4542 10129
L4542 9161
" />
<path d="M4527 10063
L4527 9227
" />
<path d="M4511 9985
L4511 9306
" />
<path d="M4495 9881
L4495 9409
" />
<path d="M8653 10777
L8259 10777
" />
<path d="M8456 10974
L8456 10580
" />
<path d="M29974 12047
L29974 10448
" />
<path d="M29974 10448
L29080 10448
" />
<path d="M29080 10448
L29080 12047
" />
<path d="M27594 11703
L27594 11131
" />
<path d="M28311 11703
L28311 11131
" />
<path d="M22834 3519
L21476 3519
" />
<path d="M22834 3519
L23602 3519
" />
<path d="M22834 5535
L22066 5535
" />
<path d="M22834 5535
L23602 5535
" />
<path d="M18110 3149
L17716 3543
" />
<path d="M18110 3543
L18110 3149
" />
<path d="M17716 3543
L18110 3543
" />
<path d="M14566 3543
L14173 3543
" />
<path d="M14173 3149
L14173 3543
" />
<path d="M14566 3543
L14173 3149
" />
<path d="M16929 4330
L16929 4724
" />
<path d="M15354 4330
L15354 4724
" />
<path d="M19685 393
L19291 0
" />
<path d="M12598 393
L12992 0
" />
<path d="M18897 0
L18897 393
" />
<path d="M13385 393
L13385 0
" />
<path d="M18503 5511
L18897 5118
" />
<path d="M13385 5118
L13779 5511
" />
<path d="M13385 2755
L13385 5118
" />
<path d="M18897 2755
L18897 5118
" />
<path d="M19291 1574
L18690 2480
" />
<path d="M19291 393
L19291 1574
" />
<path d="M12992 1574
L13592 2480
" />
<path d="M12992 393
L12992 1574
" />
<path d="M13385 1574
L13385 393
" />
<path d="M13385 1574
L13592 2480
" />
<path d="M18897 1574
L18690 2480
" />
<path d="M18897 393
L18897 1574
" />
<path d="M18110 1968
L18503 2362
" />
<path d="M17322 1968
L18110 1968
" />
<path d="M14173 1968
L13779 2362
" />
<path d="M14960 1968
L14173 1968
" />
<path d="M17322 393
L16929 0
" />
<path d="M17716 393
L17322 393
" />
<path d="M14960 393
L15354 0
" />
<path d="M14566 393
L14960 393
" />
<path d="M18110 787
L18503 787
" />
<path d="M17716 1181
L18503 1181
" />
<path d="M14173 787
L13779 787
" />
<path d="M14566 1181
L13779 1181
" />
<path d="M14960 1574
L14173 1574
" />
<path d="M15354 1968
L14960 1574
" />
<path d="M17322 1574
L18110 1574
" />
<path d="M16929 1968
L17322 1574
" />
<path d="M16141 2362
L18690 0
" />
<path d="M13592 0
L16141 2362
" />
<path d="M16141 1968
L13592 0
" />
<path d="M18690 0
L16141 1968
" />
<path d="M16929 5511
L17322 5118
" />
<path d="M17322 5118
L16929 5511
" />
<path d="M17716 5118
L17322 5118
" />
<path d="M15354 5511
L16535 5511
" />
<path d="M14960 5118
L15354 5511
" />
<path d="M14566 5118
L14960 5118
" />
<path d="M15748 3149
L16929 3937
" />
<path d="M16535 3149
L15748 3149
" />
<path d="M15354 3937
L16535 3149
" />
<path d="M15354 3543
L15354 3937
" />
<path d="M14566 2755
L15354 3543
" />
<path d="M17716 2755
L14566 2755
" />
<path d="M16929 3543
L17716 2755
" />
<path d="M16929 3937
L16929 3543
" />
<path d="M16535 3543
L16929 3937
" />
<path d="M15748 3543
L16535 3543
" />
<path d="M15354 3937
L15748 3543
" />
<path d="M18110 5511
L16141 5511
" />
<path d="M18503 5118
L18110 5511
" />
<path d="M18690 2480
L18503 5118
" />
<path d="M17716 3149
L18690 2480
" />
<path d="M17322 3543
L17716 3149
" />
<path d="M17322 4724
L17322 3543
" />
<path d="M16929 5118
L17322 4724
" />
<path d="M16535 5118
L16929 5118
" />
<path d="M16141 5511
L16535 5118
" />
<path d="M14566 3149
L13592 2480
" />
<path d="M14960 3543
L14566 3149
" />
<path d="M14960 4724
L14960 3543
" />
<path d="M15354 5118
L14960 4724
" />
<path d="M15748 5118
L15354 5118
" />
<path d="M16141 5511
L15748 5118
" />
<path d="M14173 5511
L16141 5511
" />
<path d="M13779 5118
L14173 5511
" />
<path d="M13592 2480
L13779 5118
" />
<path d="M13592 0
L13592 2480
" />
<path d="M18690 0
L18690 2480
" />
<path d="M18690 2480
L13592 2480
" />
<path d="M13592 0
L18690 0
" />
<path d="M28976 5905
L28976 4330
" />
<path d="M28976 5905
L28976 7480
" />
<path d="M28976 4330
L26102 4330
" />
<path d="M28976 7480
L26102 7480
" />
<path d="M26102 7480
L26102 4330
" />
<path d="M28937 7677
L29133 7480
" />
<path d="M29133 7480
L29133 4330
" />
<path d="M29133 4330
L28937 4133
" />
<path d="M28740 7874
L28543 7677
" />
<path d="M28543 7677
L28543 7874
" />
<path d="M28543 7874
L28346 7677
" />
<path d="M28346 7677
L28346 7874
" />
<path d="M28346 7874
L28149 7677
" />
<path d="M28149 7677
L28149 7874
" />
<path d="M28149 7874
L27952 7677
" />
<path d="M27952 7677
L27952 7874
" />
<path d="M27952 7874
L27755 7677
" />
<path d="M27755 7677
L27755 7874
" />
<path d="M27755 7874
L27559 7677
" />
<path d="M27559 7677
L27559 7874
" />
<path d="M27559 7874
L27362 7677
" />
<path d="M27362 7677
L27362 7874
" />
<path d="M27362 7874
L27165 7677
" />
<path d="M27165 7677
L27165 7874
" />
<path d="M27165 7874
L26968 7677
" />
<path d="M26968 7677
L26968 7874
" />
<path d="M26968 7874
L26771 7677
" />
<path d="M26771 7677
L26771 7874
" />
<path d="M26771 7874
L26574 7677
" />
<path d="M26574 7677
L26574 7874
" />
<path d="M26574 7874
L26377 7677
" />
<path d="M26377 7677
L26377 7874
" />
<path d="M26377 7874
L26181 7677
" />
<path d="M28740 3937
L28543 4133
" />
<path d="M28543 4133
L28543 3937
" />
<path d="M28543 3937
L28346 4133
" />
<path d="M28346 4133
L28346 3937
" />
<path d="M28346 3937
L28149 4133
" />
<path d="M28149 4133
L28149 3937
" />
<path d="M28149 3937
L27952 4133
" />
<path d="M27952 4133
L27952 3937
" />
<path d="M27952 3937
L27755 4133
" />
<path d="M27755 4133
L27755 3937
" />
<path d="M27755 3937
L27559 4133
" />
<path d="M27559 4133
L27559 3937
" />
<path d="M27559 3937
L27362 4133
" />
<path d="M27362 4133
L27362 3937
" />
<path d="M27362 3937
L27165 4133
" />
<path d="M27165 4133
L27165 3937
" />
<path d="M27165 3937
L26968 4133
" />
<path d="M26968 4133
L26968 3937
" />
<path d="M26968 3937
L26771 4133
" />
<path d="M26771 4133
L26771 3937
" />
<path d="M26771 3937
L26574 4133
" />
<path d="M26574 4133
L26574 3937
" />
<path d="M26574 3937
L26377 4133
" />
<path d="M26377 4133
L26377 3937
" />
<path d="M26377 3937
L26181 4133
" />
<path d="M29330 4330
L28937 3937
" />
<path d="M29330 7480
L28937 7874
" />
<path d="M29330 5905
L30511 5905
" />
<path d="M29527 6102
L30511 6102
" />
<path d="M29527 5708
L30511 5708
" />
<path d="M29527 7480
L30511 7480
" />
<path d="M29527 4330
L30511 4330
" />
<path d="M29527 7677
L29330 7874
" />
<path d="M29527 4133
L29330 3937
" />
<path d="M29330 5708
L29330 4527
" />
<path d="M29330 6102
L29330 7283
" />
<path d="M28543 7283
L28740 7086
" />
<path d="M28346 7283
L28740 6889
" />
<path d="M28149 7283
L28740 6692
" />
<path d="M28740 4724
L28543 4527
" />
<path d="M28346 4527
L28740 4921
" />
<path d="M28149 4527
L28740 5118
" />
<path d="M28346 5905
L28740 6299
" />
<path d="M28740 6299
L28740 5511
" />
<path d="M28740 5511
L28346 5905
" />
<path d="M28149 5708
L28346 5905
" />
<path d="M28149 6102
L28346 5905
" />
<path d="M28346 5905
L28149 6102
" />
<path d="M28149 6102
L28740 6299
" />
<path d="M28149 5708
L28740 5511
" />
<path d="M26377 7086
L26968 7283
" />
<path d="M26377 7086
L26968 7086
" />
<path d="M26377 7086
L26771 6889
" />
<path d="M26377 4724
L26968 4527
" />
<path d="M26377 4724
L26968 4724
" />
<path d="M26377 4724
L26771 4921
" />
<path d="M30511 7480
L30314 7283
" />
<path d="M30314 7283
L29527 7480
" />
<path d="M30511 4330
L30314 4527
" />
<path d="M30314 4527
L29527 4330
" />
<path d="M30511 5708
L30314 5511
" />
<path d="M30314 5511
L29527 5708
" />
<path d="M30511 6102
L30314 6299
" />
<path d="M30314 6299
L29527 6102
" />
<path d="M8267 393
L8070 1181
" />
<path d="M8070 196
L8267 393
" />
<path d="M7480 393
L7677 1181
" />
<path d="M7677 196
L7480 393
" />
<path d="M6496 393
L6299 1181
" />
<path d="M6299 196
L6496 393
" />
<path d="M9251 393
L9448 1181
" />
<path d="M9448 196
L9251 393
" />
<path d="M6692 4330
L6889 3937
" />
<path d="M6692 4330
L6692 3740
" />
<path d="M6692 4330
L6496 3740
" />
<path d="M9055 4330
L8858 3937
" />
<path d="M9055 4330
L9055 3740
" />
<path d="M9055 4330
L9251 3740
" />
<path d="M7677 2559
L7480 1968
" />
<path d="M8070 2559
L8267 1968
" />
<path d="M7874 2362
L8070 2559
" />
<path d="M8070 2559
L7874 2362
" />
<path d="M7677 2559
L7874 2362
" />
<path d="M7480 1968
L7874 2362
" />
<path d="M8267 1968
L7480 1968
" />
<path d="M7874 2362
L8267 1968
" />
<path d="M6496 2559
L7086 1968
" />
<path d="M6496 2362
L6889 1968
" />
<path d="M6692 1968
L6496 2165
" />
<path d="M9251 2559
L8661 1968
" />
<path d="M9251 2362
L8858 1968
" />
<path d="M9251 2165
L9055 1968
" />
<path d="M8070 1377
L9251 1377
" />
<path d="M7677 1377
L6496 1377
" />
<path d="M6102 1181
L5905 1377
" />
<path d="M9645 1181
L9842 1377
" />
<path d="M6299 1181
L6299 196
" />
<path d="M9448 1181
L9448 196
" />
<path d="M7677 1181
L7677 196
" />
<path d="M8070 1181
L8070 196
" />
<path d="M7874 1377
L7874 196
" />
<path d="M9448 1377
L9842 1771
" />
<path d="M6299 1377
L5905 1771
" />
<path d="M5905 4330
L6102 4527
" />
<path d="M6102 4330
L5905 4330
" />
<path d="M5905 4133
L6102 4330
" />
<path d="M6102 4133
L5905 4133
" />
<path d="M5905 3937
L6102 4133
" />
<path d="M6102 3937
L5905 3937
" />
<path d="M5905 3740
L6102 3937
" />
<path d="M6102 3740
L5905 3740
" />
<path d="M5905 3543
L6102 3740
" />
<path d="M6102 3543
L5905 3543
" />
<path d="M5905 3346
L6102 3543
" />
<path d="M6102 3346
L5905 3346
" />
<path d="M5905 3149
L6102 3346
" />
<path d="M6102 3149
L5905 3149
" />
<path d="M5905 2952
L6102 3149
" />
<path d="M6102 2952
L5905 2952
" />
<path d="M5905 2755
L6102 2952
" />
<path d="M6102 2755
L5905 2755
" />
<path d="M5905 2559
L6102 2755
" />
<path d="M6102 2559
L5905 2559
" />
<path d="M5905 2362
L6102 2559
" />
<path d="M6102 2362
L5905 2362
" />
<path d="M5905 2165
L6102 2362
" />
<path d="M6102 2165
L5905 2165
" />
<path d="M5905 1968
L6102 2165
" />
<path d="M9842 4330
L9645 4527
" />
<path d="M9645 4330
L9842 4330
" />
<path d="M9842 4133
L9645 4330
" />
<path d="M9645 4133
L9842 4133
" />
<path d="M9842 3937
L9645 4133
" />
<path d="M9645 3937
L9842 3937
" />
<path d="M9842 3740
L9645 3937
" />
<path d="M9645 3740
L9842 3740
" />
<path d="M9842 3543
L9645 3740
" />
<path d="M9645 3543
L9842 3543
" />
<path d="M9842 3346
L9645 3543
" />
<path d="M9645 3346
L9842 3346
" />
<path d="M9842 3149
L9645 3346
" />
<path d="M9645 3149
L9842 3149
" />
<path d="M9842 2952
L9645 3149
" />
<path d="M9645 2952
L9842 2952
" />
<path d="M9842 2755
L9645 2952
" />
<path d="M9645 2755
L9842 2755
" />
<path d="M9842 2559
L9645 2755
" />
<path d="M9645 2559
L9842 2559
" />
<path d="M9842 2362
L9645 2559
" />
<path d="M9645 2362
L9842 2362
" />
<path d="M9842 2165
L9645 2362
" />
<path d="M9645 2165
L9842 2165
" />
<path d="M9842 1968
L9645 2165
" />
<path d="M6299 1574
L6102 1771
" />
<path d="M9448 1574
L6299 1574
" />
<path d="M9645 1771
L9448 1574
" />
<path d="M9448 4606
L6299 4606
" />
<path d="M9448 1732
L9448 4606
" />
<path d="M6299 1732
L6299 4606
" />
<path d="M7874 1732
L9448 1732
" />
<path d="M7874 1732
L6299 1732
" />
<path d="M24015 295
L24901 295
" />
<path d="M24901 295
L25098 492
" />
<path d="M25098 492
L25098 1476
" />
<path d="M24803 1968
L24212 1968
" />
<path d="M25098 1476
L24803 1968
" />
<path d="M23917 1476
L22834 1476
" />
<path d="M23818 0
L24015 295
" />
<path d="M22834 0
L23818 0
" />
<path d="M24212 1968
L23917 1476
" />
<path d="M22834 0
L21850 0
" />
<path d="M21850 0
L21653 295
" />
<path d="M21653 295
L20767 295
" />
<path d="M20767 295
L20570 492
" />
<path d="M20570 492
L20570 1476
" />
<path d="M20570 1476
L20866 1968
" />
<path d="M20866 1968
L21456 1968
" />
<path d="M21456 1968
L21751 1476
" />
<path d="M21751 1476
L22834 1476
" />
<path d="M21161 1968
L21850 2952
" />
<path d="M21850 2952
L23818 2952
" />
<path d="M23818 2952
L24507 1968
" />
<path d="M21850 2952
L22244 2755
" />
<path d="M22244 2755
L22834 2755
" />
<path d="M22834 2755
L23425 2755
" />
<path d="M23425 2755
L23818 2952
" />
<path d="M23425 2755
L23622 2362
" />
<path d="M22244 2755
L22047 2362
" />
<path d="M18110 10259
L18877 10259
" />
<path d="M18110 10259
L17342 10259
" />
<path d="M18110 8244
L18877 8244
" />
<path d="M18110 8244
L16751 8244
" />
<path d="M1023 8169
L1023 4429
" />
<path d="M1023 4429
L2755 4429
" />
<path d="M1023 8169
L2755 8169
" />
<path d="M2755 4429
L2755 8169
" />
<path d="M1181 8267
L984 8267
" />
<path d="M984 8267
L787 8070
" />
<path d="M1181 4330
L984 4330
" />
<path d="M984 4330
L787 4527
" />
<path d="M2755 8267
L2952 8267
" />
<path d="M2952 8267
L3149 8070
" />
<path d="M3149 8070
L3149 7874
" />
<path d="M3149 7874
L3149 7677
" />
<path d="M3149 7677
L2952 7480
" />
<path d="M2952 4330
L3149 4527
" />
<path d="M3149 4921
L2952 5118
" />
<path d="M3149 4724
L3149 4921
" />
<path d="M3149 4527
L3149 4724
" />
<path d="M2952 4330
L2755 4330
" />
<path d="M2952 7283
L2952 5314
" />
<path d="M3149 7480
L3149 5118
" />
<path d="M2952 4921
L2952 4527
" />
<path d="M2952 8070
L2952 7677
" />
<path d="M2559 8464
L1377 8464
" />
<path d="M1574 8267
L2362 8267
" />
<path d="M1574 4330
L2362 4330
" />
<path d="M1377 4133
L2559 4133
" />
<path d="M787 4724
L590 4921
" />
<path d="M787 7874
L590 7677
" />
<path d="M787 7677
L787 7086
" />
<path d="M787 4921
L787 5511
" />
<path d="M787 6299
L590 6496
" />
<path d="M590 6496
L590 6102
" />
<path d="M590 6102
L787 6299
" />
<path d="M393 6299
L590 6496
" />
<path d="M393 6299
L590 6102
" />
<path d="M787 6102
L590 5905
" />
<path d="M590 5905
L787 5905
" />
<path d="M787 5905
L590 5708
" />
<path d="M590 5708
L787 5708
" />
<path d="M787 5708
L590 5511
" />
<path d="M590 5511
L787 5511
" />
<path d="M787 7086
L590 7086
" />
<path d="M590 7086
L787 6889
" />
<path d="M787 6889
L590 6889
" />
<path d="M590 6889
L787 6692
" />
<path d="M787 6692
L590 6692
" />
<path d="M590 6692
L787 6496
" />
<path d="M590 7283
L787 7677
" />
<path d="M590 7283
L590 7086
" />
<path d="M590 5511
L590 5314
" />
<path d="M590 5314
L787 4921
" />
<path d="M196 6299
L590 7283
" />
<path d="M196 6299
L590 5314
" />
<path d="M393 6102
L590 5314
" />
<path d="M393 6496
L590 7283
" />
<circle cx="2452.76" cy="4724.41" r="196.85" /> 
<path d="M17823 11846
L18396 11846
" />
<path d="M17823 12562
L18396 12562
" />
<path d="M20311 5207
L20311 4635
" />
<path d="M21027 5207
L21027 4635
" />
<path d="M27594 9341
L27594 8768
" />
<path d="M28311 9341
L28311 8768
" />
<path d="M11327 3507
L11900 3507
" />
<path d="M11327 2791
L11900 2791
" />
<path d="M16034 13744
L15461 13744
" />
<path d="M16034 13027
L15461 13027
" />
<path d="M18396 13744
L17823 13744
" />
<path d="M18396 13027
L17823 13027
" />
<path d="M2272 9287
L2845 9287
" />
<path d="M2272 10003
L2845 10003
" />
<path d="M17823 10665
L18396 10665
" />
<path d="M17823 11381
L18396 11381
" />
<path d="M20830 6603
L20830 7176
" />
<path d="M20114 6603
L20114 7176
" />
<path d="M20830 8965
L20830 9538
" />
<path d="M20114 8965
L20114 9538
" />
<path d="M12422 4346
L10806 4346
" />
<path d="M12422 5692
L10806 5692
" />
<path d="M29974 9685
L29974 8086
" />
<path d="M29974 8086
L29080 8086
" />
<path d="M29080 8086
L29080 9685
" />
<path d="M12244 931
L10645 931
" />
<path d="M10645 931
L10645 1824
" />
<path d="M10645 1824
L12244 1824
" />
<path d="M26019 3035
L26019 2475
" />
<path d="M26736 3035
L26736 2475
" />
<path d="M16303 9956
L16303 10516
" />
<path d="M15586 9956
L15586 10516
" />
<g >
</g>
<g >
</g>
<g >
</g>
<g >
</g>
<g >
</g>
<g >
</g>
<g >
</g>
<g >
</g>
<g >
</g>
<g >
</g>
<g >
</g>
<g >
</g>
<g >
</g>
<g >
</g>
<g >
</g>
<g >
</g>
<g >
</g>
<g >
</g>
<g >
</g>
<g >
</g>
<g >
</g>
<g >
</g>
<g >
</g>
<g >
</g>
<g >
</g>
<g >
</g>
<g >
</g>
<g >
</g>
<g >
</g>
<g >
</g>
<g >
</g>
<g >
</g>
<g >
</g>
<g >
</g>
<g >
</g>
<g >
</g>
<g >
</g>
<g >
</g>
<g >
</g>
<g >
</g>
</g>
<g style="fill:#000000; fill-opacity:0.0; 
stroke:#000000; stroke-width:47.2441; stroke-opacity:1; 
stroke-linecap:round; stroke-linejoin:round;">
</g>
<g style="fill:#000000; fill-opacity:0.0; 
stroke:#000000; stroke-width:59.0551; stroke-opacity:1; 
stroke-linecap:round; stroke-linejoin:round;">
<text x="23917.3" y="11318.9"
textLength="864.173" font-size="524.934" lengthAdjust="spacingAndGlyphs"
text-anchor="middle" opacity="0">U3</text>
<path d="M23617 10906
L23617 11225
L23636 11262
L23654 11281
L23692 11300
L23767 11300
L23804 11281
L23823 11262
L23842 11225
L23842 10906
" />
<path d="M23992 10906
L24236 10906
L24104 11056
L24161 11056
L24198 11075
L24217 11093
L24236 11131
L24236 11225
L24217 11262
L24198 11281
L24161 11300
L24048 11300
L24011 11281
L23992 11262
" />
<g transform="rotate(-90 26279.5 13976.4)">
<text x="26279.5" y="14173.2"
textLength="1220.38" font-size="524.934" lengthAdjust="spacingAndGlyphs"
text-anchor="middle" opacity="0">R14</text>
</g>
<path d="M26457 14229
L26270 14360
" />
<path d="M26457 14454
L26063 14454
L26063 14304
L26082 14266
L26101 14248
L26138 14229
L26195 14229
L26232 14248
L26251 14266
L26270 14304
L26270 14454
" />
<path d="M26457 13854
L26457 14079
" />
<path d="M26457 13967
L26063 13967
L26120 14004
L26157 14041
L26176 14079
" />
<path d="M26195 13517
L26457 13517
" />
<path d="M26045 13610
L26326 13704
L26326 13460
" />
<g transform="rotate(-90 23425.2 13976.4)">
<text x="23425.2" y="14173.2"
textLength="1220.38" font-size="524.934" lengthAdjust="spacingAndGlyphs"
text-anchor="middle" opacity="0">R12</text>
</g>
<path d="M23603 14229
L23415 14360
" />
<path d="M23603 14454
L23209 14454
L23209 14304
L23228 14266
L23247 14248
L23284 14229
L23340 14229
L23378 14248
L23397 14266
L23415 14304
L23415 14454
" />
<path d="M23603 13854
L23603 14079
" />
<path d="M23603 13967
L23209 13967
L23265 14004
L23303 14041
L23322 14079
" />
<path d="M23247 13704
L23228 13685
L23209 13648
L23209 13554
L23228 13517
L23247 13498
L23284 13479
L23322 13479
L23378 13498
L23603 13723
L23603 13479
" />
<g transform="rotate(-90 25492.1 9350.39)">
<text x="25492.1" y="9547.24"
textLength="864.173" font-size="524.934" lengthAdjust="spacingAndGlyphs"
text-anchor="middle" opacity="0">Q3</text>
</g>
<path d="M25707 9387
L25688 9425
L25651 9462
L25595 9519
L25576 9556
L25576 9594
" />
<path d="M25670 9575
L25651 9612
L25613 9650
L25538 9669
L25407 9669
L25332 9650
L25295 9612
L25276 9575
L25276 9500
L25295 9462
L25332 9425
L25407 9406
L25538 9406
L25613 9425
L25651 9462
L25670 9500
L25670 9575
" />
<path d="M25276 9275
L25276 9031
L25426 9162
L25426 9106
L25445 9069
L25464 9050
L25501 9031
L25595 9031
L25632 9050
L25651 9069
L25670 9106
L25670 9219
L25651 9256
L25632 9275
" />
<g transform="rotate(-90 23326.8 9350.39)">
<text x="23326.8" y="9547.24"
textLength="864.173" font-size="524.934" lengthAdjust="spacingAndGlyphs"
text-anchor="middle" opacity="0">Q2</text>
</g>
<path d="M23542 9387
L23523 9425
L23486 9462
L23429 9519
L23411 9556
L23411 9594
" />
<path d="M23504 9575
L23486 9612
L23448 9650
L23373 9669
L23242 9669
L23167 9650
L23129 9612
L23111 9575
L23111 9500
L23129 9462
L23167 9425
L23242 9406
L23373 9406
L23448 9425
L23486 9462
L23504 9500
L23504 9575
" />
<path d="M23148 9256
L23129 9237
L23111 9200
L23111 9106
L23129 9069
L23148 9050
L23186 9031
L23223 9031
L23279 9050
L23504 9275
L23504 9031
" />
<text x="23818.9" y="6102.36"
textLength="864.173" font-size="524.934" lengthAdjust="spacingAndGlyphs"
text-anchor="middle" opacity="0">Q1</text>
<path d="M23781 6121
L23743 6102
L23706 6064
L23650 6008
L23612 5989
L23575 5989
" />
<path d="M23593 6083
L23556 6064
L23518 6027
L23500 5952
L23500 5821
L23518 5746
L23556 5708
L23593 5689
L23668 5689
L23706 5708
L23743 5746
L23762 5821
L23762 5952
L23743 6027
L23706 6064
L23668 6083
L23593 6083
" />
<path d="M24137 6083
L23912 6083
" />
<path d="M24025 6083
L24025 5689
L23987 5746
L23950 5783
L23912 5802
" />
<text x="7972.44" y="7775.59"
textLength="845.426" font-size="524.934" lengthAdjust="spacingAndGlyphs"
text-anchor="middle" opacity="0">D1</text>
<path d="M7681 7756
L7681 7363
L7775 7363
L7831 7381
L7869 7419
L7888 7456
L7906 7531
L7906 7588
L7888 7663
L7869 7700
L7831 7738
L7775 7756
L7681 7756
" />
<path d="M8281 7756
L8056 7756
" />
<path d="M8169 7756
L8169 7363
L8131 7419
L8094 7456
L8056 7475
" />
<g transform="rotate(-90 9055.12 9251.97)">
<text x="9055.12" y="9448.82"
textLength="770.435" font-size="524.934" lengthAdjust="spacingAndGlyphs"
text-anchor="middle" opacity="0">L1</text>
</g>
<path d="M9233 9317
L9233 9505
L8839 9505
" />
<path d="M9233 8980
L9233 9205
" />
<path d="M9233 9092
L8839 9092
L8895 9130
L8933 9167
L8952 9205
" />
<g transform="rotate(-90 21318.9 6914.37)">
<text x="21318.9" y="7111.22"
textLength="845.426" font-size="524.934" lengthAdjust="spacingAndGlyphs"
text-anchor="middle" opacity="0">C9</text>
</g>
<path d="M21459 6979
L21478 6998
L21497 7054
L21497 7092
L21478 7148
L21440 7186
L21403 7204
L21328 7223
L21272 7223
L21197 7204
L21159 7186
L21122 7148
L21103 7092
L21103 7054
L21122 6998
L21140 6979
" />
<path d="M21497 6792
L21497 6717
L21478 6680
L21459 6661
L21403 6623
L21328 6605
L21178 6605
L21140 6623
L21122 6642
L21103 6680
L21103 6755
L21122 6792
L21140 6811
L21178 6830
L21272 6830
L21309 6811
L21328 6792
L21347 6755
L21347 6680
L21328 6642
L21309 6623
L21272 6605
" />
<g transform="rotate(-90 20964.6 12598.4)">
<text x="20964.6" y="12795.3"
textLength="845.426" font-size="524.934" lengthAdjust="spacingAndGlyphs"
text-anchor="middle" opacity="0">C1</text>
</g>
<path d="M21105 12664
L21123 12682
L21142 12739
L21142 12776
L21123 12832
L21086 12870
L21048 12889
L20973 12907
L20917 12907
L20842 12889
L20805 12870
L20767 12832
L20748 12776
L20748 12739
L20767 12682
L20786 12664
" />
<path d="M21142 12289
L21142 12514
" />
<path d="M21142 12401
L20748 12401
L20805 12439
L20842 12476
L20861 12514
" />
<text x="4724.41" y="7972.44"
textLength="845.426" font-size="524.934" lengthAdjust="spacingAndGlyphs"
text-anchor="middle" opacity="0">C8</text>
<path d="M4658 7916
L4640 7934
L4583 7953
L4546 7953
L4490 7934
L4452 7897
L4433 7859
L4415 7784
L4415 7728
L4433 7653
L4452 7616
L4490 7578
L4546 7559
L4583 7559
L4640 7578
L4658 7597
" />
<path d="M4883 7728
L4846 7709
L4827 7691
L4808 7653
L4808 7634
L4827 7597
L4846 7578
L4883 7559
L4958 7559
L4996 7578
L5014 7597
L5033 7634
L5033 7653
L5014 7691
L4996 7709
L4958 7728
L4883 7728
L4846 7747
L4827 7766
L4808 7803
L4808 7878
L4827 7916
L4846 7934
L4883 7953
L4958 7953
L4996 7934
L5014 7916
L5033 7878
L5033 7803
L5014 7766
L4996 7747
L4958 7728
" />
<text x="6496.06" y="12303.1"
textLength="845.426" font-size="524.934" lengthAdjust="spacingAndGlyphs"
text-anchor="middle" opacity="0">C6</text>
<path d="M6430 12246
L6411 12265
L6355 12284
L6317 12284
L6261 12265
L6224 12228
L6205 12190
L6186 12115
L6186 12059
L6205 11984
L6224 11946
L6261 11909
L6317 11890
L6355 11890
L6411 11909
L6430 11928
" />
<path d="M6767 11890
L6692 11890
L6655 11909
L6636 11928
L6599 11984
L6580 12059
L6580 12209
L6599 12246
L6617 12265
L6655 12284
L6730 12284
L6767 12265
L6786 12246
L6805 12209
L6805 12115
L6786 12078
L6767 12059
L6730 12040
L6655 12040
L6617 12059
L6599 12078
L6580 12115
" />
<g transform="rotate(-90 28740.2 11417.3)">
<text x="28740.2" y="11614.2"
textLength="845.426" font-size="524.934" lengthAdjust="spacingAndGlyphs"
text-anchor="middle" opacity="0">D4</text>
</g>
<path d="M28918 11707
L28524 11707
L28524 11614
L28543 11557
L28580 11520
L28618 11501
L28693 11482
L28749 11482
L28824 11501
L28862 11520
L28899 11557
L28918 11614
L28918 11707
" />
<path d="M28655 11145
L28918 11145
" />
<path d="M28505 11239
L28787 11332
L28787 11089
" />
<g transform="rotate(-90 27165.4 11417.3)">
<text x="27165.4" y="11614.2"
textLength="1220.38" font-size="524.934" lengthAdjust="spacingAndGlyphs"
text-anchor="middle" opacity="0">R11</text>
</g>
<path d="M27343 11670
L27155 11801
" />
<path d="M27343 11895
L26949 11895
L26949 11745
L26968 11707
L26987 11689
L27024 11670
L27080 11670
L27118 11689
L27137 11707
L27155 11745
L27155 11895
" />
<path d="M27343 11295
L27343 11520
" />
<path d="M27343 11407
L26949 11407
L27005 11445
L27043 11482
L27062 11520
" />
<path d="M27343 10920
L27343 11145
" />
<path d="M27343 11032
L26949 11032
L27005 11070
L27043 11107
L27062 11145
" />
<text x="20866.1" y="3385.83"
textLength="864.173" font-size="524.934" lengthAdjust="spacingAndGlyphs"
text-anchor="middle" opacity="0">U2</text>
<path d="M20566 2973
L20566 3292
L20584 3329
L20603 3348
L20641 3367
L20716 3367
L20753 3348
L20772 3329
L20791 3292
L20791 2973
" />
<path d="M20959 3010
L20978 2992
L21016 2973
L21109 2973
L21147 2992
L21166 3010
L21184 3048
L21184 3085
L21166 3142
L20941 3367
L21184 3367
" />
<text x="16141.7" y="984.252"
textLength="1276.62" font-size="524.934" lengthAdjust="spacingAndGlyphs"
text-anchor="middle" opacity="0">SW1</text>
<path d="M15616 946
L15673 965
L15766 965
L15804 946
L15823 928
L15841 890
L15841 853
L15823 815
L15804 796
L15766 778
L15691 759
L15654 740
L15635 721
L15616 684
L15616 646
L15635 609
L15654 590
L15691 571
L15785 571
L15841 590
" />
<path d="M15973 571
L16066 965
L16141 684
L16216 965
L16310 571
" />
<path d="M16666 965
L16441 965
" />
<path d="M16554 965
L16554 571
L16516 628
L16479 665
L16441 684
" />
<g transform="rotate(-90 26614.2 5905.51)">
<text x="26614.2" y="6102.36"
textLength="751.687" font-size="524.934" lengthAdjust="spacingAndGlyphs"
text-anchor="middle" opacity="0">J3</text>
</g>
<path d="M26398 6036
L26679 6036
L26736 6055
L26773 6092
L26792 6149
L26792 6186
" />
<path d="M26398 5886
L26398 5643
L26548 5774
L26548 5718
L26567 5680
L26586 5661
L26623 5643
L26717 5643
L26754 5661
L26773 5680
L26792 5718
L26792 5830
L26773 5868
L26754 5886
" />
<text x="7874.02" y="4330.71"
textLength="751.687" font-size="524.934" lengthAdjust="spacingAndGlyphs"
text-anchor="middle" opacity="0">J2</text>
<path d="M7742 3918
L7742 4199
L7724 4255
L7686 4293
L7630 4311
L7592 4311
" />
<path d="M7911 3955
L7930 3937
L7967 3918
L8061 3918
L8098 3937
L8117 3955
L8136 3993
L8136 4030
L8117 4086
L7892 4311
L8136 4311
" />
<text x="26082.7" y="1181.1"
textLength="751.687" font-size="524.934" lengthAdjust="spacingAndGlyphs"
text-anchor="middle" opacity="0">J1</text>
<path d="M25951 768
L25951 1049
L25932 1106
L25895 1143
L25838 1162
L25801 1162
" />
<path d="M26345 1162
L26120 1162
" />
<path d="M26232 1162
L26232 768
L26195 824
L26157 862
L26120 881
" />
<text x="18110.2" y="8070.87"
textLength="864.173" font-size="524.934" lengthAdjust="spacingAndGlyphs"
text-anchor="middle" opacity="0">U1</text>
<path d="M17810 7658
L17810 7977
L17829 8014
L17847 8033
L17885 8052
L17960 8052
L17997 8033
L18016 8014
L18035 7977
L18035 7658
" />
<path d="M18428 8052
L18203 8052
" />
<path d="M18316 8052
L18316 7658
L18278 7714
L18241 7752
L18203 7770
" />
<text x="1968.5" y="3937.01"
textLength="1182.88" font-size="524.934" lengthAdjust="spacingAndGlyphs"
text-anchor="middle" opacity="0">RV1</text>
<path d="M1734 3918
L1602 3730
" />
<path d="M1509 3918
L1509 3524
L1659 3524
L1696 3543
L1715 3562
L1734 3599
L1734 3655
L1715 3693
L1696 3712
L1659 3730
L1509 3730
" />
<path d="M1846 3524
L1977 3918
L2109 3524
" />
<path d="M2446 3918
L2221 3918
" />
<path d="M2334 3918
L2334 3524
L2296 3580
L2259 3618
L2221 3637
" />
<text x="19685" y="12401.6"
textLength="1220.38" font-size="524.934" lengthAdjust="spacingAndGlyphs"
text-anchor="middle" opacity="0">R10</text>
<path d="M19431 12382
L19300 12195
" />
<path d="M19206 12382
L19206 11989
L19356 11989
L19394 12007
L19413 12026
L19431 12064
L19431 12120
L19413 12157
L19394 12176
L19356 12195
L19206 12195
" />
<path d="M19806 12382
L19581 12382
" />
<path d="M19694 12382
L19694 11989
L19656 12045
L19619 12082
L19581 12101
" />
<path d="M20050 11989
L20088 11989
L20125 12007
L20144 12026
L20163 12064
L20181 12139
L20181 12232
L20163 12307
L20144 12345
L20125 12364
L20088 12382
L20050 12382
L20013 12364
L19994 12345
L19975 12307
L19956 12232
L19956 12139
L19975 12064
L19994 12026
L20013 12007
L20050 11989
" />
<g transform="rotate(-90 19881.9 4921.26)">
<text x="19881.9" y="5118.11"
textLength="845.426" font-size="524.934" lengthAdjust="spacingAndGlyphs"
text-anchor="middle" opacity="0">R9</text>
</g>
<path d="M20059 4986
L19872 5118
" />
<path d="M20059 5211
L19666 5211
L19666 5061
L19685 5024
L19703 5005
L19741 4986
L19797 4986
L19835 5005
L19853 5024
L19872 5061
L19872 5211
" />
<path d="M20059 4799
L20059 4724
L20041 4686
L20022 4668
L19966 4630
L19891 4611
L19741 4611
L19703 4630
L19685 4649
L19666 4686
L19666 4761
L19685 4799
L19703 4818
L19741 4836
L19835 4836
L19872 4818
L19891 4799
L19910 4761
L19910 4686
L19891 4649
L19872 4630
L19835 4611
" />
<g transform="rotate(-90 27165.4 9055.12)">
<text x="27165.4" y="9251.97"
textLength="845.426" font-size="524.934" lengthAdjust="spacingAndGlyphs"
text-anchor="middle" opacity="0">R8</text>
</g>
<path d="M27343 9120
L27155 9251
" />
<path d="M27343 9345
L26949 9345
L26949 9195
L26968 9158
L26987 9139
L27024 9120
L27080 9120
L27118 9139
L27137 9158
L27155 9195
L27155 9345
" />
<path d="M27118 8895
L27099 8933
L27080 8952
L27043 8970
L27024 8970
L26987 8952
L26968 8933
L26949 8895
L26949 8820
L26968 8783
L26987 8764
L27024 8745
L27043 8745
L27080 8764
L27099 8783
L27118 8820
L27118 8895
L27137 8933
L27155 8952
L27193 8970
L27268 8970
L27305 8952
L27324 8933
L27343 8895
L27343 8820
L27324 8783
L27305 8764
L27268 8745
L27193 8745
L27155 8764
L27137 8783
L27118 8820
" />
<text x="11614.2" y="4133.86"
textLength="845.426" font-size="524.934" lengthAdjust="spacingAndGlyphs"
text-anchor="middle" opacity="0">R7</text>
<path d="M11548 4115
L11417 3927
" />
<path d="M11323 4115
L11323 3721
L11473 3721
L11511 3740
L11529 3758
L11548 3796
L11548 3852
L11529 3890
L11511 3908
L11473 3927
L11323 3927
" />
<path d="M11679 3721
L11942 3721
L11773 4115
" />
<text x="14173.2" y="13582.7"
textLength="845.426" font-size="524.934" lengthAdjust="spacingAndGlyphs"
text-anchor="middle" opacity="0">R6</text>
<path d="M14107 13563
L13976 13376
" />
<path d="M13882 13563
L13882 13170
L14032 13170
L14070 13188
L14088 13207
L14107 13245
L14107 13301
L14088 13338
L14070 13357
L14032 13376
L13882 13376
" />
<path d="M14445 13170
L14370 13170
L14332 13188
L14313 13207
L14276 13263
L14257 13338
L14257 13488
L14276 13526
L14295 13545
L14332 13563
L14407 13563
L14445 13545
L14463 13526
L14482 13488
L14482 13395
L14463 13357
L14445 13338
L14407 13320
L14332 13320
L14295 13338
L14276 13357
L14257 13395
" />
<text x="19685" y="13582.7"
textLength="845.426" font-size="524.934" lengthAdjust="spacingAndGlyphs"
text-anchor="middle" opacity="0">R5</text>
<path d="M19619 13563
L19488 13376
" />
<path d="M19394 13563
L19394 13170
L19544 13170
L19581 13188
L19600 13207
L19619 13245
L19619 13301
L19600 13338
L19581 13357
L19544 13376
L19394 13376
" />
<path d="M19975 13170
L19788 13170
L19769 13357
L19788 13338
L19825 13320
L19919 13320
L19956 13338
L19975 13357
L19994 13395
L19994 13488
L19975 13526
L19956 13545
L19919 13563
L19825 13563
L19788 13545
L19769 13526
" />
<text x="2559.06" y="9125.98"
textLength="845.426" font-size="524.934" lengthAdjust="spacingAndGlyphs"
text-anchor="middle" opacity="0">R4</text>
<path d="M2493 9107
L2362 8919
" />
<path d="M2268 9107
L2268 8713
L2418 8713
L2455 8732
L2474 8751
L2493 8788
L2493 8844
L2474 8882
L2455 8901
L2418 8919
L2268 8919
" />
<path d="M2830 8844
L2830 9107
" />
<path d="M2737 8694
L2643 8976
L2887 8976
" />
<text x="19685" y="11220.5"
textLength="845.426" font-size="524.934" lengthAdjust="spacingAndGlyphs"
text-anchor="middle" opacity="0">R3</text>
<path d="M19619 11201
L19488 11014
" />
<path d="M19394 11201
L19394 10808
L19544 10808
L19581 10826
L19600 10845
L19619 10883
L19619 10939
L19600 10976
L19581 10995
L19544 11014
L19394 11014
" />
<path d="M19750 10808
L19994 10808
L19863 10958
L19919 10958
L19956 10976
L19975 10995
L19994 11032
L19994 11126
L19975 11164
L19956 11182
L19919 11201
L19806 11201
L19769 11182
L19750 11164
" />
<g transform="rotate(-90 19685 6889.76)">
<text x="19685" y="7086.61"
textLength="845.426" font-size="524.934" lengthAdjust="spacingAndGlyphs"
text-anchor="middle" opacity="0">R2</text>
</g>
<path d="M19863 6955
L19675 7086
" />
<path d="M19863 7180
L19469 7180
L19469 7030
L19488 6992
L19506 6974
L19544 6955
L19600 6955
L19638 6974
L19656 6992
L19675 7030
L19675 7180
" />
<path d="M19506 6805
L19488 6786
L19469 6749
L19469 6655
L19488 6617
L19506 6599
L19544 6580
L19581 6580
L19638 6599
L19863 6824
L19863 6580
" />
<g transform="rotate(-90 20472.4 9251.97)">
<text x="20472.4" y="9448.82"
textLength="845.426" font-size="524.934" lengthAdjust="spacingAndGlyphs"
text-anchor="middle" opacity="0">R1</text>
</g>
<path d="M20650 9317
L20463 9448
" />
<path d="M20650 9542
L20256 9542
L20256 9392
L20275 9355
L20294 9336
L20331 9317
L20388 9317
L20425 9336
L20444 9355
L20463 9392
L20463 9542
" />
<path d="M20650 8942
L20650 9167
" />
<path d="M20650 9055
L20256 9055
L20313 9092
L20350 9130
L20369 9167
" />
<text x="11614.2" y="5216.54"
textLength="770.435" font-size="524.934" lengthAdjust="spacingAndGlyphs"
text-anchor="middle" opacity="0">L2</text>
<path d="M11548 5197
L11361 5197
L11361 4804
" />
<path d="M11661 4841
L11679 4822
L11717 4804
L11811 4804
L11848 4822
L11867 4841
L11886 4879
L11886 4916
L11867 4972
L11642 5197
L11886 5197
" />
<g transform="rotate(-90 28740.2 9055.12)">
<text x="28740.2" y="9251.97"
textLength="845.426" font-size="524.934" lengthAdjust="spacingAndGlyphs"
text-anchor="middle" opacity="0">D3</text>
</g>
<path d="M28918 9345
L28524 9345
L28524 9251
L28543 9195
L28580 9158
L28618 9139
L28693 9120
L28749 9120
L28824 9139
L28862 9158
L28899 9195
L28918 9251
L28918 9345
" />
<path d="M28524 8989
L28524 8745
L28674 8877
L28674 8820
L28693 8783
L28712 8764
L28749 8745
L28843 8745
L28880 8764
L28899 8783
L28918 8820
L28918 8933
L28899 8970
L28880 8989
" />
<text x="11614.2" y="2362.2"
textLength="845.426" font-size="524.934" lengthAdjust="spacingAndGlyphs"
text-anchor="middle" opacity="0">D2</text>
<path d="M11323 2343
L11323 1949
L11417 1949
L11473 1968
L11511 2005
L11529 2043
L11548 2118
L11548 2174
L11529 2249
L11511 2287
L11473 2324
L11417 2343
L11323 2343
" />
<path d="M11698 1987
L11717 1968
L11754 1949
L11848 1949
L11886 1968
L11904 1987
L11923 2024
L11923 2062
L11904 2118
L11679 2343
L11923 2343
" />
<g transform="rotate(-90 25649.6 2755.91)">
<text x="25649.6" y="2952.76"
textLength="845.426" font-size="524.934" lengthAdjust="spacingAndGlyphs"
text-anchor="middle" opacity="0">C7</text>
</g>
<path d="M25790 2821
L25808 2840
L25827 2896
L25827 2934
L25808 2990
L25771 3027
L25733 3046
L25658 3065
L25602 3065
L25527 3046
L25490 3027
L25452 2990
L25434 2934
L25434 2896
L25452 2840
L25471 2821
" />
<path d="M25434 2690
L25434 2427
L25827 2596
" />
<g transform="rotate(-90 15944.9 11614.2)">
<text x="15944.9" y="11811"
textLength="845.426" font-size="524.934" lengthAdjust="spacingAndGlyphs"
text-anchor="middle" opacity="0">C2</text>
</g>
<path d="M16085 11679
L16104 11698
L16122 11754
L16122 11792
L16104 11848
L16066 11886
L16029 11904
L15954 11923
L15898 11923
L15823 11904
L15785 11886
L15748 11848
L15729 11792
L15729 11754
L15748 11698
L15766 11679
" />
<path d="M15766 11529
L15748 11511
L15729 11473
L15729 11379
L15748 11342
L15766 11323
L15804 11304
L15841 11304
L15898 11323
L16122 11548
L16122 11304
" />
<g >
</g>
</g> 
</svg>
