M48
; DRILL file {KiCad (5.1.10)-1} date 05/16/21 21:49:36
; FORMAT={-:-/ absolute / inch / decimal}
; #@! TF.CreationDate,2021-05-16T21:49:36+02:00
; #@! TF.GenerationSoftware,Kicad,Pcbnew,(5.1.10)-1
; #@! TF.FileFunction,Plated,1,2,PTH
FMAT,2
INCH
T1C0.0157
T2C0.0197
T3C0.0276
T4C0.0315
T5C0.0394
T6C0.0472
T7C0.0512
T8C0.1260
%
G90
G05
T1
X0.315Y-1.1417
X1.0335Y-0.128
X1.2008Y-0.9252
X1.3681Y-0.5413
X1.4173Y-1.4961
X1.4862Y-0.8169
X1.5906Y-0.8848
X1.6535Y-1.4173
X1.6831Y-1.0925
X1.9488Y-0.5709
X2.0472Y-0.8071
X2.1063Y-0.3642
X2.126Y-0.6299
X2.126Y-0.9744
X2.185Y-0.8268
X2.186Y-0.56
X2.2638Y-1.2402
X2.3031Y-1.2205
X2.3346Y-0.2874
X2.5Y-0.5906
X2.5Y-1.2205
X2.5984Y-0.7283
X2.6083Y-1.25
X2.6378Y-0.1476
X2.6378Y-0.6693
X2.6575Y-0.8465
X2.9528Y-0.748
T3
X2.188Y-0.1969
X2.3789Y-0.1969
T4
X0.1969Y-0.5299
X0.1969Y-0.6299
X0.1969Y-0.7299
X0.4331Y-0.6299
X0.5118Y-0.6299
X2.1654Y-1.0827
X2.1654Y-1.1614
T5
X0.5512Y-0.9646
X0.748Y-0.9646
T7
X0.7124Y-0.315
X0.8624Y-0.315
X2.7559Y-0.5156
X2.7559Y-0.6656
T8
X0.1969Y-0.1969
X0.1969Y-1.378
X2.874Y-0.1969
X2.874Y-1.378
T2
G00X2.1417Y-0.0709
M15
G01X2.1417Y-0.1024
M16
G05
G00X2.1417Y-0.0709
M15
G01X2.1417Y-0.1024
M16
G05
G00X2.4252Y-0.1024
M15
G01X2.4252Y-0.0709
M16
G05
T6
G00X1.4291Y-0.4272
M15
G01X1.4291Y-0.4469
M16
G05
G00X1.6142Y-0.4272
M15
G01X1.6142Y-0.4469
M16
G05
G00X1.7992Y-0.4272
M15
G01X1.7992Y-0.4469
M16
G05
T0
M30
