%TF.GenerationSoftware,KiCad,Pcbnew,(5.1.10)-1*%
%TF.CreationDate,2021-05-16T21:49:31+02:00*%
%TF.ProjectId,BatteryBoost,42617474-6572-4794-926f-6f73742e6b69,rev?*%
%TF.SameCoordinates,Original*%
%TF.FileFunction,Copper,L2,Bot*%
%TF.FilePolarity,Positive*%
%FSLAX46Y46*%
G04 Gerber Fmt 4.6, Leading zero omitted, Abs format (unit mm)*
G04 Created by KiCad (PCBNEW (5.1.10)-1) date 2021-05-16 21:49:31*
%MOMM*%
%LPD*%
G01*
G04 APERTURE LIST*
%TA.AperFunction,Profile*%
%ADD10C,0.050000*%
%TD*%
%TA.AperFunction,ComponentPad*%
%ADD11C,1.600000*%
%TD*%
%TA.AperFunction,ComponentPad*%
%ADD12R,1.600000X1.600000*%
%TD*%
%TA.AperFunction,ComponentPad*%
%ADD13C,2.000000*%
%TD*%
%TA.AperFunction,ComponentPad*%
%ADD14R,2.000000X2.000000*%
%TD*%
%TA.AperFunction,ComponentPad*%
%ADD15O,2.300000X3.000000*%
%TD*%
%TA.AperFunction,ComponentPad*%
%ADD16C,2.700000*%
%TD*%
%TA.AperFunction,ComponentPad*%
%ADD17O,1.100000X1.800000*%
%TD*%
%TA.AperFunction,ComponentPad*%
%ADD18C,1.290000*%
%TD*%
%TA.AperFunction,ComponentPad*%
%ADD19C,1.800000*%
%TD*%
%TA.AperFunction,ConnectorPad*%
%ADD20C,5.600000*%
%TD*%
%TA.AperFunction,ComponentPad*%
%ADD21C,3.600000*%
%TD*%
%TA.AperFunction,ViaPad*%
%ADD22C,0.800000*%
%TD*%
%TA.AperFunction,Conductor*%
%ADD23C,0.500000*%
%TD*%
%TA.AperFunction,Conductor*%
%ADD24C,1.000000*%
%TD*%
%TA.AperFunction,Conductor*%
%ADD25C,0.650000*%
%TD*%
%TA.AperFunction,Conductor*%
%ADD26C,0.254000*%
%TD*%
%TA.AperFunction,Conductor*%
%ADD27C,0.100000*%
%TD*%
G04 APERTURE END LIST*
D10*
X3000000Y-40000000D02*
X0Y-37000000D01*
X78000000Y-37000000D02*
X75000000Y-40000000D01*
X75000000Y0D02*
X78000000Y-3000000D01*
X0Y-3000000D02*
X3000000Y0D01*
X78000000Y-37000000D02*
X78000000Y-3000000D01*
X3000000Y-40000000D02*
X75000000Y-40000000D01*
X75000000Y0D02*
X3000000Y0D01*
X0Y-3000000D02*
X0Y-37000000D01*
D11*
%TO.P,C1,2*%
%TO.N,GND*%
X55000000Y-29500000D03*
D12*
%TO.P,C1,1*%
%TO.N,Net-(C1-Pad1)*%
X55000000Y-27500000D03*
%TD*%
D11*
%TO.P,C6,2*%
%TO.N,GND*%
X11000000Y-16000000D03*
D12*
%TO.P,C6,1*%
%TO.N,+24V*%
X13000000Y-16000000D03*
%TD*%
D13*
%TO.P,C4,2*%
%TO.N,GND*%
X14000000Y-24500000D03*
D14*
%TO.P,C4,1*%
%TO.N,Net-(C4-Pad1)*%
X19000000Y-24500000D03*
%TD*%
D15*
%TO.P,SW1,1*%
%TO.N,Net-(C1-Pad1)*%
X36300000Y-11100000D03*
%TO.P,SW1,2*%
%TO.N,SMPS_Pwr*%
X41000000Y-11100000D03*
%TO.P,SW1,3*%
%TO.N,Net-(SW1-Pad3)*%
X45700000Y-11100000D03*
%TD*%
D16*
%TO.P,J6,1*%
%TO.N,Net-(J6-Pad1)*%
X70000000Y-16905000D03*
%TO.P,J6,2*%
%TO.N,GND*%
X70000000Y-13095000D03*
%TD*%
%TO.P,J7,2*%
%TO.N,GND*%
X18095000Y-8000000D03*
%TO.P,J7,1*%
%TO.N,+24V*%
X21905000Y-8000000D03*
%TD*%
D17*
%TO.P,J5,6*%
%TO.N,GND*%
X54400000Y-2200000D03*
D18*
X55575000Y-5000000D03*
X60425000Y-5000000D03*
D17*
X54400000Y-2200000D03*
X61600000Y-2200000D03*
%TD*%
D19*
%TO.P,RV1,3*%
%TO.N,Net-(R7-Pad1)*%
X5000000Y-13460000D03*
%TO.P,RV1,2*%
%TO.N,Net-(R3-Pad2)*%
X5000000Y-16000000D03*
%TO.P,RV1,1*%
%TO.N,Net-(R6-Pad1)*%
X5000000Y-18540000D03*
%TD*%
D20*
%TO.P,J4,1*%
%TO.N,GND*%
X5000000Y-35000000D03*
D21*
X5000000Y-35000000D03*
%TD*%
D20*
%TO.P,J3,1*%
%TO.N,GND*%
X73000000Y-5000000D03*
D21*
X73000000Y-5000000D03*
%TD*%
D20*
%TO.P,J2,1*%
%TO.N,GND*%
X73000000Y-35000000D03*
D21*
X73000000Y-35000000D03*
%TD*%
D20*
%TO.P,J1,1*%
%TO.N,GND*%
X5000000Y-5000000D03*
D21*
X5000000Y-5000000D03*
%TD*%
D22*
%TO.N,GND*%
X40400000Y-22475000D03*
X53500000Y-9250000D03*
X67000000Y-3750000D03*
X42750000Y-27750000D03*
X26250000Y-3250000D03*
X58500000Y-31000000D03*
X63500000Y-15000000D03*
X54000000Y-16000000D03*
%TO.N,+5V*%
X59300000Y-7300000D03*
X63500000Y-31000000D03*
X55525000Y-14225000D03*
X55500000Y-21000000D03*
%TO.N,VBATT*%
X66250000Y-31750000D03*
X57500000Y-31500000D03*
%TO.N,Net-(L1-Pad2)*%
X52000000Y-20500000D03*
X30500000Y-23500000D03*
%TO.N,Net-(D3-Pad1)*%
X67000000Y-17000000D03*
X75000000Y-19000000D03*
%TO.N,Net-(C4-Pad1)*%
X37750000Y-20750000D03*
X34750000Y-13750000D03*
%TO.N,Net-(R3-Pad2)*%
X8000000Y-29000000D03*
X36000000Y-38000000D03*
%TO.N,Net-(R6-Pad1)*%
X42000000Y-36000000D03*
%TO.N,Net-(D1-Pad1)*%
X67500000Y-21500000D03*
X66000000Y-18500000D03*
%TO.N,SMPS_Pwr*%
X49500000Y-14500000D03*
X54000000Y-24750000D03*
%TD*%
D23*
%TO.N,+5V*%
X55525000Y-14225000D02*
X55525000Y-11075000D01*
X55525000Y-11075000D02*
X59300000Y-7300000D01*
X55500000Y-21000000D02*
X55500000Y-14250000D01*
X63500000Y-29000000D02*
X55500000Y-21000000D01*
X55500000Y-14250000D02*
X55525000Y-14225000D01*
X63500000Y-31000000D02*
X63500000Y-29000000D01*
%TO.N,VBATT*%
X65850001Y-32149999D02*
X58149999Y-32149999D01*
X66250000Y-31750000D02*
X65850001Y-32149999D01*
X58149999Y-32149999D02*
X57500000Y-31500000D01*
D24*
%TO.N,Net-(L1-Pad2)*%
X52000000Y-20500000D02*
X46500000Y-20500000D01*
X46500000Y-20500000D02*
X43500000Y-23500000D01*
X43500000Y-23500000D02*
X30500000Y-23500000D01*
D23*
%TO.N,Net-(D3-Pad1)*%
X67000000Y-17000000D02*
X67000000Y-18000000D01*
X67000000Y-18000000D02*
X69000000Y-20000000D01*
X74000000Y-20000000D02*
X75000000Y-19000000D01*
X69000000Y-20000000D02*
X74000000Y-20000000D01*
D25*
%TO.N,Net-(C4-Pad1)*%
X37750000Y-16750000D02*
X37750000Y-20750000D01*
X34750000Y-13750000D02*
X37750000Y-16750000D01*
%TO.N,Net-(R3-Pad2)*%
X36000000Y-38000000D02*
X17000000Y-38000000D01*
X17000000Y-38000000D02*
X8000000Y-29000000D01*
%TO.N,Net-(R6-Pad1)*%
X18000000Y-36000000D02*
X42000000Y-36000000D01*
X5000000Y-23000000D02*
X18000000Y-36000000D01*
X5000000Y-18540000D02*
X5000000Y-23000000D01*
D23*
%TO.N,Net-(D1-Pad1)*%
X67500000Y-20000000D02*
X66000000Y-18500000D01*
X67500000Y-21500000D02*
X67500000Y-20000000D01*
D25*
%TO.N,SMPS_Pwr*%
X49500000Y-14500000D02*
X50750000Y-14500000D01*
X50750000Y-14500000D02*
X54000000Y-17750000D01*
X54000000Y-17750000D02*
X54000000Y-24750000D01*
%TD*%
D26*
%TO.N,GND*%
X77340001Y-3273382D02*
X77340000Y-36726619D01*
X74726620Y-39340000D01*
X3273381Y-39340000D01*
X660000Y-36726620D01*
X660000Y-28898061D01*
X6965000Y-28898061D01*
X6965000Y-29101939D01*
X7004774Y-29301898D01*
X7082795Y-29490256D01*
X7196063Y-29659774D01*
X7340226Y-29803937D01*
X7509744Y-29917205D01*
X7594787Y-29952431D01*
X16287829Y-38645474D01*
X16317893Y-38682107D01*
X16354526Y-38712171D01*
X16464071Y-38802073D01*
X16630846Y-38891216D01*
X16811807Y-38946110D01*
X16952838Y-38960000D01*
X16952847Y-38960000D01*
X16999999Y-38964644D01*
X17047151Y-38960000D01*
X35613060Y-38960000D01*
X35698102Y-38995226D01*
X35898061Y-39035000D01*
X36101939Y-39035000D01*
X36301898Y-38995226D01*
X36490256Y-38917205D01*
X36659774Y-38803937D01*
X36803937Y-38659774D01*
X36917205Y-38490256D01*
X36995226Y-38301898D01*
X37035000Y-38101939D01*
X37035000Y-37898061D01*
X36995226Y-37698102D01*
X36917205Y-37509744D01*
X36803937Y-37340226D01*
X36659774Y-37196063D01*
X36490256Y-37082795D01*
X36301898Y-37004774D01*
X36101939Y-36965000D01*
X35898061Y-36965000D01*
X35698102Y-37004774D01*
X35613060Y-37040000D01*
X17397645Y-37040000D01*
X8952431Y-28594787D01*
X8917205Y-28509744D01*
X8803937Y-28340226D01*
X8659774Y-28196063D01*
X8490256Y-28082795D01*
X8301898Y-28004774D01*
X8101939Y-27965000D01*
X7898061Y-27965000D01*
X7698102Y-28004774D01*
X7509744Y-28082795D01*
X7340226Y-28196063D01*
X7196063Y-28340226D01*
X7082795Y-28509744D01*
X7004774Y-28698102D01*
X6965000Y-28898061D01*
X660000Y-28898061D01*
X660000Y-13308816D01*
X3465000Y-13308816D01*
X3465000Y-13611184D01*
X3523989Y-13907743D01*
X3639701Y-14187095D01*
X3807688Y-14438505D01*
X4021495Y-14652312D01*
X4137763Y-14730000D01*
X4021495Y-14807688D01*
X3807688Y-15021495D01*
X3639701Y-15272905D01*
X3523989Y-15552257D01*
X3465000Y-15848816D01*
X3465000Y-16151184D01*
X3523989Y-16447743D01*
X3639701Y-16727095D01*
X3807688Y-16978505D01*
X4021495Y-17192312D01*
X4137763Y-17270000D01*
X4021495Y-17347688D01*
X3807688Y-17561495D01*
X3639701Y-17812905D01*
X3523989Y-18092257D01*
X3465000Y-18388816D01*
X3465000Y-18691184D01*
X3523989Y-18987743D01*
X3639701Y-19267095D01*
X3807688Y-19518505D01*
X4021495Y-19732312D01*
X4040000Y-19744677D01*
X4040001Y-22952838D01*
X4035356Y-23000000D01*
X4053891Y-23188192D01*
X4108784Y-23369153D01*
X4197927Y-23535928D01*
X4287829Y-23645473D01*
X4317894Y-23682107D01*
X4354527Y-23712171D01*
X17287829Y-36645474D01*
X17317893Y-36682107D01*
X17354525Y-36712170D01*
X17464071Y-36802073D01*
X17522163Y-36833124D01*
X17630846Y-36891216D01*
X17811807Y-36946110D01*
X17952838Y-36960000D01*
X17952847Y-36960000D01*
X17999999Y-36964644D01*
X18047151Y-36960000D01*
X41613060Y-36960000D01*
X41698102Y-36995226D01*
X41898061Y-37035000D01*
X42101939Y-37035000D01*
X42301898Y-36995226D01*
X42490256Y-36917205D01*
X42659774Y-36803937D01*
X42803937Y-36659774D01*
X42917205Y-36490256D01*
X42995226Y-36301898D01*
X43035000Y-36101939D01*
X43035000Y-35898061D01*
X42995226Y-35698102D01*
X42917205Y-35509744D01*
X42803937Y-35340226D01*
X42659774Y-35196063D01*
X42490256Y-35082795D01*
X42301898Y-35004774D01*
X42101939Y-34965000D01*
X41898061Y-34965000D01*
X41698102Y-35004774D01*
X41613060Y-35040000D01*
X18397645Y-35040000D01*
X10057645Y-26700000D01*
X53561928Y-26700000D01*
X53561928Y-28300000D01*
X53574188Y-28424482D01*
X53610498Y-28544180D01*
X53669463Y-28654494D01*
X53748815Y-28751185D01*
X53845506Y-28830537D01*
X53955820Y-28889502D01*
X54075518Y-28925812D01*
X54200000Y-28938072D01*
X55800000Y-28938072D01*
X55924482Y-28925812D01*
X56044180Y-28889502D01*
X56154494Y-28830537D01*
X56251185Y-28751185D01*
X56330537Y-28654494D01*
X56389502Y-28544180D01*
X56425812Y-28424482D01*
X56438072Y-28300000D01*
X56438072Y-26700000D01*
X56425812Y-26575518D01*
X56389502Y-26455820D01*
X56330537Y-26345506D01*
X56251185Y-26248815D01*
X56154494Y-26169463D01*
X56044180Y-26110498D01*
X55924482Y-26074188D01*
X55800000Y-26061928D01*
X54200000Y-26061928D01*
X54075518Y-26074188D01*
X53955820Y-26110498D01*
X53845506Y-26169463D01*
X53748815Y-26248815D01*
X53669463Y-26345506D01*
X53610498Y-26455820D01*
X53574188Y-26575518D01*
X53561928Y-26700000D01*
X10057645Y-26700000D01*
X6857645Y-23500000D01*
X17361928Y-23500000D01*
X17361928Y-25500000D01*
X17374188Y-25624482D01*
X17410498Y-25744180D01*
X17469463Y-25854494D01*
X17548815Y-25951185D01*
X17645506Y-26030537D01*
X17755820Y-26089502D01*
X17875518Y-26125812D01*
X18000000Y-26138072D01*
X20000000Y-26138072D01*
X20124482Y-26125812D01*
X20244180Y-26089502D01*
X20354494Y-26030537D01*
X20451185Y-25951185D01*
X20530537Y-25854494D01*
X20589502Y-25744180D01*
X20625812Y-25624482D01*
X20638072Y-25500000D01*
X20638072Y-23500000D01*
X29359509Y-23500000D01*
X29381423Y-23722499D01*
X29446324Y-23936447D01*
X29551716Y-24133623D01*
X29693551Y-24306449D01*
X29866377Y-24448284D01*
X30063553Y-24553676D01*
X30277501Y-24618577D01*
X30444248Y-24635000D01*
X43444249Y-24635000D01*
X43500000Y-24640491D01*
X43555751Y-24635000D01*
X43555752Y-24635000D01*
X43722499Y-24618577D01*
X43936447Y-24553676D01*
X44133623Y-24448284D01*
X44306449Y-24306449D01*
X44341996Y-24263135D01*
X46970133Y-21635000D01*
X52055752Y-21635000D01*
X52222499Y-21618577D01*
X52436447Y-21553676D01*
X52633623Y-21448284D01*
X52806449Y-21306449D01*
X52948284Y-21133623D01*
X53040000Y-20962032D01*
X53040001Y-24363057D01*
X53004774Y-24448102D01*
X52965000Y-24648061D01*
X52965000Y-24851939D01*
X53004774Y-25051898D01*
X53082795Y-25240256D01*
X53196063Y-25409774D01*
X53340226Y-25553937D01*
X53509744Y-25667205D01*
X53698102Y-25745226D01*
X53898061Y-25785000D01*
X54101939Y-25785000D01*
X54301898Y-25745226D01*
X54490256Y-25667205D01*
X54659774Y-25553937D01*
X54803937Y-25409774D01*
X54917205Y-25240256D01*
X54995226Y-25051898D01*
X55035000Y-24851939D01*
X55035000Y-24648061D01*
X54995226Y-24448102D01*
X54960000Y-24363060D01*
X54960000Y-21883967D01*
X55009744Y-21917205D01*
X55198102Y-21995226D01*
X55254957Y-22006535D01*
X62615001Y-29366580D01*
X62615000Y-30461545D01*
X62582795Y-30509744D01*
X62504774Y-30698102D01*
X62465000Y-30898061D01*
X62465000Y-31101939D01*
X62497434Y-31264999D01*
X58516578Y-31264999D01*
X58506535Y-31254956D01*
X58495226Y-31198102D01*
X58417205Y-31009744D01*
X58303937Y-30840226D01*
X58159774Y-30696063D01*
X57990256Y-30582795D01*
X57801898Y-30504774D01*
X57601939Y-30465000D01*
X57398061Y-30465000D01*
X57198102Y-30504774D01*
X57009744Y-30582795D01*
X56840226Y-30696063D01*
X56696063Y-30840226D01*
X56582795Y-31009744D01*
X56504774Y-31198102D01*
X56465000Y-31398061D01*
X56465000Y-31601939D01*
X56504774Y-31801898D01*
X56582795Y-31990256D01*
X56696063Y-32159774D01*
X56840226Y-32303937D01*
X57009744Y-32417205D01*
X57198102Y-32495226D01*
X57254956Y-32506535D01*
X57493469Y-32745048D01*
X57521182Y-32778816D01*
X57554950Y-32806529D01*
X57554952Y-32806531D01*
X57626451Y-32865209D01*
X57655940Y-32889410D01*
X57809686Y-32971588D01*
X57976509Y-33022194D01*
X58106522Y-33034999D01*
X58106532Y-33034999D01*
X58149998Y-33039280D01*
X58193464Y-33034999D01*
X65806532Y-33034999D01*
X65850001Y-33039280D01*
X65893470Y-33034999D01*
X65893478Y-33034999D01*
X66023491Y-33022194D01*
X66190314Y-32971588D01*
X66344060Y-32889410D01*
X66478818Y-32778816D01*
X66497506Y-32756045D01*
X66551898Y-32745226D01*
X66740256Y-32667205D01*
X66909774Y-32553937D01*
X67053937Y-32409774D01*
X67167205Y-32240256D01*
X67245226Y-32051898D01*
X67285000Y-31851939D01*
X67285000Y-31648061D01*
X67245226Y-31448102D01*
X67167205Y-31259744D01*
X67053937Y-31090226D01*
X66909774Y-30946063D01*
X66740256Y-30832795D01*
X66551898Y-30754774D01*
X66351939Y-30715000D01*
X66148061Y-30715000D01*
X65948102Y-30754774D01*
X65759744Y-30832795D01*
X65590226Y-30946063D01*
X65446063Y-31090226D01*
X65332795Y-31259744D01*
X65330618Y-31264999D01*
X64502566Y-31264999D01*
X64535000Y-31101939D01*
X64535000Y-30898061D01*
X64495226Y-30698102D01*
X64417205Y-30509744D01*
X64385000Y-30461546D01*
X64385000Y-29043465D01*
X64389281Y-28999999D01*
X64385000Y-28956533D01*
X64385000Y-28956523D01*
X64372195Y-28826510D01*
X64321589Y-28659687D01*
X64239411Y-28505941D01*
X64128817Y-28371183D01*
X64095049Y-28343470D01*
X56506535Y-20754957D01*
X56495226Y-20698102D01*
X56417205Y-20509744D01*
X56385000Y-20461546D01*
X56385000Y-18398061D01*
X64965000Y-18398061D01*
X64965000Y-18601939D01*
X65004774Y-18801898D01*
X65082795Y-18990256D01*
X65196063Y-19159774D01*
X65340226Y-19303937D01*
X65509744Y-19417205D01*
X65698102Y-19495226D01*
X65754957Y-19506535D01*
X66615001Y-20366580D01*
X66615000Y-20961545D01*
X66582795Y-21009744D01*
X66504774Y-21198102D01*
X66465000Y-21398061D01*
X66465000Y-21601939D01*
X66504774Y-21801898D01*
X66582795Y-21990256D01*
X66696063Y-22159774D01*
X66840226Y-22303937D01*
X67009744Y-22417205D01*
X67198102Y-22495226D01*
X67398061Y-22535000D01*
X67601939Y-22535000D01*
X67801898Y-22495226D01*
X67990256Y-22417205D01*
X68159774Y-22303937D01*
X68303937Y-22159774D01*
X68417205Y-21990256D01*
X68495226Y-21801898D01*
X68535000Y-21601939D01*
X68535000Y-21398061D01*
X68495226Y-21198102D01*
X68417205Y-21009744D01*
X68385000Y-20961546D01*
X68385000Y-20640156D01*
X68404951Y-20656530D01*
X68404953Y-20656532D01*
X68453122Y-20696063D01*
X68505941Y-20739411D01*
X68659687Y-20821589D01*
X68826510Y-20872195D01*
X68956523Y-20885000D01*
X68956533Y-20885000D01*
X68999999Y-20889281D01*
X69043465Y-20885000D01*
X73956531Y-20885000D01*
X74000000Y-20889281D01*
X74043469Y-20885000D01*
X74043477Y-20885000D01*
X74173490Y-20872195D01*
X74340313Y-20821589D01*
X74494059Y-20739411D01*
X74628817Y-20628817D01*
X74656534Y-20595044D01*
X75245044Y-20006535D01*
X75301898Y-19995226D01*
X75490256Y-19917205D01*
X75659774Y-19803937D01*
X75803937Y-19659774D01*
X75917205Y-19490256D01*
X75995226Y-19301898D01*
X76035000Y-19101939D01*
X76035000Y-18898061D01*
X75995226Y-18698102D01*
X75917205Y-18509744D01*
X75803937Y-18340226D01*
X75659774Y-18196063D01*
X75490256Y-18082795D01*
X75301898Y-18004774D01*
X75101939Y-17965000D01*
X74898061Y-17965000D01*
X74698102Y-18004774D01*
X74509744Y-18082795D01*
X74340226Y-18196063D01*
X74196063Y-18340226D01*
X74082795Y-18509744D01*
X74004774Y-18698102D01*
X73993465Y-18754956D01*
X73633422Y-19115000D01*
X69366579Y-19115000D01*
X67885000Y-17633422D01*
X67885000Y-17538454D01*
X67917205Y-17490256D01*
X67995226Y-17301898D01*
X68025143Y-17151496D01*
X68091282Y-17484003D01*
X68240915Y-17845250D01*
X68458149Y-18170364D01*
X68734636Y-18446851D01*
X69059750Y-18664085D01*
X69420997Y-18813718D01*
X69804495Y-18890000D01*
X70195505Y-18890000D01*
X70579003Y-18813718D01*
X70940250Y-18664085D01*
X71265364Y-18446851D01*
X71541851Y-18170364D01*
X71759085Y-17845250D01*
X71908718Y-17484003D01*
X71985000Y-17100505D01*
X71985000Y-16709495D01*
X71908718Y-16325997D01*
X71759085Y-15964750D01*
X71541851Y-15639636D01*
X71265364Y-15363149D01*
X70940250Y-15145915D01*
X70579003Y-14996282D01*
X70195505Y-14920000D01*
X69804495Y-14920000D01*
X69420997Y-14996282D01*
X69059750Y-15145915D01*
X68734636Y-15363149D01*
X68458149Y-15639636D01*
X68240915Y-15964750D01*
X68091282Y-16325997D01*
X68015000Y-16709495D01*
X68015000Y-16797513D01*
X67995226Y-16698102D01*
X67917205Y-16509744D01*
X67803937Y-16340226D01*
X67659774Y-16196063D01*
X67490256Y-16082795D01*
X67301898Y-16004774D01*
X67101939Y-15965000D01*
X66898061Y-15965000D01*
X66698102Y-16004774D01*
X66509744Y-16082795D01*
X66340226Y-16196063D01*
X66196063Y-16340226D01*
X66082795Y-16509744D01*
X66004774Y-16698102D01*
X65965000Y-16898061D01*
X65965000Y-17101939D01*
X66004774Y-17301898D01*
X66072334Y-17465000D01*
X65898061Y-17465000D01*
X65698102Y-17504774D01*
X65509744Y-17582795D01*
X65340226Y-17696063D01*
X65196063Y-17840226D01*
X65082795Y-18009744D01*
X65004774Y-18198102D01*
X64965000Y-18398061D01*
X56385000Y-18398061D01*
X56385000Y-14800870D01*
X56442205Y-14715256D01*
X56520226Y-14526898D01*
X56560000Y-14326939D01*
X56560000Y-14123061D01*
X56520226Y-13923102D01*
X56442205Y-13734744D01*
X56410000Y-13686546D01*
X56410000Y-11441578D01*
X59545044Y-8306535D01*
X59601898Y-8295226D01*
X59790256Y-8217205D01*
X59959774Y-8103937D01*
X60103937Y-7959774D01*
X60217205Y-7790256D01*
X60295226Y-7601898D01*
X60335000Y-7401939D01*
X60335000Y-7198061D01*
X60295226Y-6998102D01*
X60217205Y-6809744D01*
X60103937Y-6640226D01*
X59959774Y-6496063D01*
X59790256Y-6382795D01*
X59601898Y-6304774D01*
X59401939Y-6265000D01*
X59198061Y-6265000D01*
X58998102Y-6304774D01*
X58809744Y-6382795D01*
X58640226Y-6496063D01*
X58496063Y-6640226D01*
X58382795Y-6809744D01*
X58304774Y-6998102D01*
X58293465Y-7054956D01*
X54929951Y-10418470D01*
X54896184Y-10446183D01*
X54868471Y-10479951D01*
X54868468Y-10479954D01*
X54785590Y-10580941D01*
X54703412Y-10734687D01*
X54652805Y-10901510D01*
X54635719Y-11075000D01*
X54640001Y-11118479D01*
X54640000Y-13686545D01*
X54607795Y-13734744D01*
X54529774Y-13923102D01*
X54490000Y-14123061D01*
X54490000Y-14326939D01*
X54529774Y-14526898D01*
X54607795Y-14715256D01*
X54615001Y-14726040D01*
X54615001Y-17007356D01*
X51462175Y-13854531D01*
X51432107Y-13817893D01*
X51285928Y-13697927D01*
X51119154Y-13608784D01*
X50938193Y-13553890D01*
X50797162Y-13540000D01*
X50797152Y-13540000D01*
X50750000Y-13535356D01*
X50702848Y-13540000D01*
X49886940Y-13540000D01*
X49801898Y-13504774D01*
X49601939Y-13465000D01*
X49398061Y-13465000D01*
X49198102Y-13504774D01*
X49009744Y-13582795D01*
X48840226Y-13696063D01*
X48696063Y-13840226D01*
X48582795Y-14009744D01*
X48504774Y-14198102D01*
X48465000Y-14398061D01*
X48465000Y-14601939D01*
X48504774Y-14801898D01*
X48582795Y-14990256D01*
X48696063Y-15159774D01*
X48840226Y-15303937D01*
X49009744Y-15417205D01*
X49198102Y-15495226D01*
X49398061Y-15535000D01*
X49601939Y-15535000D01*
X49801898Y-15495226D01*
X49886940Y-15460000D01*
X50352356Y-15460000D01*
X53040000Y-18147645D01*
X53040000Y-20037967D01*
X52948284Y-19866377D01*
X52806449Y-19693551D01*
X52633623Y-19551716D01*
X52436447Y-19446324D01*
X52222499Y-19381423D01*
X52055752Y-19365000D01*
X46555752Y-19365000D01*
X46500000Y-19359509D01*
X46444248Y-19365000D01*
X46277501Y-19381423D01*
X46063553Y-19446324D01*
X45866377Y-19551716D01*
X45736856Y-19658011D01*
X45736854Y-19658013D01*
X45693551Y-19693551D01*
X45658013Y-19736854D01*
X43029869Y-22365000D01*
X30444248Y-22365000D01*
X30277501Y-22381423D01*
X30063553Y-22446324D01*
X29866377Y-22551716D01*
X29693551Y-22693551D01*
X29551716Y-22866377D01*
X29446324Y-23063553D01*
X29381423Y-23277501D01*
X29359509Y-23500000D01*
X20638072Y-23500000D01*
X20625812Y-23375518D01*
X20589502Y-23255820D01*
X20530537Y-23145506D01*
X20451185Y-23048815D01*
X20354494Y-22969463D01*
X20244180Y-22910498D01*
X20124482Y-22874188D01*
X20000000Y-22861928D01*
X18000000Y-22861928D01*
X17875518Y-22874188D01*
X17755820Y-22910498D01*
X17645506Y-22969463D01*
X17548815Y-23048815D01*
X17469463Y-23145506D01*
X17410498Y-23255820D01*
X17374188Y-23375518D01*
X17361928Y-23500000D01*
X6857645Y-23500000D01*
X5960000Y-22602356D01*
X5960000Y-19744677D01*
X5978505Y-19732312D01*
X6192312Y-19518505D01*
X6360299Y-19267095D01*
X6476011Y-18987743D01*
X6535000Y-18691184D01*
X6535000Y-18388816D01*
X6476011Y-18092257D01*
X6360299Y-17812905D01*
X6192312Y-17561495D01*
X5978505Y-17347688D01*
X5862237Y-17270000D01*
X5978505Y-17192312D01*
X6192312Y-16978505D01*
X6360299Y-16727095D01*
X6476011Y-16447743D01*
X6535000Y-16151184D01*
X6535000Y-15848816D01*
X6476011Y-15552257D01*
X6360299Y-15272905D01*
X6311586Y-15200000D01*
X11561928Y-15200000D01*
X11561928Y-16800000D01*
X11574188Y-16924482D01*
X11610498Y-17044180D01*
X11669463Y-17154494D01*
X11748815Y-17251185D01*
X11845506Y-17330537D01*
X11955820Y-17389502D01*
X12075518Y-17425812D01*
X12200000Y-17438072D01*
X13800000Y-17438072D01*
X13924482Y-17425812D01*
X14044180Y-17389502D01*
X14154494Y-17330537D01*
X14251185Y-17251185D01*
X14330537Y-17154494D01*
X14389502Y-17044180D01*
X14425812Y-16924482D01*
X14438072Y-16800000D01*
X14438072Y-15200000D01*
X14425812Y-15075518D01*
X14389502Y-14955820D01*
X14330537Y-14845506D01*
X14251185Y-14748815D01*
X14154494Y-14669463D01*
X14044180Y-14610498D01*
X13924482Y-14574188D01*
X13800000Y-14561928D01*
X12200000Y-14561928D01*
X12075518Y-14574188D01*
X11955820Y-14610498D01*
X11845506Y-14669463D01*
X11748815Y-14748815D01*
X11669463Y-14845506D01*
X11610498Y-14955820D01*
X11574188Y-15075518D01*
X11561928Y-15200000D01*
X6311586Y-15200000D01*
X6192312Y-15021495D01*
X5978505Y-14807688D01*
X5862237Y-14730000D01*
X5978505Y-14652312D01*
X6192312Y-14438505D01*
X6360299Y-14187095D01*
X6476011Y-13907743D01*
X6527664Y-13648061D01*
X33715000Y-13648061D01*
X33715000Y-13851939D01*
X33754774Y-14051898D01*
X33832795Y-14240256D01*
X33946063Y-14409774D01*
X34090226Y-14553937D01*
X34259744Y-14667205D01*
X34344787Y-14702431D01*
X36790000Y-17147645D01*
X36790001Y-20363057D01*
X36754774Y-20448102D01*
X36715000Y-20648061D01*
X36715000Y-20851939D01*
X36754774Y-21051898D01*
X36832795Y-21240256D01*
X36946063Y-21409774D01*
X37090226Y-21553937D01*
X37259744Y-21667205D01*
X37448102Y-21745226D01*
X37648061Y-21785000D01*
X37851939Y-21785000D01*
X38051898Y-21745226D01*
X38240256Y-21667205D01*
X38409774Y-21553937D01*
X38553937Y-21409774D01*
X38667205Y-21240256D01*
X38745226Y-21051898D01*
X38785000Y-20851939D01*
X38785000Y-20648061D01*
X38745226Y-20448102D01*
X38710000Y-20363060D01*
X38710000Y-16797160D01*
X38714645Y-16750000D01*
X38710000Y-16702838D01*
X38696110Y-16561807D01*
X38641216Y-16380846D01*
X38619504Y-16340226D01*
X38552073Y-16214071D01*
X38462171Y-16104526D01*
X38432107Y-16067893D01*
X38395474Y-16037829D01*
X35702431Y-13344787D01*
X35667205Y-13259744D01*
X35553937Y-13090226D01*
X35521679Y-13057968D01*
X35613606Y-13107104D01*
X35950080Y-13209172D01*
X36300000Y-13243636D01*
X36649921Y-13209172D01*
X36986395Y-13107104D01*
X37296491Y-12941354D01*
X37568292Y-12718292D01*
X37791354Y-12446491D01*
X37957104Y-12136395D01*
X38059172Y-11799921D01*
X38085000Y-11537682D01*
X38085000Y-10662318D01*
X39215000Y-10662318D01*
X39215000Y-11537683D01*
X39240828Y-11799921D01*
X39342896Y-12136395D01*
X39508646Y-12446491D01*
X39731709Y-12718292D01*
X40003510Y-12941354D01*
X40313606Y-13107104D01*
X40650080Y-13209172D01*
X41000000Y-13243636D01*
X41349921Y-13209172D01*
X41686395Y-13107104D01*
X41996491Y-12941354D01*
X42268292Y-12718292D01*
X42491354Y-12446491D01*
X42657104Y-12136395D01*
X42759172Y-11799921D01*
X42785000Y-11537682D01*
X42785000Y-10662318D01*
X43915000Y-10662318D01*
X43915000Y-11537683D01*
X43940828Y-11799921D01*
X44042896Y-12136395D01*
X44208646Y-12446491D01*
X44431709Y-12718292D01*
X44703510Y-12941354D01*
X45013606Y-13107104D01*
X45350080Y-13209172D01*
X45700000Y-13243636D01*
X46049921Y-13209172D01*
X46386395Y-13107104D01*
X46696491Y-12941354D01*
X46968292Y-12718292D01*
X47191354Y-12446491D01*
X47357104Y-12136395D01*
X47459172Y-11799921D01*
X47485000Y-11537682D01*
X47485000Y-10662317D01*
X47459172Y-10400079D01*
X47357104Y-10063605D01*
X47191354Y-9753509D01*
X46968292Y-9481708D01*
X46696490Y-9258646D01*
X46386394Y-9092896D01*
X46049920Y-8990828D01*
X45700000Y-8956364D01*
X45350079Y-8990828D01*
X45013605Y-9092896D01*
X44703509Y-9258646D01*
X44431708Y-9481708D01*
X44208646Y-9753510D01*
X44042896Y-10063606D01*
X43940828Y-10400080D01*
X43915000Y-10662318D01*
X42785000Y-10662318D01*
X42785000Y-10662317D01*
X42759172Y-10400079D01*
X42657104Y-10063605D01*
X42491354Y-9753509D01*
X42268292Y-9481708D01*
X41996490Y-9258646D01*
X41686394Y-9092896D01*
X41349920Y-8990828D01*
X41000000Y-8956364D01*
X40650079Y-8990828D01*
X40313605Y-9092896D01*
X40003509Y-9258646D01*
X39731708Y-9481708D01*
X39508646Y-9753510D01*
X39342896Y-10063606D01*
X39240828Y-10400080D01*
X39215000Y-10662318D01*
X38085000Y-10662318D01*
X38085000Y-10662317D01*
X38059172Y-10400079D01*
X37957104Y-10063605D01*
X37791354Y-9753509D01*
X37568292Y-9481708D01*
X37296490Y-9258646D01*
X36986394Y-9092896D01*
X36649920Y-8990828D01*
X36300000Y-8956364D01*
X35950079Y-8990828D01*
X35613605Y-9092896D01*
X35303509Y-9258646D01*
X35031708Y-9481708D01*
X34808646Y-9753510D01*
X34642896Y-10063606D01*
X34540828Y-10400080D01*
X34515000Y-10662318D01*
X34515000Y-11537683D01*
X34540828Y-11799921D01*
X34642896Y-12136395D01*
X34808646Y-12446491D01*
X35031709Y-12718292D01*
X35100889Y-12775067D01*
X35051898Y-12754774D01*
X34851939Y-12715000D01*
X34648061Y-12715000D01*
X34448102Y-12754774D01*
X34259744Y-12832795D01*
X34090226Y-12946063D01*
X33946063Y-13090226D01*
X33832795Y-13259744D01*
X33754774Y-13448102D01*
X33715000Y-13648061D01*
X6527664Y-13648061D01*
X6535000Y-13611184D01*
X6535000Y-13308816D01*
X6476011Y-13012257D01*
X6360299Y-12732905D01*
X6192312Y-12481495D01*
X5978505Y-12267688D01*
X5727095Y-12099701D01*
X5447743Y-11983989D01*
X5151184Y-11925000D01*
X4848816Y-11925000D01*
X4552257Y-11983989D01*
X4272905Y-12099701D01*
X4021495Y-12267688D01*
X3807688Y-12481495D01*
X3639701Y-12732905D01*
X3523989Y-13012257D01*
X3465000Y-13308816D01*
X660000Y-13308816D01*
X660000Y-7804495D01*
X19920000Y-7804495D01*
X19920000Y-8195505D01*
X19996282Y-8579003D01*
X20145915Y-8940250D01*
X20363149Y-9265364D01*
X20639636Y-9541851D01*
X20964750Y-9759085D01*
X21325997Y-9908718D01*
X21709495Y-9985000D01*
X22100505Y-9985000D01*
X22484003Y-9908718D01*
X22845250Y-9759085D01*
X23170364Y-9541851D01*
X23446851Y-9265364D01*
X23664085Y-8940250D01*
X23813718Y-8579003D01*
X23890000Y-8195505D01*
X23890000Y-7804495D01*
X23813718Y-7420997D01*
X23664085Y-7059750D01*
X23446851Y-6734636D01*
X23170364Y-6458149D01*
X22845250Y-6240915D01*
X22484003Y-6091282D01*
X22100505Y-6015000D01*
X21709495Y-6015000D01*
X21325997Y-6091282D01*
X20964750Y-6240915D01*
X20639636Y-6458149D01*
X20363149Y-6734636D01*
X20145915Y-7059750D01*
X19996282Y-7420997D01*
X19920000Y-7804495D01*
X660000Y-7804495D01*
X660000Y-3273380D01*
X3273381Y-660000D01*
X74726620Y-660000D01*
X77340001Y-3273382D01*
%TA.AperFunction,Conductor*%
D27*
G36*
X77340001Y-3273382D02*
G01*
X77340000Y-36726619D01*
X74726620Y-39340000D01*
X3273381Y-39340000D01*
X660000Y-36726620D01*
X660000Y-28898061D01*
X6965000Y-28898061D01*
X6965000Y-29101939D01*
X7004774Y-29301898D01*
X7082795Y-29490256D01*
X7196063Y-29659774D01*
X7340226Y-29803937D01*
X7509744Y-29917205D01*
X7594787Y-29952431D01*
X16287829Y-38645474D01*
X16317893Y-38682107D01*
X16354526Y-38712171D01*
X16464071Y-38802073D01*
X16630846Y-38891216D01*
X16811807Y-38946110D01*
X16952838Y-38960000D01*
X16952847Y-38960000D01*
X16999999Y-38964644D01*
X17047151Y-38960000D01*
X35613060Y-38960000D01*
X35698102Y-38995226D01*
X35898061Y-39035000D01*
X36101939Y-39035000D01*
X36301898Y-38995226D01*
X36490256Y-38917205D01*
X36659774Y-38803937D01*
X36803937Y-38659774D01*
X36917205Y-38490256D01*
X36995226Y-38301898D01*
X37035000Y-38101939D01*
X37035000Y-37898061D01*
X36995226Y-37698102D01*
X36917205Y-37509744D01*
X36803937Y-37340226D01*
X36659774Y-37196063D01*
X36490256Y-37082795D01*
X36301898Y-37004774D01*
X36101939Y-36965000D01*
X35898061Y-36965000D01*
X35698102Y-37004774D01*
X35613060Y-37040000D01*
X17397645Y-37040000D01*
X8952431Y-28594787D01*
X8917205Y-28509744D01*
X8803937Y-28340226D01*
X8659774Y-28196063D01*
X8490256Y-28082795D01*
X8301898Y-28004774D01*
X8101939Y-27965000D01*
X7898061Y-27965000D01*
X7698102Y-28004774D01*
X7509744Y-28082795D01*
X7340226Y-28196063D01*
X7196063Y-28340226D01*
X7082795Y-28509744D01*
X7004774Y-28698102D01*
X6965000Y-28898061D01*
X660000Y-28898061D01*
X660000Y-13308816D01*
X3465000Y-13308816D01*
X3465000Y-13611184D01*
X3523989Y-13907743D01*
X3639701Y-14187095D01*
X3807688Y-14438505D01*
X4021495Y-14652312D01*
X4137763Y-14730000D01*
X4021495Y-14807688D01*
X3807688Y-15021495D01*
X3639701Y-15272905D01*
X3523989Y-15552257D01*
X3465000Y-15848816D01*
X3465000Y-16151184D01*
X3523989Y-16447743D01*
X3639701Y-16727095D01*
X3807688Y-16978505D01*
X4021495Y-17192312D01*
X4137763Y-17270000D01*
X4021495Y-17347688D01*
X3807688Y-17561495D01*
X3639701Y-17812905D01*
X3523989Y-18092257D01*
X3465000Y-18388816D01*
X3465000Y-18691184D01*
X3523989Y-18987743D01*
X3639701Y-19267095D01*
X3807688Y-19518505D01*
X4021495Y-19732312D01*
X4040000Y-19744677D01*
X4040001Y-22952838D01*
X4035356Y-23000000D01*
X4053891Y-23188192D01*
X4108784Y-23369153D01*
X4197927Y-23535928D01*
X4287829Y-23645473D01*
X4317894Y-23682107D01*
X4354527Y-23712171D01*
X17287829Y-36645474D01*
X17317893Y-36682107D01*
X17354525Y-36712170D01*
X17464071Y-36802073D01*
X17522163Y-36833124D01*
X17630846Y-36891216D01*
X17811807Y-36946110D01*
X17952838Y-36960000D01*
X17952847Y-36960000D01*
X17999999Y-36964644D01*
X18047151Y-36960000D01*
X41613060Y-36960000D01*
X41698102Y-36995226D01*
X41898061Y-37035000D01*
X42101939Y-37035000D01*
X42301898Y-36995226D01*
X42490256Y-36917205D01*
X42659774Y-36803937D01*
X42803937Y-36659774D01*
X42917205Y-36490256D01*
X42995226Y-36301898D01*
X43035000Y-36101939D01*
X43035000Y-35898061D01*
X42995226Y-35698102D01*
X42917205Y-35509744D01*
X42803937Y-35340226D01*
X42659774Y-35196063D01*
X42490256Y-35082795D01*
X42301898Y-35004774D01*
X42101939Y-34965000D01*
X41898061Y-34965000D01*
X41698102Y-35004774D01*
X41613060Y-35040000D01*
X18397645Y-35040000D01*
X10057645Y-26700000D01*
X53561928Y-26700000D01*
X53561928Y-28300000D01*
X53574188Y-28424482D01*
X53610498Y-28544180D01*
X53669463Y-28654494D01*
X53748815Y-28751185D01*
X53845506Y-28830537D01*
X53955820Y-28889502D01*
X54075518Y-28925812D01*
X54200000Y-28938072D01*
X55800000Y-28938072D01*
X55924482Y-28925812D01*
X56044180Y-28889502D01*
X56154494Y-28830537D01*
X56251185Y-28751185D01*
X56330537Y-28654494D01*
X56389502Y-28544180D01*
X56425812Y-28424482D01*
X56438072Y-28300000D01*
X56438072Y-26700000D01*
X56425812Y-26575518D01*
X56389502Y-26455820D01*
X56330537Y-26345506D01*
X56251185Y-26248815D01*
X56154494Y-26169463D01*
X56044180Y-26110498D01*
X55924482Y-26074188D01*
X55800000Y-26061928D01*
X54200000Y-26061928D01*
X54075518Y-26074188D01*
X53955820Y-26110498D01*
X53845506Y-26169463D01*
X53748815Y-26248815D01*
X53669463Y-26345506D01*
X53610498Y-26455820D01*
X53574188Y-26575518D01*
X53561928Y-26700000D01*
X10057645Y-26700000D01*
X6857645Y-23500000D01*
X17361928Y-23500000D01*
X17361928Y-25500000D01*
X17374188Y-25624482D01*
X17410498Y-25744180D01*
X17469463Y-25854494D01*
X17548815Y-25951185D01*
X17645506Y-26030537D01*
X17755820Y-26089502D01*
X17875518Y-26125812D01*
X18000000Y-26138072D01*
X20000000Y-26138072D01*
X20124482Y-26125812D01*
X20244180Y-26089502D01*
X20354494Y-26030537D01*
X20451185Y-25951185D01*
X20530537Y-25854494D01*
X20589502Y-25744180D01*
X20625812Y-25624482D01*
X20638072Y-25500000D01*
X20638072Y-23500000D01*
X29359509Y-23500000D01*
X29381423Y-23722499D01*
X29446324Y-23936447D01*
X29551716Y-24133623D01*
X29693551Y-24306449D01*
X29866377Y-24448284D01*
X30063553Y-24553676D01*
X30277501Y-24618577D01*
X30444248Y-24635000D01*
X43444249Y-24635000D01*
X43500000Y-24640491D01*
X43555751Y-24635000D01*
X43555752Y-24635000D01*
X43722499Y-24618577D01*
X43936447Y-24553676D01*
X44133623Y-24448284D01*
X44306449Y-24306449D01*
X44341996Y-24263135D01*
X46970133Y-21635000D01*
X52055752Y-21635000D01*
X52222499Y-21618577D01*
X52436447Y-21553676D01*
X52633623Y-21448284D01*
X52806449Y-21306449D01*
X52948284Y-21133623D01*
X53040000Y-20962032D01*
X53040001Y-24363057D01*
X53004774Y-24448102D01*
X52965000Y-24648061D01*
X52965000Y-24851939D01*
X53004774Y-25051898D01*
X53082795Y-25240256D01*
X53196063Y-25409774D01*
X53340226Y-25553937D01*
X53509744Y-25667205D01*
X53698102Y-25745226D01*
X53898061Y-25785000D01*
X54101939Y-25785000D01*
X54301898Y-25745226D01*
X54490256Y-25667205D01*
X54659774Y-25553937D01*
X54803937Y-25409774D01*
X54917205Y-25240256D01*
X54995226Y-25051898D01*
X55035000Y-24851939D01*
X55035000Y-24648061D01*
X54995226Y-24448102D01*
X54960000Y-24363060D01*
X54960000Y-21883967D01*
X55009744Y-21917205D01*
X55198102Y-21995226D01*
X55254957Y-22006535D01*
X62615001Y-29366580D01*
X62615000Y-30461545D01*
X62582795Y-30509744D01*
X62504774Y-30698102D01*
X62465000Y-30898061D01*
X62465000Y-31101939D01*
X62497434Y-31264999D01*
X58516578Y-31264999D01*
X58506535Y-31254956D01*
X58495226Y-31198102D01*
X58417205Y-31009744D01*
X58303937Y-30840226D01*
X58159774Y-30696063D01*
X57990256Y-30582795D01*
X57801898Y-30504774D01*
X57601939Y-30465000D01*
X57398061Y-30465000D01*
X57198102Y-30504774D01*
X57009744Y-30582795D01*
X56840226Y-30696063D01*
X56696063Y-30840226D01*
X56582795Y-31009744D01*
X56504774Y-31198102D01*
X56465000Y-31398061D01*
X56465000Y-31601939D01*
X56504774Y-31801898D01*
X56582795Y-31990256D01*
X56696063Y-32159774D01*
X56840226Y-32303937D01*
X57009744Y-32417205D01*
X57198102Y-32495226D01*
X57254956Y-32506535D01*
X57493469Y-32745048D01*
X57521182Y-32778816D01*
X57554950Y-32806529D01*
X57554952Y-32806531D01*
X57626451Y-32865209D01*
X57655940Y-32889410D01*
X57809686Y-32971588D01*
X57976509Y-33022194D01*
X58106522Y-33034999D01*
X58106532Y-33034999D01*
X58149998Y-33039280D01*
X58193464Y-33034999D01*
X65806532Y-33034999D01*
X65850001Y-33039280D01*
X65893470Y-33034999D01*
X65893478Y-33034999D01*
X66023491Y-33022194D01*
X66190314Y-32971588D01*
X66344060Y-32889410D01*
X66478818Y-32778816D01*
X66497506Y-32756045D01*
X66551898Y-32745226D01*
X66740256Y-32667205D01*
X66909774Y-32553937D01*
X67053937Y-32409774D01*
X67167205Y-32240256D01*
X67245226Y-32051898D01*
X67285000Y-31851939D01*
X67285000Y-31648061D01*
X67245226Y-31448102D01*
X67167205Y-31259744D01*
X67053937Y-31090226D01*
X66909774Y-30946063D01*
X66740256Y-30832795D01*
X66551898Y-30754774D01*
X66351939Y-30715000D01*
X66148061Y-30715000D01*
X65948102Y-30754774D01*
X65759744Y-30832795D01*
X65590226Y-30946063D01*
X65446063Y-31090226D01*
X65332795Y-31259744D01*
X65330618Y-31264999D01*
X64502566Y-31264999D01*
X64535000Y-31101939D01*
X64535000Y-30898061D01*
X64495226Y-30698102D01*
X64417205Y-30509744D01*
X64385000Y-30461546D01*
X64385000Y-29043465D01*
X64389281Y-28999999D01*
X64385000Y-28956533D01*
X64385000Y-28956523D01*
X64372195Y-28826510D01*
X64321589Y-28659687D01*
X64239411Y-28505941D01*
X64128817Y-28371183D01*
X64095049Y-28343470D01*
X56506535Y-20754957D01*
X56495226Y-20698102D01*
X56417205Y-20509744D01*
X56385000Y-20461546D01*
X56385000Y-18398061D01*
X64965000Y-18398061D01*
X64965000Y-18601939D01*
X65004774Y-18801898D01*
X65082795Y-18990256D01*
X65196063Y-19159774D01*
X65340226Y-19303937D01*
X65509744Y-19417205D01*
X65698102Y-19495226D01*
X65754957Y-19506535D01*
X66615001Y-20366580D01*
X66615000Y-20961545D01*
X66582795Y-21009744D01*
X66504774Y-21198102D01*
X66465000Y-21398061D01*
X66465000Y-21601939D01*
X66504774Y-21801898D01*
X66582795Y-21990256D01*
X66696063Y-22159774D01*
X66840226Y-22303937D01*
X67009744Y-22417205D01*
X67198102Y-22495226D01*
X67398061Y-22535000D01*
X67601939Y-22535000D01*
X67801898Y-22495226D01*
X67990256Y-22417205D01*
X68159774Y-22303937D01*
X68303937Y-22159774D01*
X68417205Y-21990256D01*
X68495226Y-21801898D01*
X68535000Y-21601939D01*
X68535000Y-21398061D01*
X68495226Y-21198102D01*
X68417205Y-21009744D01*
X68385000Y-20961546D01*
X68385000Y-20640156D01*
X68404951Y-20656530D01*
X68404953Y-20656532D01*
X68453122Y-20696063D01*
X68505941Y-20739411D01*
X68659687Y-20821589D01*
X68826510Y-20872195D01*
X68956523Y-20885000D01*
X68956533Y-20885000D01*
X68999999Y-20889281D01*
X69043465Y-20885000D01*
X73956531Y-20885000D01*
X74000000Y-20889281D01*
X74043469Y-20885000D01*
X74043477Y-20885000D01*
X74173490Y-20872195D01*
X74340313Y-20821589D01*
X74494059Y-20739411D01*
X74628817Y-20628817D01*
X74656534Y-20595044D01*
X75245044Y-20006535D01*
X75301898Y-19995226D01*
X75490256Y-19917205D01*
X75659774Y-19803937D01*
X75803937Y-19659774D01*
X75917205Y-19490256D01*
X75995226Y-19301898D01*
X76035000Y-19101939D01*
X76035000Y-18898061D01*
X75995226Y-18698102D01*
X75917205Y-18509744D01*
X75803937Y-18340226D01*
X75659774Y-18196063D01*
X75490256Y-18082795D01*
X75301898Y-18004774D01*
X75101939Y-17965000D01*
X74898061Y-17965000D01*
X74698102Y-18004774D01*
X74509744Y-18082795D01*
X74340226Y-18196063D01*
X74196063Y-18340226D01*
X74082795Y-18509744D01*
X74004774Y-18698102D01*
X73993465Y-18754956D01*
X73633422Y-19115000D01*
X69366579Y-19115000D01*
X67885000Y-17633422D01*
X67885000Y-17538454D01*
X67917205Y-17490256D01*
X67995226Y-17301898D01*
X68025143Y-17151496D01*
X68091282Y-17484003D01*
X68240915Y-17845250D01*
X68458149Y-18170364D01*
X68734636Y-18446851D01*
X69059750Y-18664085D01*
X69420997Y-18813718D01*
X69804495Y-18890000D01*
X70195505Y-18890000D01*
X70579003Y-18813718D01*
X70940250Y-18664085D01*
X71265364Y-18446851D01*
X71541851Y-18170364D01*
X71759085Y-17845250D01*
X71908718Y-17484003D01*
X71985000Y-17100505D01*
X71985000Y-16709495D01*
X71908718Y-16325997D01*
X71759085Y-15964750D01*
X71541851Y-15639636D01*
X71265364Y-15363149D01*
X70940250Y-15145915D01*
X70579003Y-14996282D01*
X70195505Y-14920000D01*
X69804495Y-14920000D01*
X69420997Y-14996282D01*
X69059750Y-15145915D01*
X68734636Y-15363149D01*
X68458149Y-15639636D01*
X68240915Y-15964750D01*
X68091282Y-16325997D01*
X68015000Y-16709495D01*
X68015000Y-16797513D01*
X67995226Y-16698102D01*
X67917205Y-16509744D01*
X67803937Y-16340226D01*
X67659774Y-16196063D01*
X67490256Y-16082795D01*
X67301898Y-16004774D01*
X67101939Y-15965000D01*
X66898061Y-15965000D01*
X66698102Y-16004774D01*
X66509744Y-16082795D01*
X66340226Y-16196063D01*
X66196063Y-16340226D01*
X66082795Y-16509744D01*
X66004774Y-16698102D01*
X65965000Y-16898061D01*
X65965000Y-17101939D01*
X66004774Y-17301898D01*
X66072334Y-17465000D01*
X65898061Y-17465000D01*
X65698102Y-17504774D01*
X65509744Y-17582795D01*
X65340226Y-17696063D01*
X65196063Y-17840226D01*
X65082795Y-18009744D01*
X65004774Y-18198102D01*
X64965000Y-18398061D01*
X56385000Y-18398061D01*
X56385000Y-14800870D01*
X56442205Y-14715256D01*
X56520226Y-14526898D01*
X56560000Y-14326939D01*
X56560000Y-14123061D01*
X56520226Y-13923102D01*
X56442205Y-13734744D01*
X56410000Y-13686546D01*
X56410000Y-11441578D01*
X59545044Y-8306535D01*
X59601898Y-8295226D01*
X59790256Y-8217205D01*
X59959774Y-8103937D01*
X60103937Y-7959774D01*
X60217205Y-7790256D01*
X60295226Y-7601898D01*
X60335000Y-7401939D01*
X60335000Y-7198061D01*
X60295226Y-6998102D01*
X60217205Y-6809744D01*
X60103937Y-6640226D01*
X59959774Y-6496063D01*
X59790256Y-6382795D01*
X59601898Y-6304774D01*
X59401939Y-6265000D01*
X59198061Y-6265000D01*
X58998102Y-6304774D01*
X58809744Y-6382795D01*
X58640226Y-6496063D01*
X58496063Y-6640226D01*
X58382795Y-6809744D01*
X58304774Y-6998102D01*
X58293465Y-7054956D01*
X54929951Y-10418470D01*
X54896184Y-10446183D01*
X54868471Y-10479951D01*
X54868468Y-10479954D01*
X54785590Y-10580941D01*
X54703412Y-10734687D01*
X54652805Y-10901510D01*
X54635719Y-11075000D01*
X54640001Y-11118479D01*
X54640000Y-13686545D01*
X54607795Y-13734744D01*
X54529774Y-13923102D01*
X54490000Y-14123061D01*
X54490000Y-14326939D01*
X54529774Y-14526898D01*
X54607795Y-14715256D01*
X54615001Y-14726040D01*
X54615001Y-17007356D01*
X51462175Y-13854531D01*
X51432107Y-13817893D01*
X51285928Y-13697927D01*
X51119154Y-13608784D01*
X50938193Y-13553890D01*
X50797162Y-13540000D01*
X50797152Y-13540000D01*
X50750000Y-13535356D01*
X50702848Y-13540000D01*
X49886940Y-13540000D01*
X49801898Y-13504774D01*
X49601939Y-13465000D01*
X49398061Y-13465000D01*
X49198102Y-13504774D01*
X49009744Y-13582795D01*
X48840226Y-13696063D01*
X48696063Y-13840226D01*
X48582795Y-14009744D01*
X48504774Y-14198102D01*
X48465000Y-14398061D01*
X48465000Y-14601939D01*
X48504774Y-14801898D01*
X48582795Y-14990256D01*
X48696063Y-15159774D01*
X48840226Y-15303937D01*
X49009744Y-15417205D01*
X49198102Y-15495226D01*
X49398061Y-15535000D01*
X49601939Y-15535000D01*
X49801898Y-15495226D01*
X49886940Y-15460000D01*
X50352356Y-15460000D01*
X53040000Y-18147645D01*
X53040000Y-20037967D01*
X52948284Y-19866377D01*
X52806449Y-19693551D01*
X52633623Y-19551716D01*
X52436447Y-19446324D01*
X52222499Y-19381423D01*
X52055752Y-19365000D01*
X46555752Y-19365000D01*
X46500000Y-19359509D01*
X46444248Y-19365000D01*
X46277501Y-19381423D01*
X46063553Y-19446324D01*
X45866377Y-19551716D01*
X45736856Y-19658011D01*
X45736854Y-19658013D01*
X45693551Y-19693551D01*
X45658013Y-19736854D01*
X43029869Y-22365000D01*
X30444248Y-22365000D01*
X30277501Y-22381423D01*
X30063553Y-22446324D01*
X29866377Y-22551716D01*
X29693551Y-22693551D01*
X29551716Y-22866377D01*
X29446324Y-23063553D01*
X29381423Y-23277501D01*
X29359509Y-23500000D01*
X20638072Y-23500000D01*
X20625812Y-23375518D01*
X20589502Y-23255820D01*
X20530537Y-23145506D01*
X20451185Y-23048815D01*
X20354494Y-22969463D01*
X20244180Y-22910498D01*
X20124482Y-22874188D01*
X20000000Y-22861928D01*
X18000000Y-22861928D01*
X17875518Y-22874188D01*
X17755820Y-22910498D01*
X17645506Y-22969463D01*
X17548815Y-23048815D01*
X17469463Y-23145506D01*
X17410498Y-23255820D01*
X17374188Y-23375518D01*
X17361928Y-23500000D01*
X6857645Y-23500000D01*
X5960000Y-22602356D01*
X5960000Y-19744677D01*
X5978505Y-19732312D01*
X6192312Y-19518505D01*
X6360299Y-19267095D01*
X6476011Y-18987743D01*
X6535000Y-18691184D01*
X6535000Y-18388816D01*
X6476011Y-18092257D01*
X6360299Y-17812905D01*
X6192312Y-17561495D01*
X5978505Y-17347688D01*
X5862237Y-17270000D01*
X5978505Y-17192312D01*
X6192312Y-16978505D01*
X6360299Y-16727095D01*
X6476011Y-16447743D01*
X6535000Y-16151184D01*
X6535000Y-15848816D01*
X6476011Y-15552257D01*
X6360299Y-15272905D01*
X6311586Y-15200000D01*
X11561928Y-15200000D01*
X11561928Y-16800000D01*
X11574188Y-16924482D01*
X11610498Y-17044180D01*
X11669463Y-17154494D01*
X11748815Y-17251185D01*
X11845506Y-17330537D01*
X11955820Y-17389502D01*
X12075518Y-17425812D01*
X12200000Y-17438072D01*
X13800000Y-17438072D01*
X13924482Y-17425812D01*
X14044180Y-17389502D01*
X14154494Y-17330537D01*
X14251185Y-17251185D01*
X14330537Y-17154494D01*
X14389502Y-17044180D01*
X14425812Y-16924482D01*
X14438072Y-16800000D01*
X14438072Y-15200000D01*
X14425812Y-15075518D01*
X14389502Y-14955820D01*
X14330537Y-14845506D01*
X14251185Y-14748815D01*
X14154494Y-14669463D01*
X14044180Y-14610498D01*
X13924482Y-14574188D01*
X13800000Y-14561928D01*
X12200000Y-14561928D01*
X12075518Y-14574188D01*
X11955820Y-14610498D01*
X11845506Y-14669463D01*
X11748815Y-14748815D01*
X11669463Y-14845506D01*
X11610498Y-14955820D01*
X11574188Y-15075518D01*
X11561928Y-15200000D01*
X6311586Y-15200000D01*
X6192312Y-15021495D01*
X5978505Y-14807688D01*
X5862237Y-14730000D01*
X5978505Y-14652312D01*
X6192312Y-14438505D01*
X6360299Y-14187095D01*
X6476011Y-13907743D01*
X6527664Y-13648061D01*
X33715000Y-13648061D01*
X33715000Y-13851939D01*
X33754774Y-14051898D01*
X33832795Y-14240256D01*
X33946063Y-14409774D01*
X34090226Y-14553937D01*
X34259744Y-14667205D01*
X34344787Y-14702431D01*
X36790000Y-17147645D01*
X36790001Y-20363057D01*
X36754774Y-20448102D01*
X36715000Y-20648061D01*
X36715000Y-20851939D01*
X36754774Y-21051898D01*
X36832795Y-21240256D01*
X36946063Y-21409774D01*
X37090226Y-21553937D01*
X37259744Y-21667205D01*
X37448102Y-21745226D01*
X37648061Y-21785000D01*
X37851939Y-21785000D01*
X38051898Y-21745226D01*
X38240256Y-21667205D01*
X38409774Y-21553937D01*
X38553937Y-21409774D01*
X38667205Y-21240256D01*
X38745226Y-21051898D01*
X38785000Y-20851939D01*
X38785000Y-20648061D01*
X38745226Y-20448102D01*
X38710000Y-20363060D01*
X38710000Y-16797160D01*
X38714645Y-16750000D01*
X38710000Y-16702838D01*
X38696110Y-16561807D01*
X38641216Y-16380846D01*
X38619504Y-16340226D01*
X38552073Y-16214071D01*
X38462171Y-16104526D01*
X38432107Y-16067893D01*
X38395474Y-16037829D01*
X35702431Y-13344787D01*
X35667205Y-13259744D01*
X35553937Y-13090226D01*
X35521679Y-13057968D01*
X35613606Y-13107104D01*
X35950080Y-13209172D01*
X36300000Y-13243636D01*
X36649921Y-13209172D01*
X36986395Y-13107104D01*
X37296491Y-12941354D01*
X37568292Y-12718292D01*
X37791354Y-12446491D01*
X37957104Y-12136395D01*
X38059172Y-11799921D01*
X38085000Y-11537682D01*
X38085000Y-10662318D01*
X39215000Y-10662318D01*
X39215000Y-11537683D01*
X39240828Y-11799921D01*
X39342896Y-12136395D01*
X39508646Y-12446491D01*
X39731709Y-12718292D01*
X40003510Y-12941354D01*
X40313606Y-13107104D01*
X40650080Y-13209172D01*
X41000000Y-13243636D01*
X41349921Y-13209172D01*
X41686395Y-13107104D01*
X41996491Y-12941354D01*
X42268292Y-12718292D01*
X42491354Y-12446491D01*
X42657104Y-12136395D01*
X42759172Y-11799921D01*
X42785000Y-11537682D01*
X42785000Y-10662318D01*
X43915000Y-10662318D01*
X43915000Y-11537683D01*
X43940828Y-11799921D01*
X44042896Y-12136395D01*
X44208646Y-12446491D01*
X44431709Y-12718292D01*
X44703510Y-12941354D01*
X45013606Y-13107104D01*
X45350080Y-13209172D01*
X45700000Y-13243636D01*
X46049921Y-13209172D01*
X46386395Y-13107104D01*
X46696491Y-12941354D01*
X46968292Y-12718292D01*
X47191354Y-12446491D01*
X47357104Y-12136395D01*
X47459172Y-11799921D01*
X47485000Y-11537682D01*
X47485000Y-10662317D01*
X47459172Y-10400079D01*
X47357104Y-10063605D01*
X47191354Y-9753509D01*
X46968292Y-9481708D01*
X46696490Y-9258646D01*
X46386394Y-9092896D01*
X46049920Y-8990828D01*
X45700000Y-8956364D01*
X45350079Y-8990828D01*
X45013605Y-9092896D01*
X44703509Y-9258646D01*
X44431708Y-9481708D01*
X44208646Y-9753510D01*
X44042896Y-10063606D01*
X43940828Y-10400080D01*
X43915000Y-10662318D01*
X42785000Y-10662318D01*
X42785000Y-10662317D01*
X42759172Y-10400079D01*
X42657104Y-10063605D01*
X42491354Y-9753509D01*
X42268292Y-9481708D01*
X41996490Y-9258646D01*
X41686394Y-9092896D01*
X41349920Y-8990828D01*
X41000000Y-8956364D01*
X40650079Y-8990828D01*
X40313605Y-9092896D01*
X40003509Y-9258646D01*
X39731708Y-9481708D01*
X39508646Y-9753510D01*
X39342896Y-10063606D01*
X39240828Y-10400080D01*
X39215000Y-10662318D01*
X38085000Y-10662318D01*
X38085000Y-10662317D01*
X38059172Y-10400079D01*
X37957104Y-10063605D01*
X37791354Y-9753509D01*
X37568292Y-9481708D01*
X37296490Y-9258646D01*
X36986394Y-9092896D01*
X36649920Y-8990828D01*
X36300000Y-8956364D01*
X35950079Y-8990828D01*
X35613605Y-9092896D01*
X35303509Y-9258646D01*
X35031708Y-9481708D01*
X34808646Y-9753510D01*
X34642896Y-10063606D01*
X34540828Y-10400080D01*
X34515000Y-10662318D01*
X34515000Y-11537683D01*
X34540828Y-11799921D01*
X34642896Y-12136395D01*
X34808646Y-12446491D01*
X35031709Y-12718292D01*
X35100889Y-12775067D01*
X35051898Y-12754774D01*
X34851939Y-12715000D01*
X34648061Y-12715000D01*
X34448102Y-12754774D01*
X34259744Y-12832795D01*
X34090226Y-12946063D01*
X33946063Y-13090226D01*
X33832795Y-13259744D01*
X33754774Y-13448102D01*
X33715000Y-13648061D01*
X6527664Y-13648061D01*
X6535000Y-13611184D01*
X6535000Y-13308816D01*
X6476011Y-13012257D01*
X6360299Y-12732905D01*
X6192312Y-12481495D01*
X5978505Y-12267688D01*
X5727095Y-12099701D01*
X5447743Y-11983989D01*
X5151184Y-11925000D01*
X4848816Y-11925000D01*
X4552257Y-11983989D01*
X4272905Y-12099701D01*
X4021495Y-12267688D01*
X3807688Y-12481495D01*
X3639701Y-12732905D01*
X3523989Y-13012257D01*
X3465000Y-13308816D01*
X660000Y-13308816D01*
X660000Y-7804495D01*
X19920000Y-7804495D01*
X19920000Y-8195505D01*
X19996282Y-8579003D01*
X20145915Y-8940250D01*
X20363149Y-9265364D01*
X20639636Y-9541851D01*
X20964750Y-9759085D01*
X21325997Y-9908718D01*
X21709495Y-9985000D01*
X22100505Y-9985000D01*
X22484003Y-9908718D01*
X22845250Y-9759085D01*
X23170364Y-9541851D01*
X23446851Y-9265364D01*
X23664085Y-8940250D01*
X23813718Y-8579003D01*
X23890000Y-8195505D01*
X23890000Y-7804495D01*
X23813718Y-7420997D01*
X23664085Y-7059750D01*
X23446851Y-6734636D01*
X23170364Y-6458149D01*
X22845250Y-6240915D01*
X22484003Y-6091282D01*
X22100505Y-6015000D01*
X21709495Y-6015000D01*
X21325997Y-6091282D01*
X20964750Y-6240915D01*
X20639636Y-6458149D01*
X20363149Y-6734636D01*
X20145915Y-7059750D01*
X19996282Y-7420997D01*
X19920000Y-7804495D01*
X660000Y-7804495D01*
X660000Y-3273380D01*
X3273381Y-660000D01*
X74726620Y-660000D01*
X77340001Y-3273382D01*
G37*
%TD.AperFunction*%
%TD*%
M02*
