%TF.GenerationSoftware,KiCad,Pcbnew,(5.1.10)-1*%
%TF.CreationDate,2021-05-16T21:49:31+02:00*%
%TF.ProjectId,BatteryBoost,42617474-6572-4794-926f-6f73742e6b69,rev?*%
%TF.SameCoordinates,Original*%
%TF.FileFunction,Copper,L1,Top*%
%TF.FilePolarity,Positive*%
%FSLAX46Y46*%
G04 Gerber Fmt 4.6, Leading zero omitted, Abs format (unit mm)*
G04 Created by KiCad (PCBNEW (5.1.10)-1) date 2021-05-16 21:49:31*
%MOMM*%
%LPD*%
G01*
G04 APERTURE LIST*
%TA.AperFunction,Profile*%
%ADD10C,0.050000*%
%TD*%
%TA.AperFunction,SMDPad,CuDef*%
%ADD11R,1.060000X0.650000*%
%TD*%
%TA.AperFunction,SMDPad,CuDef*%
%ADD12R,0.800000X0.900000*%
%TD*%
%TA.AperFunction,SMDPad,CuDef*%
%ADD13R,0.900000X0.800000*%
%TD*%
%TA.AperFunction,SMDPad,CuDef*%
%ADD14R,2.500000X2.300000*%
%TD*%
%TA.AperFunction,SMDPad,CuDef*%
%ADD15C,3.000000*%
%TD*%
%TA.AperFunction,SMDPad,CuDef*%
%ADD16R,5.400000X2.900000*%
%TD*%
%TA.AperFunction,ComponentPad*%
%ADD17C,1.600000*%
%TD*%
%TA.AperFunction,ComponentPad*%
%ADD18R,1.600000X1.600000*%
%TD*%
%TA.AperFunction,ComponentPad*%
%ADD19C,2.000000*%
%TD*%
%TA.AperFunction,ComponentPad*%
%ADD20R,2.000000X2.000000*%
%TD*%
%TA.AperFunction,SMDPad,CuDef*%
%ADD21R,2.290000X3.000000*%
%TD*%
%TA.AperFunction,ComponentPad*%
%ADD22O,2.300000X3.000000*%
%TD*%
%TA.AperFunction,ComponentPad*%
%ADD23C,2.700000*%
%TD*%
%TA.AperFunction,ComponentPad*%
%ADD24O,1.100000X1.800000*%
%TD*%
%TA.AperFunction,SMDPad,CuDef*%
%ADD25R,0.400000X1.250000*%
%TD*%
%TA.AperFunction,ComponentPad*%
%ADD26C,1.290000*%
%TD*%
%TA.AperFunction,ComponentPad*%
%ADD27C,1.800000*%
%TD*%
%TA.AperFunction,ConnectorPad*%
%ADD28C,5.600000*%
%TD*%
%TA.AperFunction,ComponentPad*%
%ADD29C,3.600000*%
%TD*%
%TA.AperFunction,ViaPad*%
%ADD30C,0.800000*%
%TD*%
%TA.AperFunction,Conductor*%
%ADD31C,0.500000*%
%TD*%
%TA.AperFunction,Conductor*%
%ADD32C,0.750000*%
%TD*%
%TA.AperFunction,Conductor*%
%ADD33C,0.650000*%
%TD*%
%TA.AperFunction,Conductor*%
%ADD34C,0.400000*%
%TD*%
%TA.AperFunction,Conductor*%
%ADD35C,0.250000*%
%TD*%
%TA.AperFunction,Conductor*%
%ADD36C,1.000000*%
%TD*%
%TA.AperFunction,Conductor*%
%ADD37C,0.254000*%
%TD*%
%TA.AperFunction,Conductor*%
%ADD38C,0.100000*%
%TD*%
G04 APERTURE END LIST*
D10*
X3000000Y-40000000D02*
X0Y-37000000D01*
X78000000Y-37000000D02*
X75000000Y-40000000D01*
X75000000Y0D02*
X78000000Y-3000000D01*
X0Y-3000000D02*
X3000000Y0D01*
X78000000Y-37000000D02*
X78000000Y-3000000D01*
X3000000Y-40000000D02*
X75000000Y-40000000D01*
X75000000Y0D02*
X3000000Y0D01*
X0Y-3000000D02*
X0Y-37000000D01*
D11*
%TO.P,U3,5*%
%TO.N,+5V*%
X62100000Y-31000000D03*
%TO.P,U3,6*%
%TO.N,Net-(Q3-Pad1)*%
X62100000Y-30050000D03*
%TO.P,U3,4*%
%TO.N,N/C*%
X62100000Y-31950000D03*
%TO.P,U3,3*%
X59900000Y-31950000D03*
%TO.P,U3,2*%
%TO.N,GND*%
X59900000Y-31000000D03*
%TO.P,U3,1*%
%TO.N,Net-(U3-Pad1)*%
X59900000Y-30050000D03*
%TD*%
%TO.P,R13,2*%
%TO.N,Net-(Q3-Pad1)*%
%TA.AperFunction,SMDPad,CuDef*%
G36*
G01*
X65375000Y-34600000D02*
X64125000Y-34600000D01*
G75*
G02*
X63875000Y-34350000I0J250000D01*
G01*
X63875000Y-33550000D01*
G75*
G02*
X64125000Y-33300000I250000J0D01*
G01*
X65375000Y-33300000D01*
G75*
G02*
X65625000Y-33550000I0J-250000D01*
G01*
X65625000Y-34350000D01*
G75*
G02*
X65375000Y-34600000I-250000J0D01*
G01*
G37*
%TD.AperFunction*%
%TO.P,R13,1*%
%TO.N,GND*%
%TA.AperFunction,SMDPad,CuDef*%
G36*
G01*
X65375000Y-37700000D02*
X64125000Y-37700000D01*
G75*
G02*
X63875000Y-37450000I0J250000D01*
G01*
X63875000Y-36650000D01*
G75*
G02*
X64125000Y-36400000I250000J0D01*
G01*
X65375000Y-36400000D01*
G75*
G02*
X65625000Y-36650000I0J-250000D01*
G01*
X65625000Y-37450000D01*
G75*
G02*
X65375000Y-37700000I-250000J0D01*
G01*
G37*
%TD.AperFunction*%
%TD*%
%TO.P,R10,2*%
%TO.N,VBATT*%
%TA.AperFunction,SMDPad,CuDef*%
G36*
G01*
X58125000Y-34600000D02*
X56875000Y-34600000D01*
G75*
G02*
X56625000Y-34350000I0J250000D01*
G01*
X56625000Y-33550000D01*
G75*
G02*
X56875000Y-33300000I250000J0D01*
G01*
X58125000Y-33300000D01*
G75*
G02*
X58375000Y-33550000I0J-250000D01*
G01*
X58375000Y-34350000D01*
G75*
G02*
X58125000Y-34600000I-250000J0D01*
G01*
G37*
%TD.AperFunction*%
%TO.P,R10,1*%
%TO.N,GND*%
%TA.AperFunction,SMDPad,CuDef*%
G36*
G01*
X58125000Y-37700000D02*
X56875000Y-37700000D01*
G75*
G02*
X56625000Y-37450000I0J250000D01*
G01*
X56625000Y-36650000D01*
G75*
G02*
X56875000Y-36400000I250000J0D01*
G01*
X58125000Y-36400000D01*
G75*
G02*
X58375000Y-36650000I0J-250000D01*
G01*
X58375000Y-37450000D01*
G75*
G02*
X58125000Y-37700000I-250000J0D01*
G01*
G37*
%TD.AperFunction*%
%TD*%
D12*
%TO.P,Q3,3*%
%TO.N,SMPS_Pwr*%
X62000000Y-24750000D03*
%TO.P,Q3,2*%
%TO.N,VBATT*%
X61050000Y-22750000D03*
%TO.P,Q3,1*%
%TO.N,Net-(Q3-Pad1)*%
X62950000Y-22750000D03*
%TD*%
%TO.P,Q1,3*%
%TO.N,SMPS_Pwr*%
X56500000Y-24750000D03*
%TO.P,Q1,2*%
%TO.N,+5V*%
X55550000Y-22750000D03*
%TO.P,Q1,1*%
%TO.N,VBATT*%
X57450000Y-22750000D03*
%TD*%
D13*
%TO.P,Q2,1*%
%TO.N,GND*%
X59500000Y-16550000D03*
%TO.P,Q2,2*%
%TO.N,VBATT*%
X59500000Y-18450000D03*
%TO.P,Q2,3*%
%TO.N,Net-(J6-Pad1)*%
X61500000Y-17500000D03*
%TD*%
D14*
%TO.P,D2,2*%
%TO.N,Net-(D2-Pad2)*%
X22050000Y-15800000D03*
%TO.P,D2,1*%
%TO.N,Net-(C4-Pad1)*%
X17750000Y-15800000D03*
%TD*%
D15*
%TO.P,L1,2*%
%TO.N,Net-(L1-Pad2)*%
X30500000Y-29400000D03*
%TO.P,L1,1*%
%TO.N,Net-(D2-Pad2)*%
X30500000Y-17600000D03*
D16*
%TO.P,L1,2*%
%TO.N,Net-(L1-Pad2)*%
X30500000Y-28450000D03*
%TO.P,L1,1*%
%TO.N,Net-(D2-Pad2)*%
X30500000Y-18550000D03*
%TD*%
%TO.P,C5,2*%
%TO.N,GND*%
%TA.AperFunction,SMDPad,CuDef*%
G36*
G01*
X56650002Y-16662500D02*
X55349998Y-16662500D01*
G75*
G02*
X55100000Y-16412502I0J249998D01*
G01*
X55100000Y-15587498D01*
G75*
G02*
X55349998Y-15337500I249998J0D01*
G01*
X56650002Y-15337500D01*
G75*
G02*
X56900000Y-15587498I0J-249998D01*
G01*
X56900000Y-16412502D01*
G75*
G02*
X56650002Y-16662500I-249998J0D01*
G01*
G37*
%TD.AperFunction*%
%TO.P,C5,1*%
%TO.N,VBATT*%
%TA.AperFunction,SMDPad,CuDef*%
G36*
G01*
X56650002Y-19787500D02*
X55349998Y-19787500D01*
G75*
G02*
X55100000Y-19537502I0J249998D01*
G01*
X55100000Y-18712498D01*
G75*
G02*
X55349998Y-18462500I249998J0D01*
G01*
X56650002Y-18462500D01*
G75*
G02*
X56900000Y-18712498I0J-249998D01*
G01*
X56900000Y-19537502D01*
G75*
G02*
X56650002Y-19787500I-249998J0D01*
G01*
G37*
%TD.AperFunction*%
%TD*%
D17*
%TO.P,C1,2*%
%TO.N,GND*%
X55000000Y-29500000D03*
D18*
%TO.P,C1,1*%
%TO.N,Net-(C1-Pad1)*%
X55000000Y-27500000D03*
%TD*%
D17*
%TO.P,C6,2*%
%TO.N,GND*%
X11000000Y-16000000D03*
D18*
%TO.P,C6,1*%
%TO.N,+24V*%
X13000000Y-16000000D03*
%TD*%
D19*
%TO.P,C4,2*%
%TO.N,GND*%
X14000000Y-24500000D03*
D20*
%TO.P,C4,1*%
%TO.N,Net-(C4-Pad1)*%
X19000000Y-24500000D03*
%TD*%
%TO.P,D1,2*%
%TO.N,Net-(D1-Pad2)*%
%TA.AperFunction,SMDPad,CuDef*%
G36*
G01*
X74375000Y-29775000D02*
X75625000Y-29775000D01*
G75*
G02*
X75875000Y-30025000I0J-250000D01*
G01*
X75875000Y-30950000D01*
G75*
G02*
X75625000Y-31200000I-250000J0D01*
G01*
X74375000Y-31200000D01*
G75*
G02*
X74125000Y-30950000I0J250000D01*
G01*
X74125000Y-30025000D01*
G75*
G02*
X74375000Y-29775000I250000J0D01*
G01*
G37*
%TD.AperFunction*%
%TO.P,D1,1*%
%TO.N,Net-(D1-Pad1)*%
%TA.AperFunction,SMDPad,CuDef*%
G36*
G01*
X74375000Y-26800000D02*
X75625000Y-26800000D01*
G75*
G02*
X75875000Y-27050000I0J-250000D01*
G01*
X75875000Y-27975000D01*
G75*
G02*
X75625000Y-28225000I-250000J0D01*
G01*
X74375000Y-28225000D01*
G75*
G02*
X74125000Y-27975000I0J250000D01*
G01*
X74125000Y-27050000D01*
G75*
G02*
X74375000Y-26800000I250000J0D01*
G01*
G37*
%TD.AperFunction*%
%TD*%
%TO.P,R5,2*%
%TO.N,+5V*%
%TA.AperFunction,SMDPad,CuDef*%
G36*
G01*
X71625001Y-28100000D02*
X70374999Y-28100000D01*
G75*
G02*
X70125000Y-27850001I0J249999D01*
G01*
X70125000Y-27049999D01*
G75*
G02*
X70374999Y-26800000I249999J0D01*
G01*
X71625001Y-26800000D01*
G75*
G02*
X71875000Y-27049999I0J-249999D01*
G01*
X71875000Y-27850001D01*
G75*
G02*
X71625001Y-28100000I-249999J0D01*
G01*
G37*
%TD.AperFunction*%
%TO.P,R5,1*%
%TO.N,Net-(D1-Pad2)*%
%TA.AperFunction,SMDPad,CuDef*%
G36*
G01*
X71625001Y-31200000D02*
X70374999Y-31200000D01*
G75*
G02*
X70125000Y-30950001I0J249999D01*
G01*
X70125000Y-30149999D01*
G75*
G02*
X70374999Y-29900000I249999J0D01*
G01*
X71625001Y-29900000D01*
G75*
G02*
X71875000Y-30149999I0J-249999D01*
G01*
X71875000Y-30950001D01*
G75*
G02*
X71625001Y-31200000I-249999J0D01*
G01*
G37*
%TD.AperFunction*%
%TD*%
%TO.P,U2,1*%
%TO.N,GND*%
%TA.AperFunction,SMDPad,CuDef*%
G36*
G01*
X54550000Y-9745000D02*
X54550000Y-9445000D01*
G75*
G02*
X54700000Y-9295000I150000J0D01*
G01*
X56350000Y-9295000D01*
G75*
G02*
X56500000Y-9445000I0J-150000D01*
G01*
X56500000Y-9745000D01*
G75*
G02*
X56350000Y-9895000I-150000J0D01*
G01*
X54700000Y-9895000D01*
G75*
G02*
X54550000Y-9745000I0J150000D01*
G01*
G37*
%TD.AperFunction*%
%TO.P,U2,2*%
%TO.N,Net-(R11-Pad2)*%
%TA.AperFunction,SMDPad,CuDef*%
G36*
G01*
X54550000Y-11015000D02*
X54550000Y-10715000D01*
G75*
G02*
X54700000Y-10565000I150000J0D01*
G01*
X56350000Y-10565000D01*
G75*
G02*
X56500000Y-10715000I0J-150000D01*
G01*
X56500000Y-11015000D01*
G75*
G02*
X56350000Y-11165000I-150000J0D01*
G01*
X54700000Y-11165000D01*
G75*
G02*
X54550000Y-11015000I0J150000D01*
G01*
G37*
%TD.AperFunction*%
%TO.P,U2,3*%
%TO.N,GND*%
%TA.AperFunction,SMDPad,CuDef*%
G36*
G01*
X54550000Y-12285000D02*
X54550000Y-11985000D01*
G75*
G02*
X54700000Y-11835000I150000J0D01*
G01*
X56350000Y-11835000D01*
G75*
G02*
X56500000Y-11985000I0J-150000D01*
G01*
X56500000Y-12285000D01*
G75*
G02*
X56350000Y-12435000I-150000J0D01*
G01*
X54700000Y-12435000D01*
G75*
G02*
X54550000Y-12285000I0J150000D01*
G01*
G37*
%TD.AperFunction*%
%TO.P,U2,4*%
%TO.N,+5V*%
%TA.AperFunction,SMDPad,CuDef*%
G36*
G01*
X54550000Y-13555000D02*
X54550000Y-13255000D01*
G75*
G02*
X54700000Y-13105000I150000J0D01*
G01*
X56350000Y-13105000D01*
G75*
G02*
X56500000Y-13255000I0J-150000D01*
G01*
X56500000Y-13555000D01*
G75*
G02*
X56350000Y-13705000I-150000J0D01*
G01*
X54700000Y-13705000D01*
G75*
G02*
X54550000Y-13555000I0J150000D01*
G01*
G37*
%TD.AperFunction*%
%TO.P,U2,5*%
%TO.N,VBATT*%
%TA.AperFunction,SMDPad,CuDef*%
G36*
G01*
X59500000Y-13555000D02*
X59500000Y-13255000D01*
G75*
G02*
X59650000Y-13105000I150000J0D01*
G01*
X61300000Y-13105000D01*
G75*
G02*
X61450000Y-13255000I0J-150000D01*
G01*
X61450000Y-13555000D01*
G75*
G02*
X61300000Y-13705000I-150000J0D01*
G01*
X59650000Y-13705000D01*
G75*
G02*
X59500000Y-13555000I0J150000D01*
G01*
G37*
%TD.AperFunction*%
%TO.P,U2,6*%
%TO.N,Net-(D1-Pad1)*%
%TA.AperFunction,SMDPad,CuDef*%
G36*
G01*
X59500000Y-12285000D02*
X59500000Y-11985000D01*
G75*
G02*
X59650000Y-11835000I150000J0D01*
G01*
X61300000Y-11835000D01*
G75*
G02*
X61450000Y-11985000I0J-150000D01*
G01*
X61450000Y-12285000D01*
G75*
G02*
X61300000Y-12435000I-150000J0D01*
G01*
X59650000Y-12435000D01*
G75*
G02*
X59500000Y-12285000I0J150000D01*
G01*
G37*
%TD.AperFunction*%
%TO.P,U2,7*%
%TO.N,Net-(D3-Pad1)*%
%TA.AperFunction,SMDPad,CuDef*%
G36*
G01*
X59500000Y-11015000D02*
X59500000Y-10715000D01*
G75*
G02*
X59650000Y-10565000I150000J0D01*
G01*
X61300000Y-10565000D01*
G75*
G02*
X61450000Y-10715000I0J-150000D01*
G01*
X61450000Y-11015000D01*
G75*
G02*
X61300000Y-11165000I-150000J0D01*
G01*
X59650000Y-11165000D01*
G75*
G02*
X59500000Y-11015000I0J150000D01*
G01*
G37*
%TD.AperFunction*%
%TO.P,U2,8*%
%TO.N,+5V*%
%TA.AperFunction,SMDPad,CuDef*%
G36*
G01*
X59500000Y-9745000D02*
X59500000Y-9445000D01*
G75*
G02*
X59650000Y-9295000I150000J0D01*
G01*
X61300000Y-9295000D01*
G75*
G02*
X61450000Y-9445000I0J-150000D01*
G01*
X61450000Y-9745000D01*
G75*
G02*
X61300000Y-9895000I-150000J0D01*
G01*
X59650000Y-9895000D01*
G75*
G02*
X59500000Y-9745000I0J150000D01*
G01*
G37*
%TD.AperFunction*%
D21*
%TO.P,U2,9*%
%TO.N,GND*%
X58000000Y-11500000D03*
%TD*%
D22*
%TO.P,SW1,1*%
%TO.N,Net-(C1-Pad1)*%
X36300000Y-11100000D03*
%TO.P,SW1,2*%
%TO.N,SMPS_Pwr*%
X41000000Y-11100000D03*
%TO.P,SW1,3*%
%TO.N,Net-(SW1-Pad3)*%
X45700000Y-11100000D03*
%TD*%
D23*
%TO.P,J6,1*%
%TO.N,Net-(J6-Pad1)*%
X70000000Y-16905000D03*
%TO.P,J6,2*%
%TO.N,GND*%
X70000000Y-13095000D03*
%TD*%
%TO.P,J7,2*%
%TO.N,GND*%
X18095000Y-8000000D03*
%TO.P,J7,1*%
%TO.N,+24V*%
X21905000Y-8000000D03*
%TD*%
D24*
%TO.P,J5,6*%
%TO.N,GND*%
X54400000Y-2200000D03*
%TA.AperFunction,SMDPad,CuDef*%
G36*
G01*
X59500000Y-1700000D02*
X59500000Y-2700000D01*
G75*
G02*
X59000000Y-3200000I-500000J0D01*
G01*
X57000000Y-3200000D01*
G75*
G02*
X56500000Y-2700000I0J500000D01*
G01*
X56500000Y-1700000D01*
G75*
G02*
X57000000Y-1200000I500000J0D01*
G01*
X59000000Y-1200000D01*
G75*
G02*
X59500000Y-1700000I0J-500000D01*
G01*
G37*
%TD.AperFunction*%
D25*
%TO.P,J5,5*%
X56650000Y-5000000D03*
%TO.P,J5,4*%
%TO.N,Net-(J5-Pad4)*%
X57350000Y-5000000D03*
%TO.P,J5,3*%
%TO.N,Net-(J5-Pad3)*%
X58000000Y-5000000D03*
%TO.P,J5,2*%
%TO.N,Net-(J5-Pad2)*%
X58650000Y-5000000D03*
%TO.P,J5,1*%
%TO.N,+5V*%
X59300000Y-5000000D03*
D26*
%TO.P,J5,6*%
%TO.N,GND*%
X55575000Y-5000000D03*
X60425000Y-5000000D03*
D24*
X54400000Y-2200000D03*
X61600000Y-2200000D03*
%TD*%
%TO.P,U1,8*%
%TO.N,Net-(R2-Pad1)*%
%TA.AperFunction,SMDPad,CuDef*%
G36*
G01*
X47500000Y-21745000D02*
X47500000Y-21445000D01*
G75*
G02*
X47650000Y-21295000I150000J0D01*
G01*
X49300000Y-21295000D01*
G75*
G02*
X49450000Y-21445000I0J-150000D01*
G01*
X49450000Y-21745000D01*
G75*
G02*
X49300000Y-21895000I-150000J0D01*
G01*
X47650000Y-21895000D01*
G75*
G02*
X47500000Y-21745000I0J150000D01*
G01*
G37*
%TD.AperFunction*%
%TO.P,U1,7*%
%TO.N,Net-(L1-Pad2)*%
%TA.AperFunction,SMDPad,CuDef*%
G36*
G01*
X47500000Y-23015000D02*
X47500000Y-22715000D01*
G75*
G02*
X47650000Y-22565000I150000J0D01*
G01*
X49300000Y-22565000D01*
G75*
G02*
X49450000Y-22715000I0J-150000D01*
G01*
X49450000Y-23015000D01*
G75*
G02*
X49300000Y-23165000I-150000J0D01*
G01*
X47650000Y-23165000D01*
G75*
G02*
X47500000Y-23015000I0J150000D01*
G01*
G37*
%TD.AperFunction*%
%TO.P,U1,6*%
%TO.N,Net-(C1-Pad1)*%
%TA.AperFunction,SMDPad,CuDef*%
G36*
G01*
X47500000Y-24285000D02*
X47500000Y-23985000D01*
G75*
G02*
X47650000Y-23835000I150000J0D01*
G01*
X49300000Y-23835000D01*
G75*
G02*
X49450000Y-23985000I0J-150000D01*
G01*
X49450000Y-24285000D01*
G75*
G02*
X49300000Y-24435000I-150000J0D01*
G01*
X47650000Y-24435000D01*
G75*
G02*
X47500000Y-24285000I0J150000D01*
G01*
G37*
%TD.AperFunction*%
%TO.P,U1,5*%
%TO.N,Net-(R3-Pad2)*%
%TA.AperFunction,SMDPad,CuDef*%
G36*
G01*
X47500000Y-25555000D02*
X47500000Y-25255000D01*
G75*
G02*
X47650000Y-25105000I150000J0D01*
G01*
X49300000Y-25105000D01*
G75*
G02*
X49450000Y-25255000I0J-150000D01*
G01*
X49450000Y-25555000D01*
G75*
G02*
X49300000Y-25705000I-150000J0D01*
G01*
X47650000Y-25705000D01*
G75*
G02*
X47500000Y-25555000I0J150000D01*
G01*
G37*
%TD.AperFunction*%
%TO.P,U1,4*%
%TO.N,GND*%
%TA.AperFunction,SMDPad,CuDef*%
G36*
G01*
X42550000Y-25555000D02*
X42550000Y-25255000D01*
G75*
G02*
X42700000Y-25105000I150000J0D01*
G01*
X44350000Y-25105000D01*
G75*
G02*
X44500000Y-25255000I0J-150000D01*
G01*
X44500000Y-25555000D01*
G75*
G02*
X44350000Y-25705000I-150000J0D01*
G01*
X42700000Y-25705000D01*
G75*
G02*
X42550000Y-25555000I0J150000D01*
G01*
G37*
%TD.AperFunction*%
%TO.P,U1,3*%
%TO.N,Net-(C3-Pad1)*%
%TA.AperFunction,SMDPad,CuDef*%
G36*
G01*
X42550000Y-24285000D02*
X42550000Y-23985000D01*
G75*
G02*
X42700000Y-23835000I150000J0D01*
G01*
X44350000Y-23835000D01*
G75*
G02*
X44500000Y-23985000I0J-150000D01*
G01*
X44500000Y-24285000D01*
G75*
G02*
X44350000Y-24435000I-150000J0D01*
G01*
X42700000Y-24435000D01*
G75*
G02*
X42550000Y-24285000I0J150000D01*
G01*
G37*
%TD.AperFunction*%
%TO.P,U1,2*%
%TO.N,GND*%
%TA.AperFunction,SMDPad,CuDef*%
G36*
G01*
X42550000Y-23015000D02*
X42550000Y-22715000D01*
G75*
G02*
X42700000Y-22565000I150000J0D01*
G01*
X44350000Y-22565000D01*
G75*
G02*
X44500000Y-22715000I0J-150000D01*
G01*
X44500000Y-23015000D01*
G75*
G02*
X44350000Y-23165000I-150000J0D01*
G01*
X42700000Y-23165000D01*
G75*
G02*
X42550000Y-23015000I0J150000D01*
G01*
G37*
%TD.AperFunction*%
%TO.P,U1,1*%
%TO.N,Net-(D2-Pad2)*%
%TA.AperFunction,SMDPad,CuDef*%
G36*
G01*
X42550000Y-21745000D02*
X42550000Y-21445000D01*
G75*
G02*
X42700000Y-21295000I150000J0D01*
G01*
X44350000Y-21295000D01*
G75*
G02*
X44500000Y-21445000I0J-150000D01*
G01*
X44500000Y-21745000D01*
G75*
G02*
X44350000Y-21895000I-150000J0D01*
G01*
X42700000Y-21895000D01*
G75*
G02*
X42550000Y-21745000I0J150000D01*
G01*
G37*
%TD.AperFunction*%
%TD*%
D27*
%TO.P,RV1,3*%
%TO.N,Net-(R7-Pad1)*%
X5000000Y-13460000D03*
%TO.P,RV1,2*%
%TO.N,Net-(R3-Pad2)*%
X5000000Y-16000000D03*
%TO.P,RV1,1*%
%TO.N,Net-(R6-Pad1)*%
X5000000Y-18540000D03*
%TD*%
%TO.P,R3,2*%
%TO.N,Net-(R3-Pad2)*%
%TA.AperFunction,SMDPad,CuDef*%
G36*
G01*
X46900000Y-31625001D02*
X46900000Y-30374999D01*
G75*
G02*
X47149999Y-30125000I249999J0D01*
G01*
X47950001Y-30125000D01*
G75*
G02*
X48200000Y-30374999I0J-249999D01*
G01*
X48200000Y-31625001D01*
G75*
G02*
X47950001Y-31875000I-249999J0D01*
G01*
X47149999Y-31875000D01*
G75*
G02*
X46900000Y-31625001I0J249999D01*
G01*
G37*
%TD.AperFunction*%
%TO.P,R3,1*%
%TO.N,Net-(R3-Pad1)*%
%TA.AperFunction,SMDPad,CuDef*%
G36*
G01*
X43800000Y-31625001D02*
X43800000Y-30374999D01*
G75*
G02*
X44049999Y-30125000I249999J0D01*
G01*
X44850001Y-30125000D01*
G75*
G02*
X45100000Y-30374999I0J-249999D01*
G01*
X45100000Y-31625001D01*
G75*
G02*
X44850001Y-31875000I-249999J0D01*
G01*
X44049999Y-31875000D01*
G75*
G02*
X43800000Y-31625001I0J249999D01*
G01*
G37*
%TD.AperFunction*%
%TD*%
%TO.P,R11,2*%
%TO.N,Net-(R11-Pad2)*%
%TA.AperFunction,SMDPad,CuDef*%
G36*
G01*
X53125001Y-11600000D02*
X51874999Y-11600000D01*
G75*
G02*
X51625000Y-11350001I0J249999D01*
G01*
X51625000Y-10549999D01*
G75*
G02*
X51874999Y-10300000I249999J0D01*
G01*
X53125001Y-10300000D01*
G75*
G02*
X53375000Y-10549999I0J-249999D01*
G01*
X53375000Y-11350001D01*
G75*
G02*
X53125001Y-11600000I-249999J0D01*
G01*
G37*
%TD.AperFunction*%
%TO.P,R11,1*%
%TO.N,GND*%
%TA.AperFunction,SMDPad,CuDef*%
G36*
G01*
X53125001Y-14700000D02*
X51874999Y-14700000D01*
G75*
G02*
X51625000Y-14450001I0J249999D01*
G01*
X51625000Y-13649999D01*
G75*
G02*
X51874999Y-13400000I249999J0D01*
G01*
X53125001Y-13400000D01*
G75*
G02*
X53375000Y-13649999I0J-249999D01*
G01*
X53375000Y-14450001D01*
G75*
G02*
X53125001Y-14700000I-249999J0D01*
G01*
G37*
%TD.AperFunction*%
%TD*%
%TO.P,R8,2*%
%TO.N,+5V*%
%TA.AperFunction,SMDPad,CuDef*%
G36*
G01*
X71625001Y-22100000D02*
X70374999Y-22100000D01*
G75*
G02*
X70125000Y-21850001I0J249999D01*
G01*
X70125000Y-21049999D01*
G75*
G02*
X70374999Y-20800000I249999J0D01*
G01*
X71625001Y-20800000D01*
G75*
G02*
X71875000Y-21049999I0J-249999D01*
G01*
X71875000Y-21850001D01*
G75*
G02*
X71625001Y-22100000I-249999J0D01*
G01*
G37*
%TD.AperFunction*%
%TO.P,R8,1*%
%TO.N,Net-(D3-Pad2)*%
%TA.AperFunction,SMDPad,CuDef*%
G36*
G01*
X71625001Y-25200000D02*
X70374999Y-25200000D01*
G75*
G02*
X70125000Y-24950001I0J249999D01*
G01*
X70125000Y-24149999D01*
G75*
G02*
X70374999Y-23900000I249999J0D01*
G01*
X71625001Y-23900000D01*
G75*
G02*
X71875000Y-24149999I0J-249999D01*
G01*
X71875000Y-24950001D01*
G75*
G02*
X71625001Y-25200000I-249999J0D01*
G01*
G37*
%TD.AperFunction*%
%TD*%
%TO.P,R12,1*%
%TO.N,+24V*%
%TA.AperFunction,SMDPad,CuDef*%
G36*
G01*
X27300000Y-8625001D02*
X27300000Y-7374999D01*
G75*
G02*
X27549999Y-7125000I249999J0D01*
G01*
X28350001Y-7125000D01*
G75*
G02*
X28600000Y-7374999I0J-249999D01*
G01*
X28600000Y-8625001D01*
G75*
G02*
X28350001Y-8875000I-249999J0D01*
G01*
X27549999Y-8875000D01*
G75*
G02*
X27300000Y-8625001I0J249999D01*
G01*
G37*
%TD.AperFunction*%
%TO.P,R12,2*%
%TO.N,Net-(D4-Pad2)*%
%TA.AperFunction,SMDPad,CuDef*%
G36*
G01*
X30400000Y-8625001D02*
X30400000Y-7374999D01*
G75*
G02*
X30649999Y-7125000I249999J0D01*
G01*
X31450001Y-7125000D01*
G75*
G02*
X31700000Y-7374999I0J-249999D01*
G01*
X31700000Y-8625001D01*
G75*
G02*
X31450001Y-8875000I-249999J0D01*
G01*
X30649999Y-8875000D01*
G75*
G02*
X30400000Y-8625001I0J249999D01*
G01*
G37*
%TD.AperFunction*%
%TD*%
%TO.P,R9,2*%
%TO.N,Net-(C4-Pad1)*%
%TA.AperFunction,SMDPad,CuDef*%
G36*
G01*
X39100000Y-33374999D02*
X39100000Y-34625001D01*
G75*
G02*
X38850001Y-34875000I-249999J0D01*
G01*
X38049999Y-34875000D01*
G75*
G02*
X37800000Y-34625001I0J249999D01*
G01*
X37800000Y-33374999D01*
G75*
G02*
X38049999Y-33125000I249999J0D01*
G01*
X38850001Y-33125000D01*
G75*
G02*
X39100000Y-33374999I0J-249999D01*
G01*
G37*
%TD.AperFunction*%
%TO.P,R9,1*%
%TO.N,Net-(R6-Pad1)*%
%TA.AperFunction,SMDPad,CuDef*%
G36*
G01*
X42200000Y-33374999D02*
X42200000Y-34625001D01*
G75*
G02*
X41950001Y-34875000I-249999J0D01*
G01*
X41149999Y-34875000D01*
G75*
G02*
X40900000Y-34625001I0J249999D01*
G01*
X40900000Y-33374999D01*
G75*
G02*
X41149999Y-33125000I249999J0D01*
G01*
X41950001Y-33125000D01*
G75*
G02*
X42200000Y-33374999I0J-249999D01*
G01*
G37*
%TD.AperFunction*%
%TD*%
%TO.P,R6,2*%
%TO.N,Net-(R3-Pad1)*%
%TA.AperFunction,SMDPad,CuDef*%
G36*
G01*
X45100000Y-33374999D02*
X45100000Y-34625001D01*
G75*
G02*
X44850001Y-34875000I-249999J0D01*
G01*
X44049999Y-34875000D01*
G75*
G02*
X43800000Y-34625001I0J249999D01*
G01*
X43800000Y-33374999D01*
G75*
G02*
X44049999Y-33125000I249999J0D01*
G01*
X44850001Y-33125000D01*
G75*
G02*
X45100000Y-33374999I0J-249999D01*
G01*
G37*
%TD.AperFunction*%
%TO.P,R6,1*%
%TO.N,Net-(R6-Pad1)*%
%TA.AperFunction,SMDPad,CuDef*%
G36*
G01*
X48200000Y-33374999D02*
X48200000Y-34625001D01*
G75*
G02*
X47950001Y-34875000I-249999J0D01*
G01*
X47149999Y-34875000D01*
G75*
G02*
X46900000Y-34625001I0J249999D01*
G01*
X46900000Y-33374999D01*
G75*
G02*
X47149999Y-33125000I249999J0D01*
G01*
X47950001Y-33125000D01*
G75*
G02*
X48200000Y-33374999I0J-249999D01*
G01*
G37*
%TD.AperFunction*%
%TD*%
%TO.P,R7,2*%
%TO.N,Net-(R3-Pad2)*%
%TA.AperFunction,SMDPad,CuDef*%
G36*
G01*
X7400000Y-25125001D02*
X7400000Y-23874999D01*
G75*
G02*
X7649999Y-23625000I249999J0D01*
G01*
X8450001Y-23625000D01*
G75*
G02*
X8700000Y-23874999I0J-249999D01*
G01*
X8700000Y-25125001D01*
G75*
G02*
X8450001Y-25375000I-249999J0D01*
G01*
X7649999Y-25375000D01*
G75*
G02*
X7400000Y-25125001I0J249999D01*
G01*
G37*
%TD.AperFunction*%
%TO.P,R7,1*%
%TO.N,Net-(R7-Pad1)*%
%TA.AperFunction,SMDPad,CuDef*%
G36*
G01*
X4300000Y-25125001D02*
X4300000Y-23874999D01*
G75*
G02*
X4549999Y-23625000I249999J0D01*
G01*
X5350001Y-23625000D01*
G75*
G02*
X5600000Y-23874999I0J-249999D01*
G01*
X5600000Y-25125001D01*
G75*
G02*
X5350001Y-25375000I-249999J0D01*
G01*
X4549999Y-25375000D01*
G75*
G02*
X4300000Y-25125001I0J249999D01*
G01*
G37*
%TD.AperFunction*%
%TD*%
%TO.P,R4,2*%
%TO.N,Net-(R3-Pad2)*%
%TA.AperFunction,SMDPad,CuDef*%
G36*
G01*
X46900000Y-28625001D02*
X46900000Y-27374999D01*
G75*
G02*
X47149999Y-27125000I249999J0D01*
G01*
X47950001Y-27125000D01*
G75*
G02*
X48200000Y-27374999I0J-249999D01*
G01*
X48200000Y-28625001D01*
G75*
G02*
X47950001Y-28875000I-249999J0D01*
G01*
X47149999Y-28875000D01*
G75*
G02*
X46900000Y-28625001I0J249999D01*
G01*
G37*
%TD.AperFunction*%
%TO.P,R4,1*%
%TO.N,GND*%
%TA.AperFunction,SMDPad,CuDef*%
G36*
G01*
X43800000Y-28625001D02*
X43800000Y-27374999D01*
G75*
G02*
X44049999Y-27125000I249999J0D01*
G01*
X44850001Y-27125000D01*
G75*
G02*
X45100000Y-27374999I0J-249999D01*
G01*
X45100000Y-28625001D01*
G75*
G02*
X44850001Y-28875000I-249999J0D01*
G01*
X44049999Y-28875000D01*
G75*
G02*
X43800000Y-28625001I0J249999D01*
G01*
G37*
%TD.AperFunction*%
%TD*%
%TO.P,R2,2*%
%TO.N,Net-(L1-Pad2)*%
%TA.AperFunction,SMDPad,CuDef*%
G36*
G01*
X51374999Y-18400000D02*
X52625001Y-18400000D01*
G75*
G02*
X52875000Y-18649999I0J-249999D01*
G01*
X52875000Y-19450001D01*
G75*
G02*
X52625001Y-19700000I-249999J0D01*
G01*
X51374999Y-19700000D01*
G75*
G02*
X51125000Y-19450001I0J249999D01*
G01*
X51125000Y-18649999D01*
G75*
G02*
X51374999Y-18400000I249999J0D01*
G01*
G37*
%TD.AperFunction*%
%TO.P,R2,1*%
%TO.N,Net-(R2-Pad1)*%
%TA.AperFunction,SMDPad,CuDef*%
G36*
G01*
X51374999Y-15300000D02*
X52625001Y-15300000D01*
G75*
G02*
X52875000Y-15549999I0J-249999D01*
G01*
X52875000Y-16350001D01*
G75*
G02*
X52625001Y-16600000I-249999J0D01*
G01*
X51374999Y-16600000D01*
G75*
G02*
X51125000Y-16350001I0J249999D01*
G01*
X51125000Y-15549999D01*
G75*
G02*
X51374999Y-15300000I249999J0D01*
G01*
G37*
%TD.AperFunction*%
%TD*%
%TO.P,R1,2*%
%TO.N,Net-(C1-Pad1)*%
%TA.AperFunction,SMDPad,CuDef*%
G36*
G01*
X51374999Y-24400000D02*
X52625001Y-24400000D01*
G75*
G02*
X52875000Y-24649999I0J-249999D01*
G01*
X52875000Y-25450001D01*
G75*
G02*
X52625001Y-25700000I-249999J0D01*
G01*
X51374999Y-25700000D01*
G75*
G02*
X51125000Y-25450001I0J249999D01*
G01*
X51125000Y-24649999D01*
G75*
G02*
X51374999Y-24400000I249999J0D01*
G01*
G37*
%TD.AperFunction*%
%TO.P,R1,1*%
%TO.N,Net-(L1-Pad2)*%
%TA.AperFunction,SMDPad,CuDef*%
G36*
G01*
X51374999Y-21300000D02*
X52625001Y-21300000D01*
G75*
G02*
X52875000Y-21549999I0J-249999D01*
G01*
X52875000Y-22350001D01*
G75*
G02*
X52625001Y-22600000I-249999J0D01*
G01*
X51374999Y-22600000D01*
G75*
G02*
X51125000Y-22350001I0J249999D01*
G01*
X51125000Y-21549999D01*
G75*
G02*
X51374999Y-21300000I249999J0D01*
G01*
G37*
%TD.AperFunction*%
%TD*%
%TO.P,L2,1*%
%TO.N,Net-(C4-Pad1)*%
%TA.AperFunction,SMDPad,CuDef*%
G36*
G01*
X33250000Y-11324999D02*
X33250000Y-14175001D01*
G75*
G02*
X33000001Y-14425000I-249999J0D01*
G01*
X31974999Y-14425000D01*
G75*
G02*
X31725000Y-14175001I0J249999D01*
G01*
X31725000Y-11324999D01*
G75*
G02*
X31974999Y-11075000I249999J0D01*
G01*
X33000001Y-11075000D01*
G75*
G02*
X33250000Y-11324999I0J-249999D01*
G01*
G37*
%TD.AperFunction*%
%TO.P,L2,2*%
%TO.N,+24V*%
%TA.AperFunction,SMDPad,CuDef*%
G36*
G01*
X27275000Y-11324999D02*
X27275000Y-14175001D01*
G75*
G02*
X27025001Y-14425000I-249999J0D01*
G01*
X25999999Y-14425000D01*
G75*
G02*
X25750000Y-14175001I0J249999D01*
G01*
X25750000Y-11324999D01*
G75*
G02*
X25999999Y-11075000I249999J0D01*
G01*
X27025001Y-11075000D01*
G75*
G02*
X27275000Y-11324999I0J-249999D01*
G01*
G37*
%TD.AperFunction*%
%TD*%
%TO.P,D3,2*%
%TO.N,Net-(D3-Pad2)*%
%TA.AperFunction,SMDPad,CuDef*%
G36*
G01*
X74375000Y-23775000D02*
X75625000Y-23775000D01*
G75*
G02*
X75875000Y-24025000I0J-250000D01*
G01*
X75875000Y-24950000D01*
G75*
G02*
X75625000Y-25200000I-250000J0D01*
G01*
X74375000Y-25200000D01*
G75*
G02*
X74125000Y-24950000I0J250000D01*
G01*
X74125000Y-24025000D01*
G75*
G02*
X74375000Y-23775000I250000J0D01*
G01*
G37*
%TD.AperFunction*%
%TO.P,D3,1*%
%TO.N,Net-(D3-Pad1)*%
%TA.AperFunction,SMDPad,CuDef*%
G36*
G01*
X74375000Y-20800000D02*
X75625000Y-20800000D01*
G75*
G02*
X75875000Y-21050000I0J-250000D01*
G01*
X75875000Y-21975000D01*
G75*
G02*
X75625000Y-22225000I-250000J0D01*
G01*
X74375000Y-22225000D01*
G75*
G02*
X74125000Y-21975000I0J250000D01*
G01*
X74125000Y-21050000D01*
G75*
G02*
X74375000Y-20800000I250000J0D01*
G01*
G37*
%TD.AperFunction*%
%TD*%
%TO.P,D4,2*%
%TO.N,Net-(D4-Pad2)*%
%TA.AperFunction,SMDPad,CuDef*%
G36*
G01*
X30275000Y-4125000D02*
X30275000Y-2875000D01*
G75*
G02*
X30525000Y-2625000I250000J0D01*
G01*
X31450000Y-2625000D01*
G75*
G02*
X31700000Y-2875000I0J-250000D01*
G01*
X31700000Y-4125000D01*
G75*
G02*
X31450000Y-4375000I-250000J0D01*
G01*
X30525000Y-4375000D01*
G75*
G02*
X30275000Y-4125000I0J250000D01*
G01*
G37*
%TD.AperFunction*%
%TO.P,D4,1*%
%TO.N,GND*%
%TA.AperFunction,SMDPad,CuDef*%
G36*
G01*
X27300000Y-4125000D02*
X27300000Y-2875000D01*
G75*
G02*
X27550000Y-2625000I250000J0D01*
G01*
X28475000Y-2625000D01*
G75*
G02*
X28725000Y-2875000I0J-250000D01*
G01*
X28725000Y-4125000D01*
G75*
G02*
X28475000Y-4375000I-250000J0D01*
G01*
X27550000Y-4375000D01*
G75*
G02*
X27300000Y-4125000I0J250000D01*
G01*
G37*
%TD.AperFunction*%
%TD*%
%TO.P,C2,2*%
%TO.N,GND*%
%TA.AperFunction,SMDPad,CuDef*%
G36*
G01*
X67650002Y-6100000D02*
X66349998Y-6100000D01*
G75*
G02*
X66100000Y-5850002I0J249998D01*
G01*
X66100000Y-5024998D01*
G75*
G02*
X66349998Y-4775000I249998J0D01*
G01*
X67650002Y-4775000D01*
G75*
G02*
X67900000Y-5024998I0J-249998D01*
G01*
X67900000Y-5850002D01*
G75*
G02*
X67650002Y-6100000I-249998J0D01*
G01*
G37*
%TD.AperFunction*%
%TO.P,C2,1*%
%TO.N,+5V*%
%TA.AperFunction,SMDPad,CuDef*%
G36*
G01*
X67650002Y-9225000D02*
X66349998Y-9225000D01*
G75*
G02*
X66100000Y-8975002I0J249998D01*
G01*
X66100000Y-8149998D01*
G75*
G02*
X66349998Y-7900000I249998J0D01*
G01*
X67650002Y-7900000D01*
G75*
G02*
X67900000Y-8149998I0J-249998D01*
G01*
X67900000Y-8975002D01*
G75*
G02*
X67650002Y-9225000I-249998J0D01*
G01*
G37*
%TD.AperFunction*%
%TD*%
%TO.P,C3,2*%
%TO.N,GND*%
%TA.AperFunction,SMDPad,CuDef*%
G36*
G01*
X39849998Y-26900000D02*
X41150002Y-26900000D01*
G75*
G02*
X41400000Y-27149998I0J-249998D01*
G01*
X41400000Y-27975002D01*
G75*
G02*
X41150002Y-28225000I-249998J0D01*
G01*
X39849998Y-28225000D01*
G75*
G02*
X39600000Y-27975002I0J249998D01*
G01*
X39600000Y-27149998D01*
G75*
G02*
X39849998Y-26900000I249998J0D01*
G01*
G37*
%TD.AperFunction*%
%TO.P,C3,1*%
%TO.N,Net-(C3-Pad1)*%
%TA.AperFunction,SMDPad,CuDef*%
G36*
G01*
X39849998Y-23775000D02*
X41150002Y-23775000D01*
G75*
G02*
X41400000Y-24024998I0J-249998D01*
G01*
X41400000Y-24850002D01*
G75*
G02*
X41150002Y-25100000I-249998J0D01*
G01*
X39849998Y-25100000D01*
G75*
G02*
X39600000Y-24850002I0J249998D01*
G01*
X39600000Y-24024998D01*
G75*
G02*
X39849998Y-23775000I249998J0D01*
G01*
G37*
%TD.AperFunction*%
%TD*%
D28*
%TO.P,J4,1*%
%TO.N,GND*%
X5000000Y-35000000D03*
D29*
X5000000Y-35000000D03*
%TD*%
D28*
%TO.P,J3,1*%
%TO.N,GND*%
X73000000Y-5000000D03*
D29*
X73000000Y-5000000D03*
%TD*%
D28*
%TO.P,J2,1*%
%TO.N,GND*%
X73000000Y-35000000D03*
D29*
X73000000Y-35000000D03*
%TD*%
D28*
%TO.P,J1,1*%
%TO.N,GND*%
X5000000Y-5000000D03*
D29*
X5000000Y-5000000D03*
%TD*%
D30*
%TO.N,GND*%
X40400000Y-22475000D03*
X53500000Y-9250000D03*
X67000000Y-3750000D03*
X42750000Y-27750000D03*
X26250000Y-3250000D03*
X58500000Y-31000000D03*
X63500000Y-15000000D03*
X54000000Y-16000000D03*
%TO.N,+5V*%
X59300000Y-7300000D03*
X63500000Y-31000000D03*
X55525000Y-14225000D03*
X55500000Y-21000000D03*
%TO.N,VBATT*%
X66250000Y-31750000D03*
X57500000Y-31500000D03*
%TO.N,Net-(L1-Pad2)*%
X52000000Y-20500000D03*
X30500000Y-23500000D03*
%TO.N,Net-(D3-Pad1)*%
X67000000Y-17000000D03*
X75000000Y-19000000D03*
%TO.N,Net-(C4-Pad1)*%
X37750000Y-20750000D03*
X34750000Y-13750000D03*
%TO.N,Net-(R3-Pad2)*%
X8000000Y-29000000D03*
X36000000Y-38000000D03*
%TO.N,Net-(R6-Pad1)*%
X42000000Y-36000000D03*
%TO.N,Net-(D1-Pad1)*%
X67500000Y-21500000D03*
X66000000Y-18500000D03*
%TO.N,SMPS_Pwr*%
X49500000Y-14500000D03*
X54000000Y-24750000D03*
%TD*%
D31*
%TO.N,GND*%
X59900000Y-31000000D02*
X58500000Y-31000000D01*
D32*
X59500000Y-16550000D02*
X60700000Y-16550000D01*
X60700000Y-16550000D02*
X62250000Y-15000000D01*
X62250000Y-15000000D02*
X63500000Y-15000000D01*
D33*
X40790000Y-22865000D02*
X40400000Y-22475000D01*
X43525000Y-22865000D02*
X40790000Y-22865000D01*
D34*
%TO.N,+5V*%
X59300000Y-5250000D02*
X59300000Y-7300000D01*
X60475000Y-8475000D02*
X60475000Y-9595000D01*
X59300000Y-7300000D02*
X60475000Y-8475000D01*
D31*
X60475000Y-9595000D02*
X62405000Y-9595000D01*
X62405000Y-9595000D02*
X63000000Y-9000000D01*
X71500000Y-9000000D02*
X72500000Y-10000000D01*
X72500000Y-10000000D02*
X72500000Y-18500000D01*
X71000000Y-20000000D02*
X71000000Y-21450000D01*
X72500000Y-18500000D02*
X71000000Y-20000000D01*
X71000000Y-21450000D02*
X69550000Y-21450000D01*
X69550000Y-21450000D02*
X69000000Y-22000000D01*
X69450000Y-27450000D02*
X71000000Y-27450000D01*
X69000000Y-27000000D02*
X69450000Y-27450000D01*
D35*
X67000000Y-8562500D02*
X67000000Y-9000000D01*
D31*
X67000000Y-9000000D02*
X71500000Y-9000000D01*
X63000000Y-9000000D02*
X67000000Y-9000000D01*
X62100000Y-31000000D02*
X63500000Y-31000000D01*
X69000000Y-22000000D02*
X69000000Y-27000000D01*
X55525000Y-13405000D02*
X55525000Y-14225000D01*
X55550000Y-21050000D02*
X55500000Y-21000000D01*
X55550000Y-22750000D02*
X55550000Y-21050000D01*
%TO.N,VBATT*%
X59500000Y-22750000D02*
X61050000Y-22750000D01*
X61050000Y-22750000D02*
X61050000Y-22200000D01*
X61050000Y-22200000D02*
X61500000Y-21750000D01*
X62153971Y-21750000D02*
X62178981Y-21775010D01*
X61500000Y-21750000D02*
X62153971Y-21750000D01*
X62178981Y-21775010D02*
X65275010Y-21775010D01*
X65275010Y-21775010D02*
X65750000Y-22250000D01*
X65750000Y-31250000D02*
X66250000Y-31750000D01*
X65750000Y-22250000D02*
X65750000Y-31250000D01*
X57500000Y-31500000D02*
X57500000Y-33950000D01*
X57500000Y-31500000D02*
X57500000Y-30750000D01*
X58200000Y-30050000D02*
X59900000Y-30050000D01*
X57500000Y-30750000D02*
X58200000Y-30050000D01*
X57450000Y-22750000D02*
X59500000Y-22750000D01*
D32*
X56000000Y-19125000D02*
X57375000Y-19125000D01*
X60475000Y-13405000D02*
X60475000Y-14525000D01*
X60250000Y-14750000D02*
X60475000Y-14525000D01*
X58050000Y-18450000D02*
X58050000Y-15450000D01*
X58750000Y-14750000D02*
X60250000Y-14750000D01*
X58050000Y-15450000D02*
X58750000Y-14750000D01*
X57375000Y-19125000D02*
X58050000Y-18450000D01*
X59500000Y-18450000D02*
X58050000Y-18450000D01*
D31*
X59500000Y-18450000D02*
X59500000Y-22750000D01*
X59300000Y-18450000D02*
X58050000Y-18450000D01*
%TO.N,Net-(D3-Pad2)*%
X74937500Y-24550000D02*
X75000000Y-24487500D01*
X71000000Y-24550000D02*
X74937500Y-24550000D01*
D36*
%TO.N,Net-(D2-Pad2)*%
X22050000Y-15800000D02*
X22050000Y-16550000D01*
X23100000Y-17600000D02*
X30500000Y-17600000D01*
X22050000Y-16550000D02*
X23100000Y-17600000D01*
D33*
%TO.N,Net-(R7-Pad1)*%
X5000000Y-13460000D02*
X3540000Y-13460000D01*
X3540000Y-13460000D02*
X3000000Y-14000000D01*
X4950000Y-24500000D02*
X3500000Y-24500000D01*
X3500000Y-24500000D02*
X3000000Y-24000000D01*
X3000000Y-24000000D02*
X3000000Y-14000000D01*
D36*
%TO.N,Net-(D4-Pad2)*%
X31050000Y-3562500D02*
X30987500Y-3500000D01*
X31050000Y-8000000D02*
X31050000Y-3562500D01*
D33*
%TO.N,Net-(L1-Pad2)*%
X51085000Y-22865000D02*
X52000000Y-21950000D01*
X48475000Y-22865000D02*
X51085000Y-22865000D01*
D31*
X52000000Y-19050000D02*
X52000000Y-20500000D01*
X52000000Y-20500000D02*
X52000000Y-21950000D01*
D36*
X30500000Y-23500000D02*
X30500000Y-28450000D01*
D34*
%TO.N,Net-(C3-Pad1)*%
X40802500Y-24135000D02*
X40500000Y-24437500D01*
X43525000Y-24135000D02*
X40802500Y-24135000D01*
D36*
%TO.N,+24V*%
X27950000Y-8000000D02*
X28000000Y-8000000D01*
X27950000Y-8000000D02*
X21905000Y-8000000D01*
X13000000Y-13750000D02*
X14500000Y-12250000D01*
X13000000Y-16000000D02*
X13000000Y-13750000D01*
X21905000Y-12095000D02*
X21750000Y-12250000D01*
X21905000Y-8000000D02*
X21905000Y-12095000D01*
X21750000Y-12250000D02*
X23250000Y-12250000D01*
X14500000Y-12250000D02*
X21750000Y-12250000D01*
X23750000Y-12750000D02*
X23250000Y-12250000D01*
X26512500Y-12750000D02*
X23750000Y-12750000D01*
D31*
%TO.N,Net-(D3-Pad1)*%
X60475000Y-10865000D02*
X65365000Y-10865000D01*
X65365000Y-10865000D02*
X67000000Y-12500000D01*
X67000000Y-12500000D02*
X67000000Y-17000000D01*
X75000000Y-19000000D02*
X75000000Y-21512500D01*
%TO.N,Net-(R2-Pad1)*%
X48475000Y-21595000D02*
X48475000Y-16525000D01*
X49050000Y-15950000D02*
X52000000Y-15950000D01*
X48475000Y-16525000D02*
X49050000Y-15950000D01*
%TO.N,Net-(R11-Pad2)*%
X52585000Y-10865000D02*
X52500000Y-10950000D01*
X55525000Y-10865000D02*
X52585000Y-10865000D01*
D32*
%TO.N,Net-(C4-Pad1)*%
X38450000Y-34000000D02*
X38450000Y-31200000D01*
X38450000Y-31200000D02*
X38450000Y-28200000D01*
X37750000Y-27500000D02*
X37750000Y-20750000D01*
X38450000Y-28200000D02*
X37750000Y-27500000D01*
D36*
X38450000Y-34050000D02*
X38450000Y-34000000D01*
X38400000Y-34000000D02*
X38450000Y-34050000D01*
X24000000Y-34000000D02*
X38400000Y-34000000D01*
X19000000Y-29000000D02*
X24000000Y-34000000D01*
X19000000Y-24500000D02*
X19000000Y-29000000D01*
X17750000Y-15800000D02*
X17750000Y-19650000D01*
X19000000Y-20900000D02*
X19000000Y-24500000D01*
X17750000Y-19650000D02*
X19000000Y-20900000D01*
D33*
X33750000Y-12750000D02*
X34750000Y-13750000D01*
X32487500Y-12750000D02*
X33750000Y-12750000D01*
D31*
%TO.N,Net-(R3-Pad2)*%
X47550000Y-27950000D02*
X47550000Y-28000000D01*
X48475000Y-27025000D02*
X47550000Y-27950000D01*
X48475000Y-25405000D02*
X48475000Y-27025000D01*
X47550000Y-28000000D02*
X47550000Y-31000000D01*
D33*
X8050000Y-17050000D02*
X8050000Y-24500000D01*
X7000000Y-16000000D02*
X8050000Y-17050000D01*
X5000000Y-16000000D02*
X7000000Y-16000000D01*
X8050000Y-28950000D02*
X8000000Y-29000000D01*
X8050000Y-24500000D02*
X8050000Y-28950000D01*
X48000000Y-38000000D02*
X36000000Y-38000000D01*
X50250000Y-35750000D02*
X48000000Y-38000000D01*
X50250000Y-31750000D02*
X50250000Y-35750000D01*
X49500000Y-31000000D02*
X50250000Y-31750000D01*
X47550000Y-31000000D02*
X49500000Y-31000000D01*
D31*
%TO.N,Net-(R3-Pad1)*%
X44450000Y-31000000D02*
X44450000Y-34000000D01*
%TO.N,Net-(R6-Pad1)*%
X41550000Y-34000000D02*
X41550000Y-35550000D01*
X41550000Y-35550000D02*
X42000000Y-36000000D01*
X42000000Y-36000000D02*
X47000000Y-36000000D01*
X47550000Y-35450000D02*
X47550000Y-34000000D01*
X47000000Y-36000000D02*
X47550000Y-35450000D01*
D33*
%TO.N,Net-(J6-Pad1)*%
X65905000Y-21000000D02*
X70000000Y-16905000D01*
X62500000Y-21000000D02*
X65905000Y-21000000D01*
X61500000Y-20000000D02*
X62500000Y-21000000D01*
X61500000Y-17500000D02*
X61500000Y-20000000D01*
D31*
%TO.N,Net-(D1-Pad2)*%
X74937500Y-30550000D02*
X75000000Y-30487500D01*
X71000000Y-30550000D02*
X74937500Y-30550000D01*
%TO.N,Net-(D1-Pad1)*%
X75000000Y-27512500D02*
X74987500Y-27512500D01*
X74987500Y-27512500D02*
X73500000Y-29000000D01*
X73500000Y-29000000D02*
X68000000Y-29000000D01*
X68000000Y-29000000D02*
X67500000Y-28500000D01*
X67500000Y-28500000D02*
X67500000Y-21500000D01*
X60475000Y-12135000D02*
X64135000Y-12135000D01*
X64135000Y-12135000D02*
X66000000Y-14000000D01*
X66000000Y-18500000D02*
X66000000Y-14000000D01*
D33*
%TO.N,Net-(C1-Pad1)*%
X51085000Y-24135000D02*
X52000000Y-25050000D01*
X48475000Y-24135000D02*
X51085000Y-24135000D01*
D31*
X52000000Y-25050000D02*
X52000000Y-26750000D01*
X52750000Y-27500000D02*
X55000000Y-27500000D01*
X52000000Y-26750000D02*
X52750000Y-27500000D01*
D33*
X48475000Y-24135000D02*
X46385000Y-24135000D01*
X46385000Y-24135000D02*
X45500000Y-23250000D01*
X45500000Y-23250000D02*
X45500000Y-17250000D01*
X45500000Y-17250000D02*
X43750000Y-15500000D01*
X43750000Y-15500000D02*
X37500000Y-15500000D01*
X36300000Y-14300000D02*
X36300000Y-11100000D01*
X37500000Y-15500000D02*
X36300000Y-14300000D01*
D31*
%TO.N,SMPS_Pwr*%
X56500000Y-24750000D02*
X62000000Y-24750000D01*
D33*
X54000000Y-24750000D02*
X56500000Y-24750000D01*
X45000000Y-14500000D02*
X49500000Y-14500000D01*
X42500000Y-13750000D02*
X45000000Y-14500000D01*
X41000000Y-11100000D02*
X42500000Y-13750000D01*
D31*
%TO.N,Net-(Q3-Pad1)*%
X62100000Y-30050000D02*
X63950000Y-30050000D01*
X63950000Y-30050000D02*
X64750000Y-29250000D01*
X64750000Y-29250000D02*
X64750000Y-23500000D01*
X64000000Y-22750000D02*
X62950000Y-22750000D01*
X64750000Y-23500000D02*
X64000000Y-22750000D01*
X64750000Y-30850000D02*
X63950000Y-30050000D01*
X64750000Y-33950000D02*
X64750000Y-30850000D01*
%TD*%
D37*
%TO.N,GND*%
X77340001Y-3273382D02*
X77340000Y-36726619D01*
X74726620Y-39340000D01*
X3273381Y-39340000D01*
X660000Y-36726620D01*
X660000Y-14000000D01*
X2035356Y-14000000D01*
X2040001Y-14047162D01*
X2040000Y-23952848D01*
X2035356Y-24000000D01*
X2040000Y-24047152D01*
X2040000Y-24047161D01*
X2053890Y-24188192D01*
X2108784Y-24369153D01*
X2197927Y-24535928D01*
X2317893Y-24682107D01*
X2354531Y-24712175D01*
X2787825Y-25145469D01*
X2817893Y-25182107D01*
X2964072Y-25302073D01*
X3130846Y-25391216D01*
X3311807Y-25446110D01*
X3452838Y-25460000D01*
X3452840Y-25460000D01*
X3500000Y-25464645D01*
X3547160Y-25460000D01*
X3728056Y-25460000D01*
X3729528Y-25464851D01*
X3811595Y-25618387D01*
X3922038Y-25752962D01*
X4056613Y-25863405D01*
X4210149Y-25945472D01*
X4376745Y-25996008D01*
X4549999Y-26013072D01*
X5350001Y-26013072D01*
X5523255Y-25996008D01*
X5689851Y-25945472D01*
X5843387Y-25863405D01*
X5977962Y-25752962D01*
X6088405Y-25618387D01*
X6170472Y-25464851D01*
X6221008Y-25298255D01*
X6238072Y-25125001D01*
X6238072Y-23874999D01*
X6221008Y-23701745D01*
X6170472Y-23535149D01*
X6088405Y-23381613D01*
X5977962Y-23247038D01*
X5843387Y-23136595D01*
X5689851Y-23054528D01*
X5523255Y-23003992D01*
X5350001Y-22986928D01*
X4549999Y-22986928D01*
X4376745Y-23003992D01*
X4210149Y-23054528D01*
X4056613Y-23136595D01*
X3960000Y-23215883D01*
X3960000Y-19670817D01*
X4021495Y-19732312D01*
X4272905Y-19900299D01*
X4552257Y-20016011D01*
X4848816Y-20075000D01*
X5151184Y-20075000D01*
X5447743Y-20016011D01*
X5727095Y-19900299D01*
X5978505Y-19732312D01*
X6192312Y-19518505D01*
X6360299Y-19267095D01*
X6476011Y-18987743D01*
X6535000Y-18691184D01*
X6535000Y-18388816D01*
X6476011Y-18092257D01*
X6360299Y-17812905D01*
X6192312Y-17561495D01*
X5978505Y-17347688D01*
X5862237Y-17270000D01*
X5978505Y-17192312D01*
X6192312Y-16978505D01*
X6204677Y-16960000D01*
X6602356Y-16960000D01*
X7090000Y-17447645D01*
X7090001Y-23191262D01*
X7022038Y-23247038D01*
X6911595Y-23381613D01*
X6829528Y-23535149D01*
X6778992Y-23701745D01*
X6761928Y-23874999D01*
X6761928Y-25125001D01*
X6778992Y-25298255D01*
X6829528Y-25464851D01*
X6911595Y-25618387D01*
X7022038Y-25752962D01*
X7090000Y-25808737D01*
X7090001Y-28498960D01*
X7082795Y-28509744D01*
X7004774Y-28698102D01*
X6965000Y-28898061D01*
X6965000Y-29101939D01*
X7004774Y-29301898D01*
X7082795Y-29490256D01*
X7196063Y-29659774D01*
X7340226Y-29803937D01*
X7509744Y-29917205D01*
X7698102Y-29995226D01*
X7898061Y-30035000D01*
X8101939Y-30035000D01*
X8301898Y-29995226D01*
X8490256Y-29917205D01*
X8659774Y-29803937D01*
X8803937Y-29659774D01*
X8917205Y-29490256D01*
X8995226Y-29301898D01*
X9035000Y-29101939D01*
X9035000Y-28898061D01*
X9010000Y-28772377D01*
X9010000Y-25808737D01*
X9077962Y-25752962D01*
X9188405Y-25618387D01*
X9270472Y-25464851D01*
X9321008Y-25298255D01*
X9338072Y-25125001D01*
X9338072Y-23874999D01*
X9321008Y-23701745D01*
X9270472Y-23535149D01*
X9188405Y-23381613D01*
X9077962Y-23247038D01*
X9010000Y-23191263D01*
X9010000Y-17097151D01*
X9014644Y-17049999D01*
X9010000Y-17002847D01*
X9010000Y-17002838D01*
X8996110Y-16861807D01*
X8941216Y-16680846D01*
X8886680Y-16578817D01*
X8852073Y-16514071D01*
X8762170Y-16404525D01*
X8732107Y-16367893D01*
X8695474Y-16337829D01*
X7712175Y-15354531D01*
X7682107Y-15317893D01*
X7538454Y-15200000D01*
X11561928Y-15200000D01*
X11561928Y-16800000D01*
X11574188Y-16924482D01*
X11610498Y-17044180D01*
X11669463Y-17154494D01*
X11748815Y-17251185D01*
X11845506Y-17330537D01*
X11955820Y-17389502D01*
X12075518Y-17425812D01*
X12200000Y-17438072D01*
X13800000Y-17438072D01*
X13924482Y-17425812D01*
X14044180Y-17389502D01*
X14154494Y-17330537D01*
X14251185Y-17251185D01*
X14330537Y-17154494D01*
X14389502Y-17044180D01*
X14425812Y-16924482D01*
X14438072Y-16800000D01*
X14438072Y-15200000D01*
X14425812Y-15075518D01*
X14389502Y-14955820D01*
X14330537Y-14845506D01*
X14251185Y-14748815D01*
X14154494Y-14669463D01*
X14135000Y-14659043D01*
X14135000Y-14650000D01*
X15861928Y-14650000D01*
X15861928Y-16950000D01*
X15874188Y-17074482D01*
X15910498Y-17194180D01*
X15969463Y-17304494D01*
X16048815Y-17401185D01*
X16145506Y-17480537D01*
X16255820Y-17539502D01*
X16375518Y-17575812D01*
X16500000Y-17588072D01*
X16615000Y-17588072D01*
X16615001Y-19594239D01*
X16609509Y-19650000D01*
X16631423Y-19872498D01*
X16696324Y-20086446D01*
X16735472Y-20159687D01*
X16801717Y-20283623D01*
X16943552Y-20456449D01*
X16986860Y-20491991D01*
X17865000Y-21370132D01*
X17865001Y-22877378D01*
X17755820Y-22910498D01*
X17645506Y-22969463D01*
X17548815Y-23048815D01*
X17469463Y-23145506D01*
X17410498Y-23255820D01*
X17374188Y-23375518D01*
X17361928Y-23500000D01*
X17361928Y-25500000D01*
X17374188Y-25624482D01*
X17410498Y-25744180D01*
X17469463Y-25854494D01*
X17548815Y-25951185D01*
X17645506Y-26030537D01*
X17755820Y-26089502D01*
X17865000Y-26122622D01*
X17865001Y-28944239D01*
X17859509Y-29000000D01*
X17881423Y-29222498D01*
X17946324Y-29436446D01*
X17972773Y-29485928D01*
X18051717Y-29633623D01*
X18193552Y-29806449D01*
X18236860Y-29841991D01*
X23158009Y-34763141D01*
X23193551Y-34806449D01*
X23353398Y-34937632D01*
X23366377Y-34948284D01*
X23563553Y-35053676D01*
X23777501Y-35118577D01*
X24000000Y-35140491D01*
X24055752Y-35135000D01*
X37325229Y-35135000D01*
X37422038Y-35252962D01*
X37556613Y-35363405D01*
X37710149Y-35445472D01*
X37876745Y-35496008D01*
X38049999Y-35513072D01*
X38850001Y-35513072D01*
X39023255Y-35496008D01*
X39189851Y-35445472D01*
X39343387Y-35363405D01*
X39477962Y-35252962D01*
X39588405Y-35118387D01*
X39670472Y-34964851D01*
X39721008Y-34798255D01*
X39738072Y-34625001D01*
X39738072Y-33374999D01*
X39721008Y-33201745D01*
X39670472Y-33035149D01*
X39588405Y-32881613D01*
X39477962Y-32747038D01*
X39460000Y-32732297D01*
X39460000Y-28249597D01*
X39464885Y-28199999D01*
X39460000Y-28150401D01*
X39460000Y-28150392D01*
X39445385Y-28002006D01*
X39387632Y-27811620D01*
X39293847Y-27636160D01*
X39167633Y-27482367D01*
X39129099Y-27450743D01*
X38760000Y-27081645D01*
X38760000Y-22635000D01*
X44500000Y-22635000D01*
X44540000Y-22631060D01*
X44540000Y-23202848D01*
X44538066Y-23222482D01*
X44503745Y-23212071D01*
X44350000Y-23196928D01*
X42700000Y-23196928D01*
X42546255Y-23212071D01*
X42398418Y-23256916D01*
X42317814Y-23300000D01*
X41659721Y-23300000D01*
X41643387Y-23286595D01*
X41489852Y-23204528D01*
X41323256Y-23153992D01*
X41150002Y-23136928D01*
X39849998Y-23136928D01*
X39676744Y-23153992D01*
X39510148Y-23204528D01*
X39356613Y-23286595D01*
X39222038Y-23397038D01*
X39111595Y-23531613D01*
X39029528Y-23685148D01*
X38978992Y-23851744D01*
X38961928Y-24024998D01*
X38961928Y-24850002D01*
X38978992Y-25023256D01*
X39029528Y-25189852D01*
X39111595Y-25343387D01*
X39222038Y-25477962D01*
X39356613Y-25588405D01*
X39510148Y-25670472D01*
X39676744Y-25721008D01*
X39849998Y-25738072D01*
X41150002Y-25738072D01*
X41323256Y-25721008D01*
X41489852Y-25670472D01*
X41643387Y-25588405D01*
X41777962Y-25477962D01*
X41888405Y-25343387D01*
X41970472Y-25189852D01*
X42021008Y-25023256D01*
X42026253Y-24970000D01*
X42317814Y-24970000D01*
X42398418Y-25013084D01*
X42546255Y-25057929D01*
X42700000Y-25073072D01*
X44350000Y-25073072D01*
X44503745Y-25057929D01*
X44651582Y-25013084D01*
X44787829Y-24940258D01*
X44907251Y-24842251D01*
X45005258Y-24722829D01*
X45078084Y-24586582D01*
X45122929Y-24438745D01*
X45138072Y-24285000D01*
X45138072Y-24245716D01*
X45672828Y-24780473D01*
X45702893Y-24817107D01*
X45739526Y-24847171D01*
X45849071Y-24937073D01*
X45932299Y-24981559D01*
X46015846Y-25026216D01*
X46196807Y-25081110D01*
X46337838Y-25095000D01*
X46337847Y-25095000D01*
X46384999Y-25099644D01*
X46432151Y-25095000D01*
X46878968Y-25095000D01*
X46877071Y-25101255D01*
X46861928Y-25255000D01*
X46861928Y-25555000D01*
X46877071Y-25708745D01*
X46921916Y-25856582D01*
X46994742Y-25992829D01*
X47092749Y-26112251D01*
X47212171Y-26210258D01*
X47348418Y-26283084D01*
X47496255Y-26327929D01*
X47590001Y-26337162D01*
X47590001Y-26486928D01*
X47149999Y-26486928D01*
X46976745Y-26503992D01*
X46810149Y-26554528D01*
X46656613Y-26636595D01*
X46522038Y-26747038D01*
X46411595Y-26881613D01*
X46329528Y-27035149D01*
X46278992Y-27201745D01*
X46261928Y-27374999D01*
X46261928Y-28625001D01*
X46278992Y-28798255D01*
X46329528Y-28964851D01*
X46411595Y-29118387D01*
X46522038Y-29252962D01*
X46656613Y-29363405D01*
X46665000Y-29367888D01*
X46665001Y-29632112D01*
X46656613Y-29636595D01*
X46522038Y-29747038D01*
X46411595Y-29881613D01*
X46329528Y-30035149D01*
X46278992Y-30201745D01*
X46261928Y-30374999D01*
X46261928Y-31625001D01*
X46278992Y-31798255D01*
X46329528Y-31964851D01*
X46411595Y-32118387D01*
X46522038Y-32252962D01*
X46656613Y-32363405D01*
X46810149Y-32445472D01*
X46976745Y-32496008D01*
X47017277Y-32500000D01*
X46976745Y-32503992D01*
X46810149Y-32554528D01*
X46656613Y-32636595D01*
X46522038Y-32747038D01*
X46411595Y-32881613D01*
X46329528Y-33035149D01*
X46278992Y-33201745D01*
X46261928Y-33374999D01*
X46261928Y-34625001D01*
X46278992Y-34798255D01*
X46329528Y-34964851D01*
X46409785Y-35115000D01*
X45590215Y-35115000D01*
X45670472Y-34964851D01*
X45721008Y-34798255D01*
X45738072Y-34625001D01*
X45738072Y-33374999D01*
X45721008Y-33201745D01*
X45670472Y-33035149D01*
X45588405Y-32881613D01*
X45477962Y-32747038D01*
X45343387Y-32636595D01*
X45335000Y-32632112D01*
X45335000Y-32367888D01*
X45343387Y-32363405D01*
X45477962Y-32252962D01*
X45588405Y-32118387D01*
X45670472Y-31964851D01*
X45721008Y-31798255D01*
X45738072Y-31625001D01*
X45738072Y-30374999D01*
X45721008Y-30201745D01*
X45670472Y-30035149D01*
X45588405Y-29881613D01*
X45477962Y-29747038D01*
X45343387Y-29636595D01*
X45189851Y-29554528D01*
X45023255Y-29503992D01*
X44850001Y-29486928D01*
X44049999Y-29486928D01*
X43876745Y-29503992D01*
X43710149Y-29554528D01*
X43556613Y-29636595D01*
X43422038Y-29747038D01*
X43311595Y-29881613D01*
X43229528Y-30035149D01*
X43178992Y-30201745D01*
X43161928Y-30374999D01*
X43161928Y-31625001D01*
X43178992Y-31798255D01*
X43229528Y-31964851D01*
X43311595Y-32118387D01*
X43422038Y-32252962D01*
X43556613Y-32363405D01*
X43565000Y-32367888D01*
X43565001Y-32632112D01*
X43556613Y-32636595D01*
X43422038Y-32747038D01*
X43311595Y-32881613D01*
X43229528Y-33035149D01*
X43178992Y-33201745D01*
X43161928Y-33374999D01*
X43161928Y-34625001D01*
X43178992Y-34798255D01*
X43229528Y-34964851D01*
X43309785Y-35115000D01*
X42690215Y-35115000D01*
X42770472Y-34964851D01*
X42821008Y-34798255D01*
X42838072Y-34625001D01*
X42838072Y-33374999D01*
X42821008Y-33201745D01*
X42770472Y-33035149D01*
X42688405Y-32881613D01*
X42577962Y-32747038D01*
X42443387Y-32636595D01*
X42289851Y-32554528D01*
X42123255Y-32503992D01*
X41950001Y-32486928D01*
X41149999Y-32486928D01*
X40976745Y-32503992D01*
X40810149Y-32554528D01*
X40656613Y-32636595D01*
X40522038Y-32747038D01*
X40411595Y-32881613D01*
X40329528Y-33035149D01*
X40278992Y-33201745D01*
X40261928Y-33374999D01*
X40261928Y-34625001D01*
X40278992Y-34798255D01*
X40329528Y-34964851D01*
X40411595Y-35118387D01*
X40522038Y-35252962D01*
X40656613Y-35363405D01*
X40665001Y-35367888D01*
X40665001Y-35506521D01*
X40660719Y-35550000D01*
X40677805Y-35723490D01*
X40728412Y-35890313D01*
X40810590Y-36044059D01*
X40893468Y-36145046D01*
X40893471Y-36145049D01*
X40921184Y-36178817D01*
X40954952Y-36206530D01*
X40993465Y-36245043D01*
X41004774Y-36301898D01*
X41082795Y-36490256D01*
X41196063Y-36659774D01*
X41340226Y-36803937D01*
X41509744Y-36917205D01*
X41698102Y-36995226D01*
X41898061Y-37035000D01*
X42101939Y-37035000D01*
X42301898Y-36995226D01*
X42490256Y-36917205D01*
X42538454Y-36885000D01*
X46956531Y-36885000D01*
X47000000Y-36889281D01*
X47043469Y-36885000D01*
X47043477Y-36885000D01*
X47173490Y-36872195D01*
X47340313Y-36821589D01*
X47494059Y-36739411D01*
X47628817Y-36628817D01*
X47656534Y-36595044D01*
X48145045Y-36106533D01*
X48178817Y-36078817D01*
X48289411Y-35944059D01*
X48371589Y-35790313D01*
X48422195Y-35623490D01*
X48435000Y-35493477D01*
X48435000Y-35493467D01*
X48439281Y-35450001D01*
X48435000Y-35406535D01*
X48435000Y-35367888D01*
X48443387Y-35363405D01*
X48577962Y-35252962D01*
X48688405Y-35118387D01*
X48770472Y-34964851D01*
X48821008Y-34798255D01*
X48838072Y-34625001D01*
X48838072Y-33374999D01*
X48821008Y-33201745D01*
X48770472Y-33035149D01*
X48688405Y-32881613D01*
X48577962Y-32747038D01*
X48443387Y-32636595D01*
X48289851Y-32554528D01*
X48123255Y-32503992D01*
X48082723Y-32500000D01*
X48123255Y-32496008D01*
X48289851Y-32445472D01*
X48443387Y-32363405D01*
X48577962Y-32252962D01*
X48688405Y-32118387D01*
X48770472Y-31964851D01*
X48771944Y-31960000D01*
X49102356Y-31960000D01*
X49290000Y-32147645D01*
X49290001Y-35352354D01*
X47602356Y-37040000D01*
X36386940Y-37040000D01*
X36301898Y-37004774D01*
X36101939Y-36965000D01*
X35898061Y-36965000D01*
X35698102Y-37004774D01*
X35509744Y-37082795D01*
X35340226Y-37196063D01*
X35196063Y-37340226D01*
X35082795Y-37509744D01*
X35004774Y-37698102D01*
X34965000Y-37898061D01*
X34965000Y-38101939D01*
X35004774Y-38301898D01*
X35082795Y-38490256D01*
X35196063Y-38659774D01*
X35340226Y-38803937D01*
X35509744Y-38917205D01*
X35698102Y-38995226D01*
X35898061Y-39035000D01*
X36101939Y-39035000D01*
X36301898Y-38995226D01*
X36386940Y-38960000D01*
X47952848Y-38960000D01*
X48000000Y-38964644D01*
X48047152Y-38960000D01*
X48047162Y-38960000D01*
X48188193Y-38946110D01*
X48369154Y-38891216D01*
X48535928Y-38802073D01*
X48682107Y-38682107D01*
X48712175Y-38645469D01*
X50895474Y-36462171D01*
X50932107Y-36432107D01*
X51052073Y-36285928D01*
X51141216Y-36119154D01*
X51196110Y-35938193D01*
X51210000Y-35797162D01*
X51210000Y-35797160D01*
X51214645Y-35750000D01*
X51210000Y-35702840D01*
X51210000Y-31797151D01*
X51214644Y-31749999D01*
X51210000Y-31702847D01*
X51210000Y-31702838D01*
X51196110Y-31561807D01*
X51141216Y-31380846D01*
X51136268Y-31371589D01*
X51052073Y-31214071D01*
X50962170Y-31104525D01*
X50932107Y-31067893D01*
X50895474Y-31037829D01*
X50212175Y-30354531D01*
X50182107Y-30317893D01*
X50035928Y-30197927D01*
X49869154Y-30108784D01*
X49688193Y-30053890D01*
X49547162Y-30040000D01*
X49547152Y-30040000D01*
X49500000Y-30035356D01*
X49452848Y-30040000D01*
X48771944Y-30040000D01*
X48770472Y-30035149D01*
X48688405Y-29881613D01*
X48577962Y-29747038D01*
X48443387Y-29636595D01*
X48435000Y-29632112D01*
X48435000Y-29367888D01*
X48443387Y-29363405D01*
X48577962Y-29252962D01*
X48688405Y-29118387D01*
X48770472Y-28964851D01*
X48821008Y-28798255D01*
X48838072Y-28625001D01*
X48838072Y-27913507D01*
X49070049Y-27681530D01*
X49103817Y-27653817D01*
X49171301Y-27571589D01*
X49214411Y-27519059D01*
X49296589Y-27365314D01*
X49347195Y-27198490D01*
X49348512Y-27185114D01*
X49360000Y-27068477D01*
X49360000Y-27068469D01*
X49364281Y-27025000D01*
X49360000Y-26981531D01*
X49360000Y-26337162D01*
X49453745Y-26327929D01*
X49601582Y-26283084D01*
X49737829Y-26210258D01*
X49857251Y-26112251D01*
X49955258Y-25992829D01*
X50028084Y-25856582D01*
X50072929Y-25708745D01*
X50088072Y-25555000D01*
X50088072Y-25255000D01*
X50072929Y-25101255D01*
X50071032Y-25095000D01*
X50486928Y-25095000D01*
X50486928Y-25450001D01*
X50503992Y-25623255D01*
X50554528Y-25789851D01*
X50636595Y-25943387D01*
X50747038Y-26077962D01*
X50881613Y-26188405D01*
X51035149Y-26270472D01*
X51115001Y-26294695D01*
X51115001Y-26706521D01*
X51110719Y-26750000D01*
X51127805Y-26923490D01*
X51178412Y-27090313D01*
X51260590Y-27244059D01*
X51343468Y-27345046D01*
X51343471Y-27345049D01*
X51371184Y-27378817D01*
X51404951Y-27406529D01*
X52093470Y-28095049D01*
X52121183Y-28128817D01*
X52154951Y-28156530D01*
X52154953Y-28156532D01*
X52181613Y-28178411D01*
X52255941Y-28239411D01*
X52409687Y-28321589D01*
X52576510Y-28372195D01*
X52706523Y-28385000D01*
X52706533Y-28385000D01*
X52749999Y-28389281D01*
X52793465Y-28385000D01*
X53570299Y-28385000D01*
X53574188Y-28424482D01*
X53610498Y-28544180D01*
X53669463Y-28654494D01*
X53748815Y-28751185D01*
X53845506Y-28830537D01*
X53955820Y-28889502D01*
X54075518Y-28925812D01*
X54200000Y-28938072D01*
X55800000Y-28938072D01*
X55924482Y-28925812D01*
X56044180Y-28889502D01*
X56154494Y-28830537D01*
X56251185Y-28751185D01*
X56330537Y-28654494D01*
X56389502Y-28544180D01*
X56425812Y-28424482D01*
X56438072Y-28300000D01*
X56438072Y-26700000D01*
X56425812Y-26575518D01*
X56389502Y-26455820D01*
X56330537Y-26345506D01*
X56251185Y-26248815D01*
X56154494Y-26169463D01*
X56044180Y-26110498D01*
X55924482Y-26074188D01*
X55800000Y-26061928D01*
X54200000Y-26061928D01*
X54075518Y-26074188D01*
X53955820Y-26110498D01*
X53845506Y-26169463D01*
X53748815Y-26248815D01*
X53669463Y-26345506D01*
X53610498Y-26455820D01*
X53574188Y-26575518D01*
X53570299Y-26615000D01*
X53116579Y-26615000D01*
X52885000Y-26383422D01*
X52885000Y-26294694D01*
X52964851Y-26270472D01*
X53118387Y-26188405D01*
X53252962Y-26077962D01*
X53363405Y-25943387D01*
X53445472Y-25789851D01*
X53487238Y-25652167D01*
X53509744Y-25667205D01*
X53698102Y-25745226D01*
X53898061Y-25785000D01*
X54101939Y-25785000D01*
X54301898Y-25745226D01*
X54386940Y-25710000D01*
X55720482Y-25710000D01*
X55745506Y-25730537D01*
X55855820Y-25789502D01*
X55975518Y-25825812D01*
X56100000Y-25838072D01*
X56900000Y-25838072D01*
X57024482Y-25825812D01*
X57144180Y-25789502D01*
X57254494Y-25730537D01*
X57351185Y-25651185D01*
X57364468Y-25635000D01*
X61135532Y-25635000D01*
X61148815Y-25651185D01*
X61245506Y-25730537D01*
X61355820Y-25789502D01*
X61475518Y-25825812D01*
X61600000Y-25838072D01*
X62400000Y-25838072D01*
X62524482Y-25825812D01*
X62644180Y-25789502D01*
X62754494Y-25730537D01*
X62851185Y-25651185D01*
X62930537Y-25554494D01*
X62989502Y-25444180D01*
X63025812Y-25324482D01*
X63038072Y-25200000D01*
X63038072Y-24300000D01*
X63025812Y-24175518D01*
X62989502Y-24055820D01*
X62930537Y-23945506D01*
X62851185Y-23848815D01*
X62838095Y-23838072D01*
X63350000Y-23838072D01*
X63474482Y-23825812D01*
X63594180Y-23789502D01*
X63704494Y-23730537D01*
X63717931Y-23719510D01*
X63865001Y-23866580D01*
X63865000Y-28883421D01*
X63583422Y-29165000D01*
X62929373Y-29165000D01*
X62874180Y-29135498D01*
X62754482Y-29099188D01*
X62630000Y-29086928D01*
X61570000Y-29086928D01*
X61445518Y-29099188D01*
X61325820Y-29135498D01*
X61215506Y-29194463D01*
X61118815Y-29273815D01*
X61039463Y-29370506D01*
X61000000Y-29444335D01*
X60960537Y-29370506D01*
X60881185Y-29273815D01*
X60784494Y-29194463D01*
X60674180Y-29135498D01*
X60554482Y-29099188D01*
X60430000Y-29086928D01*
X59370000Y-29086928D01*
X59245518Y-29099188D01*
X59125820Y-29135498D01*
X59070627Y-29165000D01*
X58243465Y-29165000D01*
X58199999Y-29160719D01*
X58156533Y-29165000D01*
X58156523Y-29165000D01*
X58026510Y-29177805D01*
X57859687Y-29228411D01*
X57705941Y-29310589D01*
X57705939Y-29310590D01*
X57705940Y-29310590D01*
X57604953Y-29393468D01*
X57604951Y-29393470D01*
X57571183Y-29421183D01*
X57543470Y-29454951D01*
X56904951Y-30093471D01*
X56871184Y-30121183D01*
X56843471Y-30154951D01*
X56843468Y-30154954D01*
X56798550Y-30209687D01*
X56760590Y-30255941D01*
X56678412Y-30409687D01*
X56627805Y-30576510D01*
X56615000Y-30706523D01*
X56615000Y-30706531D01*
X56610719Y-30750000D01*
X56615000Y-30793469D01*
X56615000Y-30961546D01*
X56582795Y-31009744D01*
X56504774Y-31198102D01*
X56465000Y-31398061D01*
X56465000Y-31601939D01*
X56504774Y-31801898D01*
X56582795Y-31990256D01*
X56615000Y-32038455D01*
X56615000Y-32705306D01*
X56535150Y-32729528D01*
X56381614Y-32811595D01*
X56247038Y-32922038D01*
X56136595Y-33056614D01*
X56054528Y-33210150D01*
X56003992Y-33376746D01*
X55986928Y-33550000D01*
X55986928Y-34350000D01*
X56003992Y-34523254D01*
X56054528Y-34689850D01*
X56136595Y-34843386D01*
X56247038Y-34977962D01*
X56381614Y-35088405D01*
X56535150Y-35170472D01*
X56701746Y-35221008D01*
X56875000Y-35238072D01*
X58125000Y-35238072D01*
X58298254Y-35221008D01*
X58464850Y-35170472D01*
X58618386Y-35088405D01*
X58752962Y-34977962D01*
X58863405Y-34843386D01*
X58945472Y-34689850D01*
X58996008Y-34523254D01*
X59013072Y-34350000D01*
X59013072Y-33550000D01*
X58996008Y-33376746D01*
X58945472Y-33210150D01*
X58863405Y-33056614D01*
X58752962Y-32922038D01*
X58618386Y-32811595D01*
X58464850Y-32729528D01*
X58385000Y-32705306D01*
X58385000Y-32038454D01*
X58417205Y-31990256D01*
X58495226Y-31801898D01*
X58535000Y-31601939D01*
X58535000Y-31398061D01*
X58495226Y-31198102D01*
X58439064Y-31062515D01*
X58566579Y-30935000D01*
X59070627Y-30935000D01*
X59125820Y-30964502D01*
X59242841Y-31000000D01*
X59125820Y-31035498D01*
X59015506Y-31094463D01*
X58918815Y-31173815D01*
X58839463Y-31270506D01*
X58780498Y-31380820D01*
X58744188Y-31500518D01*
X58731928Y-31625000D01*
X58731928Y-32275000D01*
X58744188Y-32399482D01*
X58780498Y-32519180D01*
X58839463Y-32629494D01*
X58918815Y-32726185D01*
X59015506Y-32805537D01*
X59125820Y-32864502D01*
X59245518Y-32900812D01*
X59370000Y-32913072D01*
X60430000Y-32913072D01*
X60554482Y-32900812D01*
X60674180Y-32864502D01*
X60784494Y-32805537D01*
X60881185Y-32726185D01*
X60960537Y-32629494D01*
X61000000Y-32555665D01*
X61039463Y-32629494D01*
X61118815Y-32726185D01*
X61215506Y-32805537D01*
X61325820Y-32864502D01*
X61445518Y-32900812D01*
X61570000Y-32913072D01*
X62630000Y-32913072D01*
X62754482Y-32900812D01*
X62874180Y-32864502D01*
X62984494Y-32805537D01*
X63081185Y-32726185D01*
X63160537Y-32629494D01*
X63219502Y-32519180D01*
X63255812Y-32399482D01*
X63268072Y-32275000D01*
X63268072Y-32009144D01*
X63398061Y-32035000D01*
X63601939Y-32035000D01*
X63801898Y-31995226D01*
X63865001Y-31969088D01*
X63865000Y-32705306D01*
X63785150Y-32729528D01*
X63631614Y-32811595D01*
X63497038Y-32922038D01*
X63386595Y-33056614D01*
X63304528Y-33210150D01*
X63253992Y-33376746D01*
X63236928Y-33550000D01*
X63236928Y-34350000D01*
X63253992Y-34523254D01*
X63304528Y-34689850D01*
X63386595Y-34843386D01*
X63497038Y-34977962D01*
X63631614Y-35088405D01*
X63785150Y-35170472D01*
X63951746Y-35221008D01*
X64125000Y-35238072D01*
X65375000Y-35238072D01*
X65548254Y-35221008D01*
X65714850Y-35170472D01*
X65868386Y-35088405D01*
X66002962Y-34977962D01*
X66113405Y-34843386D01*
X66195472Y-34689850D01*
X66246008Y-34523254D01*
X66263072Y-34350000D01*
X66263072Y-33550000D01*
X66246008Y-33376746D01*
X66195472Y-33210150D01*
X66113405Y-33056614D01*
X66002962Y-32922038D01*
X65868386Y-32811595D01*
X65714850Y-32729528D01*
X65635000Y-32705306D01*
X65635000Y-32583854D01*
X65759744Y-32667205D01*
X65948102Y-32745226D01*
X66148061Y-32785000D01*
X66351939Y-32785000D01*
X66551898Y-32745226D01*
X66740256Y-32667205D01*
X66909774Y-32553937D01*
X67053937Y-32409774D01*
X67167205Y-32240256D01*
X67245226Y-32051898D01*
X67285000Y-31851939D01*
X67285000Y-31648061D01*
X67245226Y-31448102D01*
X67167205Y-31259744D01*
X67053937Y-31090226D01*
X66909774Y-30946063D01*
X66740256Y-30832795D01*
X66635000Y-30789196D01*
X66635000Y-28697208D01*
X66635271Y-28698102D01*
X66678411Y-28840312D01*
X66760589Y-28994058D01*
X66871183Y-29128817D01*
X66904956Y-29156534D01*
X67343466Y-29595044D01*
X67371183Y-29628817D01*
X67505941Y-29739411D01*
X67659687Y-29821589D01*
X67826510Y-29872195D01*
X67956523Y-29885000D01*
X67956531Y-29885000D01*
X68000000Y-29889281D01*
X68043469Y-29885000D01*
X69531822Y-29885000D01*
X69503992Y-29976745D01*
X69486928Y-30149999D01*
X69486928Y-30950001D01*
X69503992Y-31123255D01*
X69554528Y-31289851D01*
X69636595Y-31443387D01*
X69747038Y-31577962D01*
X69881613Y-31688405D01*
X70035149Y-31770472D01*
X70201745Y-31821008D01*
X70374999Y-31838072D01*
X71625001Y-31838072D01*
X71798255Y-31821008D01*
X71964851Y-31770472D01*
X72118387Y-31688405D01*
X72252962Y-31577962D01*
X72363405Y-31443387D01*
X72367888Y-31435000D01*
X73632113Y-31435000D01*
X73636595Y-31443386D01*
X73747038Y-31577962D01*
X73881614Y-31688405D01*
X74035150Y-31770472D01*
X74201746Y-31821008D01*
X74375000Y-31838072D01*
X75625000Y-31838072D01*
X75798254Y-31821008D01*
X75964850Y-31770472D01*
X76118386Y-31688405D01*
X76252962Y-31577962D01*
X76363405Y-31443386D01*
X76445472Y-31289850D01*
X76496008Y-31123254D01*
X76513072Y-30950000D01*
X76513072Y-30025000D01*
X76496008Y-29851746D01*
X76445472Y-29685150D01*
X76363405Y-29531614D01*
X76252962Y-29397038D01*
X76118386Y-29286595D01*
X75964850Y-29204528D01*
X75798254Y-29153992D01*
X75625000Y-29136928D01*
X74614650Y-29136928D01*
X74888507Y-28863072D01*
X75625000Y-28863072D01*
X75798254Y-28846008D01*
X75964850Y-28795472D01*
X76118386Y-28713405D01*
X76252962Y-28602962D01*
X76363405Y-28468386D01*
X76445472Y-28314850D01*
X76496008Y-28148254D01*
X76513072Y-27975000D01*
X76513072Y-27050000D01*
X76496008Y-26876746D01*
X76445472Y-26710150D01*
X76363405Y-26556614D01*
X76252962Y-26422038D01*
X76118386Y-26311595D01*
X75964850Y-26229528D01*
X75798254Y-26178992D01*
X75625000Y-26161928D01*
X74375000Y-26161928D01*
X74201746Y-26178992D01*
X74035150Y-26229528D01*
X73881614Y-26311595D01*
X73747038Y-26422038D01*
X73636595Y-26556614D01*
X73554528Y-26710150D01*
X73503992Y-26876746D01*
X73486928Y-27050000D01*
X73486928Y-27761494D01*
X73133422Y-28115000D01*
X72468178Y-28115000D01*
X72496008Y-28023255D01*
X72513072Y-27850001D01*
X72513072Y-27049999D01*
X72496008Y-26876745D01*
X72445472Y-26710149D01*
X72363405Y-26556613D01*
X72252962Y-26422038D01*
X72118387Y-26311595D01*
X71964851Y-26229528D01*
X71798255Y-26178992D01*
X71625001Y-26161928D01*
X70374999Y-26161928D01*
X70201745Y-26178992D01*
X70035149Y-26229528D01*
X69885000Y-26309785D01*
X69885000Y-25690215D01*
X70035149Y-25770472D01*
X70201745Y-25821008D01*
X70374999Y-25838072D01*
X71625001Y-25838072D01*
X71798255Y-25821008D01*
X71964851Y-25770472D01*
X72118387Y-25688405D01*
X72252962Y-25577962D01*
X72363405Y-25443387D01*
X72367888Y-25435000D01*
X73632113Y-25435000D01*
X73636595Y-25443386D01*
X73747038Y-25577962D01*
X73881614Y-25688405D01*
X74035150Y-25770472D01*
X74201746Y-25821008D01*
X74375000Y-25838072D01*
X75625000Y-25838072D01*
X75798254Y-25821008D01*
X75964850Y-25770472D01*
X76118386Y-25688405D01*
X76252962Y-25577962D01*
X76363405Y-25443386D01*
X76445472Y-25289850D01*
X76496008Y-25123254D01*
X76513072Y-24950000D01*
X76513072Y-24025000D01*
X76496008Y-23851746D01*
X76445472Y-23685150D01*
X76363405Y-23531614D01*
X76252962Y-23397038D01*
X76118386Y-23286595D01*
X75964850Y-23204528D01*
X75798254Y-23153992D01*
X75625000Y-23136928D01*
X74375000Y-23136928D01*
X74201746Y-23153992D01*
X74035150Y-23204528D01*
X73881614Y-23286595D01*
X73747038Y-23397038D01*
X73636595Y-23531614D01*
X73565298Y-23665000D01*
X72367888Y-23665000D01*
X72363405Y-23656613D01*
X72252962Y-23522038D01*
X72118387Y-23411595D01*
X71964851Y-23329528D01*
X71798255Y-23278992D01*
X71625001Y-23261928D01*
X70374999Y-23261928D01*
X70201745Y-23278992D01*
X70035149Y-23329528D01*
X69885000Y-23409785D01*
X69885000Y-22590215D01*
X70035149Y-22670472D01*
X70201745Y-22721008D01*
X70374999Y-22738072D01*
X71625001Y-22738072D01*
X71798255Y-22721008D01*
X71964851Y-22670472D01*
X72118387Y-22588405D01*
X72252962Y-22477962D01*
X72363405Y-22343387D01*
X72445472Y-22189851D01*
X72496008Y-22023255D01*
X72513072Y-21850001D01*
X72513072Y-21050000D01*
X73486928Y-21050000D01*
X73486928Y-21975000D01*
X73503992Y-22148254D01*
X73554528Y-22314850D01*
X73636595Y-22468386D01*
X73747038Y-22602962D01*
X73881614Y-22713405D01*
X74035150Y-22795472D01*
X74201746Y-22846008D01*
X74375000Y-22863072D01*
X75625000Y-22863072D01*
X75798254Y-22846008D01*
X75964850Y-22795472D01*
X76118386Y-22713405D01*
X76252962Y-22602962D01*
X76363405Y-22468386D01*
X76445472Y-22314850D01*
X76496008Y-22148254D01*
X76513072Y-21975000D01*
X76513072Y-21050000D01*
X76496008Y-20876746D01*
X76445472Y-20710150D01*
X76363405Y-20556614D01*
X76252962Y-20422038D01*
X76118386Y-20311595D01*
X75964850Y-20229528D01*
X75885000Y-20205306D01*
X75885000Y-19538454D01*
X75917205Y-19490256D01*
X75995226Y-19301898D01*
X76035000Y-19101939D01*
X76035000Y-18898061D01*
X75995226Y-18698102D01*
X75917205Y-18509744D01*
X75803937Y-18340226D01*
X75659774Y-18196063D01*
X75490256Y-18082795D01*
X75301898Y-18004774D01*
X75101939Y-17965000D01*
X74898061Y-17965000D01*
X74698102Y-18004774D01*
X74509744Y-18082795D01*
X74340226Y-18196063D01*
X74196063Y-18340226D01*
X74082795Y-18509744D01*
X74004774Y-18698102D01*
X73965000Y-18898061D01*
X73965000Y-19101939D01*
X74004774Y-19301898D01*
X74082795Y-19490256D01*
X74115000Y-19538455D01*
X74115000Y-20205306D01*
X74035150Y-20229528D01*
X73881614Y-20311595D01*
X73747038Y-20422038D01*
X73636595Y-20556614D01*
X73554528Y-20710150D01*
X73503992Y-20876746D01*
X73486928Y-21050000D01*
X72513072Y-21050000D01*
X72513072Y-21049999D01*
X72496008Y-20876745D01*
X72445472Y-20710149D01*
X72363405Y-20556613D01*
X72252962Y-20422038D01*
X72118387Y-20311595D01*
X72002126Y-20249452D01*
X73095049Y-19156530D01*
X73128817Y-19128817D01*
X73157244Y-19094180D01*
X73239410Y-18994060D01*
X73239411Y-18994059D01*
X73321589Y-18840313D01*
X73372195Y-18673490D01*
X73385000Y-18543477D01*
X73385000Y-18543467D01*
X73389281Y-18500001D01*
X73385000Y-18456535D01*
X73385000Y-10043469D01*
X73389281Y-10000000D01*
X73385000Y-9956531D01*
X73385000Y-9956523D01*
X73372195Y-9826510D01*
X73351742Y-9759085D01*
X73321589Y-9659686D01*
X73239411Y-9505941D01*
X73156532Y-9404953D01*
X73156530Y-9404951D01*
X73128817Y-9371183D01*
X73095050Y-9343471D01*
X72156534Y-8404956D01*
X72128817Y-8371183D01*
X71994059Y-8260589D01*
X71840313Y-8178411D01*
X71673490Y-8127805D01*
X71543477Y-8115000D01*
X71543469Y-8115000D01*
X71500000Y-8110719D01*
X71456531Y-8115000D01*
X68534625Y-8115000D01*
X68521008Y-7976744D01*
X68470472Y-7810148D01*
X68388405Y-7656613D01*
X68277962Y-7522038D01*
X68143387Y-7411595D01*
X67989852Y-7329528D01*
X67823256Y-7278992D01*
X67650002Y-7261928D01*
X66349998Y-7261928D01*
X66176744Y-7278992D01*
X66010148Y-7329528D01*
X65856613Y-7411595D01*
X65722038Y-7522038D01*
X65611595Y-7656613D01*
X65529528Y-7810148D01*
X65478992Y-7976744D01*
X65465375Y-8115000D01*
X63043466Y-8115000D01*
X62999999Y-8110719D01*
X62956533Y-8115000D01*
X62956523Y-8115000D01*
X62826510Y-8127805D01*
X62659687Y-8178411D01*
X62505941Y-8260589D01*
X62371183Y-8371183D01*
X62343466Y-8404956D01*
X62038422Y-8710000D01*
X61578783Y-8710000D01*
X61453745Y-8672071D01*
X61310000Y-8657913D01*
X61310000Y-8516018D01*
X61314040Y-8475000D01*
X61297918Y-8311311D01*
X61250172Y-8153913D01*
X61172636Y-8008854D01*
X61094439Y-7913570D01*
X61094437Y-7913568D01*
X61068291Y-7881709D01*
X61036433Y-7855564D01*
X60324092Y-7143225D01*
X60295226Y-6998102D01*
X60217205Y-6809744D01*
X60135000Y-6686715D01*
X60135000Y-5656192D01*
X60138072Y-5625000D01*
X60138072Y-4375000D01*
X60125812Y-4250518D01*
X60089502Y-4130820D01*
X60030537Y-4020506D01*
X59951185Y-3923815D01*
X59854494Y-3844463D01*
X59744180Y-3785498D01*
X59624482Y-3749188D01*
X59500000Y-3736928D01*
X59100000Y-3736928D01*
X58975518Y-3749188D01*
X58975000Y-3749345D01*
X58974482Y-3749188D01*
X58850000Y-3736928D01*
X58450000Y-3736928D01*
X58325518Y-3749188D01*
X58325000Y-3749345D01*
X58324482Y-3749188D01*
X58200000Y-3736928D01*
X57800000Y-3736928D01*
X57675518Y-3749188D01*
X57675000Y-3749345D01*
X57674482Y-3749188D01*
X57550000Y-3736928D01*
X57150000Y-3736928D01*
X57025518Y-3749188D01*
X56905820Y-3785498D01*
X56795506Y-3844463D01*
X56698815Y-3923815D01*
X56619463Y-4020506D01*
X56560498Y-4130820D01*
X56524188Y-4250518D01*
X56511928Y-4375000D01*
X56511928Y-5625000D01*
X56524188Y-5749482D01*
X56560498Y-5869180D01*
X56619463Y-5979494D01*
X56698815Y-6076185D01*
X56795506Y-6155537D01*
X56905820Y-6214502D01*
X57025518Y-6250812D01*
X57150000Y-6263072D01*
X57550000Y-6263072D01*
X57674482Y-6250812D01*
X57675000Y-6250655D01*
X57675518Y-6250812D01*
X57800000Y-6263072D01*
X58200000Y-6263072D01*
X58324482Y-6250812D01*
X58325000Y-6250655D01*
X58325518Y-6250812D01*
X58450000Y-6263072D01*
X58465000Y-6263072D01*
X58465001Y-6686714D01*
X58382795Y-6809744D01*
X58304774Y-6998102D01*
X58265000Y-7198061D01*
X58265000Y-7401939D01*
X58304774Y-7601898D01*
X58382795Y-7790256D01*
X58496063Y-7959774D01*
X58640226Y-8103937D01*
X58809744Y-8217205D01*
X58998102Y-8295226D01*
X59143225Y-8324092D01*
X59492379Y-8673247D01*
X59348418Y-8716916D01*
X59212171Y-8789742D01*
X59092749Y-8887749D01*
X58994742Y-9007171D01*
X58921916Y-9143418D01*
X58877071Y-9291255D01*
X58861928Y-9445000D01*
X58861928Y-9745000D01*
X58877071Y-9898745D01*
X58921916Y-10046582D01*
X58994742Y-10182829D01*
X59033454Y-10230000D01*
X58994742Y-10277171D01*
X58921916Y-10413418D01*
X58877071Y-10561255D01*
X58861928Y-10715000D01*
X58861928Y-11015000D01*
X58877071Y-11168745D01*
X58921916Y-11316582D01*
X58994742Y-11452829D01*
X59033454Y-11500000D01*
X58994742Y-11547171D01*
X58921916Y-11683418D01*
X58877071Y-11831255D01*
X58861928Y-11985000D01*
X58861928Y-12285000D01*
X58877071Y-12438745D01*
X58921916Y-12586582D01*
X58994742Y-12722829D01*
X59033454Y-12770000D01*
X58994742Y-12817171D01*
X58921916Y-12953418D01*
X58877071Y-13101255D01*
X58861928Y-13255000D01*
X58861928Y-13555000D01*
X58877071Y-13708745D01*
X58886552Y-13740000D01*
X58799597Y-13740000D01*
X58749999Y-13735115D01*
X58700401Y-13740000D01*
X58700392Y-13740000D01*
X58552006Y-13754615D01*
X58361620Y-13812368D01*
X58186160Y-13906153D01*
X58032367Y-14032367D01*
X58000743Y-14070901D01*
X57370901Y-14700744D01*
X57332368Y-14732367D01*
X57300745Y-14770900D01*
X57300744Y-14770901D01*
X57206154Y-14886160D01*
X57112368Y-15061621D01*
X57054615Y-15252006D01*
X57035114Y-15450000D01*
X57040001Y-15499617D01*
X57040000Y-17918833D01*
X56989852Y-17892028D01*
X56823256Y-17841492D01*
X56650002Y-17824428D01*
X55349998Y-17824428D01*
X55176744Y-17841492D01*
X55010148Y-17892028D01*
X54856613Y-17974095D01*
X54722038Y-18084538D01*
X54611595Y-18219113D01*
X54529528Y-18372648D01*
X54478992Y-18539244D01*
X54461928Y-18712498D01*
X54461928Y-19537502D01*
X54478992Y-19710756D01*
X54529528Y-19877352D01*
X54611595Y-20030887D01*
X54722038Y-20165462D01*
X54803760Y-20232529D01*
X54696063Y-20340226D01*
X54582795Y-20509744D01*
X54504774Y-20698102D01*
X54465000Y-20898061D01*
X54465000Y-21101939D01*
X54504774Y-21301898D01*
X54582795Y-21490256D01*
X54665001Y-21613286D01*
X54665001Y-21890018D01*
X54619463Y-21945506D01*
X54560498Y-22055820D01*
X54524188Y-22175518D01*
X54511928Y-22300000D01*
X54511928Y-23200000D01*
X54524188Y-23324482D01*
X54560498Y-23444180D01*
X54619463Y-23554494D01*
X54698815Y-23651185D01*
X54795506Y-23730537D01*
X54905820Y-23789502D01*
X54907462Y-23790000D01*
X54386940Y-23790000D01*
X54301898Y-23754774D01*
X54101939Y-23715000D01*
X53898061Y-23715000D01*
X53698102Y-23754774D01*
X53509744Y-23832795D01*
X53340226Y-23946063D01*
X53258051Y-24028238D01*
X53252962Y-24022038D01*
X53118387Y-23911595D01*
X52964851Y-23829528D01*
X52798255Y-23778992D01*
X52625001Y-23761928D01*
X52069572Y-23761928D01*
X51807644Y-23500000D01*
X52069572Y-23238072D01*
X52625001Y-23238072D01*
X52798255Y-23221008D01*
X52964851Y-23170472D01*
X53118387Y-23088405D01*
X53252962Y-22977962D01*
X53363405Y-22843387D01*
X53445472Y-22689851D01*
X53496008Y-22523255D01*
X53513072Y-22350001D01*
X53513072Y-21549999D01*
X53496008Y-21376745D01*
X53445472Y-21210149D01*
X53363405Y-21056613D01*
X53252962Y-20922038D01*
X53118387Y-20811595D01*
X53005319Y-20751158D01*
X53035000Y-20601939D01*
X53035000Y-20398061D01*
X53005319Y-20248842D01*
X53118387Y-20188405D01*
X53252962Y-20077962D01*
X53363405Y-19943387D01*
X53445472Y-19789851D01*
X53496008Y-19623255D01*
X53513072Y-19450001D01*
X53513072Y-18649999D01*
X53496008Y-18476745D01*
X53445472Y-18310149D01*
X53363405Y-18156613D01*
X53252962Y-18022038D01*
X53118387Y-17911595D01*
X52964851Y-17829528D01*
X52798255Y-17778992D01*
X52625001Y-17761928D01*
X51374999Y-17761928D01*
X51201745Y-17778992D01*
X51035149Y-17829528D01*
X50881613Y-17911595D01*
X50747038Y-18022038D01*
X50636595Y-18156613D01*
X50554528Y-18310149D01*
X50503992Y-18476745D01*
X50486928Y-18649999D01*
X50486928Y-19450001D01*
X50503992Y-19623255D01*
X50554528Y-19789851D01*
X50636595Y-19943387D01*
X50747038Y-20077962D01*
X50881613Y-20188405D01*
X50994681Y-20248842D01*
X50965000Y-20398061D01*
X50965000Y-20601939D01*
X50994681Y-20751158D01*
X50881613Y-20811595D01*
X50747038Y-20922038D01*
X50636595Y-21056613D01*
X50554528Y-21210149D01*
X50503992Y-21376745D01*
X50486928Y-21549999D01*
X50486928Y-21905000D01*
X50071032Y-21905000D01*
X50072929Y-21898745D01*
X50088072Y-21745000D01*
X50088072Y-21445000D01*
X50072929Y-21291255D01*
X50028084Y-21143418D01*
X49955258Y-21007171D01*
X49857251Y-20887749D01*
X49737829Y-20789742D01*
X49601582Y-20716916D01*
X49453745Y-20672071D01*
X49360000Y-20662838D01*
X49360000Y-16891578D01*
X49416578Y-16835000D01*
X50632112Y-16835000D01*
X50636595Y-16843387D01*
X50747038Y-16977962D01*
X50881613Y-17088405D01*
X51035149Y-17170472D01*
X51201745Y-17221008D01*
X51374999Y-17238072D01*
X52625001Y-17238072D01*
X52798255Y-17221008D01*
X52964851Y-17170472D01*
X53118387Y-17088405D01*
X53252962Y-16977962D01*
X53363405Y-16843387D01*
X53445472Y-16689851D01*
X53496008Y-16523255D01*
X53513072Y-16350001D01*
X53513072Y-15549999D01*
X53496008Y-15376745D01*
X53445472Y-15210149D01*
X53363405Y-15056613D01*
X53252962Y-14922038D01*
X53118387Y-14811595D01*
X52964851Y-14729528D01*
X52798255Y-14678992D01*
X52625001Y-14661928D01*
X51374999Y-14661928D01*
X51201745Y-14678992D01*
X51035149Y-14729528D01*
X50881613Y-14811595D01*
X50747038Y-14922038D01*
X50636595Y-15056613D01*
X50632112Y-15065000D01*
X50367263Y-15065000D01*
X50417205Y-14990256D01*
X50495226Y-14801898D01*
X50535000Y-14601939D01*
X50535000Y-14398061D01*
X50495226Y-14198102D01*
X50417205Y-14009744D01*
X50303937Y-13840226D01*
X50159774Y-13696063D01*
X49990256Y-13582795D01*
X49801898Y-13504774D01*
X49601939Y-13465000D01*
X49398061Y-13465000D01*
X49198102Y-13504774D01*
X49113060Y-13540000D01*
X45140897Y-13540000D01*
X44190897Y-13255000D01*
X53911928Y-13255000D01*
X53911928Y-13555000D01*
X53927071Y-13708745D01*
X53971916Y-13856582D01*
X54044742Y-13992829D01*
X54142749Y-14112251D01*
X54262171Y-14210258D01*
X54398418Y-14283084D01*
X54490000Y-14310865D01*
X54490000Y-14326939D01*
X54529774Y-14526898D01*
X54607795Y-14715256D01*
X54721063Y-14884774D01*
X54865226Y-15028937D01*
X55034744Y-15142205D01*
X55223102Y-15220226D01*
X55423061Y-15260000D01*
X55626939Y-15260000D01*
X55826898Y-15220226D01*
X56015256Y-15142205D01*
X56184774Y-15028937D01*
X56328937Y-14884774D01*
X56442205Y-14715256D01*
X56520226Y-14526898D01*
X56560000Y-14326939D01*
X56560000Y-14310865D01*
X56651582Y-14283084D01*
X56787829Y-14210258D01*
X56907251Y-14112251D01*
X57005258Y-13992829D01*
X57078084Y-13856582D01*
X57122929Y-13708745D01*
X57138072Y-13555000D01*
X57138072Y-13255000D01*
X57122929Y-13101255D01*
X57078084Y-12953418D01*
X57005258Y-12817171D01*
X56907251Y-12697749D01*
X56787829Y-12599742D01*
X56651582Y-12526916D01*
X56503745Y-12482071D01*
X56350000Y-12466928D01*
X54700000Y-12466928D01*
X54546255Y-12482071D01*
X54398418Y-12526916D01*
X54262171Y-12599742D01*
X54142749Y-12697749D01*
X54044742Y-12817171D01*
X53971916Y-12953418D01*
X53927071Y-13101255D01*
X53911928Y-13255000D01*
X44190897Y-13255000D01*
X43145396Y-12941350D01*
X42668499Y-12098832D01*
X42759172Y-11799921D01*
X42785000Y-11537682D01*
X42785000Y-10662318D01*
X43915000Y-10662318D01*
X43915000Y-11537683D01*
X43940828Y-11799921D01*
X44042896Y-12136395D01*
X44208646Y-12446491D01*
X44431709Y-12718292D01*
X44703510Y-12941354D01*
X45013606Y-13107104D01*
X45350080Y-13209172D01*
X45700000Y-13243636D01*
X46049921Y-13209172D01*
X46386395Y-13107104D01*
X46696491Y-12941354D01*
X46968292Y-12718292D01*
X47191354Y-12446491D01*
X47357104Y-12136395D01*
X47459172Y-11799921D01*
X47485000Y-11537682D01*
X47485000Y-10662317D01*
X47473938Y-10549999D01*
X50986928Y-10549999D01*
X50986928Y-11350001D01*
X51003992Y-11523255D01*
X51054528Y-11689851D01*
X51136595Y-11843387D01*
X51247038Y-11977962D01*
X51381613Y-12088405D01*
X51535149Y-12170472D01*
X51701745Y-12221008D01*
X51874999Y-12238072D01*
X53125001Y-12238072D01*
X53298255Y-12221008D01*
X53464851Y-12170472D01*
X53618387Y-12088405D01*
X53752962Y-11977962D01*
X53863405Y-11843387D01*
X53913322Y-11750000D01*
X54421217Y-11750000D01*
X54546255Y-11787929D01*
X54700000Y-11803072D01*
X56350000Y-11803072D01*
X56503745Y-11787929D01*
X56651582Y-11743084D01*
X56787829Y-11670258D01*
X56907251Y-11572251D01*
X57005258Y-11452829D01*
X57078084Y-11316582D01*
X57122929Y-11168745D01*
X57138072Y-11015000D01*
X57138072Y-10715000D01*
X57122929Y-10561255D01*
X57078084Y-10413418D01*
X57005258Y-10277171D01*
X56907251Y-10157749D01*
X56787829Y-10059742D01*
X56651582Y-9986916D01*
X56503745Y-9942071D01*
X56350000Y-9926928D01*
X54700000Y-9926928D01*
X54546255Y-9942071D01*
X54421217Y-9980000D01*
X53800530Y-9980000D01*
X53752962Y-9922038D01*
X53618387Y-9811595D01*
X53464851Y-9729528D01*
X53298255Y-9678992D01*
X53125001Y-9661928D01*
X51874999Y-9661928D01*
X51701745Y-9678992D01*
X51535149Y-9729528D01*
X51381613Y-9811595D01*
X51247038Y-9922038D01*
X51136595Y-10056613D01*
X51054528Y-10210149D01*
X51003992Y-10376745D01*
X50986928Y-10549999D01*
X47473938Y-10549999D01*
X47459172Y-10400079D01*
X47357104Y-10063605D01*
X47191354Y-9753509D01*
X46968292Y-9481708D01*
X46696490Y-9258646D01*
X46386394Y-9092896D01*
X46049920Y-8990828D01*
X45700000Y-8956364D01*
X45350079Y-8990828D01*
X45013605Y-9092896D01*
X44703509Y-9258646D01*
X44431708Y-9481708D01*
X44208646Y-9753510D01*
X44042896Y-10063606D01*
X43940828Y-10400080D01*
X43915000Y-10662318D01*
X42785000Y-10662318D01*
X42785000Y-10662317D01*
X42759172Y-10400079D01*
X42657104Y-10063605D01*
X42491354Y-9753509D01*
X42268292Y-9481708D01*
X41996490Y-9258646D01*
X41686394Y-9092896D01*
X41349920Y-8990828D01*
X41000000Y-8956364D01*
X40650079Y-8990828D01*
X40313605Y-9092896D01*
X40003509Y-9258646D01*
X39731708Y-9481708D01*
X39508646Y-9753510D01*
X39342896Y-10063606D01*
X39240828Y-10400080D01*
X39215000Y-10662318D01*
X39215000Y-11537683D01*
X39240828Y-11799921D01*
X39342896Y-12136395D01*
X39508646Y-12446491D01*
X39731709Y-12718292D01*
X40003510Y-12941354D01*
X40313606Y-13107104D01*
X40650080Y-13209172D01*
X41000000Y-13243636D01*
X41104434Y-13233350D01*
X41636312Y-14173000D01*
X41650658Y-14207338D01*
X41682775Y-14255087D01*
X41687785Y-14263937D01*
X41709118Y-14294250D01*
X41756201Y-14364248D01*
X41763450Y-14371452D01*
X41769344Y-14379828D01*
X41830506Y-14438099D01*
X41890326Y-14497554D01*
X41898846Y-14503209D01*
X41906257Y-14510270D01*
X41953171Y-14540000D01*
X37897645Y-14540000D01*
X37260000Y-13902356D01*
X37260000Y-12960859D01*
X37296491Y-12941354D01*
X37568292Y-12718292D01*
X37791354Y-12446491D01*
X37957104Y-12136395D01*
X38059172Y-11799921D01*
X38085000Y-11537682D01*
X38085000Y-10662317D01*
X38059172Y-10400079D01*
X37957104Y-10063605D01*
X37791354Y-9753509D01*
X37568292Y-9481708D01*
X37296490Y-9258646D01*
X36986394Y-9092896D01*
X36649920Y-8990828D01*
X36300000Y-8956364D01*
X35950079Y-8990828D01*
X35613605Y-9092896D01*
X35303509Y-9258646D01*
X35031708Y-9481708D01*
X34808646Y-9753510D01*
X34642896Y-10063606D01*
X34540828Y-10400080D01*
X34515000Y-10662318D01*
X34515000Y-11537683D01*
X34540828Y-11799921D01*
X34642896Y-12136395D01*
X34808646Y-12446491D01*
X34829290Y-12471646D01*
X34462175Y-12104531D01*
X34432107Y-12067893D01*
X34285928Y-11947927D01*
X34119154Y-11858784D01*
X33938193Y-11803890D01*
X33888072Y-11798954D01*
X33888072Y-11324999D01*
X33871008Y-11151745D01*
X33820472Y-10985149D01*
X33738405Y-10831613D01*
X33627962Y-10697038D01*
X33493387Y-10586595D01*
X33339851Y-10504528D01*
X33173255Y-10453992D01*
X33000001Y-10436928D01*
X31974999Y-10436928D01*
X31801745Y-10453992D01*
X31635149Y-10504528D01*
X31481613Y-10586595D01*
X31347038Y-10697038D01*
X31236595Y-10831613D01*
X31154528Y-10985149D01*
X31103992Y-11151745D01*
X31086928Y-11324999D01*
X31086928Y-14175001D01*
X31103992Y-14348255D01*
X31154528Y-14514851D01*
X31236595Y-14668387D01*
X31347038Y-14802962D01*
X31481613Y-14913405D01*
X31635149Y-14995472D01*
X31801745Y-15046008D01*
X31974999Y-15063072D01*
X33000001Y-15063072D01*
X33173255Y-15046008D01*
X33339851Y-14995472D01*
X33493387Y-14913405D01*
X33627962Y-14802962D01*
X33738405Y-14668387D01*
X33820472Y-14514851D01*
X33871008Y-14348255D01*
X33875369Y-14303973D01*
X33946063Y-14409774D01*
X34090226Y-14553937D01*
X34259744Y-14667205D01*
X34448102Y-14745226D01*
X34648061Y-14785000D01*
X34851939Y-14785000D01*
X35051898Y-14745226D01*
X35240256Y-14667205D01*
X35379891Y-14573904D01*
X35408784Y-14669153D01*
X35497927Y-14835928D01*
X35617893Y-14982107D01*
X35654531Y-15012175D01*
X36507355Y-15865000D01*
X31746287Y-15865000D01*
X31511302Y-15707988D01*
X31122756Y-15547047D01*
X30710279Y-15465000D01*
X30289721Y-15465000D01*
X29877244Y-15547047D01*
X29488698Y-15707988D01*
X29253713Y-15865000D01*
X23938072Y-15865000D01*
X23938072Y-14650000D01*
X23925812Y-14525518D01*
X23889502Y-14405820D01*
X23830537Y-14295506D01*
X23751185Y-14198815D01*
X23654494Y-14119463D01*
X23544180Y-14060498D01*
X23424482Y-14024188D01*
X23300000Y-14011928D01*
X20800000Y-14011928D01*
X20675518Y-14024188D01*
X20555820Y-14060498D01*
X20445506Y-14119463D01*
X20348815Y-14198815D01*
X20269463Y-14295506D01*
X20210498Y-14405820D01*
X20174188Y-14525518D01*
X20161928Y-14650000D01*
X20161928Y-16950000D01*
X20174188Y-17074482D01*
X20210498Y-17194180D01*
X20269463Y-17304494D01*
X20348815Y-17401185D01*
X20445506Y-17480537D01*
X20555820Y-17539502D01*
X20615000Y-17557454D01*
X20615000Y-21000000D01*
X20627201Y-21123882D01*
X20663336Y-21243004D01*
X20722017Y-21352787D01*
X20800987Y-21449013D01*
X21800987Y-22449013D01*
X21897213Y-22527983D01*
X22006996Y-22586664D01*
X22126118Y-22622799D01*
X22250000Y-22635000D01*
X29764895Y-22635000D01*
X29693551Y-22693551D01*
X29551716Y-22866377D01*
X29446324Y-23063554D01*
X29381423Y-23277502D01*
X29365000Y-23444249D01*
X29365001Y-26361928D01*
X27800000Y-26361928D01*
X27675518Y-26374188D01*
X27555820Y-26410498D01*
X27445506Y-26469463D01*
X27348815Y-26548815D01*
X27269463Y-26645506D01*
X27210498Y-26755820D01*
X27174188Y-26875518D01*
X27161928Y-27000000D01*
X27161928Y-29900000D01*
X27174188Y-30024482D01*
X27210498Y-30144180D01*
X27269463Y-30254494D01*
X27348815Y-30351185D01*
X27445506Y-30430537D01*
X27555820Y-30489502D01*
X27675518Y-30525812D01*
X27800000Y-30538072D01*
X28692693Y-30538072D01*
X28841637Y-30760983D01*
X29139017Y-31058363D01*
X29488698Y-31292012D01*
X29877244Y-31452953D01*
X30289721Y-31535000D01*
X30710279Y-31535000D01*
X31122756Y-31452953D01*
X31511302Y-31292012D01*
X31860983Y-31058363D01*
X32158363Y-30760983D01*
X32307307Y-30538072D01*
X33200000Y-30538072D01*
X33324482Y-30525812D01*
X33444180Y-30489502D01*
X33554494Y-30430537D01*
X33651185Y-30351185D01*
X33730537Y-30254494D01*
X33789502Y-30144180D01*
X33825812Y-30024482D01*
X33838072Y-29900000D01*
X33838072Y-27000000D01*
X33825812Y-26875518D01*
X33789502Y-26755820D01*
X33730537Y-26645506D01*
X33651185Y-26548815D01*
X33554494Y-26469463D01*
X33444180Y-26410498D01*
X33324482Y-26374188D01*
X33200000Y-26361928D01*
X31635000Y-26361928D01*
X31635000Y-23444248D01*
X31618577Y-23277501D01*
X31553676Y-23063553D01*
X31448284Y-22866377D01*
X31306449Y-22693551D01*
X31235105Y-22635000D01*
X36740001Y-22635000D01*
X36740000Y-27450392D01*
X36735114Y-27500000D01*
X36754615Y-27697994D01*
X36797787Y-27840313D01*
X36812368Y-27888379D01*
X36906153Y-28063840D01*
X37032367Y-28217633D01*
X37070905Y-28249260D01*
X37440001Y-28618356D01*
X37440000Y-31249607D01*
X37440001Y-31249617D01*
X37440000Y-32732297D01*
X37422038Y-32747038D01*
X37325229Y-32865000D01*
X24470132Y-32865000D01*
X20135000Y-28529869D01*
X20135000Y-26122621D01*
X20244180Y-26089502D01*
X20354494Y-26030537D01*
X20451185Y-25951185D01*
X20530537Y-25854494D01*
X20589502Y-25744180D01*
X20625812Y-25624482D01*
X20638072Y-25500000D01*
X20638072Y-23500000D01*
X20625812Y-23375518D01*
X20589502Y-23255820D01*
X20530537Y-23145506D01*
X20451185Y-23048815D01*
X20354494Y-22969463D01*
X20244180Y-22910498D01*
X20135000Y-22877379D01*
X20135000Y-20955751D01*
X20140491Y-20900000D01*
X20118577Y-20677501D01*
X20053676Y-20463553D01*
X20018670Y-20398061D01*
X19948284Y-20266377D01*
X19806449Y-20093551D01*
X19763140Y-20058008D01*
X18885000Y-19179869D01*
X18885000Y-17588072D01*
X19000000Y-17588072D01*
X19124482Y-17575812D01*
X19244180Y-17539502D01*
X19354494Y-17480537D01*
X19451185Y-17401185D01*
X19530537Y-17304494D01*
X19589502Y-17194180D01*
X19625812Y-17074482D01*
X19638072Y-16950000D01*
X19638072Y-14650000D01*
X19625812Y-14525518D01*
X19589502Y-14405820D01*
X19530537Y-14295506D01*
X19451185Y-14198815D01*
X19354494Y-14119463D01*
X19244180Y-14060498D01*
X19124482Y-14024188D01*
X19000000Y-14011928D01*
X16500000Y-14011928D01*
X16375518Y-14024188D01*
X16255820Y-14060498D01*
X16145506Y-14119463D01*
X16048815Y-14198815D01*
X15969463Y-14295506D01*
X15910498Y-14405820D01*
X15874188Y-14525518D01*
X15861928Y-14650000D01*
X14135000Y-14650000D01*
X14135000Y-14220131D01*
X14970132Y-13385000D01*
X21694249Y-13385000D01*
X21750000Y-13390491D01*
X21805751Y-13385000D01*
X22779869Y-13385000D01*
X22908004Y-13513135D01*
X22943551Y-13556449D01*
X23116377Y-13698284D01*
X23313553Y-13803676D01*
X23527501Y-13868577D01*
X23750000Y-13890491D01*
X23805752Y-13885000D01*
X25111928Y-13885000D01*
X25111928Y-14175001D01*
X25128992Y-14348255D01*
X25179528Y-14514851D01*
X25261595Y-14668387D01*
X25372038Y-14802962D01*
X25506613Y-14913405D01*
X25660149Y-14995472D01*
X25826745Y-15046008D01*
X25999999Y-15063072D01*
X27025001Y-15063072D01*
X27198255Y-15046008D01*
X27364851Y-14995472D01*
X27518387Y-14913405D01*
X27652962Y-14802962D01*
X27763405Y-14668387D01*
X27845472Y-14514851D01*
X27896008Y-14348255D01*
X27913072Y-14175001D01*
X27913072Y-11324999D01*
X27896008Y-11151745D01*
X27845472Y-10985149D01*
X27763405Y-10831613D01*
X27652962Y-10697038D01*
X27518387Y-10586595D01*
X27364851Y-10504528D01*
X27198255Y-10453992D01*
X27025001Y-10436928D01*
X25999999Y-10436928D01*
X25826745Y-10453992D01*
X25660149Y-10504528D01*
X25506613Y-10586595D01*
X25372038Y-10697038D01*
X25261595Y-10831613D01*
X25179528Y-10985149D01*
X25128992Y-11151745D01*
X25111928Y-11324999D01*
X25111928Y-11615000D01*
X24220131Y-11615000D01*
X24091996Y-11486865D01*
X24056449Y-11443551D01*
X23883623Y-11301716D01*
X23686447Y-11196324D01*
X23472499Y-11131423D01*
X23305752Y-11115000D01*
X23305751Y-11115000D01*
X23250000Y-11109509D01*
X23194249Y-11115000D01*
X23040000Y-11115000D01*
X23040000Y-9628957D01*
X23170364Y-9541851D01*
X23446851Y-9265364D01*
X23533957Y-9135000D01*
X26825229Y-9135000D01*
X26922038Y-9252962D01*
X27056613Y-9363405D01*
X27210149Y-9445472D01*
X27376745Y-9496008D01*
X27549999Y-9513072D01*
X28350001Y-9513072D01*
X28523255Y-9496008D01*
X28689851Y-9445472D01*
X28843387Y-9363405D01*
X28977962Y-9252962D01*
X29088405Y-9118387D01*
X29170472Y-8964851D01*
X29221008Y-8798255D01*
X29238072Y-8625001D01*
X29238072Y-7374999D01*
X29221008Y-7201745D01*
X29170472Y-7035149D01*
X29088405Y-6881613D01*
X28977962Y-6747038D01*
X28843387Y-6636595D01*
X28689851Y-6554528D01*
X28523255Y-6503992D01*
X28350001Y-6486928D01*
X27549999Y-6486928D01*
X27376745Y-6503992D01*
X27210149Y-6554528D01*
X27056613Y-6636595D01*
X26922038Y-6747038D01*
X26825229Y-6865000D01*
X23533957Y-6865000D01*
X23446851Y-6734636D01*
X23170364Y-6458149D01*
X22845250Y-6240915D01*
X22484003Y-6091282D01*
X22100505Y-6015000D01*
X21709495Y-6015000D01*
X21325997Y-6091282D01*
X20964750Y-6240915D01*
X20639636Y-6458149D01*
X20363149Y-6734636D01*
X20145915Y-7059750D01*
X19996282Y-7420997D01*
X19920000Y-7804495D01*
X19920000Y-8195505D01*
X19996282Y-8579003D01*
X20145915Y-8940250D01*
X20363149Y-9265364D01*
X20639636Y-9541851D01*
X20770000Y-9628958D01*
X20770001Y-11115000D01*
X14555741Y-11115000D01*
X14499999Y-11109510D01*
X14444257Y-11115000D01*
X14444248Y-11115000D01*
X14277501Y-11131423D01*
X14063553Y-11196324D01*
X13866377Y-11301716D01*
X13693551Y-11443551D01*
X13658011Y-11486857D01*
X12236860Y-12908009D01*
X12193552Y-12943551D01*
X12051717Y-13116377D01*
X12014265Y-13186446D01*
X11946324Y-13313554D01*
X11881423Y-13527502D01*
X11859509Y-13750000D01*
X11865001Y-13805761D01*
X11865001Y-14659043D01*
X11845506Y-14669463D01*
X11748815Y-14748815D01*
X11669463Y-14845506D01*
X11610498Y-14955820D01*
X11574188Y-15075518D01*
X11561928Y-15200000D01*
X7538454Y-15200000D01*
X7535928Y-15197927D01*
X7369154Y-15108784D01*
X7188193Y-15053890D01*
X7047162Y-15040000D01*
X7047152Y-15040000D01*
X7000000Y-15035356D01*
X6952848Y-15040000D01*
X6204677Y-15040000D01*
X6192312Y-15021495D01*
X5978505Y-14807688D01*
X5862237Y-14730000D01*
X5978505Y-14652312D01*
X6192312Y-14438505D01*
X6360299Y-14187095D01*
X6476011Y-13907743D01*
X6535000Y-13611184D01*
X6535000Y-13308816D01*
X6476011Y-13012257D01*
X6360299Y-12732905D01*
X6192312Y-12481495D01*
X5978505Y-12267688D01*
X5727095Y-12099701D01*
X5447743Y-11983989D01*
X5151184Y-11925000D01*
X4848816Y-11925000D01*
X4552257Y-11983989D01*
X4272905Y-12099701D01*
X4021495Y-12267688D01*
X3807688Y-12481495D01*
X3795323Y-12500000D01*
X3587151Y-12500000D01*
X3539999Y-12495356D01*
X3492847Y-12500000D01*
X3492838Y-12500000D01*
X3351807Y-12513890D01*
X3170846Y-12568784D01*
X3062163Y-12626876D01*
X3004071Y-12657927D01*
X2969321Y-12686446D01*
X2857893Y-12777893D01*
X2827825Y-12814531D01*
X2354527Y-13287829D01*
X2317894Y-13317893D01*
X2287830Y-13354526D01*
X2287829Y-13354527D01*
X2197927Y-13464072D01*
X2108784Y-13630847D01*
X2084774Y-13710000D01*
X2053891Y-13811807D01*
X2044599Y-13906153D01*
X2035356Y-14000000D01*
X660000Y-14000000D01*
X660000Y-3273380D01*
X1058380Y-2875000D01*
X29636928Y-2875000D01*
X29636928Y-4125000D01*
X29653992Y-4298254D01*
X29704528Y-4464850D01*
X29786595Y-4618386D01*
X29897038Y-4752962D01*
X29915001Y-4767704D01*
X29915000Y-6877464D01*
X29911595Y-6881613D01*
X29829528Y-7035149D01*
X29778992Y-7201745D01*
X29761928Y-7374999D01*
X29761928Y-8625001D01*
X29778992Y-8798255D01*
X29829528Y-8964851D01*
X29911595Y-9118387D01*
X30022038Y-9252962D01*
X30156613Y-9363405D01*
X30310149Y-9445472D01*
X30476745Y-9496008D01*
X30649999Y-9513072D01*
X31450001Y-9513072D01*
X31623255Y-9496008D01*
X31789851Y-9445472D01*
X31943387Y-9363405D01*
X32077962Y-9252962D01*
X32188405Y-9118387D01*
X32270472Y-8964851D01*
X32321008Y-8798255D01*
X32338072Y-8625001D01*
X32338072Y-7374999D01*
X32321008Y-7201745D01*
X32270472Y-7035149D01*
X32188405Y-6881613D01*
X32185000Y-6877464D01*
X32185000Y-4622535D01*
X32188405Y-4618386D01*
X32270472Y-4464850D01*
X32321008Y-4298254D01*
X32338072Y-4125000D01*
X32338072Y-2875000D01*
X32321008Y-2701746D01*
X32270472Y-2535150D01*
X32188405Y-2381614D01*
X32077962Y-2247038D01*
X31943386Y-2136595D01*
X31789850Y-2054528D01*
X31623254Y-2003992D01*
X31450000Y-1986928D01*
X30525000Y-1986928D01*
X30351746Y-2003992D01*
X30185150Y-2054528D01*
X30031614Y-2136595D01*
X29897038Y-2247038D01*
X29786595Y-2381614D01*
X29704528Y-2535150D01*
X29653992Y-2701746D01*
X29636928Y-2875000D01*
X1058380Y-2875000D01*
X3273381Y-660000D01*
X74726620Y-660000D01*
X77340001Y-3273382D01*
%TA.AperFunction,Conductor*%
D38*
G36*
X77340001Y-3273382D02*
G01*
X77340000Y-36726619D01*
X74726620Y-39340000D01*
X3273381Y-39340000D01*
X660000Y-36726620D01*
X660000Y-14000000D01*
X2035356Y-14000000D01*
X2040001Y-14047162D01*
X2040000Y-23952848D01*
X2035356Y-24000000D01*
X2040000Y-24047152D01*
X2040000Y-24047161D01*
X2053890Y-24188192D01*
X2108784Y-24369153D01*
X2197927Y-24535928D01*
X2317893Y-24682107D01*
X2354531Y-24712175D01*
X2787825Y-25145469D01*
X2817893Y-25182107D01*
X2964072Y-25302073D01*
X3130846Y-25391216D01*
X3311807Y-25446110D01*
X3452838Y-25460000D01*
X3452840Y-25460000D01*
X3500000Y-25464645D01*
X3547160Y-25460000D01*
X3728056Y-25460000D01*
X3729528Y-25464851D01*
X3811595Y-25618387D01*
X3922038Y-25752962D01*
X4056613Y-25863405D01*
X4210149Y-25945472D01*
X4376745Y-25996008D01*
X4549999Y-26013072D01*
X5350001Y-26013072D01*
X5523255Y-25996008D01*
X5689851Y-25945472D01*
X5843387Y-25863405D01*
X5977962Y-25752962D01*
X6088405Y-25618387D01*
X6170472Y-25464851D01*
X6221008Y-25298255D01*
X6238072Y-25125001D01*
X6238072Y-23874999D01*
X6221008Y-23701745D01*
X6170472Y-23535149D01*
X6088405Y-23381613D01*
X5977962Y-23247038D01*
X5843387Y-23136595D01*
X5689851Y-23054528D01*
X5523255Y-23003992D01*
X5350001Y-22986928D01*
X4549999Y-22986928D01*
X4376745Y-23003992D01*
X4210149Y-23054528D01*
X4056613Y-23136595D01*
X3960000Y-23215883D01*
X3960000Y-19670817D01*
X4021495Y-19732312D01*
X4272905Y-19900299D01*
X4552257Y-20016011D01*
X4848816Y-20075000D01*
X5151184Y-20075000D01*
X5447743Y-20016011D01*
X5727095Y-19900299D01*
X5978505Y-19732312D01*
X6192312Y-19518505D01*
X6360299Y-19267095D01*
X6476011Y-18987743D01*
X6535000Y-18691184D01*
X6535000Y-18388816D01*
X6476011Y-18092257D01*
X6360299Y-17812905D01*
X6192312Y-17561495D01*
X5978505Y-17347688D01*
X5862237Y-17270000D01*
X5978505Y-17192312D01*
X6192312Y-16978505D01*
X6204677Y-16960000D01*
X6602356Y-16960000D01*
X7090000Y-17447645D01*
X7090001Y-23191262D01*
X7022038Y-23247038D01*
X6911595Y-23381613D01*
X6829528Y-23535149D01*
X6778992Y-23701745D01*
X6761928Y-23874999D01*
X6761928Y-25125001D01*
X6778992Y-25298255D01*
X6829528Y-25464851D01*
X6911595Y-25618387D01*
X7022038Y-25752962D01*
X7090000Y-25808737D01*
X7090001Y-28498960D01*
X7082795Y-28509744D01*
X7004774Y-28698102D01*
X6965000Y-28898061D01*
X6965000Y-29101939D01*
X7004774Y-29301898D01*
X7082795Y-29490256D01*
X7196063Y-29659774D01*
X7340226Y-29803937D01*
X7509744Y-29917205D01*
X7698102Y-29995226D01*
X7898061Y-30035000D01*
X8101939Y-30035000D01*
X8301898Y-29995226D01*
X8490256Y-29917205D01*
X8659774Y-29803937D01*
X8803937Y-29659774D01*
X8917205Y-29490256D01*
X8995226Y-29301898D01*
X9035000Y-29101939D01*
X9035000Y-28898061D01*
X9010000Y-28772377D01*
X9010000Y-25808737D01*
X9077962Y-25752962D01*
X9188405Y-25618387D01*
X9270472Y-25464851D01*
X9321008Y-25298255D01*
X9338072Y-25125001D01*
X9338072Y-23874999D01*
X9321008Y-23701745D01*
X9270472Y-23535149D01*
X9188405Y-23381613D01*
X9077962Y-23247038D01*
X9010000Y-23191263D01*
X9010000Y-17097151D01*
X9014644Y-17049999D01*
X9010000Y-17002847D01*
X9010000Y-17002838D01*
X8996110Y-16861807D01*
X8941216Y-16680846D01*
X8886680Y-16578817D01*
X8852073Y-16514071D01*
X8762170Y-16404525D01*
X8732107Y-16367893D01*
X8695474Y-16337829D01*
X7712175Y-15354531D01*
X7682107Y-15317893D01*
X7538454Y-15200000D01*
X11561928Y-15200000D01*
X11561928Y-16800000D01*
X11574188Y-16924482D01*
X11610498Y-17044180D01*
X11669463Y-17154494D01*
X11748815Y-17251185D01*
X11845506Y-17330537D01*
X11955820Y-17389502D01*
X12075518Y-17425812D01*
X12200000Y-17438072D01*
X13800000Y-17438072D01*
X13924482Y-17425812D01*
X14044180Y-17389502D01*
X14154494Y-17330537D01*
X14251185Y-17251185D01*
X14330537Y-17154494D01*
X14389502Y-17044180D01*
X14425812Y-16924482D01*
X14438072Y-16800000D01*
X14438072Y-15200000D01*
X14425812Y-15075518D01*
X14389502Y-14955820D01*
X14330537Y-14845506D01*
X14251185Y-14748815D01*
X14154494Y-14669463D01*
X14135000Y-14659043D01*
X14135000Y-14650000D01*
X15861928Y-14650000D01*
X15861928Y-16950000D01*
X15874188Y-17074482D01*
X15910498Y-17194180D01*
X15969463Y-17304494D01*
X16048815Y-17401185D01*
X16145506Y-17480537D01*
X16255820Y-17539502D01*
X16375518Y-17575812D01*
X16500000Y-17588072D01*
X16615000Y-17588072D01*
X16615001Y-19594239D01*
X16609509Y-19650000D01*
X16631423Y-19872498D01*
X16696324Y-20086446D01*
X16735472Y-20159687D01*
X16801717Y-20283623D01*
X16943552Y-20456449D01*
X16986860Y-20491991D01*
X17865000Y-21370132D01*
X17865001Y-22877378D01*
X17755820Y-22910498D01*
X17645506Y-22969463D01*
X17548815Y-23048815D01*
X17469463Y-23145506D01*
X17410498Y-23255820D01*
X17374188Y-23375518D01*
X17361928Y-23500000D01*
X17361928Y-25500000D01*
X17374188Y-25624482D01*
X17410498Y-25744180D01*
X17469463Y-25854494D01*
X17548815Y-25951185D01*
X17645506Y-26030537D01*
X17755820Y-26089502D01*
X17865000Y-26122622D01*
X17865001Y-28944239D01*
X17859509Y-29000000D01*
X17881423Y-29222498D01*
X17946324Y-29436446D01*
X17972773Y-29485928D01*
X18051717Y-29633623D01*
X18193552Y-29806449D01*
X18236860Y-29841991D01*
X23158009Y-34763141D01*
X23193551Y-34806449D01*
X23353398Y-34937632D01*
X23366377Y-34948284D01*
X23563553Y-35053676D01*
X23777501Y-35118577D01*
X24000000Y-35140491D01*
X24055752Y-35135000D01*
X37325229Y-35135000D01*
X37422038Y-35252962D01*
X37556613Y-35363405D01*
X37710149Y-35445472D01*
X37876745Y-35496008D01*
X38049999Y-35513072D01*
X38850001Y-35513072D01*
X39023255Y-35496008D01*
X39189851Y-35445472D01*
X39343387Y-35363405D01*
X39477962Y-35252962D01*
X39588405Y-35118387D01*
X39670472Y-34964851D01*
X39721008Y-34798255D01*
X39738072Y-34625001D01*
X39738072Y-33374999D01*
X39721008Y-33201745D01*
X39670472Y-33035149D01*
X39588405Y-32881613D01*
X39477962Y-32747038D01*
X39460000Y-32732297D01*
X39460000Y-28249597D01*
X39464885Y-28199999D01*
X39460000Y-28150401D01*
X39460000Y-28150392D01*
X39445385Y-28002006D01*
X39387632Y-27811620D01*
X39293847Y-27636160D01*
X39167633Y-27482367D01*
X39129099Y-27450743D01*
X38760000Y-27081645D01*
X38760000Y-22635000D01*
X44500000Y-22635000D01*
X44540000Y-22631060D01*
X44540000Y-23202848D01*
X44538066Y-23222482D01*
X44503745Y-23212071D01*
X44350000Y-23196928D01*
X42700000Y-23196928D01*
X42546255Y-23212071D01*
X42398418Y-23256916D01*
X42317814Y-23300000D01*
X41659721Y-23300000D01*
X41643387Y-23286595D01*
X41489852Y-23204528D01*
X41323256Y-23153992D01*
X41150002Y-23136928D01*
X39849998Y-23136928D01*
X39676744Y-23153992D01*
X39510148Y-23204528D01*
X39356613Y-23286595D01*
X39222038Y-23397038D01*
X39111595Y-23531613D01*
X39029528Y-23685148D01*
X38978992Y-23851744D01*
X38961928Y-24024998D01*
X38961928Y-24850002D01*
X38978992Y-25023256D01*
X39029528Y-25189852D01*
X39111595Y-25343387D01*
X39222038Y-25477962D01*
X39356613Y-25588405D01*
X39510148Y-25670472D01*
X39676744Y-25721008D01*
X39849998Y-25738072D01*
X41150002Y-25738072D01*
X41323256Y-25721008D01*
X41489852Y-25670472D01*
X41643387Y-25588405D01*
X41777962Y-25477962D01*
X41888405Y-25343387D01*
X41970472Y-25189852D01*
X42021008Y-25023256D01*
X42026253Y-24970000D01*
X42317814Y-24970000D01*
X42398418Y-25013084D01*
X42546255Y-25057929D01*
X42700000Y-25073072D01*
X44350000Y-25073072D01*
X44503745Y-25057929D01*
X44651582Y-25013084D01*
X44787829Y-24940258D01*
X44907251Y-24842251D01*
X45005258Y-24722829D01*
X45078084Y-24586582D01*
X45122929Y-24438745D01*
X45138072Y-24285000D01*
X45138072Y-24245716D01*
X45672828Y-24780473D01*
X45702893Y-24817107D01*
X45739526Y-24847171D01*
X45849071Y-24937073D01*
X45932299Y-24981559D01*
X46015846Y-25026216D01*
X46196807Y-25081110D01*
X46337838Y-25095000D01*
X46337847Y-25095000D01*
X46384999Y-25099644D01*
X46432151Y-25095000D01*
X46878968Y-25095000D01*
X46877071Y-25101255D01*
X46861928Y-25255000D01*
X46861928Y-25555000D01*
X46877071Y-25708745D01*
X46921916Y-25856582D01*
X46994742Y-25992829D01*
X47092749Y-26112251D01*
X47212171Y-26210258D01*
X47348418Y-26283084D01*
X47496255Y-26327929D01*
X47590001Y-26337162D01*
X47590001Y-26486928D01*
X47149999Y-26486928D01*
X46976745Y-26503992D01*
X46810149Y-26554528D01*
X46656613Y-26636595D01*
X46522038Y-26747038D01*
X46411595Y-26881613D01*
X46329528Y-27035149D01*
X46278992Y-27201745D01*
X46261928Y-27374999D01*
X46261928Y-28625001D01*
X46278992Y-28798255D01*
X46329528Y-28964851D01*
X46411595Y-29118387D01*
X46522038Y-29252962D01*
X46656613Y-29363405D01*
X46665000Y-29367888D01*
X46665001Y-29632112D01*
X46656613Y-29636595D01*
X46522038Y-29747038D01*
X46411595Y-29881613D01*
X46329528Y-30035149D01*
X46278992Y-30201745D01*
X46261928Y-30374999D01*
X46261928Y-31625001D01*
X46278992Y-31798255D01*
X46329528Y-31964851D01*
X46411595Y-32118387D01*
X46522038Y-32252962D01*
X46656613Y-32363405D01*
X46810149Y-32445472D01*
X46976745Y-32496008D01*
X47017277Y-32500000D01*
X46976745Y-32503992D01*
X46810149Y-32554528D01*
X46656613Y-32636595D01*
X46522038Y-32747038D01*
X46411595Y-32881613D01*
X46329528Y-33035149D01*
X46278992Y-33201745D01*
X46261928Y-33374999D01*
X46261928Y-34625001D01*
X46278992Y-34798255D01*
X46329528Y-34964851D01*
X46409785Y-35115000D01*
X45590215Y-35115000D01*
X45670472Y-34964851D01*
X45721008Y-34798255D01*
X45738072Y-34625001D01*
X45738072Y-33374999D01*
X45721008Y-33201745D01*
X45670472Y-33035149D01*
X45588405Y-32881613D01*
X45477962Y-32747038D01*
X45343387Y-32636595D01*
X45335000Y-32632112D01*
X45335000Y-32367888D01*
X45343387Y-32363405D01*
X45477962Y-32252962D01*
X45588405Y-32118387D01*
X45670472Y-31964851D01*
X45721008Y-31798255D01*
X45738072Y-31625001D01*
X45738072Y-30374999D01*
X45721008Y-30201745D01*
X45670472Y-30035149D01*
X45588405Y-29881613D01*
X45477962Y-29747038D01*
X45343387Y-29636595D01*
X45189851Y-29554528D01*
X45023255Y-29503992D01*
X44850001Y-29486928D01*
X44049999Y-29486928D01*
X43876745Y-29503992D01*
X43710149Y-29554528D01*
X43556613Y-29636595D01*
X43422038Y-29747038D01*
X43311595Y-29881613D01*
X43229528Y-30035149D01*
X43178992Y-30201745D01*
X43161928Y-30374999D01*
X43161928Y-31625001D01*
X43178992Y-31798255D01*
X43229528Y-31964851D01*
X43311595Y-32118387D01*
X43422038Y-32252962D01*
X43556613Y-32363405D01*
X43565000Y-32367888D01*
X43565001Y-32632112D01*
X43556613Y-32636595D01*
X43422038Y-32747038D01*
X43311595Y-32881613D01*
X43229528Y-33035149D01*
X43178992Y-33201745D01*
X43161928Y-33374999D01*
X43161928Y-34625001D01*
X43178992Y-34798255D01*
X43229528Y-34964851D01*
X43309785Y-35115000D01*
X42690215Y-35115000D01*
X42770472Y-34964851D01*
X42821008Y-34798255D01*
X42838072Y-34625001D01*
X42838072Y-33374999D01*
X42821008Y-33201745D01*
X42770472Y-33035149D01*
X42688405Y-32881613D01*
X42577962Y-32747038D01*
X42443387Y-32636595D01*
X42289851Y-32554528D01*
X42123255Y-32503992D01*
X41950001Y-32486928D01*
X41149999Y-32486928D01*
X40976745Y-32503992D01*
X40810149Y-32554528D01*
X40656613Y-32636595D01*
X40522038Y-32747038D01*
X40411595Y-32881613D01*
X40329528Y-33035149D01*
X40278992Y-33201745D01*
X40261928Y-33374999D01*
X40261928Y-34625001D01*
X40278992Y-34798255D01*
X40329528Y-34964851D01*
X40411595Y-35118387D01*
X40522038Y-35252962D01*
X40656613Y-35363405D01*
X40665001Y-35367888D01*
X40665001Y-35506521D01*
X40660719Y-35550000D01*
X40677805Y-35723490D01*
X40728412Y-35890313D01*
X40810590Y-36044059D01*
X40893468Y-36145046D01*
X40893471Y-36145049D01*
X40921184Y-36178817D01*
X40954952Y-36206530D01*
X40993465Y-36245043D01*
X41004774Y-36301898D01*
X41082795Y-36490256D01*
X41196063Y-36659774D01*
X41340226Y-36803937D01*
X41509744Y-36917205D01*
X41698102Y-36995226D01*
X41898061Y-37035000D01*
X42101939Y-37035000D01*
X42301898Y-36995226D01*
X42490256Y-36917205D01*
X42538454Y-36885000D01*
X46956531Y-36885000D01*
X47000000Y-36889281D01*
X47043469Y-36885000D01*
X47043477Y-36885000D01*
X47173490Y-36872195D01*
X47340313Y-36821589D01*
X47494059Y-36739411D01*
X47628817Y-36628817D01*
X47656534Y-36595044D01*
X48145045Y-36106533D01*
X48178817Y-36078817D01*
X48289411Y-35944059D01*
X48371589Y-35790313D01*
X48422195Y-35623490D01*
X48435000Y-35493477D01*
X48435000Y-35493467D01*
X48439281Y-35450001D01*
X48435000Y-35406535D01*
X48435000Y-35367888D01*
X48443387Y-35363405D01*
X48577962Y-35252962D01*
X48688405Y-35118387D01*
X48770472Y-34964851D01*
X48821008Y-34798255D01*
X48838072Y-34625001D01*
X48838072Y-33374999D01*
X48821008Y-33201745D01*
X48770472Y-33035149D01*
X48688405Y-32881613D01*
X48577962Y-32747038D01*
X48443387Y-32636595D01*
X48289851Y-32554528D01*
X48123255Y-32503992D01*
X48082723Y-32500000D01*
X48123255Y-32496008D01*
X48289851Y-32445472D01*
X48443387Y-32363405D01*
X48577962Y-32252962D01*
X48688405Y-32118387D01*
X48770472Y-31964851D01*
X48771944Y-31960000D01*
X49102356Y-31960000D01*
X49290000Y-32147645D01*
X49290001Y-35352354D01*
X47602356Y-37040000D01*
X36386940Y-37040000D01*
X36301898Y-37004774D01*
X36101939Y-36965000D01*
X35898061Y-36965000D01*
X35698102Y-37004774D01*
X35509744Y-37082795D01*
X35340226Y-37196063D01*
X35196063Y-37340226D01*
X35082795Y-37509744D01*
X35004774Y-37698102D01*
X34965000Y-37898061D01*
X34965000Y-38101939D01*
X35004774Y-38301898D01*
X35082795Y-38490256D01*
X35196063Y-38659774D01*
X35340226Y-38803937D01*
X35509744Y-38917205D01*
X35698102Y-38995226D01*
X35898061Y-39035000D01*
X36101939Y-39035000D01*
X36301898Y-38995226D01*
X36386940Y-38960000D01*
X47952848Y-38960000D01*
X48000000Y-38964644D01*
X48047152Y-38960000D01*
X48047162Y-38960000D01*
X48188193Y-38946110D01*
X48369154Y-38891216D01*
X48535928Y-38802073D01*
X48682107Y-38682107D01*
X48712175Y-38645469D01*
X50895474Y-36462171D01*
X50932107Y-36432107D01*
X51052073Y-36285928D01*
X51141216Y-36119154D01*
X51196110Y-35938193D01*
X51210000Y-35797162D01*
X51210000Y-35797160D01*
X51214645Y-35750000D01*
X51210000Y-35702840D01*
X51210000Y-31797151D01*
X51214644Y-31749999D01*
X51210000Y-31702847D01*
X51210000Y-31702838D01*
X51196110Y-31561807D01*
X51141216Y-31380846D01*
X51136268Y-31371589D01*
X51052073Y-31214071D01*
X50962170Y-31104525D01*
X50932107Y-31067893D01*
X50895474Y-31037829D01*
X50212175Y-30354531D01*
X50182107Y-30317893D01*
X50035928Y-30197927D01*
X49869154Y-30108784D01*
X49688193Y-30053890D01*
X49547162Y-30040000D01*
X49547152Y-30040000D01*
X49500000Y-30035356D01*
X49452848Y-30040000D01*
X48771944Y-30040000D01*
X48770472Y-30035149D01*
X48688405Y-29881613D01*
X48577962Y-29747038D01*
X48443387Y-29636595D01*
X48435000Y-29632112D01*
X48435000Y-29367888D01*
X48443387Y-29363405D01*
X48577962Y-29252962D01*
X48688405Y-29118387D01*
X48770472Y-28964851D01*
X48821008Y-28798255D01*
X48838072Y-28625001D01*
X48838072Y-27913507D01*
X49070049Y-27681530D01*
X49103817Y-27653817D01*
X49171301Y-27571589D01*
X49214411Y-27519059D01*
X49296589Y-27365314D01*
X49347195Y-27198490D01*
X49348512Y-27185114D01*
X49360000Y-27068477D01*
X49360000Y-27068469D01*
X49364281Y-27025000D01*
X49360000Y-26981531D01*
X49360000Y-26337162D01*
X49453745Y-26327929D01*
X49601582Y-26283084D01*
X49737829Y-26210258D01*
X49857251Y-26112251D01*
X49955258Y-25992829D01*
X50028084Y-25856582D01*
X50072929Y-25708745D01*
X50088072Y-25555000D01*
X50088072Y-25255000D01*
X50072929Y-25101255D01*
X50071032Y-25095000D01*
X50486928Y-25095000D01*
X50486928Y-25450001D01*
X50503992Y-25623255D01*
X50554528Y-25789851D01*
X50636595Y-25943387D01*
X50747038Y-26077962D01*
X50881613Y-26188405D01*
X51035149Y-26270472D01*
X51115001Y-26294695D01*
X51115001Y-26706521D01*
X51110719Y-26750000D01*
X51127805Y-26923490D01*
X51178412Y-27090313D01*
X51260590Y-27244059D01*
X51343468Y-27345046D01*
X51343471Y-27345049D01*
X51371184Y-27378817D01*
X51404951Y-27406529D01*
X52093470Y-28095049D01*
X52121183Y-28128817D01*
X52154951Y-28156530D01*
X52154953Y-28156532D01*
X52181613Y-28178411D01*
X52255941Y-28239411D01*
X52409687Y-28321589D01*
X52576510Y-28372195D01*
X52706523Y-28385000D01*
X52706533Y-28385000D01*
X52749999Y-28389281D01*
X52793465Y-28385000D01*
X53570299Y-28385000D01*
X53574188Y-28424482D01*
X53610498Y-28544180D01*
X53669463Y-28654494D01*
X53748815Y-28751185D01*
X53845506Y-28830537D01*
X53955820Y-28889502D01*
X54075518Y-28925812D01*
X54200000Y-28938072D01*
X55800000Y-28938072D01*
X55924482Y-28925812D01*
X56044180Y-28889502D01*
X56154494Y-28830537D01*
X56251185Y-28751185D01*
X56330537Y-28654494D01*
X56389502Y-28544180D01*
X56425812Y-28424482D01*
X56438072Y-28300000D01*
X56438072Y-26700000D01*
X56425812Y-26575518D01*
X56389502Y-26455820D01*
X56330537Y-26345506D01*
X56251185Y-26248815D01*
X56154494Y-26169463D01*
X56044180Y-26110498D01*
X55924482Y-26074188D01*
X55800000Y-26061928D01*
X54200000Y-26061928D01*
X54075518Y-26074188D01*
X53955820Y-26110498D01*
X53845506Y-26169463D01*
X53748815Y-26248815D01*
X53669463Y-26345506D01*
X53610498Y-26455820D01*
X53574188Y-26575518D01*
X53570299Y-26615000D01*
X53116579Y-26615000D01*
X52885000Y-26383422D01*
X52885000Y-26294694D01*
X52964851Y-26270472D01*
X53118387Y-26188405D01*
X53252962Y-26077962D01*
X53363405Y-25943387D01*
X53445472Y-25789851D01*
X53487238Y-25652167D01*
X53509744Y-25667205D01*
X53698102Y-25745226D01*
X53898061Y-25785000D01*
X54101939Y-25785000D01*
X54301898Y-25745226D01*
X54386940Y-25710000D01*
X55720482Y-25710000D01*
X55745506Y-25730537D01*
X55855820Y-25789502D01*
X55975518Y-25825812D01*
X56100000Y-25838072D01*
X56900000Y-25838072D01*
X57024482Y-25825812D01*
X57144180Y-25789502D01*
X57254494Y-25730537D01*
X57351185Y-25651185D01*
X57364468Y-25635000D01*
X61135532Y-25635000D01*
X61148815Y-25651185D01*
X61245506Y-25730537D01*
X61355820Y-25789502D01*
X61475518Y-25825812D01*
X61600000Y-25838072D01*
X62400000Y-25838072D01*
X62524482Y-25825812D01*
X62644180Y-25789502D01*
X62754494Y-25730537D01*
X62851185Y-25651185D01*
X62930537Y-25554494D01*
X62989502Y-25444180D01*
X63025812Y-25324482D01*
X63038072Y-25200000D01*
X63038072Y-24300000D01*
X63025812Y-24175518D01*
X62989502Y-24055820D01*
X62930537Y-23945506D01*
X62851185Y-23848815D01*
X62838095Y-23838072D01*
X63350000Y-23838072D01*
X63474482Y-23825812D01*
X63594180Y-23789502D01*
X63704494Y-23730537D01*
X63717931Y-23719510D01*
X63865001Y-23866580D01*
X63865000Y-28883421D01*
X63583422Y-29165000D01*
X62929373Y-29165000D01*
X62874180Y-29135498D01*
X62754482Y-29099188D01*
X62630000Y-29086928D01*
X61570000Y-29086928D01*
X61445518Y-29099188D01*
X61325820Y-29135498D01*
X61215506Y-29194463D01*
X61118815Y-29273815D01*
X61039463Y-29370506D01*
X61000000Y-29444335D01*
X60960537Y-29370506D01*
X60881185Y-29273815D01*
X60784494Y-29194463D01*
X60674180Y-29135498D01*
X60554482Y-29099188D01*
X60430000Y-29086928D01*
X59370000Y-29086928D01*
X59245518Y-29099188D01*
X59125820Y-29135498D01*
X59070627Y-29165000D01*
X58243465Y-29165000D01*
X58199999Y-29160719D01*
X58156533Y-29165000D01*
X58156523Y-29165000D01*
X58026510Y-29177805D01*
X57859687Y-29228411D01*
X57705941Y-29310589D01*
X57705939Y-29310590D01*
X57705940Y-29310590D01*
X57604953Y-29393468D01*
X57604951Y-29393470D01*
X57571183Y-29421183D01*
X57543470Y-29454951D01*
X56904951Y-30093471D01*
X56871184Y-30121183D01*
X56843471Y-30154951D01*
X56843468Y-30154954D01*
X56798550Y-30209687D01*
X56760590Y-30255941D01*
X56678412Y-30409687D01*
X56627805Y-30576510D01*
X56615000Y-30706523D01*
X56615000Y-30706531D01*
X56610719Y-30750000D01*
X56615000Y-30793469D01*
X56615000Y-30961546D01*
X56582795Y-31009744D01*
X56504774Y-31198102D01*
X56465000Y-31398061D01*
X56465000Y-31601939D01*
X56504774Y-31801898D01*
X56582795Y-31990256D01*
X56615000Y-32038455D01*
X56615000Y-32705306D01*
X56535150Y-32729528D01*
X56381614Y-32811595D01*
X56247038Y-32922038D01*
X56136595Y-33056614D01*
X56054528Y-33210150D01*
X56003992Y-33376746D01*
X55986928Y-33550000D01*
X55986928Y-34350000D01*
X56003992Y-34523254D01*
X56054528Y-34689850D01*
X56136595Y-34843386D01*
X56247038Y-34977962D01*
X56381614Y-35088405D01*
X56535150Y-35170472D01*
X56701746Y-35221008D01*
X56875000Y-35238072D01*
X58125000Y-35238072D01*
X58298254Y-35221008D01*
X58464850Y-35170472D01*
X58618386Y-35088405D01*
X58752962Y-34977962D01*
X58863405Y-34843386D01*
X58945472Y-34689850D01*
X58996008Y-34523254D01*
X59013072Y-34350000D01*
X59013072Y-33550000D01*
X58996008Y-33376746D01*
X58945472Y-33210150D01*
X58863405Y-33056614D01*
X58752962Y-32922038D01*
X58618386Y-32811595D01*
X58464850Y-32729528D01*
X58385000Y-32705306D01*
X58385000Y-32038454D01*
X58417205Y-31990256D01*
X58495226Y-31801898D01*
X58535000Y-31601939D01*
X58535000Y-31398061D01*
X58495226Y-31198102D01*
X58439064Y-31062515D01*
X58566579Y-30935000D01*
X59070627Y-30935000D01*
X59125820Y-30964502D01*
X59242841Y-31000000D01*
X59125820Y-31035498D01*
X59015506Y-31094463D01*
X58918815Y-31173815D01*
X58839463Y-31270506D01*
X58780498Y-31380820D01*
X58744188Y-31500518D01*
X58731928Y-31625000D01*
X58731928Y-32275000D01*
X58744188Y-32399482D01*
X58780498Y-32519180D01*
X58839463Y-32629494D01*
X58918815Y-32726185D01*
X59015506Y-32805537D01*
X59125820Y-32864502D01*
X59245518Y-32900812D01*
X59370000Y-32913072D01*
X60430000Y-32913072D01*
X60554482Y-32900812D01*
X60674180Y-32864502D01*
X60784494Y-32805537D01*
X60881185Y-32726185D01*
X60960537Y-32629494D01*
X61000000Y-32555665D01*
X61039463Y-32629494D01*
X61118815Y-32726185D01*
X61215506Y-32805537D01*
X61325820Y-32864502D01*
X61445518Y-32900812D01*
X61570000Y-32913072D01*
X62630000Y-32913072D01*
X62754482Y-32900812D01*
X62874180Y-32864502D01*
X62984494Y-32805537D01*
X63081185Y-32726185D01*
X63160537Y-32629494D01*
X63219502Y-32519180D01*
X63255812Y-32399482D01*
X63268072Y-32275000D01*
X63268072Y-32009144D01*
X63398061Y-32035000D01*
X63601939Y-32035000D01*
X63801898Y-31995226D01*
X63865001Y-31969088D01*
X63865000Y-32705306D01*
X63785150Y-32729528D01*
X63631614Y-32811595D01*
X63497038Y-32922038D01*
X63386595Y-33056614D01*
X63304528Y-33210150D01*
X63253992Y-33376746D01*
X63236928Y-33550000D01*
X63236928Y-34350000D01*
X63253992Y-34523254D01*
X63304528Y-34689850D01*
X63386595Y-34843386D01*
X63497038Y-34977962D01*
X63631614Y-35088405D01*
X63785150Y-35170472D01*
X63951746Y-35221008D01*
X64125000Y-35238072D01*
X65375000Y-35238072D01*
X65548254Y-35221008D01*
X65714850Y-35170472D01*
X65868386Y-35088405D01*
X66002962Y-34977962D01*
X66113405Y-34843386D01*
X66195472Y-34689850D01*
X66246008Y-34523254D01*
X66263072Y-34350000D01*
X66263072Y-33550000D01*
X66246008Y-33376746D01*
X66195472Y-33210150D01*
X66113405Y-33056614D01*
X66002962Y-32922038D01*
X65868386Y-32811595D01*
X65714850Y-32729528D01*
X65635000Y-32705306D01*
X65635000Y-32583854D01*
X65759744Y-32667205D01*
X65948102Y-32745226D01*
X66148061Y-32785000D01*
X66351939Y-32785000D01*
X66551898Y-32745226D01*
X66740256Y-32667205D01*
X66909774Y-32553937D01*
X67053937Y-32409774D01*
X67167205Y-32240256D01*
X67245226Y-32051898D01*
X67285000Y-31851939D01*
X67285000Y-31648061D01*
X67245226Y-31448102D01*
X67167205Y-31259744D01*
X67053937Y-31090226D01*
X66909774Y-30946063D01*
X66740256Y-30832795D01*
X66635000Y-30789196D01*
X66635000Y-28697208D01*
X66635271Y-28698102D01*
X66678411Y-28840312D01*
X66760589Y-28994058D01*
X66871183Y-29128817D01*
X66904956Y-29156534D01*
X67343466Y-29595044D01*
X67371183Y-29628817D01*
X67505941Y-29739411D01*
X67659687Y-29821589D01*
X67826510Y-29872195D01*
X67956523Y-29885000D01*
X67956531Y-29885000D01*
X68000000Y-29889281D01*
X68043469Y-29885000D01*
X69531822Y-29885000D01*
X69503992Y-29976745D01*
X69486928Y-30149999D01*
X69486928Y-30950001D01*
X69503992Y-31123255D01*
X69554528Y-31289851D01*
X69636595Y-31443387D01*
X69747038Y-31577962D01*
X69881613Y-31688405D01*
X70035149Y-31770472D01*
X70201745Y-31821008D01*
X70374999Y-31838072D01*
X71625001Y-31838072D01*
X71798255Y-31821008D01*
X71964851Y-31770472D01*
X72118387Y-31688405D01*
X72252962Y-31577962D01*
X72363405Y-31443387D01*
X72367888Y-31435000D01*
X73632113Y-31435000D01*
X73636595Y-31443386D01*
X73747038Y-31577962D01*
X73881614Y-31688405D01*
X74035150Y-31770472D01*
X74201746Y-31821008D01*
X74375000Y-31838072D01*
X75625000Y-31838072D01*
X75798254Y-31821008D01*
X75964850Y-31770472D01*
X76118386Y-31688405D01*
X76252962Y-31577962D01*
X76363405Y-31443386D01*
X76445472Y-31289850D01*
X76496008Y-31123254D01*
X76513072Y-30950000D01*
X76513072Y-30025000D01*
X76496008Y-29851746D01*
X76445472Y-29685150D01*
X76363405Y-29531614D01*
X76252962Y-29397038D01*
X76118386Y-29286595D01*
X75964850Y-29204528D01*
X75798254Y-29153992D01*
X75625000Y-29136928D01*
X74614650Y-29136928D01*
X74888507Y-28863072D01*
X75625000Y-28863072D01*
X75798254Y-28846008D01*
X75964850Y-28795472D01*
X76118386Y-28713405D01*
X76252962Y-28602962D01*
X76363405Y-28468386D01*
X76445472Y-28314850D01*
X76496008Y-28148254D01*
X76513072Y-27975000D01*
X76513072Y-27050000D01*
X76496008Y-26876746D01*
X76445472Y-26710150D01*
X76363405Y-26556614D01*
X76252962Y-26422038D01*
X76118386Y-26311595D01*
X75964850Y-26229528D01*
X75798254Y-26178992D01*
X75625000Y-26161928D01*
X74375000Y-26161928D01*
X74201746Y-26178992D01*
X74035150Y-26229528D01*
X73881614Y-26311595D01*
X73747038Y-26422038D01*
X73636595Y-26556614D01*
X73554528Y-26710150D01*
X73503992Y-26876746D01*
X73486928Y-27050000D01*
X73486928Y-27761494D01*
X73133422Y-28115000D01*
X72468178Y-28115000D01*
X72496008Y-28023255D01*
X72513072Y-27850001D01*
X72513072Y-27049999D01*
X72496008Y-26876745D01*
X72445472Y-26710149D01*
X72363405Y-26556613D01*
X72252962Y-26422038D01*
X72118387Y-26311595D01*
X71964851Y-26229528D01*
X71798255Y-26178992D01*
X71625001Y-26161928D01*
X70374999Y-26161928D01*
X70201745Y-26178992D01*
X70035149Y-26229528D01*
X69885000Y-26309785D01*
X69885000Y-25690215D01*
X70035149Y-25770472D01*
X70201745Y-25821008D01*
X70374999Y-25838072D01*
X71625001Y-25838072D01*
X71798255Y-25821008D01*
X71964851Y-25770472D01*
X72118387Y-25688405D01*
X72252962Y-25577962D01*
X72363405Y-25443387D01*
X72367888Y-25435000D01*
X73632113Y-25435000D01*
X73636595Y-25443386D01*
X73747038Y-25577962D01*
X73881614Y-25688405D01*
X74035150Y-25770472D01*
X74201746Y-25821008D01*
X74375000Y-25838072D01*
X75625000Y-25838072D01*
X75798254Y-25821008D01*
X75964850Y-25770472D01*
X76118386Y-25688405D01*
X76252962Y-25577962D01*
X76363405Y-25443386D01*
X76445472Y-25289850D01*
X76496008Y-25123254D01*
X76513072Y-24950000D01*
X76513072Y-24025000D01*
X76496008Y-23851746D01*
X76445472Y-23685150D01*
X76363405Y-23531614D01*
X76252962Y-23397038D01*
X76118386Y-23286595D01*
X75964850Y-23204528D01*
X75798254Y-23153992D01*
X75625000Y-23136928D01*
X74375000Y-23136928D01*
X74201746Y-23153992D01*
X74035150Y-23204528D01*
X73881614Y-23286595D01*
X73747038Y-23397038D01*
X73636595Y-23531614D01*
X73565298Y-23665000D01*
X72367888Y-23665000D01*
X72363405Y-23656613D01*
X72252962Y-23522038D01*
X72118387Y-23411595D01*
X71964851Y-23329528D01*
X71798255Y-23278992D01*
X71625001Y-23261928D01*
X70374999Y-23261928D01*
X70201745Y-23278992D01*
X70035149Y-23329528D01*
X69885000Y-23409785D01*
X69885000Y-22590215D01*
X70035149Y-22670472D01*
X70201745Y-22721008D01*
X70374999Y-22738072D01*
X71625001Y-22738072D01*
X71798255Y-22721008D01*
X71964851Y-22670472D01*
X72118387Y-22588405D01*
X72252962Y-22477962D01*
X72363405Y-22343387D01*
X72445472Y-22189851D01*
X72496008Y-22023255D01*
X72513072Y-21850001D01*
X72513072Y-21050000D01*
X73486928Y-21050000D01*
X73486928Y-21975000D01*
X73503992Y-22148254D01*
X73554528Y-22314850D01*
X73636595Y-22468386D01*
X73747038Y-22602962D01*
X73881614Y-22713405D01*
X74035150Y-22795472D01*
X74201746Y-22846008D01*
X74375000Y-22863072D01*
X75625000Y-22863072D01*
X75798254Y-22846008D01*
X75964850Y-22795472D01*
X76118386Y-22713405D01*
X76252962Y-22602962D01*
X76363405Y-22468386D01*
X76445472Y-22314850D01*
X76496008Y-22148254D01*
X76513072Y-21975000D01*
X76513072Y-21050000D01*
X76496008Y-20876746D01*
X76445472Y-20710150D01*
X76363405Y-20556614D01*
X76252962Y-20422038D01*
X76118386Y-20311595D01*
X75964850Y-20229528D01*
X75885000Y-20205306D01*
X75885000Y-19538454D01*
X75917205Y-19490256D01*
X75995226Y-19301898D01*
X76035000Y-19101939D01*
X76035000Y-18898061D01*
X75995226Y-18698102D01*
X75917205Y-18509744D01*
X75803937Y-18340226D01*
X75659774Y-18196063D01*
X75490256Y-18082795D01*
X75301898Y-18004774D01*
X75101939Y-17965000D01*
X74898061Y-17965000D01*
X74698102Y-18004774D01*
X74509744Y-18082795D01*
X74340226Y-18196063D01*
X74196063Y-18340226D01*
X74082795Y-18509744D01*
X74004774Y-18698102D01*
X73965000Y-18898061D01*
X73965000Y-19101939D01*
X74004774Y-19301898D01*
X74082795Y-19490256D01*
X74115000Y-19538455D01*
X74115000Y-20205306D01*
X74035150Y-20229528D01*
X73881614Y-20311595D01*
X73747038Y-20422038D01*
X73636595Y-20556614D01*
X73554528Y-20710150D01*
X73503992Y-20876746D01*
X73486928Y-21050000D01*
X72513072Y-21050000D01*
X72513072Y-21049999D01*
X72496008Y-20876745D01*
X72445472Y-20710149D01*
X72363405Y-20556613D01*
X72252962Y-20422038D01*
X72118387Y-20311595D01*
X72002126Y-20249452D01*
X73095049Y-19156530D01*
X73128817Y-19128817D01*
X73157244Y-19094180D01*
X73239410Y-18994060D01*
X73239411Y-18994059D01*
X73321589Y-18840313D01*
X73372195Y-18673490D01*
X73385000Y-18543477D01*
X73385000Y-18543467D01*
X73389281Y-18500001D01*
X73385000Y-18456535D01*
X73385000Y-10043469D01*
X73389281Y-10000000D01*
X73385000Y-9956531D01*
X73385000Y-9956523D01*
X73372195Y-9826510D01*
X73351742Y-9759085D01*
X73321589Y-9659686D01*
X73239411Y-9505941D01*
X73156532Y-9404953D01*
X73156530Y-9404951D01*
X73128817Y-9371183D01*
X73095050Y-9343471D01*
X72156534Y-8404956D01*
X72128817Y-8371183D01*
X71994059Y-8260589D01*
X71840313Y-8178411D01*
X71673490Y-8127805D01*
X71543477Y-8115000D01*
X71543469Y-8115000D01*
X71500000Y-8110719D01*
X71456531Y-8115000D01*
X68534625Y-8115000D01*
X68521008Y-7976744D01*
X68470472Y-7810148D01*
X68388405Y-7656613D01*
X68277962Y-7522038D01*
X68143387Y-7411595D01*
X67989852Y-7329528D01*
X67823256Y-7278992D01*
X67650002Y-7261928D01*
X66349998Y-7261928D01*
X66176744Y-7278992D01*
X66010148Y-7329528D01*
X65856613Y-7411595D01*
X65722038Y-7522038D01*
X65611595Y-7656613D01*
X65529528Y-7810148D01*
X65478992Y-7976744D01*
X65465375Y-8115000D01*
X63043466Y-8115000D01*
X62999999Y-8110719D01*
X62956533Y-8115000D01*
X62956523Y-8115000D01*
X62826510Y-8127805D01*
X62659687Y-8178411D01*
X62505941Y-8260589D01*
X62371183Y-8371183D01*
X62343466Y-8404956D01*
X62038422Y-8710000D01*
X61578783Y-8710000D01*
X61453745Y-8672071D01*
X61310000Y-8657913D01*
X61310000Y-8516018D01*
X61314040Y-8475000D01*
X61297918Y-8311311D01*
X61250172Y-8153913D01*
X61172636Y-8008854D01*
X61094439Y-7913570D01*
X61094437Y-7913568D01*
X61068291Y-7881709D01*
X61036433Y-7855564D01*
X60324092Y-7143225D01*
X60295226Y-6998102D01*
X60217205Y-6809744D01*
X60135000Y-6686715D01*
X60135000Y-5656192D01*
X60138072Y-5625000D01*
X60138072Y-4375000D01*
X60125812Y-4250518D01*
X60089502Y-4130820D01*
X60030537Y-4020506D01*
X59951185Y-3923815D01*
X59854494Y-3844463D01*
X59744180Y-3785498D01*
X59624482Y-3749188D01*
X59500000Y-3736928D01*
X59100000Y-3736928D01*
X58975518Y-3749188D01*
X58975000Y-3749345D01*
X58974482Y-3749188D01*
X58850000Y-3736928D01*
X58450000Y-3736928D01*
X58325518Y-3749188D01*
X58325000Y-3749345D01*
X58324482Y-3749188D01*
X58200000Y-3736928D01*
X57800000Y-3736928D01*
X57675518Y-3749188D01*
X57675000Y-3749345D01*
X57674482Y-3749188D01*
X57550000Y-3736928D01*
X57150000Y-3736928D01*
X57025518Y-3749188D01*
X56905820Y-3785498D01*
X56795506Y-3844463D01*
X56698815Y-3923815D01*
X56619463Y-4020506D01*
X56560498Y-4130820D01*
X56524188Y-4250518D01*
X56511928Y-4375000D01*
X56511928Y-5625000D01*
X56524188Y-5749482D01*
X56560498Y-5869180D01*
X56619463Y-5979494D01*
X56698815Y-6076185D01*
X56795506Y-6155537D01*
X56905820Y-6214502D01*
X57025518Y-6250812D01*
X57150000Y-6263072D01*
X57550000Y-6263072D01*
X57674482Y-6250812D01*
X57675000Y-6250655D01*
X57675518Y-6250812D01*
X57800000Y-6263072D01*
X58200000Y-6263072D01*
X58324482Y-6250812D01*
X58325000Y-6250655D01*
X58325518Y-6250812D01*
X58450000Y-6263072D01*
X58465000Y-6263072D01*
X58465001Y-6686714D01*
X58382795Y-6809744D01*
X58304774Y-6998102D01*
X58265000Y-7198061D01*
X58265000Y-7401939D01*
X58304774Y-7601898D01*
X58382795Y-7790256D01*
X58496063Y-7959774D01*
X58640226Y-8103937D01*
X58809744Y-8217205D01*
X58998102Y-8295226D01*
X59143225Y-8324092D01*
X59492379Y-8673247D01*
X59348418Y-8716916D01*
X59212171Y-8789742D01*
X59092749Y-8887749D01*
X58994742Y-9007171D01*
X58921916Y-9143418D01*
X58877071Y-9291255D01*
X58861928Y-9445000D01*
X58861928Y-9745000D01*
X58877071Y-9898745D01*
X58921916Y-10046582D01*
X58994742Y-10182829D01*
X59033454Y-10230000D01*
X58994742Y-10277171D01*
X58921916Y-10413418D01*
X58877071Y-10561255D01*
X58861928Y-10715000D01*
X58861928Y-11015000D01*
X58877071Y-11168745D01*
X58921916Y-11316582D01*
X58994742Y-11452829D01*
X59033454Y-11500000D01*
X58994742Y-11547171D01*
X58921916Y-11683418D01*
X58877071Y-11831255D01*
X58861928Y-11985000D01*
X58861928Y-12285000D01*
X58877071Y-12438745D01*
X58921916Y-12586582D01*
X58994742Y-12722829D01*
X59033454Y-12770000D01*
X58994742Y-12817171D01*
X58921916Y-12953418D01*
X58877071Y-13101255D01*
X58861928Y-13255000D01*
X58861928Y-13555000D01*
X58877071Y-13708745D01*
X58886552Y-13740000D01*
X58799597Y-13740000D01*
X58749999Y-13735115D01*
X58700401Y-13740000D01*
X58700392Y-13740000D01*
X58552006Y-13754615D01*
X58361620Y-13812368D01*
X58186160Y-13906153D01*
X58032367Y-14032367D01*
X58000743Y-14070901D01*
X57370901Y-14700744D01*
X57332368Y-14732367D01*
X57300745Y-14770900D01*
X57300744Y-14770901D01*
X57206154Y-14886160D01*
X57112368Y-15061621D01*
X57054615Y-15252006D01*
X57035114Y-15450000D01*
X57040001Y-15499617D01*
X57040000Y-17918833D01*
X56989852Y-17892028D01*
X56823256Y-17841492D01*
X56650002Y-17824428D01*
X55349998Y-17824428D01*
X55176744Y-17841492D01*
X55010148Y-17892028D01*
X54856613Y-17974095D01*
X54722038Y-18084538D01*
X54611595Y-18219113D01*
X54529528Y-18372648D01*
X54478992Y-18539244D01*
X54461928Y-18712498D01*
X54461928Y-19537502D01*
X54478992Y-19710756D01*
X54529528Y-19877352D01*
X54611595Y-20030887D01*
X54722038Y-20165462D01*
X54803760Y-20232529D01*
X54696063Y-20340226D01*
X54582795Y-20509744D01*
X54504774Y-20698102D01*
X54465000Y-20898061D01*
X54465000Y-21101939D01*
X54504774Y-21301898D01*
X54582795Y-21490256D01*
X54665001Y-21613286D01*
X54665001Y-21890018D01*
X54619463Y-21945506D01*
X54560498Y-22055820D01*
X54524188Y-22175518D01*
X54511928Y-22300000D01*
X54511928Y-23200000D01*
X54524188Y-23324482D01*
X54560498Y-23444180D01*
X54619463Y-23554494D01*
X54698815Y-23651185D01*
X54795506Y-23730537D01*
X54905820Y-23789502D01*
X54907462Y-23790000D01*
X54386940Y-23790000D01*
X54301898Y-23754774D01*
X54101939Y-23715000D01*
X53898061Y-23715000D01*
X53698102Y-23754774D01*
X53509744Y-23832795D01*
X53340226Y-23946063D01*
X53258051Y-24028238D01*
X53252962Y-24022038D01*
X53118387Y-23911595D01*
X52964851Y-23829528D01*
X52798255Y-23778992D01*
X52625001Y-23761928D01*
X52069572Y-23761928D01*
X51807644Y-23500000D01*
X52069572Y-23238072D01*
X52625001Y-23238072D01*
X52798255Y-23221008D01*
X52964851Y-23170472D01*
X53118387Y-23088405D01*
X53252962Y-22977962D01*
X53363405Y-22843387D01*
X53445472Y-22689851D01*
X53496008Y-22523255D01*
X53513072Y-22350001D01*
X53513072Y-21549999D01*
X53496008Y-21376745D01*
X53445472Y-21210149D01*
X53363405Y-21056613D01*
X53252962Y-20922038D01*
X53118387Y-20811595D01*
X53005319Y-20751158D01*
X53035000Y-20601939D01*
X53035000Y-20398061D01*
X53005319Y-20248842D01*
X53118387Y-20188405D01*
X53252962Y-20077962D01*
X53363405Y-19943387D01*
X53445472Y-19789851D01*
X53496008Y-19623255D01*
X53513072Y-19450001D01*
X53513072Y-18649999D01*
X53496008Y-18476745D01*
X53445472Y-18310149D01*
X53363405Y-18156613D01*
X53252962Y-18022038D01*
X53118387Y-17911595D01*
X52964851Y-17829528D01*
X52798255Y-17778992D01*
X52625001Y-17761928D01*
X51374999Y-17761928D01*
X51201745Y-17778992D01*
X51035149Y-17829528D01*
X50881613Y-17911595D01*
X50747038Y-18022038D01*
X50636595Y-18156613D01*
X50554528Y-18310149D01*
X50503992Y-18476745D01*
X50486928Y-18649999D01*
X50486928Y-19450001D01*
X50503992Y-19623255D01*
X50554528Y-19789851D01*
X50636595Y-19943387D01*
X50747038Y-20077962D01*
X50881613Y-20188405D01*
X50994681Y-20248842D01*
X50965000Y-20398061D01*
X50965000Y-20601939D01*
X50994681Y-20751158D01*
X50881613Y-20811595D01*
X50747038Y-20922038D01*
X50636595Y-21056613D01*
X50554528Y-21210149D01*
X50503992Y-21376745D01*
X50486928Y-21549999D01*
X50486928Y-21905000D01*
X50071032Y-21905000D01*
X50072929Y-21898745D01*
X50088072Y-21745000D01*
X50088072Y-21445000D01*
X50072929Y-21291255D01*
X50028084Y-21143418D01*
X49955258Y-21007171D01*
X49857251Y-20887749D01*
X49737829Y-20789742D01*
X49601582Y-20716916D01*
X49453745Y-20672071D01*
X49360000Y-20662838D01*
X49360000Y-16891578D01*
X49416578Y-16835000D01*
X50632112Y-16835000D01*
X50636595Y-16843387D01*
X50747038Y-16977962D01*
X50881613Y-17088405D01*
X51035149Y-17170472D01*
X51201745Y-17221008D01*
X51374999Y-17238072D01*
X52625001Y-17238072D01*
X52798255Y-17221008D01*
X52964851Y-17170472D01*
X53118387Y-17088405D01*
X53252962Y-16977962D01*
X53363405Y-16843387D01*
X53445472Y-16689851D01*
X53496008Y-16523255D01*
X53513072Y-16350001D01*
X53513072Y-15549999D01*
X53496008Y-15376745D01*
X53445472Y-15210149D01*
X53363405Y-15056613D01*
X53252962Y-14922038D01*
X53118387Y-14811595D01*
X52964851Y-14729528D01*
X52798255Y-14678992D01*
X52625001Y-14661928D01*
X51374999Y-14661928D01*
X51201745Y-14678992D01*
X51035149Y-14729528D01*
X50881613Y-14811595D01*
X50747038Y-14922038D01*
X50636595Y-15056613D01*
X50632112Y-15065000D01*
X50367263Y-15065000D01*
X50417205Y-14990256D01*
X50495226Y-14801898D01*
X50535000Y-14601939D01*
X50535000Y-14398061D01*
X50495226Y-14198102D01*
X50417205Y-14009744D01*
X50303937Y-13840226D01*
X50159774Y-13696063D01*
X49990256Y-13582795D01*
X49801898Y-13504774D01*
X49601939Y-13465000D01*
X49398061Y-13465000D01*
X49198102Y-13504774D01*
X49113060Y-13540000D01*
X45140897Y-13540000D01*
X44190897Y-13255000D01*
X53911928Y-13255000D01*
X53911928Y-13555000D01*
X53927071Y-13708745D01*
X53971916Y-13856582D01*
X54044742Y-13992829D01*
X54142749Y-14112251D01*
X54262171Y-14210258D01*
X54398418Y-14283084D01*
X54490000Y-14310865D01*
X54490000Y-14326939D01*
X54529774Y-14526898D01*
X54607795Y-14715256D01*
X54721063Y-14884774D01*
X54865226Y-15028937D01*
X55034744Y-15142205D01*
X55223102Y-15220226D01*
X55423061Y-15260000D01*
X55626939Y-15260000D01*
X55826898Y-15220226D01*
X56015256Y-15142205D01*
X56184774Y-15028937D01*
X56328937Y-14884774D01*
X56442205Y-14715256D01*
X56520226Y-14526898D01*
X56560000Y-14326939D01*
X56560000Y-14310865D01*
X56651582Y-14283084D01*
X56787829Y-14210258D01*
X56907251Y-14112251D01*
X57005258Y-13992829D01*
X57078084Y-13856582D01*
X57122929Y-13708745D01*
X57138072Y-13555000D01*
X57138072Y-13255000D01*
X57122929Y-13101255D01*
X57078084Y-12953418D01*
X57005258Y-12817171D01*
X56907251Y-12697749D01*
X56787829Y-12599742D01*
X56651582Y-12526916D01*
X56503745Y-12482071D01*
X56350000Y-12466928D01*
X54700000Y-12466928D01*
X54546255Y-12482071D01*
X54398418Y-12526916D01*
X54262171Y-12599742D01*
X54142749Y-12697749D01*
X54044742Y-12817171D01*
X53971916Y-12953418D01*
X53927071Y-13101255D01*
X53911928Y-13255000D01*
X44190897Y-13255000D01*
X43145396Y-12941350D01*
X42668499Y-12098832D01*
X42759172Y-11799921D01*
X42785000Y-11537682D01*
X42785000Y-10662318D01*
X43915000Y-10662318D01*
X43915000Y-11537683D01*
X43940828Y-11799921D01*
X44042896Y-12136395D01*
X44208646Y-12446491D01*
X44431709Y-12718292D01*
X44703510Y-12941354D01*
X45013606Y-13107104D01*
X45350080Y-13209172D01*
X45700000Y-13243636D01*
X46049921Y-13209172D01*
X46386395Y-13107104D01*
X46696491Y-12941354D01*
X46968292Y-12718292D01*
X47191354Y-12446491D01*
X47357104Y-12136395D01*
X47459172Y-11799921D01*
X47485000Y-11537682D01*
X47485000Y-10662317D01*
X47473938Y-10549999D01*
X50986928Y-10549999D01*
X50986928Y-11350001D01*
X51003992Y-11523255D01*
X51054528Y-11689851D01*
X51136595Y-11843387D01*
X51247038Y-11977962D01*
X51381613Y-12088405D01*
X51535149Y-12170472D01*
X51701745Y-12221008D01*
X51874999Y-12238072D01*
X53125001Y-12238072D01*
X53298255Y-12221008D01*
X53464851Y-12170472D01*
X53618387Y-12088405D01*
X53752962Y-11977962D01*
X53863405Y-11843387D01*
X53913322Y-11750000D01*
X54421217Y-11750000D01*
X54546255Y-11787929D01*
X54700000Y-11803072D01*
X56350000Y-11803072D01*
X56503745Y-11787929D01*
X56651582Y-11743084D01*
X56787829Y-11670258D01*
X56907251Y-11572251D01*
X57005258Y-11452829D01*
X57078084Y-11316582D01*
X57122929Y-11168745D01*
X57138072Y-11015000D01*
X57138072Y-10715000D01*
X57122929Y-10561255D01*
X57078084Y-10413418D01*
X57005258Y-10277171D01*
X56907251Y-10157749D01*
X56787829Y-10059742D01*
X56651582Y-9986916D01*
X56503745Y-9942071D01*
X56350000Y-9926928D01*
X54700000Y-9926928D01*
X54546255Y-9942071D01*
X54421217Y-9980000D01*
X53800530Y-9980000D01*
X53752962Y-9922038D01*
X53618387Y-9811595D01*
X53464851Y-9729528D01*
X53298255Y-9678992D01*
X53125001Y-9661928D01*
X51874999Y-9661928D01*
X51701745Y-9678992D01*
X51535149Y-9729528D01*
X51381613Y-9811595D01*
X51247038Y-9922038D01*
X51136595Y-10056613D01*
X51054528Y-10210149D01*
X51003992Y-10376745D01*
X50986928Y-10549999D01*
X47473938Y-10549999D01*
X47459172Y-10400079D01*
X47357104Y-10063605D01*
X47191354Y-9753509D01*
X46968292Y-9481708D01*
X46696490Y-9258646D01*
X46386394Y-9092896D01*
X46049920Y-8990828D01*
X45700000Y-8956364D01*
X45350079Y-8990828D01*
X45013605Y-9092896D01*
X44703509Y-9258646D01*
X44431708Y-9481708D01*
X44208646Y-9753510D01*
X44042896Y-10063606D01*
X43940828Y-10400080D01*
X43915000Y-10662318D01*
X42785000Y-10662318D01*
X42785000Y-10662317D01*
X42759172Y-10400079D01*
X42657104Y-10063605D01*
X42491354Y-9753509D01*
X42268292Y-9481708D01*
X41996490Y-9258646D01*
X41686394Y-9092896D01*
X41349920Y-8990828D01*
X41000000Y-8956364D01*
X40650079Y-8990828D01*
X40313605Y-9092896D01*
X40003509Y-9258646D01*
X39731708Y-9481708D01*
X39508646Y-9753510D01*
X39342896Y-10063606D01*
X39240828Y-10400080D01*
X39215000Y-10662318D01*
X39215000Y-11537683D01*
X39240828Y-11799921D01*
X39342896Y-12136395D01*
X39508646Y-12446491D01*
X39731709Y-12718292D01*
X40003510Y-12941354D01*
X40313606Y-13107104D01*
X40650080Y-13209172D01*
X41000000Y-13243636D01*
X41104434Y-13233350D01*
X41636312Y-14173000D01*
X41650658Y-14207338D01*
X41682775Y-14255087D01*
X41687785Y-14263937D01*
X41709118Y-14294250D01*
X41756201Y-14364248D01*
X41763450Y-14371452D01*
X41769344Y-14379828D01*
X41830506Y-14438099D01*
X41890326Y-14497554D01*
X41898846Y-14503209D01*
X41906257Y-14510270D01*
X41953171Y-14540000D01*
X37897645Y-14540000D01*
X37260000Y-13902356D01*
X37260000Y-12960859D01*
X37296491Y-12941354D01*
X37568292Y-12718292D01*
X37791354Y-12446491D01*
X37957104Y-12136395D01*
X38059172Y-11799921D01*
X38085000Y-11537682D01*
X38085000Y-10662317D01*
X38059172Y-10400079D01*
X37957104Y-10063605D01*
X37791354Y-9753509D01*
X37568292Y-9481708D01*
X37296490Y-9258646D01*
X36986394Y-9092896D01*
X36649920Y-8990828D01*
X36300000Y-8956364D01*
X35950079Y-8990828D01*
X35613605Y-9092896D01*
X35303509Y-9258646D01*
X35031708Y-9481708D01*
X34808646Y-9753510D01*
X34642896Y-10063606D01*
X34540828Y-10400080D01*
X34515000Y-10662318D01*
X34515000Y-11537683D01*
X34540828Y-11799921D01*
X34642896Y-12136395D01*
X34808646Y-12446491D01*
X34829290Y-12471646D01*
X34462175Y-12104531D01*
X34432107Y-12067893D01*
X34285928Y-11947927D01*
X34119154Y-11858784D01*
X33938193Y-11803890D01*
X33888072Y-11798954D01*
X33888072Y-11324999D01*
X33871008Y-11151745D01*
X33820472Y-10985149D01*
X33738405Y-10831613D01*
X33627962Y-10697038D01*
X33493387Y-10586595D01*
X33339851Y-10504528D01*
X33173255Y-10453992D01*
X33000001Y-10436928D01*
X31974999Y-10436928D01*
X31801745Y-10453992D01*
X31635149Y-10504528D01*
X31481613Y-10586595D01*
X31347038Y-10697038D01*
X31236595Y-10831613D01*
X31154528Y-10985149D01*
X31103992Y-11151745D01*
X31086928Y-11324999D01*
X31086928Y-14175001D01*
X31103992Y-14348255D01*
X31154528Y-14514851D01*
X31236595Y-14668387D01*
X31347038Y-14802962D01*
X31481613Y-14913405D01*
X31635149Y-14995472D01*
X31801745Y-15046008D01*
X31974999Y-15063072D01*
X33000001Y-15063072D01*
X33173255Y-15046008D01*
X33339851Y-14995472D01*
X33493387Y-14913405D01*
X33627962Y-14802962D01*
X33738405Y-14668387D01*
X33820472Y-14514851D01*
X33871008Y-14348255D01*
X33875369Y-14303973D01*
X33946063Y-14409774D01*
X34090226Y-14553937D01*
X34259744Y-14667205D01*
X34448102Y-14745226D01*
X34648061Y-14785000D01*
X34851939Y-14785000D01*
X35051898Y-14745226D01*
X35240256Y-14667205D01*
X35379891Y-14573904D01*
X35408784Y-14669153D01*
X35497927Y-14835928D01*
X35617893Y-14982107D01*
X35654531Y-15012175D01*
X36507355Y-15865000D01*
X31746287Y-15865000D01*
X31511302Y-15707988D01*
X31122756Y-15547047D01*
X30710279Y-15465000D01*
X30289721Y-15465000D01*
X29877244Y-15547047D01*
X29488698Y-15707988D01*
X29253713Y-15865000D01*
X23938072Y-15865000D01*
X23938072Y-14650000D01*
X23925812Y-14525518D01*
X23889502Y-14405820D01*
X23830537Y-14295506D01*
X23751185Y-14198815D01*
X23654494Y-14119463D01*
X23544180Y-14060498D01*
X23424482Y-14024188D01*
X23300000Y-14011928D01*
X20800000Y-14011928D01*
X20675518Y-14024188D01*
X20555820Y-14060498D01*
X20445506Y-14119463D01*
X20348815Y-14198815D01*
X20269463Y-14295506D01*
X20210498Y-14405820D01*
X20174188Y-14525518D01*
X20161928Y-14650000D01*
X20161928Y-16950000D01*
X20174188Y-17074482D01*
X20210498Y-17194180D01*
X20269463Y-17304494D01*
X20348815Y-17401185D01*
X20445506Y-17480537D01*
X20555820Y-17539502D01*
X20615000Y-17557454D01*
X20615000Y-21000000D01*
X20627201Y-21123882D01*
X20663336Y-21243004D01*
X20722017Y-21352787D01*
X20800987Y-21449013D01*
X21800987Y-22449013D01*
X21897213Y-22527983D01*
X22006996Y-22586664D01*
X22126118Y-22622799D01*
X22250000Y-22635000D01*
X29764895Y-22635000D01*
X29693551Y-22693551D01*
X29551716Y-22866377D01*
X29446324Y-23063554D01*
X29381423Y-23277502D01*
X29365000Y-23444249D01*
X29365001Y-26361928D01*
X27800000Y-26361928D01*
X27675518Y-26374188D01*
X27555820Y-26410498D01*
X27445506Y-26469463D01*
X27348815Y-26548815D01*
X27269463Y-26645506D01*
X27210498Y-26755820D01*
X27174188Y-26875518D01*
X27161928Y-27000000D01*
X27161928Y-29900000D01*
X27174188Y-30024482D01*
X27210498Y-30144180D01*
X27269463Y-30254494D01*
X27348815Y-30351185D01*
X27445506Y-30430537D01*
X27555820Y-30489502D01*
X27675518Y-30525812D01*
X27800000Y-30538072D01*
X28692693Y-30538072D01*
X28841637Y-30760983D01*
X29139017Y-31058363D01*
X29488698Y-31292012D01*
X29877244Y-31452953D01*
X30289721Y-31535000D01*
X30710279Y-31535000D01*
X31122756Y-31452953D01*
X31511302Y-31292012D01*
X31860983Y-31058363D01*
X32158363Y-30760983D01*
X32307307Y-30538072D01*
X33200000Y-30538072D01*
X33324482Y-30525812D01*
X33444180Y-30489502D01*
X33554494Y-30430537D01*
X33651185Y-30351185D01*
X33730537Y-30254494D01*
X33789502Y-30144180D01*
X33825812Y-30024482D01*
X33838072Y-29900000D01*
X33838072Y-27000000D01*
X33825812Y-26875518D01*
X33789502Y-26755820D01*
X33730537Y-26645506D01*
X33651185Y-26548815D01*
X33554494Y-26469463D01*
X33444180Y-26410498D01*
X33324482Y-26374188D01*
X33200000Y-26361928D01*
X31635000Y-26361928D01*
X31635000Y-23444248D01*
X31618577Y-23277501D01*
X31553676Y-23063553D01*
X31448284Y-22866377D01*
X31306449Y-22693551D01*
X31235105Y-22635000D01*
X36740001Y-22635000D01*
X36740000Y-27450392D01*
X36735114Y-27500000D01*
X36754615Y-27697994D01*
X36797787Y-27840313D01*
X36812368Y-27888379D01*
X36906153Y-28063840D01*
X37032367Y-28217633D01*
X37070905Y-28249260D01*
X37440001Y-28618356D01*
X37440000Y-31249607D01*
X37440001Y-31249617D01*
X37440000Y-32732297D01*
X37422038Y-32747038D01*
X37325229Y-32865000D01*
X24470132Y-32865000D01*
X20135000Y-28529869D01*
X20135000Y-26122621D01*
X20244180Y-26089502D01*
X20354494Y-26030537D01*
X20451185Y-25951185D01*
X20530537Y-25854494D01*
X20589502Y-25744180D01*
X20625812Y-25624482D01*
X20638072Y-25500000D01*
X20638072Y-23500000D01*
X20625812Y-23375518D01*
X20589502Y-23255820D01*
X20530537Y-23145506D01*
X20451185Y-23048815D01*
X20354494Y-22969463D01*
X20244180Y-22910498D01*
X20135000Y-22877379D01*
X20135000Y-20955751D01*
X20140491Y-20900000D01*
X20118577Y-20677501D01*
X20053676Y-20463553D01*
X20018670Y-20398061D01*
X19948284Y-20266377D01*
X19806449Y-20093551D01*
X19763140Y-20058008D01*
X18885000Y-19179869D01*
X18885000Y-17588072D01*
X19000000Y-17588072D01*
X19124482Y-17575812D01*
X19244180Y-17539502D01*
X19354494Y-17480537D01*
X19451185Y-17401185D01*
X19530537Y-17304494D01*
X19589502Y-17194180D01*
X19625812Y-17074482D01*
X19638072Y-16950000D01*
X19638072Y-14650000D01*
X19625812Y-14525518D01*
X19589502Y-14405820D01*
X19530537Y-14295506D01*
X19451185Y-14198815D01*
X19354494Y-14119463D01*
X19244180Y-14060498D01*
X19124482Y-14024188D01*
X19000000Y-14011928D01*
X16500000Y-14011928D01*
X16375518Y-14024188D01*
X16255820Y-14060498D01*
X16145506Y-14119463D01*
X16048815Y-14198815D01*
X15969463Y-14295506D01*
X15910498Y-14405820D01*
X15874188Y-14525518D01*
X15861928Y-14650000D01*
X14135000Y-14650000D01*
X14135000Y-14220131D01*
X14970132Y-13385000D01*
X21694249Y-13385000D01*
X21750000Y-13390491D01*
X21805751Y-13385000D01*
X22779869Y-13385000D01*
X22908004Y-13513135D01*
X22943551Y-13556449D01*
X23116377Y-13698284D01*
X23313553Y-13803676D01*
X23527501Y-13868577D01*
X23750000Y-13890491D01*
X23805752Y-13885000D01*
X25111928Y-13885000D01*
X25111928Y-14175001D01*
X25128992Y-14348255D01*
X25179528Y-14514851D01*
X25261595Y-14668387D01*
X25372038Y-14802962D01*
X25506613Y-14913405D01*
X25660149Y-14995472D01*
X25826745Y-15046008D01*
X25999999Y-15063072D01*
X27025001Y-15063072D01*
X27198255Y-15046008D01*
X27364851Y-14995472D01*
X27518387Y-14913405D01*
X27652962Y-14802962D01*
X27763405Y-14668387D01*
X27845472Y-14514851D01*
X27896008Y-14348255D01*
X27913072Y-14175001D01*
X27913072Y-11324999D01*
X27896008Y-11151745D01*
X27845472Y-10985149D01*
X27763405Y-10831613D01*
X27652962Y-10697038D01*
X27518387Y-10586595D01*
X27364851Y-10504528D01*
X27198255Y-10453992D01*
X27025001Y-10436928D01*
X25999999Y-10436928D01*
X25826745Y-10453992D01*
X25660149Y-10504528D01*
X25506613Y-10586595D01*
X25372038Y-10697038D01*
X25261595Y-10831613D01*
X25179528Y-10985149D01*
X25128992Y-11151745D01*
X25111928Y-11324999D01*
X25111928Y-11615000D01*
X24220131Y-11615000D01*
X24091996Y-11486865D01*
X24056449Y-11443551D01*
X23883623Y-11301716D01*
X23686447Y-11196324D01*
X23472499Y-11131423D01*
X23305752Y-11115000D01*
X23305751Y-11115000D01*
X23250000Y-11109509D01*
X23194249Y-11115000D01*
X23040000Y-11115000D01*
X23040000Y-9628957D01*
X23170364Y-9541851D01*
X23446851Y-9265364D01*
X23533957Y-9135000D01*
X26825229Y-9135000D01*
X26922038Y-9252962D01*
X27056613Y-9363405D01*
X27210149Y-9445472D01*
X27376745Y-9496008D01*
X27549999Y-9513072D01*
X28350001Y-9513072D01*
X28523255Y-9496008D01*
X28689851Y-9445472D01*
X28843387Y-9363405D01*
X28977962Y-9252962D01*
X29088405Y-9118387D01*
X29170472Y-8964851D01*
X29221008Y-8798255D01*
X29238072Y-8625001D01*
X29238072Y-7374999D01*
X29221008Y-7201745D01*
X29170472Y-7035149D01*
X29088405Y-6881613D01*
X28977962Y-6747038D01*
X28843387Y-6636595D01*
X28689851Y-6554528D01*
X28523255Y-6503992D01*
X28350001Y-6486928D01*
X27549999Y-6486928D01*
X27376745Y-6503992D01*
X27210149Y-6554528D01*
X27056613Y-6636595D01*
X26922038Y-6747038D01*
X26825229Y-6865000D01*
X23533957Y-6865000D01*
X23446851Y-6734636D01*
X23170364Y-6458149D01*
X22845250Y-6240915D01*
X22484003Y-6091282D01*
X22100505Y-6015000D01*
X21709495Y-6015000D01*
X21325997Y-6091282D01*
X20964750Y-6240915D01*
X20639636Y-6458149D01*
X20363149Y-6734636D01*
X20145915Y-7059750D01*
X19996282Y-7420997D01*
X19920000Y-7804495D01*
X19920000Y-8195505D01*
X19996282Y-8579003D01*
X20145915Y-8940250D01*
X20363149Y-9265364D01*
X20639636Y-9541851D01*
X20770000Y-9628958D01*
X20770001Y-11115000D01*
X14555741Y-11115000D01*
X14499999Y-11109510D01*
X14444257Y-11115000D01*
X14444248Y-11115000D01*
X14277501Y-11131423D01*
X14063553Y-11196324D01*
X13866377Y-11301716D01*
X13693551Y-11443551D01*
X13658011Y-11486857D01*
X12236860Y-12908009D01*
X12193552Y-12943551D01*
X12051717Y-13116377D01*
X12014265Y-13186446D01*
X11946324Y-13313554D01*
X11881423Y-13527502D01*
X11859509Y-13750000D01*
X11865001Y-13805761D01*
X11865001Y-14659043D01*
X11845506Y-14669463D01*
X11748815Y-14748815D01*
X11669463Y-14845506D01*
X11610498Y-14955820D01*
X11574188Y-15075518D01*
X11561928Y-15200000D01*
X7538454Y-15200000D01*
X7535928Y-15197927D01*
X7369154Y-15108784D01*
X7188193Y-15053890D01*
X7047162Y-15040000D01*
X7047152Y-15040000D01*
X7000000Y-15035356D01*
X6952848Y-15040000D01*
X6204677Y-15040000D01*
X6192312Y-15021495D01*
X5978505Y-14807688D01*
X5862237Y-14730000D01*
X5978505Y-14652312D01*
X6192312Y-14438505D01*
X6360299Y-14187095D01*
X6476011Y-13907743D01*
X6535000Y-13611184D01*
X6535000Y-13308816D01*
X6476011Y-13012257D01*
X6360299Y-12732905D01*
X6192312Y-12481495D01*
X5978505Y-12267688D01*
X5727095Y-12099701D01*
X5447743Y-11983989D01*
X5151184Y-11925000D01*
X4848816Y-11925000D01*
X4552257Y-11983989D01*
X4272905Y-12099701D01*
X4021495Y-12267688D01*
X3807688Y-12481495D01*
X3795323Y-12500000D01*
X3587151Y-12500000D01*
X3539999Y-12495356D01*
X3492847Y-12500000D01*
X3492838Y-12500000D01*
X3351807Y-12513890D01*
X3170846Y-12568784D01*
X3062163Y-12626876D01*
X3004071Y-12657927D01*
X2969321Y-12686446D01*
X2857893Y-12777893D01*
X2827825Y-12814531D01*
X2354527Y-13287829D01*
X2317894Y-13317893D01*
X2287830Y-13354526D01*
X2287829Y-13354527D01*
X2197927Y-13464072D01*
X2108784Y-13630847D01*
X2084774Y-13710000D01*
X2053891Y-13811807D01*
X2044599Y-13906153D01*
X2035356Y-14000000D01*
X660000Y-14000000D01*
X660000Y-3273380D01*
X1058380Y-2875000D01*
X29636928Y-2875000D01*
X29636928Y-4125000D01*
X29653992Y-4298254D01*
X29704528Y-4464850D01*
X29786595Y-4618386D01*
X29897038Y-4752962D01*
X29915001Y-4767704D01*
X29915000Y-6877464D01*
X29911595Y-6881613D01*
X29829528Y-7035149D01*
X29778992Y-7201745D01*
X29761928Y-7374999D01*
X29761928Y-8625001D01*
X29778992Y-8798255D01*
X29829528Y-8964851D01*
X29911595Y-9118387D01*
X30022038Y-9252962D01*
X30156613Y-9363405D01*
X30310149Y-9445472D01*
X30476745Y-9496008D01*
X30649999Y-9513072D01*
X31450001Y-9513072D01*
X31623255Y-9496008D01*
X31789851Y-9445472D01*
X31943387Y-9363405D01*
X32077962Y-9252962D01*
X32188405Y-9118387D01*
X32270472Y-8964851D01*
X32321008Y-8798255D01*
X32338072Y-8625001D01*
X32338072Y-7374999D01*
X32321008Y-7201745D01*
X32270472Y-7035149D01*
X32188405Y-6881613D01*
X32185000Y-6877464D01*
X32185000Y-4622535D01*
X32188405Y-4618386D01*
X32270472Y-4464850D01*
X32321008Y-4298254D01*
X32338072Y-4125000D01*
X32338072Y-2875000D01*
X32321008Y-2701746D01*
X32270472Y-2535150D01*
X32188405Y-2381614D01*
X32077962Y-2247038D01*
X31943386Y-2136595D01*
X31789850Y-2054528D01*
X31623254Y-2003992D01*
X31450000Y-1986928D01*
X30525000Y-1986928D01*
X30351746Y-2003992D01*
X30185150Y-2054528D01*
X30031614Y-2136595D01*
X29897038Y-2247038D01*
X29786595Y-2381614D01*
X29704528Y-2535150D01*
X29653992Y-2701746D01*
X29636928Y-2875000D01*
X1058380Y-2875000D01*
X3273381Y-660000D01*
X74726620Y-660000D01*
X77340001Y-3273382D01*
G37*
%TD.AperFunction*%
D37*
X65115001Y-14366580D02*
X65115000Y-17961545D01*
X65082795Y-18009744D01*
X65004774Y-18198102D01*
X64965000Y-18398061D01*
X64965000Y-18601939D01*
X65004774Y-18801898D01*
X65082795Y-18990256D01*
X65196063Y-19159774D01*
X65340226Y-19303937D01*
X65509744Y-19417205D01*
X65698102Y-19495226D01*
X65898061Y-19535000D01*
X66012356Y-19535000D01*
X65507356Y-20040000D01*
X62897645Y-20040000D01*
X62460000Y-19602356D01*
X62460000Y-18279518D01*
X62480537Y-18254494D01*
X62539502Y-18144180D01*
X62575812Y-18024482D01*
X62588072Y-17900000D01*
X62588072Y-17100000D01*
X62575812Y-16975518D01*
X62539502Y-16855820D01*
X62480537Y-16745506D01*
X62401185Y-16648815D01*
X62304494Y-16569463D01*
X62194180Y-16510498D01*
X62074482Y-16474188D01*
X61950000Y-16461928D01*
X61050000Y-16461928D01*
X60925518Y-16474188D01*
X60805820Y-16510498D01*
X60695506Y-16569463D01*
X60598815Y-16648815D01*
X60519463Y-16745506D01*
X60460498Y-16855820D01*
X60424188Y-16975518D01*
X60411928Y-17100000D01*
X60411928Y-17611905D01*
X60401185Y-17598815D01*
X60304494Y-17519463D01*
X60194180Y-17460498D01*
X60074482Y-17424188D01*
X59950000Y-17411928D01*
X59060000Y-17411928D01*
X59060000Y-15868355D01*
X59168356Y-15760000D01*
X60200392Y-15760000D01*
X60250000Y-15764886D01*
X60447994Y-15745385D01*
X60571275Y-15707988D01*
X60638380Y-15687632D01*
X60813840Y-15593847D01*
X60967633Y-15467633D01*
X60999262Y-15429093D01*
X61154090Y-15274264D01*
X61192633Y-15242633D01*
X61318847Y-15088840D01*
X61412632Y-14913380D01*
X61470385Y-14722994D01*
X61485000Y-14574608D01*
X61485000Y-14574606D01*
X61489886Y-14525001D01*
X61485000Y-14475396D01*
X61485000Y-14318448D01*
X61601582Y-14283084D01*
X61737829Y-14210258D01*
X61857251Y-14112251D01*
X61955258Y-13992829D01*
X62028084Y-13856582D01*
X62072929Y-13708745D01*
X62088072Y-13555000D01*
X62088072Y-13255000D01*
X62072929Y-13101255D01*
X62048281Y-13020000D01*
X63768422Y-13020000D01*
X65115001Y-14366580D01*
%TA.AperFunction,Conductor*%
D38*
G36*
X65115001Y-14366580D02*
G01*
X65115000Y-17961545D01*
X65082795Y-18009744D01*
X65004774Y-18198102D01*
X64965000Y-18398061D01*
X64965000Y-18601939D01*
X65004774Y-18801898D01*
X65082795Y-18990256D01*
X65196063Y-19159774D01*
X65340226Y-19303937D01*
X65509744Y-19417205D01*
X65698102Y-19495226D01*
X65898061Y-19535000D01*
X66012356Y-19535000D01*
X65507356Y-20040000D01*
X62897645Y-20040000D01*
X62460000Y-19602356D01*
X62460000Y-18279518D01*
X62480537Y-18254494D01*
X62539502Y-18144180D01*
X62575812Y-18024482D01*
X62588072Y-17900000D01*
X62588072Y-17100000D01*
X62575812Y-16975518D01*
X62539502Y-16855820D01*
X62480537Y-16745506D01*
X62401185Y-16648815D01*
X62304494Y-16569463D01*
X62194180Y-16510498D01*
X62074482Y-16474188D01*
X61950000Y-16461928D01*
X61050000Y-16461928D01*
X60925518Y-16474188D01*
X60805820Y-16510498D01*
X60695506Y-16569463D01*
X60598815Y-16648815D01*
X60519463Y-16745506D01*
X60460498Y-16855820D01*
X60424188Y-16975518D01*
X60411928Y-17100000D01*
X60411928Y-17611905D01*
X60401185Y-17598815D01*
X60304494Y-17519463D01*
X60194180Y-17460498D01*
X60074482Y-17424188D01*
X59950000Y-17411928D01*
X59060000Y-17411928D01*
X59060000Y-15868355D01*
X59168356Y-15760000D01*
X60200392Y-15760000D01*
X60250000Y-15764886D01*
X60447994Y-15745385D01*
X60571275Y-15707988D01*
X60638380Y-15687632D01*
X60813840Y-15593847D01*
X60967633Y-15467633D01*
X60999262Y-15429093D01*
X61154090Y-15274264D01*
X61192633Y-15242633D01*
X61318847Y-15088840D01*
X61412632Y-14913380D01*
X61470385Y-14722994D01*
X61485000Y-14574608D01*
X61485000Y-14574606D01*
X61489886Y-14525001D01*
X61485000Y-14475396D01*
X61485000Y-14318448D01*
X61601582Y-14283084D01*
X61737829Y-14210258D01*
X61857251Y-14112251D01*
X61955258Y-13992829D01*
X62028084Y-13856582D01*
X62072929Y-13708745D01*
X62088072Y-13555000D01*
X62088072Y-13255000D01*
X62072929Y-13101255D01*
X62048281Y-13020000D01*
X63768422Y-13020000D01*
X65115001Y-14366580D01*
G37*
%TD.AperFunction*%
D37*
X71615000Y-10366579D02*
X71615001Y-15749112D01*
X71541851Y-15639636D01*
X71265364Y-15363149D01*
X70940250Y-15145915D01*
X70579003Y-14996282D01*
X70195505Y-14920000D01*
X69804495Y-14920000D01*
X69420997Y-14996282D01*
X69059750Y-15145915D01*
X68734636Y-15363149D01*
X68458149Y-15639636D01*
X68240915Y-15964750D01*
X68091282Y-16325997D01*
X68015000Y-16709495D01*
X68015000Y-16797513D01*
X67995226Y-16698102D01*
X67917205Y-16509744D01*
X67885000Y-16461546D01*
X67885000Y-12543465D01*
X67889281Y-12499999D01*
X67885000Y-12456533D01*
X67885000Y-12456523D01*
X67872195Y-12326510D01*
X67821589Y-12159687D01*
X67739411Y-12005941D01*
X67691800Y-11947927D01*
X67656532Y-11904953D01*
X67656530Y-11904951D01*
X67628817Y-11871183D01*
X67595050Y-11843471D01*
X66021534Y-10269956D01*
X65993817Y-10236183D01*
X65859059Y-10125589D01*
X65705313Y-10043411D01*
X65538490Y-9992805D01*
X65408477Y-9980000D01*
X65408469Y-9980000D01*
X65365000Y-9975719D01*
X65321531Y-9980000D01*
X63271578Y-9980000D01*
X63366578Y-9885000D01*
X71133422Y-9885000D01*
X71615000Y-10366579D01*
%TA.AperFunction,Conductor*%
D38*
G36*
X71615000Y-10366579D02*
G01*
X71615001Y-15749112D01*
X71541851Y-15639636D01*
X71265364Y-15363149D01*
X70940250Y-15145915D01*
X70579003Y-14996282D01*
X70195505Y-14920000D01*
X69804495Y-14920000D01*
X69420997Y-14996282D01*
X69059750Y-15145915D01*
X68734636Y-15363149D01*
X68458149Y-15639636D01*
X68240915Y-15964750D01*
X68091282Y-16325997D01*
X68015000Y-16709495D01*
X68015000Y-16797513D01*
X67995226Y-16698102D01*
X67917205Y-16509744D01*
X67885000Y-16461546D01*
X67885000Y-12543465D01*
X67889281Y-12499999D01*
X67885000Y-12456533D01*
X67885000Y-12456523D01*
X67872195Y-12326510D01*
X67821589Y-12159687D01*
X67739411Y-12005941D01*
X67691800Y-11947927D01*
X67656532Y-11904953D01*
X67656530Y-11904951D01*
X67628817Y-11871183D01*
X67595050Y-11843471D01*
X66021534Y-10269956D01*
X65993817Y-10236183D01*
X65859059Y-10125589D01*
X65705313Y-10043411D01*
X65538490Y-9992805D01*
X65408477Y-9980000D01*
X65408469Y-9980000D01*
X65365000Y-9975719D01*
X65321531Y-9980000D01*
X63271578Y-9980000D01*
X63366578Y-9885000D01*
X71133422Y-9885000D01*
X71615000Y-10366579D01*
G37*
%TD.AperFunction*%
%TD*%
D37*
%TO.N,Net-(D2-Pad2)*%
X44540001Y-17647646D02*
X44540000Y-21780394D01*
X44447394Y-21873000D01*
X41242540Y-21873000D01*
X41203937Y-21815226D01*
X41059774Y-21671063D01*
X40890256Y-21557795D01*
X40701898Y-21479774D01*
X40501939Y-21440000D01*
X40298061Y-21440000D01*
X40098102Y-21479774D01*
X39909744Y-21557795D01*
X39740226Y-21671063D01*
X39596063Y-21815226D01*
X39557460Y-21873000D01*
X38760000Y-21873000D01*
X38760000Y-20977623D01*
X38785000Y-20851939D01*
X38785000Y-20648061D01*
X38745226Y-20448102D01*
X38667205Y-20259744D01*
X38553937Y-20090226D01*
X38409774Y-19946063D01*
X38240256Y-19832795D01*
X38051898Y-19754774D01*
X37851939Y-19715000D01*
X37648061Y-19715000D01*
X37448102Y-19754774D01*
X37259744Y-19832795D01*
X37090226Y-19946063D01*
X36946063Y-20090226D01*
X36832795Y-20259744D01*
X36754774Y-20448102D01*
X36715000Y-20648061D01*
X36715000Y-20851939D01*
X36740001Y-20977628D01*
X36740001Y-21873000D01*
X22302606Y-21873000D01*
X21377000Y-20947394D01*
X21377000Y-16802606D01*
X21552606Y-16627000D01*
X43519356Y-16627000D01*
X44540001Y-17647646D01*
%TA.AperFunction,Conductor*%
D38*
G36*
X44540001Y-17647646D02*
G01*
X44540000Y-21780394D01*
X44447394Y-21873000D01*
X41242540Y-21873000D01*
X41203937Y-21815226D01*
X41059774Y-21671063D01*
X40890256Y-21557795D01*
X40701898Y-21479774D01*
X40501939Y-21440000D01*
X40298061Y-21440000D01*
X40098102Y-21479774D01*
X39909744Y-21557795D01*
X39740226Y-21671063D01*
X39596063Y-21815226D01*
X39557460Y-21873000D01*
X38760000Y-21873000D01*
X38760000Y-20977623D01*
X38785000Y-20851939D01*
X38785000Y-20648061D01*
X38745226Y-20448102D01*
X38667205Y-20259744D01*
X38553937Y-20090226D01*
X38409774Y-19946063D01*
X38240256Y-19832795D01*
X38051898Y-19754774D01*
X37851939Y-19715000D01*
X37648061Y-19715000D01*
X37448102Y-19754774D01*
X37259744Y-19832795D01*
X37090226Y-19946063D01*
X36946063Y-20090226D01*
X36832795Y-20259744D01*
X36754774Y-20448102D01*
X36715000Y-20648061D01*
X36715000Y-20851939D01*
X36740001Y-20977628D01*
X36740001Y-21873000D01*
X22302606Y-21873000D01*
X21377000Y-20947394D01*
X21377000Y-16802606D01*
X21552606Y-16627000D01*
X43519356Y-16627000D01*
X44540001Y-17647646D01*
G37*
%TD.AperFunction*%
%TD*%
M02*
