%TF.GenerationSoftware,KiCad,Pcbnew,(5.1.10)-1*%
%TF.CreationDate,2021-05-16T21:49:31+02:00*%
%TF.ProjectId,BatteryBoost,42617474-6572-4794-926f-6f73742e6b69,rev?*%
%TF.SameCoordinates,Original*%
%TF.FileFunction,Soldermask,Top*%
%TF.FilePolarity,Negative*%
%FSLAX46Y46*%
G04 Gerber Fmt 4.6, Leading zero omitted, Abs format (unit mm)*
G04 Created by KiCad (PCBNEW (5.1.10)-1) date 2021-05-16 21:49:31*
%MOMM*%
%LPD*%
G01*
G04 APERTURE LIST*
%TA.AperFunction,Profile*%
%ADD10C,0.050000*%
%TD*%
%ADD11C,0.120000*%
%ADD12C,0.100000*%
%ADD13R,1.060000X0.650000*%
%ADD14R,0.800000X0.900000*%
%ADD15R,0.900000X0.800000*%
%ADD16R,2.500000X2.300000*%
%ADD17C,3.000000*%
%ADD18R,5.400000X2.900000*%
%ADD19C,1.600000*%
%ADD20R,1.600000X1.600000*%
%ADD21C,2.000000*%
%ADD22R,2.000000X2.000000*%
%ADD23R,2.290000X3.000000*%
%ADD24O,2.300000X3.000000*%
%ADD25C,2.700000*%
%ADD26O,1.100000X1.800000*%
%ADD27R,0.400000X1.250000*%
%ADD28C,1.290000*%
%ADD29C,1.800000*%
%ADD30C,5.600000*%
%ADD31C,3.600000*%
G04 APERTURE END LIST*
D10*
X3000000Y-40000000D02*
X0Y-37000000D01*
X78000000Y-37000000D02*
X75000000Y-40000000D01*
X75000000Y0D02*
X78000000Y-3000000D01*
X0Y-3000000D02*
X3000000Y0D01*
X78000000Y-37000000D02*
X78000000Y-3000000D01*
X3000000Y-40000000D02*
X75000000Y-40000000D01*
X75000000Y0D02*
X3000000Y0D01*
X0Y-3000000D02*
X0Y-37000000D01*
D11*
%TO.C,J5*%
X54400000Y-3050000D02*
X53000000Y-3050000D01*
D12*
G36*
X53000000Y-1350000D02*
G01*
X54400000Y-1350000D01*
X54400000Y-3050000D01*
X53000000Y-3050000D01*
X53000000Y-1350000D01*
G37*
X53000000Y-1350000D02*
X54400000Y-1350000D01*
X54400000Y-3050000D01*
X53000000Y-3050000D01*
X53000000Y-1350000D01*
D11*
X53000000Y-3050000D02*
X53000000Y-1350000D01*
X54400000Y-1350000D02*
X53000000Y-1350000D01*
D12*
G36*
X63000000Y-3050000D02*
G01*
X61600000Y-3050000D01*
X61600000Y-1350000D01*
X63000000Y-1350000D01*
X63000000Y-3050000D01*
G37*
X63000000Y-3050000D02*
X61600000Y-3050000D01*
X61600000Y-1350000D01*
X63000000Y-1350000D01*
X63000000Y-3050000D01*
D11*
X63000000Y-1350000D02*
X63000000Y-3050000D01*
X61600000Y-3050000D02*
X63000000Y-3050000D01*
X61600000Y-1350000D02*
X63000000Y-1350000D01*
%TD*%
D13*
%TO.C,U3*%
X62100000Y-31000000D03*
X62100000Y-30050000D03*
X62100000Y-31950000D03*
X59900000Y-31950000D03*
X59900000Y-31000000D03*
X59900000Y-30050000D03*
%TD*%
%TO.C,R13*%
G36*
G01*
X65375000Y-34600000D02*
X64125000Y-34600000D01*
G75*
G02*
X63875000Y-34350000I0J250000D01*
G01*
X63875000Y-33550000D01*
G75*
G02*
X64125000Y-33300000I250000J0D01*
G01*
X65375000Y-33300000D01*
G75*
G02*
X65625000Y-33550000I0J-250000D01*
G01*
X65625000Y-34350000D01*
G75*
G02*
X65375000Y-34600000I-250000J0D01*
G01*
G37*
G36*
G01*
X65375000Y-37700000D02*
X64125000Y-37700000D01*
G75*
G02*
X63875000Y-37450000I0J250000D01*
G01*
X63875000Y-36650000D01*
G75*
G02*
X64125000Y-36400000I250000J0D01*
G01*
X65375000Y-36400000D01*
G75*
G02*
X65625000Y-36650000I0J-250000D01*
G01*
X65625000Y-37450000D01*
G75*
G02*
X65375000Y-37700000I-250000J0D01*
G01*
G37*
%TD*%
%TO.C,R10*%
G36*
G01*
X58125000Y-34600000D02*
X56875000Y-34600000D01*
G75*
G02*
X56625000Y-34350000I0J250000D01*
G01*
X56625000Y-33550000D01*
G75*
G02*
X56875000Y-33300000I250000J0D01*
G01*
X58125000Y-33300000D01*
G75*
G02*
X58375000Y-33550000I0J-250000D01*
G01*
X58375000Y-34350000D01*
G75*
G02*
X58125000Y-34600000I-250000J0D01*
G01*
G37*
G36*
G01*
X58125000Y-37700000D02*
X56875000Y-37700000D01*
G75*
G02*
X56625000Y-37450000I0J250000D01*
G01*
X56625000Y-36650000D01*
G75*
G02*
X56875000Y-36400000I250000J0D01*
G01*
X58125000Y-36400000D01*
G75*
G02*
X58375000Y-36650000I0J-250000D01*
G01*
X58375000Y-37450000D01*
G75*
G02*
X58125000Y-37700000I-250000J0D01*
G01*
G37*
%TD*%
D14*
%TO.C,Q3*%
X62000000Y-24750000D03*
X61050000Y-22750000D03*
X62950000Y-22750000D03*
%TD*%
%TO.C,Q1*%
X56500000Y-24750000D03*
X55550000Y-22750000D03*
X57450000Y-22750000D03*
%TD*%
D15*
%TO.C,Q2*%
X59500000Y-16550000D03*
X59500000Y-18450000D03*
X61500000Y-17500000D03*
%TD*%
D16*
%TO.C,D2*%
X22050000Y-15800000D03*
X17750000Y-15800000D03*
%TD*%
D17*
%TO.C,L1*%
X30500000Y-29400000D03*
X30500000Y-17600000D03*
D18*
X30500000Y-28450000D03*
X30500000Y-18550000D03*
%TD*%
%TO.C,C5*%
G36*
G01*
X56650002Y-16662500D02*
X55349998Y-16662500D01*
G75*
G02*
X55100000Y-16412502I0J249998D01*
G01*
X55100000Y-15587498D01*
G75*
G02*
X55349998Y-15337500I249998J0D01*
G01*
X56650002Y-15337500D01*
G75*
G02*
X56900000Y-15587498I0J-249998D01*
G01*
X56900000Y-16412502D01*
G75*
G02*
X56650002Y-16662500I-249998J0D01*
G01*
G37*
G36*
G01*
X56650002Y-19787500D02*
X55349998Y-19787500D01*
G75*
G02*
X55100000Y-19537502I0J249998D01*
G01*
X55100000Y-18712498D01*
G75*
G02*
X55349998Y-18462500I249998J0D01*
G01*
X56650002Y-18462500D01*
G75*
G02*
X56900000Y-18712498I0J-249998D01*
G01*
X56900000Y-19537502D01*
G75*
G02*
X56650002Y-19787500I-249998J0D01*
G01*
G37*
%TD*%
D19*
%TO.C,C1*%
X55000000Y-29500000D03*
D20*
X55000000Y-27500000D03*
%TD*%
D19*
%TO.C,C6*%
X11000000Y-16000000D03*
D20*
X13000000Y-16000000D03*
%TD*%
D21*
%TO.C,C4*%
X14000000Y-24500000D03*
D22*
X19000000Y-24500000D03*
%TD*%
%TO.C,D1*%
G36*
G01*
X74375000Y-29775000D02*
X75625000Y-29775000D01*
G75*
G02*
X75875000Y-30025000I0J-250000D01*
G01*
X75875000Y-30950000D01*
G75*
G02*
X75625000Y-31200000I-250000J0D01*
G01*
X74375000Y-31200000D01*
G75*
G02*
X74125000Y-30950000I0J250000D01*
G01*
X74125000Y-30025000D01*
G75*
G02*
X74375000Y-29775000I250000J0D01*
G01*
G37*
G36*
G01*
X74375000Y-26800000D02*
X75625000Y-26800000D01*
G75*
G02*
X75875000Y-27050000I0J-250000D01*
G01*
X75875000Y-27975000D01*
G75*
G02*
X75625000Y-28225000I-250000J0D01*
G01*
X74375000Y-28225000D01*
G75*
G02*
X74125000Y-27975000I0J250000D01*
G01*
X74125000Y-27050000D01*
G75*
G02*
X74375000Y-26800000I250000J0D01*
G01*
G37*
%TD*%
%TO.C,R5*%
G36*
G01*
X71625001Y-28100000D02*
X70374999Y-28100000D01*
G75*
G02*
X70125000Y-27850001I0J249999D01*
G01*
X70125000Y-27049999D01*
G75*
G02*
X70374999Y-26800000I249999J0D01*
G01*
X71625001Y-26800000D01*
G75*
G02*
X71875000Y-27049999I0J-249999D01*
G01*
X71875000Y-27850001D01*
G75*
G02*
X71625001Y-28100000I-249999J0D01*
G01*
G37*
G36*
G01*
X71625001Y-31200000D02*
X70374999Y-31200000D01*
G75*
G02*
X70125000Y-30950001I0J249999D01*
G01*
X70125000Y-30149999D01*
G75*
G02*
X70374999Y-29900000I249999J0D01*
G01*
X71625001Y-29900000D01*
G75*
G02*
X71875000Y-30149999I0J-249999D01*
G01*
X71875000Y-30950001D01*
G75*
G02*
X71625001Y-31200000I-249999J0D01*
G01*
G37*
%TD*%
%TO.C,U2*%
G36*
G01*
X54550000Y-9745000D02*
X54550000Y-9445000D01*
G75*
G02*
X54700000Y-9295000I150000J0D01*
G01*
X56350000Y-9295000D01*
G75*
G02*
X56500000Y-9445000I0J-150000D01*
G01*
X56500000Y-9745000D01*
G75*
G02*
X56350000Y-9895000I-150000J0D01*
G01*
X54700000Y-9895000D01*
G75*
G02*
X54550000Y-9745000I0J150000D01*
G01*
G37*
G36*
G01*
X54550000Y-11015000D02*
X54550000Y-10715000D01*
G75*
G02*
X54700000Y-10565000I150000J0D01*
G01*
X56350000Y-10565000D01*
G75*
G02*
X56500000Y-10715000I0J-150000D01*
G01*
X56500000Y-11015000D01*
G75*
G02*
X56350000Y-11165000I-150000J0D01*
G01*
X54700000Y-11165000D01*
G75*
G02*
X54550000Y-11015000I0J150000D01*
G01*
G37*
G36*
G01*
X54550000Y-12285000D02*
X54550000Y-11985000D01*
G75*
G02*
X54700000Y-11835000I150000J0D01*
G01*
X56350000Y-11835000D01*
G75*
G02*
X56500000Y-11985000I0J-150000D01*
G01*
X56500000Y-12285000D01*
G75*
G02*
X56350000Y-12435000I-150000J0D01*
G01*
X54700000Y-12435000D01*
G75*
G02*
X54550000Y-12285000I0J150000D01*
G01*
G37*
G36*
G01*
X54550000Y-13555000D02*
X54550000Y-13255000D01*
G75*
G02*
X54700000Y-13105000I150000J0D01*
G01*
X56350000Y-13105000D01*
G75*
G02*
X56500000Y-13255000I0J-150000D01*
G01*
X56500000Y-13555000D01*
G75*
G02*
X56350000Y-13705000I-150000J0D01*
G01*
X54700000Y-13705000D01*
G75*
G02*
X54550000Y-13555000I0J150000D01*
G01*
G37*
G36*
G01*
X59500000Y-13555000D02*
X59500000Y-13255000D01*
G75*
G02*
X59650000Y-13105000I150000J0D01*
G01*
X61300000Y-13105000D01*
G75*
G02*
X61450000Y-13255000I0J-150000D01*
G01*
X61450000Y-13555000D01*
G75*
G02*
X61300000Y-13705000I-150000J0D01*
G01*
X59650000Y-13705000D01*
G75*
G02*
X59500000Y-13555000I0J150000D01*
G01*
G37*
G36*
G01*
X59500000Y-12285000D02*
X59500000Y-11985000D01*
G75*
G02*
X59650000Y-11835000I150000J0D01*
G01*
X61300000Y-11835000D01*
G75*
G02*
X61450000Y-11985000I0J-150000D01*
G01*
X61450000Y-12285000D01*
G75*
G02*
X61300000Y-12435000I-150000J0D01*
G01*
X59650000Y-12435000D01*
G75*
G02*
X59500000Y-12285000I0J150000D01*
G01*
G37*
G36*
G01*
X59500000Y-11015000D02*
X59500000Y-10715000D01*
G75*
G02*
X59650000Y-10565000I150000J0D01*
G01*
X61300000Y-10565000D01*
G75*
G02*
X61450000Y-10715000I0J-150000D01*
G01*
X61450000Y-11015000D01*
G75*
G02*
X61300000Y-11165000I-150000J0D01*
G01*
X59650000Y-11165000D01*
G75*
G02*
X59500000Y-11015000I0J150000D01*
G01*
G37*
G36*
G01*
X59500000Y-9745000D02*
X59500000Y-9445000D01*
G75*
G02*
X59650000Y-9295000I150000J0D01*
G01*
X61300000Y-9295000D01*
G75*
G02*
X61450000Y-9445000I0J-150000D01*
G01*
X61450000Y-9745000D01*
G75*
G02*
X61300000Y-9895000I-150000J0D01*
G01*
X59650000Y-9895000D01*
G75*
G02*
X59500000Y-9745000I0J150000D01*
G01*
G37*
D23*
X58000000Y-11500000D03*
%TD*%
D24*
%TO.C,SW1*%
X36300000Y-11100000D03*
X41000000Y-11100000D03*
X45700000Y-11100000D03*
%TD*%
D25*
%TO.C,J6*%
X70000000Y-16905000D03*
X70000000Y-13095000D03*
%TD*%
%TO.C,J7*%
X18095000Y-8000000D03*
X21905000Y-8000000D03*
%TD*%
D26*
%TO.C,J5*%
X54400000Y-2200000D03*
G36*
G01*
X59500000Y-1700000D02*
X59500000Y-2700000D01*
G75*
G02*
X59000000Y-3200000I-500000J0D01*
G01*
X57000000Y-3200000D01*
G75*
G02*
X56500000Y-2700000I0J500000D01*
G01*
X56500000Y-1700000D01*
G75*
G02*
X57000000Y-1200000I500000J0D01*
G01*
X59000000Y-1200000D01*
G75*
G02*
X59500000Y-1700000I0J-500000D01*
G01*
G37*
D27*
X56650000Y-5000000D03*
X57350000Y-5000000D03*
X58000000Y-5000000D03*
X58650000Y-5000000D03*
X59300000Y-5000000D03*
D28*
X55575000Y-5000000D03*
X60425000Y-5000000D03*
D26*
X54400000Y-2200000D03*
X61600000Y-2200000D03*
%TD*%
%TO.C,U1*%
G36*
G01*
X47500000Y-21745000D02*
X47500000Y-21445000D01*
G75*
G02*
X47650000Y-21295000I150000J0D01*
G01*
X49300000Y-21295000D01*
G75*
G02*
X49450000Y-21445000I0J-150000D01*
G01*
X49450000Y-21745000D01*
G75*
G02*
X49300000Y-21895000I-150000J0D01*
G01*
X47650000Y-21895000D01*
G75*
G02*
X47500000Y-21745000I0J150000D01*
G01*
G37*
G36*
G01*
X47500000Y-23015000D02*
X47500000Y-22715000D01*
G75*
G02*
X47650000Y-22565000I150000J0D01*
G01*
X49300000Y-22565000D01*
G75*
G02*
X49450000Y-22715000I0J-150000D01*
G01*
X49450000Y-23015000D01*
G75*
G02*
X49300000Y-23165000I-150000J0D01*
G01*
X47650000Y-23165000D01*
G75*
G02*
X47500000Y-23015000I0J150000D01*
G01*
G37*
G36*
G01*
X47500000Y-24285000D02*
X47500000Y-23985000D01*
G75*
G02*
X47650000Y-23835000I150000J0D01*
G01*
X49300000Y-23835000D01*
G75*
G02*
X49450000Y-23985000I0J-150000D01*
G01*
X49450000Y-24285000D01*
G75*
G02*
X49300000Y-24435000I-150000J0D01*
G01*
X47650000Y-24435000D01*
G75*
G02*
X47500000Y-24285000I0J150000D01*
G01*
G37*
G36*
G01*
X47500000Y-25555000D02*
X47500000Y-25255000D01*
G75*
G02*
X47650000Y-25105000I150000J0D01*
G01*
X49300000Y-25105000D01*
G75*
G02*
X49450000Y-25255000I0J-150000D01*
G01*
X49450000Y-25555000D01*
G75*
G02*
X49300000Y-25705000I-150000J0D01*
G01*
X47650000Y-25705000D01*
G75*
G02*
X47500000Y-25555000I0J150000D01*
G01*
G37*
G36*
G01*
X42550000Y-25555000D02*
X42550000Y-25255000D01*
G75*
G02*
X42700000Y-25105000I150000J0D01*
G01*
X44350000Y-25105000D01*
G75*
G02*
X44500000Y-25255000I0J-150000D01*
G01*
X44500000Y-25555000D01*
G75*
G02*
X44350000Y-25705000I-150000J0D01*
G01*
X42700000Y-25705000D01*
G75*
G02*
X42550000Y-25555000I0J150000D01*
G01*
G37*
G36*
G01*
X42550000Y-24285000D02*
X42550000Y-23985000D01*
G75*
G02*
X42700000Y-23835000I150000J0D01*
G01*
X44350000Y-23835000D01*
G75*
G02*
X44500000Y-23985000I0J-150000D01*
G01*
X44500000Y-24285000D01*
G75*
G02*
X44350000Y-24435000I-150000J0D01*
G01*
X42700000Y-24435000D01*
G75*
G02*
X42550000Y-24285000I0J150000D01*
G01*
G37*
G36*
G01*
X42550000Y-23015000D02*
X42550000Y-22715000D01*
G75*
G02*
X42700000Y-22565000I150000J0D01*
G01*
X44350000Y-22565000D01*
G75*
G02*
X44500000Y-22715000I0J-150000D01*
G01*
X44500000Y-23015000D01*
G75*
G02*
X44350000Y-23165000I-150000J0D01*
G01*
X42700000Y-23165000D01*
G75*
G02*
X42550000Y-23015000I0J150000D01*
G01*
G37*
G36*
G01*
X42550000Y-21745000D02*
X42550000Y-21445000D01*
G75*
G02*
X42700000Y-21295000I150000J0D01*
G01*
X44350000Y-21295000D01*
G75*
G02*
X44500000Y-21445000I0J-150000D01*
G01*
X44500000Y-21745000D01*
G75*
G02*
X44350000Y-21895000I-150000J0D01*
G01*
X42700000Y-21895000D01*
G75*
G02*
X42550000Y-21745000I0J150000D01*
G01*
G37*
%TD*%
D29*
%TO.C,RV1*%
X5000000Y-13460000D03*
X5000000Y-16000000D03*
X5000000Y-18540000D03*
%TD*%
%TO.C,R3*%
G36*
G01*
X46900000Y-31625001D02*
X46900000Y-30374999D01*
G75*
G02*
X47149999Y-30125000I249999J0D01*
G01*
X47950001Y-30125000D01*
G75*
G02*
X48200000Y-30374999I0J-249999D01*
G01*
X48200000Y-31625001D01*
G75*
G02*
X47950001Y-31875000I-249999J0D01*
G01*
X47149999Y-31875000D01*
G75*
G02*
X46900000Y-31625001I0J249999D01*
G01*
G37*
G36*
G01*
X43800000Y-31625001D02*
X43800000Y-30374999D01*
G75*
G02*
X44049999Y-30125000I249999J0D01*
G01*
X44850001Y-30125000D01*
G75*
G02*
X45100000Y-30374999I0J-249999D01*
G01*
X45100000Y-31625001D01*
G75*
G02*
X44850001Y-31875000I-249999J0D01*
G01*
X44049999Y-31875000D01*
G75*
G02*
X43800000Y-31625001I0J249999D01*
G01*
G37*
%TD*%
%TO.C,R11*%
G36*
G01*
X53125001Y-11600000D02*
X51874999Y-11600000D01*
G75*
G02*
X51625000Y-11350001I0J249999D01*
G01*
X51625000Y-10549999D01*
G75*
G02*
X51874999Y-10300000I249999J0D01*
G01*
X53125001Y-10300000D01*
G75*
G02*
X53375000Y-10549999I0J-249999D01*
G01*
X53375000Y-11350001D01*
G75*
G02*
X53125001Y-11600000I-249999J0D01*
G01*
G37*
G36*
G01*
X53125001Y-14700000D02*
X51874999Y-14700000D01*
G75*
G02*
X51625000Y-14450001I0J249999D01*
G01*
X51625000Y-13649999D01*
G75*
G02*
X51874999Y-13400000I249999J0D01*
G01*
X53125001Y-13400000D01*
G75*
G02*
X53375000Y-13649999I0J-249999D01*
G01*
X53375000Y-14450001D01*
G75*
G02*
X53125001Y-14700000I-249999J0D01*
G01*
G37*
%TD*%
%TO.C,R8*%
G36*
G01*
X71625001Y-22100000D02*
X70374999Y-22100000D01*
G75*
G02*
X70125000Y-21850001I0J249999D01*
G01*
X70125000Y-21049999D01*
G75*
G02*
X70374999Y-20800000I249999J0D01*
G01*
X71625001Y-20800000D01*
G75*
G02*
X71875000Y-21049999I0J-249999D01*
G01*
X71875000Y-21850001D01*
G75*
G02*
X71625001Y-22100000I-249999J0D01*
G01*
G37*
G36*
G01*
X71625001Y-25200000D02*
X70374999Y-25200000D01*
G75*
G02*
X70125000Y-24950001I0J249999D01*
G01*
X70125000Y-24149999D01*
G75*
G02*
X70374999Y-23900000I249999J0D01*
G01*
X71625001Y-23900000D01*
G75*
G02*
X71875000Y-24149999I0J-249999D01*
G01*
X71875000Y-24950001D01*
G75*
G02*
X71625001Y-25200000I-249999J0D01*
G01*
G37*
%TD*%
%TO.C,R12*%
G36*
G01*
X27300000Y-8625001D02*
X27300000Y-7374999D01*
G75*
G02*
X27549999Y-7125000I249999J0D01*
G01*
X28350001Y-7125000D01*
G75*
G02*
X28600000Y-7374999I0J-249999D01*
G01*
X28600000Y-8625001D01*
G75*
G02*
X28350001Y-8875000I-249999J0D01*
G01*
X27549999Y-8875000D01*
G75*
G02*
X27300000Y-8625001I0J249999D01*
G01*
G37*
G36*
G01*
X30400000Y-8625001D02*
X30400000Y-7374999D01*
G75*
G02*
X30649999Y-7125000I249999J0D01*
G01*
X31450001Y-7125000D01*
G75*
G02*
X31700000Y-7374999I0J-249999D01*
G01*
X31700000Y-8625001D01*
G75*
G02*
X31450001Y-8875000I-249999J0D01*
G01*
X30649999Y-8875000D01*
G75*
G02*
X30400000Y-8625001I0J249999D01*
G01*
G37*
%TD*%
%TO.C,R9*%
G36*
G01*
X39100000Y-33374999D02*
X39100000Y-34625001D01*
G75*
G02*
X38850001Y-34875000I-249999J0D01*
G01*
X38049999Y-34875000D01*
G75*
G02*
X37800000Y-34625001I0J249999D01*
G01*
X37800000Y-33374999D01*
G75*
G02*
X38049999Y-33125000I249999J0D01*
G01*
X38850001Y-33125000D01*
G75*
G02*
X39100000Y-33374999I0J-249999D01*
G01*
G37*
G36*
G01*
X42200000Y-33374999D02*
X42200000Y-34625001D01*
G75*
G02*
X41950001Y-34875000I-249999J0D01*
G01*
X41149999Y-34875000D01*
G75*
G02*
X40900000Y-34625001I0J249999D01*
G01*
X40900000Y-33374999D01*
G75*
G02*
X41149999Y-33125000I249999J0D01*
G01*
X41950001Y-33125000D01*
G75*
G02*
X42200000Y-33374999I0J-249999D01*
G01*
G37*
%TD*%
%TO.C,R6*%
G36*
G01*
X45100000Y-33374999D02*
X45100000Y-34625001D01*
G75*
G02*
X44850001Y-34875000I-249999J0D01*
G01*
X44049999Y-34875000D01*
G75*
G02*
X43800000Y-34625001I0J249999D01*
G01*
X43800000Y-33374999D01*
G75*
G02*
X44049999Y-33125000I249999J0D01*
G01*
X44850001Y-33125000D01*
G75*
G02*
X45100000Y-33374999I0J-249999D01*
G01*
G37*
G36*
G01*
X48200000Y-33374999D02*
X48200000Y-34625001D01*
G75*
G02*
X47950001Y-34875000I-249999J0D01*
G01*
X47149999Y-34875000D01*
G75*
G02*
X46900000Y-34625001I0J249999D01*
G01*
X46900000Y-33374999D01*
G75*
G02*
X47149999Y-33125000I249999J0D01*
G01*
X47950001Y-33125000D01*
G75*
G02*
X48200000Y-33374999I0J-249999D01*
G01*
G37*
%TD*%
%TO.C,R7*%
G36*
G01*
X7400000Y-25125001D02*
X7400000Y-23874999D01*
G75*
G02*
X7649999Y-23625000I249999J0D01*
G01*
X8450001Y-23625000D01*
G75*
G02*
X8700000Y-23874999I0J-249999D01*
G01*
X8700000Y-25125001D01*
G75*
G02*
X8450001Y-25375000I-249999J0D01*
G01*
X7649999Y-25375000D01*
G75*
G02*
X7400000Y-25125001I0J249999D01*
G01*
G37*
G36*
G01*
X4300000Y-25125001D02*
X4300000Y-23874999D01*
G75*
G02*
X4549999Y-23625000I249999J0D01*
G01*
X5350001Y-23625000D01*
G75*
G02*
X5600000Y-23874999I0J-249999D01*
G01*
X5600000Y-25125001D01*
G75*
G02*
X5350001Y-25375000I-249999J0D01*
G01*
X4549999Y-25375000D01*
G75*
G02*
X4300000Y-25125001I0J249999D01*
G01*
G37*
%TD*%
%TO.C,R4*%
G36*
G01*
X46900000Y-28625001D02*
X46900000Y-27374999D01*
G75*
G02*
X47149999Y-27125000I249999J0D01*
G01*
X47950001Y-27125000D01*
G75*
G02*
X48200000Y-27374999I0J-249999D01*
G01*
X48200000Y-28625001D01*
G75*
G02*
X47950001Y-28875000I-249999J0D01*
G01*
X47149999Y-28875000D01*
G75*
G02*
X46900000Y-28625001I0J249999D01*
G01*
G37*
G36*
G01*
X43800000Y-28625001D02*
X43800000Y-27374999D01*
G75*
G02*
X44049999Y-27125000I249999J0D01*
G01*
X44850001Y-27125000D01*
G75*
G02*
X45100000Y-27374999I0J-249999D01*
G01*
X45100000Y-28625001D01*
G75*
G02*
X44850001Y-28875000I-249999J0D01*
G01*
X44049999Y-28875000D01*
G75*
G02*
X43800000Y-28625001I0J249999D01*
G01*
G37*
%TD*%
%TO.C,R2*%
G36*
G01*
X51374999Y-18400000D02*
X52625001Y-18400000D01*
G75*
G02*
X52875000Y-18649999I0J-249999D01*
G01*
X52875000Y-19450001D01*
G75*
G02*
X52625001Y-19700000I-249999J0D01*
G01*
X51374999Y-19700000D01*
G75*
G02*
X51125000Y-19450001I0J249999D01*
G01*
X51125000Y-18649999D01*
G75*
G02*
X51374999Y-18400000I249999J0D01*
G01*
G37*
G36*
G01*
X51374999Y-15300000D02*
X52625001Y-15300000D01*
G75*
G02*
X52875000Y-15549999I0J-249999D01*
G01*
X52875000Y-16350001D01*
G75*
G02*
X52625001Y-16600000I-249999J0D01*
G01*
X51374999Y-16600000D01*
G75*
G02*
X51125000Y-16350001I0J249999D01*
G01*
X51125000Y-15549999D01*
G75*
G02*
X51374999Y-15300000I249999J0D01*
G01*
G37*
%TD*%
%TO.C,R1*%
G36*
G01*
X51374999Y-24400000D02*
X52625001Y-24400000D01*
G75*
G02*
X52875000Y-24649999I0J-249999D01*
G01*
X52875000Y-25450001D01*
G75*
G02*
X52625001Y-25700000I-249999J0D01*
G01*
X51374999Y-25700000D01*
G75*
G02*
X51125000Y-25450001I0J249999D01*
G01*
X51125000Y-24649999D01*
G75*
G02*
X51374999Y-24400000I249999J0D01*
G01*
G37*
G36*
G01*
X51374999Y-21300000D02*
X52625001Y-21300000D01*
G75*
G02*
X52875000Y-21549999I0J-249999D01*
G01*
X52875000Y-22350001D01*
G75*
G02*
X52625001Y-22600000I-249999J0D01*
G01*
X51374999Y-22600000D01*
G75*
G02*
X51125000Y-22350001I0J249999D01*
G01*
X51125000Y-21549999D01*
G75*
G02*
X51374999Y-21300000I249999J0D01*
G01*
G37*
%TD*%
%TO.C,L2*%
G36*
G01*
X33250000Y-11324999D02*
X33250000Y-14175001D01*
G75*
G02*
X33000001Y-14425000I-249999J0D01*
G01*
X31974999Y-14425000D01*
G75*
G02*
X31725000Y-14175001I0J249999D01*
G01*
X31725000Y-11324999D01*
G75*
G02*
X31974999Y-11075000I249999J0D01*
G01*
X33000001Y-11075000D01*
G75*
G02*
X33250000Y-11324999I0J-249999D01*
G01*
G37*
G36*
G01*
X27275000Y-11324999D02*
X27275000Y-14175001D01*
G75*
G02*
X27025001Y-14425000I-249999J0D01*
G01*
X25999999Y-14425000D01*
G75*
G02*
X25750000Y-14175001I0J249999D01*
G01*
X25750000Y-11324999D01*
G75*
G02*
X25999999Y-11075000I249999J0D01*
G01*
X27025001Y-11075000D01*
G75*
G02*
X27275000Y-11324999I0J-249999D01*
G01*
G37*
%TD*%
%TO.C,D3*%
G36*
G01*
X74375000Y-23775000D02*
X75625000Y-23775000D01*
G75*
G02*
X75875000Y-24025000I0J-250000D01*
G01*
X75875000Y-24950000D01*
G75*
G02*
X75625000Y-25200000I-250000J0D01*
G01*
X74375000Y-25200000D01*
G75*
G02*
X74125000Y-24950000I0J250000D01*
G01*
X74125000Y-24025000D01*
G75*
G02*
X74375000Y-23775000I250000J0D01*
G01*
G37*
G36*
G01*
X74375000Y-20800000D02*
X75625000Y-20800000D01*
G75*
G02*
X75875000Y-21050000I0J-250000D01*
G01*
X75875000Y-21975000D01*
G75*
G02*
X75625000Y-22225000I-250000J0D01*
G01*
X74375000Y-22225000D01*
G75*
G02*
X74125000Y-21975000I0J250000D01*
G01*
X74125000Y-21050000D01*
G75*
G02*
X74375000Y-20800000I250000J0D01*
G01*
G37*
%TD*%
%TO.C,D4*%
G36*
G01*
X30275000Y-4125000D02*
X30275000Y-2875000D01*
G75*
G02*
X30525000Y-2625000I250000J0D01*
G01*
X31450000Y-2625000D01*
G75*
G02*
X31700000Y-2875000I0J-250000D01*
G01*
X31700000Y-4125000D01*
G75*
G02*
X31450000Y-4375000I-250000J0D01*
G01*
X30525000Y-4375000D01*
G75*
G02*
X30275000Y-4125000I0J250000D01*
G01*
G37*
G36*
G01*
X27300000Y-4125000D02*
X27300000Y-2875000D01*
G75*
G02*
X27550000Y-2625000I250000J0D01*
G01*
X28475000Y-2625000D01*
G75*
G02*
X28725000Y-2875000I0J-250000D01*
G01*
X28725000Y-4125000D01*
G75*
G02*
X28475000Y-4375000I-250000J0D01*
G01*
X27550000Y-4375000D01*
G75*
G02*
X27300000Y-4125000I0J250000D01*
G01*
G37*
%TD*%
%TO.C,C2*%
G36*
G01*
X67650002Y-6100000D02*
X66349998Y-6100000D01*
G75*
G02*
X66100000Y-5850002I0J249998D01*
G01*
X66100000Y-5024998D01*
G75*
G02*
X66349998Y-4775000I249998J0D01*
G01*
X67650002Y-4775000D01*
G75*
G02*
X67900000Y-5024998I0J-249998D01*
G01*
X67900000Y-5850002D01*
G75*
G02*
X67650002Y-6100000I-249998J0D01*
G01*
G37*
G36*
G01*
X67650002Y-9225000D02*
X66349998Y-9225000D01*
G75*
G02*
X66100000Y-8975002I0J249998D01*
G01*
X66100000Y-8149998D01*
G75*
G02*
X66349998Y-7900000I249998J0D01*
G01*
X67650002Y-7900000D01*
G75*
G02*
X67900000Y-8149998I0J-249998D01*
G01*
X67900000Y-8975002D01*
G75*
G02*
X67650002Y-9225000I-249998J0D01*
G01*
G37*
%TD*%
%TO.C,C3*%
G36*
G01*
X39849998Y-26900000D02*
X41150002Y-26900000D01*
G75*
G02*
X41400000Y-27149998I0J-249998D01*
G01*
X41400000Y-27975002D01*
G75*
G02*
X41150002Y-28225000I-249998J0D01*
G01*
X39849998Y-28225000D01*
G75*
G02*
X39600000Y-27975002I0J249998D01*
G01*
X39600000Y-27149998D01*
G75*
G02*
X39849998Y-26900000I249998J0D01*
G01*
G37*
G36*
G01*
X39849998Y-23775000D02*
X41150002Y-23775000D01*
G75*
G02*
X41400000Y-24024998I0J-249998D01*
G01*
X41400000Y-24850002D01*
G75*
G02*
X41150002Y-25100000I-249998J0D01*
G01*
X39849998Y-25100000D01*
G75*
G02*
X39600000Y-24850002I0J249998D01*
G01*
X39600000Y-24024998D01*
G75*
G02*
X39849998Y-23775000I249998J0D01*
G01*
G37*
%TD*%
D30*
%TO.C,J4*%
X5000000Y-35000000D03*
D31*
X5000000Y-35000000D03*
%TD*%
D30*
%TO.C,J3*%
X73000000Y-5000000D03*
D31*
X73000000Y-5000000D03*
%TD*%
D30*
%TO.C,J2*%
X73000000Y-35000000D03*
D31*
X73000000Y-35000000D03*
%TD*%
D30*
%TO.C,J1*%
X5000000Y-5000000D03*
D31*
X5000000Y-5000000D03*
%TD*%
M02*
