%TF.GenerationSoftware,KiCad,Pcbnew,(5.1.10)-1*%
%TF.CreationDate,2021-06-27T16:28:37+02:00*%
%TF.ProjectId,BatteryBoost,42617474-6572-4794-926f-6f73742e6b69,rev?*%
%TF.SameCoordinates,Original*%
%TF.FileFunction,Copper,L2,Bot*%
%TF.FilePolarity,Positive*%
%FSLAX46Y46*%
G04 Gerber Fmt 4.6, Leading zero omitted, Abs format (unit mm)*
G04 Created by KiCad (PCBNEW (5.1.10)-1) date 2021-06-27 16:28:37*
%MOMM*%
%LPD*%
G01*
G04 APERTURE LIST*
%TA.AperFunction,Profile*%
%ADD10C,0.050000*%
%TD*%
%TA.AperFunction,ComponentPad*%
%ADD11O,2.300000X3.000000*%
%TD*%
%TA.AperFunction,ComponentPad*%
%ADD12C,1.800000*%
%TD*%
%TA.AperFunction,ComponentPad*%
%ADD13C,2.700000*%
%TD*%
%TA.AperFunction,ComponentPad*%
%ADD14O,1.100000X1.800000*%
%TD*%
%TA.AperFunction,ComponentPad*%
%ADD15C,1.290000*%
%TD*%
%TA.AperFunction,ConnectorPad*%
%ADD16C,5.600000*%
%TD*%
%TA.AperFunction,ComponentPad*%
%ADD17C,3.600000*%
%TD*%
%TA.AperFunction,ViaPad*%
%ADD18C,0.500000*%
%TD*%
%TA.AperFunction,ViaPad*%
%ADD19C,0.800000*%
%TD*%
%TA.AperFunction,Conductor*%
%ADD20C,0.500000*%
%TD*%
%TA.AperFunction,Conductor*%
%ADD21C,1.000000*%
%TD*%
%TA.AperFunction,Conductor*%
%ADD22C,2.000000*%
%TD*%
%TA.AperFunction,Conductor*%
%ADD23C,1.500000*%
%TD*%
%TA.AperFunction,Conductor*%
%ADD24C,0.750000*%
%TD*%
%TA.AperFunction,Conductor*%
%ADD25C,0.254000*%
%TD*%
%TA.AperFunction,Conductor*%
%ADD26C,0.100000*%
%TD*%
%TA.AperFunction,Conductor*%
%ADD27C,0.200000*%
%TD*%
G04 APERTURE END LIST*
D10*
X3000000Y-40000000D02*
X0Y-37000000D01*
X80000000Y-37000000D02*
X77000000Y-40000000D01*
X77000000Y0D02*
X80000000Y-3000000D01*
X0Y-3000000D02*
X3000000Y0D01*
X80000000Y-37000000D02*
X80000000Y-3000000D01*
X3000000Y-40000000D02*
X77000000Y-40000000D01*
X77000000Y0D02*
X3000000Y0D01*
X0Y-3000000D02*
X0Y-37000000D01*
D11*
%TO.P,SW1,1*%
%TO.N,Net-(SW1-Pad1)*%
X32050000Y-11100000D03*
%TO.P,SW1,2*%
%TO.N,Net-(Q1-PadD)*%
X36750000Y-11100000D03*
%TO.P,SW1,3*%
%TO.N,SMPS_Pwr*%
X41450000Y-11100000D03*
%TD*%
D12*
%TO.P,RV1,3*%
%TO.N,Net-(R7-Pad1)*%
X20790000Y-35750000D03*
%TO.P,RV1,2*%
%TO.N,SMPS_VoltageSetting*%
X18250000Y-35750000D03*
%TO.P,RV1,1*%
%TO.N,Net-(R6-Pad2)*%
X15710000Y-35750000D03*
%TD*%
D13*
%TO.P,J7,1*%
%TO.N,/Vout*%
X72000000Y-14655000D03*
%TO.P,J7,2*%
%TO.N,GND*%
X72000000Y-10845000D03*
%TD*%
%TO.P,J6,1*%
%TO.N,/Raw_Batt_+*%
X8000000Y-10845000D03*
%TO.P,J6,2*%
%TO.N,/Raw_Batt_-*%
X8000000Y-14655000D03*
%TD*%
D14*
%TO.P,J5,6*%
%TO.N,GND*%
X12650000Y-2450000D03*
D15*
X13825000Y-5250000D03*
X18675000Y-5250000D03*
D14*
X12650000Y-2450000D03*
X19850000Y-2450000D03*
%TD*%
D16*
%TO.P,J4,1*%
%TO.N,GND*%
X4250000Y-35750000D03*
D17*
X4250000Y-35750000D03*
%TD*%
D16*
%TO.P,J3,1*%
%TO.N,GND*%
X75750000Y-4250000D03*
D17*
X75750000Y-4250000D03*
%TD*%
D16*
%TO.P,J2,1*%
%TO.N,GND*%
X75750000Y-35750000D03*
D17*
X75750000Y-35750000D03*
%TD*%
D16*
%TO.P,J1,1*%
%TO.N,GND*%
X4250000Y-4250000D03*
D17*
X4250000Y-4250000D03*
%TD*%
D18*
%TO.N,GND*%
X37750000Y-34250000D03*
X39750000Y-34250000D03*
X40500000Y-35000000D03*
X38750000Y-34250000D03*
X37000000Y-35000000D03*
X47000000Y-34250000D03*
X49000000Y-34250000D03*
X49750000Y-35000000D03*
X48000000Y-34250000D03*
X46250000Y-35000000D03*
X56250000Y-34250000D03*
X58250000Y-34250000D03*
X59000000Y-35000000D03*
X57250000Y-34250000D03*
X55500000Y-35000000D03*
X65500000Y-34250000D03*
X67500000Y-34250000D03*
X68250000Y-35000000D03*
X66500000Y-34250000D03*
X64750000Y-35000000D03*
X63250000Y-2500000D03*
X64000000Y-7250000D03*
X65500000Y-8500000D03*
X67000000Y-7250000D03*
X15500000Y-23750000D03*
X13500000Y-29500000D03*
X15750000Y-28000000D03*
X7000000Y-31000000D03*
X7000000Y-32250000D03*
X8250000Y-33000000D03*
X29500000Y-34250000D03*
X30500000Y-34250000D03*
X31250000Y-35000000D03*
X28500000Y-34250000D03*
X27750000Y-35000000D03*
X12250000Y-18250000D03*
X26000000Y-16750000D03*
X63500000Y-5250000D03*
X46000000Y-2000000D03*
%TO.N,+5V*%
X6500000Y-22750000D03*
X6500000Y-28250000D03*
X13725000Y-19275000D03*
D19*
%TO.N,VBATT*%
X30250000Y-22250000D03*
X31750000Y-22250000D03*
X13250000Y-16500000D03*
%TO.N,Net-(L1-Pad2)*%
X51500000Y-13500000D03*
X51500000Y-14500000D03*
X51500000Y-15500000D03*
X51500000Y-16500000D03*
X52400000Y-6300000D03*
X52900000Y-7100000D03*
X53400000Y-6300000D03*
D18*
%TO.N,SMPS_Pwr*%
X52750000Y-2250000D03*
X52750000Y-3250000D03*
X52750000Y-4250000D03*
X53750000Y-3250000D03*
X53750000Y-4250000D03*
X54750000Y-3750000D03*
X59250000Y-2900000D03*
X59250000Y-3900000D03*
X59250000Y-4900000D03*
X58250000Y-3900000D03*
D19*
X36250000Y-25750000D03*
X37250000Y-25750000D03*
X38250000Y-25750000D03*
X39250000Y-25750000D03*
%TO.N,Net-(R7-Pad1)*%
X22250000Y-25500000D03*
%TO.N,SMPS_Output*%
X22250000Y-20250000D03*
X36250000Y-31000000D03*
D18*
%TO.N,SMPS_VoltageSetting*%
X54500000Y-1750000D03*
X18750000Y-17500000D03*
%TO.N,Net-(R6-Pad2)*%
X26500000Y-25250000D03*
D19*
%TO.N,/Raw_Batt_-*%
X16000000Y-10000000D03*
X20750000Y-6250000D03*
%TO.N,Net-(R16-Pad1)*%
X37750000Y-20500000D03*
X35000000Y-17250000D03*
%TD*%
D20*
%TO.N,+5V*%
X6500000Y-22750000D02*
X6500000Y-28250000D01*
X10250000Y-22750000D02*
X13725000Y-19275000D01*
X6500000Y-22750000D02*
X10250000Y-22750000D01*
D21*
%TO.N,VBATT*%
X31750000Y-22250000D02*
X30250000Y-22250000D01*
X19000000Y-22250000D02*
X13250000Y-16500000D01*
X30250000Y-22250000D02*
X19000000Y-22250000D01*
D22*
%TO.N,SMPS_Pwr*%
X41450000Y-11100000D02*
X41450000Y-5050000D01*
X42750000Y-3750000D02*
X54750000Y-3750000D01*
X41450000Y-5050000D02*
X42750000Y-3750000D01*
D23*
X41450000Y-23550000D02*
X39250000Y-25750000D01*
X39250000Y-25750000D02*
X38250000Y-25750000D01*
X41450000Y-11100000D02*
X41450000Y-23550000D01*
X36250000Y-25750000D02*
X36250000Y-25750000D01*
X37250000Y-25750000D02*
X36250000Y-25750000D01*
X38250000Y-25750000D02*
X37250000Y-25750000D01*
X39250000Y-25750000D02*
X39250000Y-25750000D01*
D20*
%TO.N,Net-(R7-Pad1)*%
X22250000Y-34290000D02*
X20790000Y-35750000D01*
X22250000Y-25500000D02*
X22250000Y-34290000D01*
%TO.N,SMPS_Output*%
X22250000Y-20250000D02*
X32500000Y-20250000D01*
X32500000Y-20250000D02*
X34000000Y-21750000D01*
X34000000Y-28750000D02*
X36250000Y-31000000D01*
X34000000Y-21750000D02*
X34000000Y-28750000D01*
%TO.N,SMPS_VoltageSetting*%
X19750000Y-11750000D02*
X19750000Y-11500000D01*
X19750000Y-11500000D02*
X25500000Y-5750000D01*
X25500000Y-5750000D02*
X35500000Y-5750000D01*
X53799999Y-1049999D02*
X54500000Y-1750000D01*
X40200001Y-1049999D02*
X53799999Y-1049999D01*
X35500000Y-5750000D02*
X40200001Y-1049999D01*
X18750000Y-17500000D02*
X18750000Y-17500000D01*
X18750000Y-17500000D02*
X19750000Y-16500000D01*
X19750000Y-16500000D02*
X19750000Y-11500000D01*
%TO.N,Net-(R6-Pad2)*%
X26500000Y-34250000D02*
X26500000Y-25250000D01*
X22500000Y-38250000D02*
X26500000Y-34250000D01*
X16250000Y-38250000D02*
X22500000Y-38250000D01*
X15710000Y-37710000D02*
X16250000Y-38250000D01*
X15710000Y-35750000D02*
X15710000Y-37710000D01*
D24*
%TO.N,/Raw_Batt_-*%
X11345000Y-14655000D02*
X16000000Y-10000000D01*
X8000000Y-14655000D02*
X11345000Y-14655000D01*
D20*
X20750000Y-6250000D02*
X19500000Y-7500000D01*
X18500000Y-7500000D02*
X16000000Y-10000000D01*
X19500000Y-7500000D02*
X18500000Y-7500000D01*
%TO.N,Net-(R16-Pad1)*%
X37750000Y-20500000D02*
X36000000Y-20500000D01*
X35000000Y-19500000D02*
X35000000Y-17250000D01*
X36000000Y-20500000D02*
X35000000Y-19500000D01*
%TD*%
D25*
%TO.N,GND*%
X35133422Y-4865000D02*
X25543469Y-4865000D01*
X25500000Y-4860719D01*
X25456531Y-4865000D01*
X25456523Y-4865000D01*
X25341306Y-4876348D01*
X25326509Y-4877805D01*
X25275903Y-4893157D01*
X25159687Y-4928411D01*
X25005941Y-5010589D01*
X25005939Y-5010590D01*
X25005940Y-5010590D01*
X24904953Y-5093468D01*
X24904951Y-5093470D01*
X24871183Y-5121183D01*
X24843470Y-5154951D01*
X19154955Y-10843467D01*
X19121183Y-10871183D01*
X19010589Y-11005941D01*
X18928411Y-11159687D01*
X18877805Y-11326510D01*
X18865000Y-11456523D01*
X18865000Y-11456531D01*
X18860719Y-11500000D01*
X18865000Y-11543469D01*
X18865000Y-11793476D01*
X18865001Y-11793485D01*
X18865000Y-16133421D01*
X18185848Y-16812574D01*
X18185845Y-16812576D01*
X18154951Y-16843470D01*
X18121183Y-16871183D01*
X18093470Y-16904951D01*
X18062576Y-16935845D01*
X18038304Y-16972171D01*
X18010589Y-17005941D01*
X17989996Y-17044467D01*
X17965723Y-17080795D01*
X17949001Y-17121165D01*
X17928411Y-17159687D01*
X17915731Y-17201487D01*
X17899010Y-17241855D01*
X17890487Y-17284705D01*
X17877805Y-17326510D01*
X17873523Y-17369987D01*
X17865000Y-17412835D01*
X17865000Y-17456523D01*
X17860718Y-17500000D01*
X17865000Y-17543477D01*
X17865000Y-17587165D01*
X17873523Y-17630013D01*
X17877805Y-17673490D01*
X17890487Y-17715295D01*
X17899010Y-17758145D01*
X17915731Y-17798513D01*
X17928411Y-17840313D01*
X17949001Y-17878835D01*
X17965723Y-17919205D01*
X17989996Y-17955533D01*
X18010589Y-17994059D01*
X18038304Y-18027829D01*
X18062576Y-18064155D01*
X18093470Y-18095049D01*
X18121183Y-18128817D01*
X18154951Y-18156530D01*
X18185845Y-18187424D01*
X18222171Y-18211696D01*
X18255941Y-18239411D01*
X18294467Y-18260004D01*
X18330795Y-18284277D01*
X18371165Y-18300999D01*
X18409687Y-18321589D01*
X18451487Y-18334269D01*
X18491855Y-18350990D01*
X18534705Y-18359513D01*
X18576510Y-18372195D01*
X18619987Y-18376477D01*
X18662835Y-18385000D01*
X18706531Y-18385000D01*
X18750000Y-18389281D01*
X18793469Y-18385000D01*
X18837165Y-18385000D01*
X18880013Y-18376477D01*
X18923490Y-18372195D01*
X18965295Y-18359513D01*
X19008145Y-18350990D01*
X19048513Y-18334269D01*
X19090313Y-18321589D01*
X19128835Y-18300999D01*
X19169205Y-18284277D01*
X19205533Y-18260004D01*
X19244059Y-18239411D01*
X19277829Y-18211696D01*
X19314155Y-18187424D01*
X19345049Y-18156530D01*
X19378817Y-18128817D01*
X19406530Y-18095049D01*
X19437424Y-18064155D01*
X19437426Y-18064152D01*
X20345050Y-17156529D01*
X20355368Y-17148061D01*
X33965000Y-17148061D01*
X33965000Y-17351939D01*
X34004774Y-17551898D01*
X34082795Y-17740256D01*
X34115001Y-17788455D01*
X34115000Y-19456531D01*
X34110719Y-19500000D01*
X34115000Y-19543469D01*
X34115000Y-19543476D01*
X34127805Y-19673489D01*
X34178411Y-19840312D01*
X34260589Y-19994058D01*
X34371183Y-20128817D01*
X34404956Y-20156534D01*
X35343470Y-21095049D01*
X35371183Y-21128817D01*
X35404951Y-21156530D01*
X35404953Y-21156532D01*
X35505941Y-21239411D01*
X35659686Y-21321589D01*
X35826510Y-21372195D01*
X35956523Y-21385000D01*
X35956531Y-21385000D01*
X36000000Y-21389281D01*
X36043469Y-21385000D01*
X37211546Y-21385000D01*
X37259744Y-21417205D01*
X37448102Y-21495226D01*
X37648061Y-21535000D01*
X37851939Y-21535000D01*
X38051898Y-21495226D01*
X38240256Y-21417205D01*
X38409774Y-21303937D01*
X38553937Y-21159774D01*
X38667205Y-20990256D01*
X38745226Y-20801898D01*
X38785000Y-20601939D01*
X38785000Y-20398061D01*
X38745226Y-20198102D01*
X38667205Y-20009744D01*
X38553937Y-19840226D01*
X38409774Y-19696063D01*
X38240256Y-19582795D01*
X38051898Y-19504774D01*
X37851939Y-19465000D01*
X37648061Y-19465000D01*
X37448102Y-19504774D01*
X37259744Y-19582795D01*
X37211546Y-19615000D01*
X36366579Y-19615000D01*
X35885000Y-19133422D01*
X35885000Y-17788454D01*
X35917205Y-17740256D01*
X35995226Y-17551898D01*
X36035000Y-17351939D01*
X36035000Y-17148061D01*
X35995226Y-16948102D01*
X35917205Y-16759744D01*
X35803937Y-16590226D01*
X35659774Y-16446063D01*
X35490256Y-16332795D01*
X35301898Y-16254774D01*
X35101939Y-16215000D01*
X34898061Y-16215000D01*
X34698102Y-16254774D01*
X34509744Y-16332795D01*
X34340226Y-16446063D01*
X34196063Y-16590226D01*
X34082795Y-16759744D01*
X34004774Y-16948102D01*
X33965000Y-17148061D01*
X20355368Y-17148061D01*
X20378817Y-17128817D01*
X20489411Y-16994059D01*
X20513975Y-16948102D01*
X20571589Y-16840314D01*
X20622195Y-16673490D01*
X20625493Y-16640000D01*
X20635000Y-16543477D01*
X20635000Y-16543469D01*
X20639281Y-16500000D01*
X20635000Y-16456531D01*
X20635000Y-11866578D01*
X21839260Y-10662318D01*
X30265000Y-10662318D01*
X30265000Y-11537683D01*
X30290828Y-11799921D01*
X30392896Y-12136395D01*
X30558646Y-12446491D01*
X30781709Y-12718292D01*
X31053510Y-12941354D01*
X31363606Y-13107104D01*
X31700080Y-13209172D01*
X32050000Y-13243636D01*
X32399921Y-13209172D01*
X32736395Y-13107104D01*
X33046491Y-12941354D01*
X33318292Y-12718292D01*
X33541354Y-12446491D01*
X33707104Y-12136395D01*
X33809172Y-11799921D01*
X33835000Y-11537682D01*
X33835000Y-10662318D01*
X34965000Y-10662318D01*
X34965000Y-11537683D01*
X34990828Y-11799921D01*
X35092896Y-12136395D01*
X35258646Y-12446491D01*
X35481709Y-12718292D01*
X35753510Y-12941354D01*
X36063606Y-13107104D01*
X36400080Y-13209172D01*
X36750000Y-13243636D01*
X37099921Y-13209172D01*
X37436395Y-13107104D01*
X37746491Y-12941354D01*
X38018292Y-12718292D01*
X38241354Y-12446491D01*
X38407104Y-12136395D01*
X38509172Y-11799921D01*
X38535000Y-11537682D01*
X38535000Y-10662317D01*
X38509172Y-10400079D01*
X38407104Y-10063605D01*
X38241354Y-9753509D01*
X38018292Y-9481708D01*
X37746490Y-9258646D01*
X37436394Y-9092896D01*
X37099920Y-8990828D01*
X36750000Y-8956364D01*
X36400079Y-8990828D01*
X36063605Y-9092896D01*
X35753509Y-9258646D01*
X35481708Y-9481708D01*
X35258646Y-9753510D01*
X35092896Y-10063606D01*
X34990828Y-10400080D01*
X34965000Y-10662318D01*
X33835000Y-10662318D01*
X33835000Y-10662317D01*
X33809172Y-10400079D01*
X33707104Y-10063605D01*
X33541354Y-9753509D01*
X33318292Y-9481708D01*
X33046490Y-9258646D01*
X32736394Y-9092896D01*
X32399920Y-8990828D01*
X32050000Y-8956364D01*
X31700079Y-8990828D01*
X31363605Y-9092896D01*
X31053509Y-9258646D01*
X30781708Y-9481708D01*
X30558646Y-9753510D01*
X30392896Y-10063606D01*
X30290828Y-10400080D01*
X30265000Y-10662318D01*
X21839260Y-10662318D01*
X25866579Y-6635000D01*
X35456531Y-6635000D01*
X35500000Y-6639281D01*
X35543469Y-6635000D01*
X35543477Y-6635000D01*
X35673490Y-6622195D01*
X35840313Y-6571589D01*
X35994059Y-6489411D01*
X36128817Y-6378817D01*
X36156534Y-6345044D01*
X40566580Y-1934999D01*
X51365000Y-1934999D01*
X51365000Y-2115000D01*
X42830322Y-2115000D01*
X42750000Y-2107089D01*
X42429483Y-2138657D01*
X42185805Y-2212576D01*
X42121285Y-2232148D01*
X41837248Y-2383969D01*
X41588286Y-2588286D01*
X41537084Y-2650677D01*
X40350681Y-3837080D01*
X40288287Y-3888286D01*
X40113726Y-4100990D01*
X40083970Y-4137248D01*
X39932148Y-4421286D01*
X39838658Y-4729484D01*
X39807089Y-5050000D01*
X39815001Y-5130329D01*
X39815000Y-10022252D01*
X39792896Y-10063606D01*
X39690828Y-10400080D01*
X39665000Y-10662318D01*
X39665000Y-11537683D01*
X39690828Y-11799921D01*
X39792896Y-12136395D01*
X39958646Y-12446491D01*
X40065000Y-12576083D01*
X40065001Y-22976313D01*
X38676315Y-24365000D01*
X36181963Y-24365000D01*
X35978493Y-24385040D01*
X35717419Y-24464236D01*
X35476812Y-24592843D01*
X35265919Y-24765919D01*
X35092843Y-24976812D01*
X34964236Y-25217419D01*
X34885040Y-25478493D01*
X34885000Y-25478899D01*
X34885000Y-21793465D01*
X34889281Y-21749999D01*
X34885000Y-21706533D01*
X34885000Y-21706523D01*
X34872195Y-21576510D01*
X34821589Y-21409687D01*
X34739411Y-21255941D01*
X34660488Y-21159774D01*
X34656532Y-21154953D01*
X34656530Y-21154951D01*
X34628817Y-21121183D01*
X34595050Y-21093471D01*
X33156534Y-19654956D01*
X33128817Y-19621183D01*
X32994059Y-19510589D01*
X32840313Y-19428411D01*
X32673490Y-19377805D01*
X32543477Y-19365000D01*
X32543469Y-19365000D01*
X32500000Y-19360719D01*
X32456531Y-19365000D01*
X22788454Y-19365000D01*
X22740256Y-19332795D01*
X22551898Y-19254774D01*
X22351939Y-19215000D01*
X22148061Y-19215000D01*
X21948102Y-19254774D01*
X21759744Y-19332795D01*
X21590226Y-19446063D01*
X21446063Y-19590226D01*
X21332795Y-19759744D01*
X21254774Y-19948102D01*
X21215000Y-20148061D01*
X21215000Y-20351939D01*
X21254774Y-20551898D01*
X21332795Y-20740256D01*
X21446063Y-20909774D01*
X21590226Y-21053937D01*
X21681613Y-21115000D01*
X19470132Y-21115000D01*
X14013143Y-15658012D01*
X13883622Y-15551717D01*
X13686446Y-15446324D01*
X13472498Y-15381423D01*
X13250000Y-15359509D01*
X13027502Y-15381423D01*
X12813554Y-15446324D01*
X12616378Y-15551717D01*
X12443552Y-15693552D01*
X12301717Y-15866378D01*
X12196324Y-16063554D01*
X12131423Y-16277502D01*
X12109509Y-16500000D01*
X12131423Y-16722498D01*
X12196324Y-16936446D01*
X12301717Y-17133622D01*
X12408012Y-17263143D01*
X13548567Y-18403698D01*
X13509712Y-18415485D01*
X13466855Y-18424010D01*
X13426481Y-18440733D01*
X13384686Y-18453412D01*
X13346168Y-18474000D01*
X13305795Y-18490723D01*
X13269464Y-18514999D01*
X13230940Y-18535590D01*
X13197170Y-18563304D01*
X13160845Y-18587576D01*
X13129953Y-18618468D01*
X9883422Y-21865000D01*
X6543476Y-21865000D01*
X6500000Y-21860718D01*
X6456523Y-21865000D01*
X6412835Y-21865000D01*
X6369987Y-21873523D01*
X6326510Y-21877805D01*
X6284705Y-21890487D01*
X6241855Y-21899010D01*
X6201487Y-21915731D01*
X6159687Y-21928411D01*
X6121165Y-21949001D01*
X6080795Y-21965723D01*
X6044467Y-21989996D01*
X6005941Y-22010589D01*
X5972171Y-22038304D01*
X5935845Y-22062576D01*
X5904951Y-22093470D01*
X5871183Y-22121183D01*
X5843470Y-22154951D01*
X5812576Y-22185845D01*
X5788304Y-22222171D01*
X5760589Y-22255941D01*
X5739996Y-22294467D01*
X5715723Y-22330795D01*
X5699001Y-22371165D01*
X5678411Y-22409687D01*
X5665731Y-22451487D01*
X5649010Y-22491855D01*
X5640487Y-22534705D01*
X5627805Y-22576510D01*
X5623523Y-22619987D01*
X5615000Y-22662835D01*
X5615000Y-22706523D01*
X5610718Y-22750000D01*
X5615000Y-22793477D01*
X5615001Y-28162830D01*
X5615000Y-28162835D01*
X5615000Y-28337165D01*
X5623525Y-28380023D01*
X5627806Y-28423490D01*
X5640485Y-28465285D01*
X5649010Y-28508145D01*
X5665735Y-28548522D01*
X5678412Y-28590313D01*
X5698998Y-28628827D01*
X5715723Y-28669205D01*
X5740001Y-28705540D01*
X5760590Y-28744059D01*
X5788299Y-28777823D01*
X5812576Y-28814155D01*
X5843476Y-28845055D01*
X5871184Y-28878817D01*
X5904946Y-28906525D01*
X5935845Y-28937424D01*
X5972176Y-28961700D01*
X6005942Y-28989411D01*
X6044463Y-29010001D01*
X6080795Y-29034277D01*
X6121169Y-29051000D01*
X6159688Y-29071589D01*
X6201484Y-29084268D01*
X6241855Y-29100990D01*
X6284708Y-29109514D01*
X6326511Y-29122195D01*
X6369987Y-29126477D01*
X6412835Y-29135000D01*
X6456524Y-29135000D01*
X6500000Y-29139282D01*
X6543477Y-29135000D01*
X6587165Y-29135000D01*
X6630013Y-29126477D01*
X6673490Y-29122195D01*
X6715295Y-29109513D01*
X6758145Y-29100990D01*
X6798513Y-29084269D01*
X6840313Y-29071589D01*
X6878835Y-29050999D01*
X6919205Y-29034277D01*
X6955533Y-29010004D01*
X6994059Y-28989411D01*
X7027829Y-28961696D01*
X7064155Y-28937424D01*
X7095049Y-28906530D01*
X7128817Y-28878817D01*
X7156530Y-28845049D01*
X7187424Y-28814155D01*
X7211696Y-28777829D01*
X7239411Y-28744059D01*
X7260004Y-28705533D01*
X7284277Y-28669205D01*
X7300999Y-28628835D01*
X7321589Y-28590313D01*
X7334269Y-28548513D01*
X7350990Y-28508145D01*
X7359513Y-28465295D01*
X7372195Y-28423490D01*
X7376477Y-28380013D01*
X7385000Y-28337165D01*
X7385000Y-23635000D01*
X10206531Y-23635000D01*
X10250000Y-23639281D01*
X10293469Y-23635000D01*
X10293477Y-23635000D01*
X10423490Y-23622195D01*
X10590313Y-23571589D01*
X10744059Y-23489411D01*
X10878817Y-23378817D01*
X10906534Y-23345044D01*
X14381532Y-19870047D01*
X14412424Y-19839155D01*
X14436696Y-19802830D01*
X14464410Y-19769060D01*
X14485001Y-19730536D01*
X14509277Y-19694205D01*
X14526000Y-19653832D01*
X14546588Y-19615314D01*
X14559267Y-19573519D01*
X14575990Y-19533145D01*
X14584515Y-19490288D01*
X14596302Y-19451433D01*
X18158009Y-23013141D01*
X18193551Y-23056449D01*
X18366377Y-23198284D01*
X18563553Y-23303676D01*
X18777501Y-23368577D01*
X18881471Y-23378817D01*
X19000000Y-23390491D01*
X19055751Y-23385000D01*
X31805752Y-23385000D01*
X31972499Y-23368577D01*
X32186447Y-23303676D01*
X32383623Y-23198284D01*
X32556449Y-23056449D01*
X32698284Y-22883623D01*
X32803676Y-22686447D01*
X32868577Y-22472499D01*
X32890491Y-22250000D01*
X32868577Y-22027501D01*
X32803676Y-21813553D01*
X32794147Y-21795726D01*
X33115000Y-22116579D01*
X33115001Y-28706521D01*
X33110719Y-28750000D01*
X33127805Y-28923490D01*
X33178412Y-29090313D01*
X33260590Y-29244059D01*
X33343468Y-29345046D01*
X33343471Y-29345049D01*
X33371184Y-29378817D01*
X33404951Y-29406529D01*
X35243465Y-31245044D01*
X35254774Y-31301898D01*
X35332795Y-31490256D01*
X35446063Y-31659774D01*
X35590226Y-31803937D01*
X35759744Y-31917205D01*
X35948102Y-31995226D01*
X36148061Y-32035000D01*
X36351939Y-32035000D01*
X36551898Y-31995226D01*
X36740256Y-31917205D01*
X36909774Y-31803937D01*
X37053937Y-31659774D01*
X37167205Y-31490256D01*
X37245226Y-31301898D01*
X37285000Y-31101939D01*
X37285000Y-30898061D01*
X37245226Y-30698102D01*
X37167205Y-30509744D01*
X37053937Y-30340226D01*
X36909774Y-30196063D01*
X36740256Y-30082795D01*
X36551898Y-30004774D01*
X36495044Y-29993465D01*
X34885000Y-28383422D01*
X34885000Y-26021101D01*
X34885040Y-26021507D01*
X34964236Y-26282581D01*
X35092843Y-26523188D01*
X35265919Y-26734081D01*
X35476812Y-26907157D01*
X35717419Y-27035764D01*
X35978493Y-27114960D01*
X36181963Y-27135000D01*
X39181971Y-27135000D01*
X39250000Y-27141700D01*
X39318029Y-27135000D01*
X39318037Y-27135000D01*
X39521507Y-27114960D01*
X39782581Y-27035764D01*
X40023188Y-26907157D01*
X40234081Y-26734081D01*
X40277454Y-26681231D01*
X42381236Y-24577450D01*
X42434081Y-24534081D01*
X42490182Y-24465723D01*
X42607157Y-24323188D01*
X42735764Y-24082581D01*
X42814960Y-23821507D01*
X42835000Y-23618037D01*
X42835000Y-23618029D01*
X42841700Y-23550000D01*
X42835000Y-23481971D01*
X42835000Y-12576083D01*
X42941354Y-12446491D01*
X43107104Y-12136395D01*
X43209172Y-11799921D01*
X43235000Y-11537682D01*
X43235000Y-10662317D01*
X43209172Y-10400079D01*
X43107104Y-10063605D01*
X43085000Y-10022251D01*
X43085000Y-5727239D01*
X43427239Y-5385000D01*
X50216974Y-5385000D01*
X49800987Y-5800987D01*
X49722017Y-5897213D01*
X49663336Y-6006996D01*
X49627201Y-6126118D01*
X49615000Y-6250000D01*
X49615000Y-16750000D01*
X49627201Y-16873882D01*
X49663336Y-16993004D01*
X49722017Y-17102787D01*
X49800987Y-17199013D01*
X50300987Y-17699013D01*
X50397213Y-17777983D01*
X50506996Y-17836664D01*
X50626118Y-17872799D01*
X50750000Y-17885000D01*
X53000000Y-17885000D01*
X53123882Y-17872799D01*
X53243004Y-17836664D01*
X53352787Y-17777983D01*
X53449013Y-17699013D01*
X53949013Y-17199013D01*
X54027983Y-17102787D01*
X54086664Y-16993004D01*
X54122799Y-16873882D01*
X54135000Y-16750000D01*
X54135000Y-14459495D01*
X70015000Y-14459495D01*
X70015000Y-14850505D01*
X70091282Y-15234003D01*
X70240915Y-15595250D01*
X70458149Y-15920364D01*
X70734636Y-16196851D01*
X71059750Y-16414085D01*
X71420997Y-16563718D01*
X71804495Y-16640000D01*
X72195505Y-16640000D01*
X72579003Y-16563718D01*
X72940250Y-16414085D01*
X73265364Y-16196851D01*
X73541851Y-15920364D01*
X73759085Y-15595250D01*
X73908718Y-15234003D01*
X73985000Y-14850505D01*
X73985000Y-14459495D01*
X73908718Y-14075997D01*
X73759085Y-13714750D01*
X73541851Y-13389636D01*
X73265364Y-13113149D01*
X72940250Y-12895915D01*
X72579003Y-12746282D01*
X72195505Y-12670000D01*
X71804495Y-12670000D01*
X71420997Y-12746282D01*
X71059750Y-12895915D01*
X70734636Y-13113149D01*
X70458149Y-13389636D01*
X70240915Y-13714750D01*
X70091282Y-14075997D01*
X70015000Y-14459495D01*
X54135000Y-14459495D01*
X54135000Y-7763026D01*
X54949013Y-6949013D01*
X55027983Y-6852787D01*
X55086664Y-6743004D01*
X55122799Y-6623882D01*
X55135000Y-6500000D01*
X55135000Y-6135000D01*
X59750000Y-6135000D01*
X59873882Y-6122799D01*
X59993004Y-6086664D01*
X60102787Y-6027983D01*
X60199013Y-5949013D01*
X60449013Y-5699013D01*
X60527983Y-5602787D01*
X60586664Y-5493004D01*
X60622799Y-5373882D01*
X60635000Y-5250000D01*
X60635000Y-1750000D01*
X60622799Y-1626118D01*
X60586664Y-1506996D01*
X60527983Y-1397213D01*
X60449013Y-1300987D01*
X60199013Y-1050987D01*
X60102787Y-972017D01*
X59993004Y-913336D01*
X59873882Y-877201D01*
X59750000Y-865000D01*
X54866579Y-865000D01*
X54661578Y-660000D01*
X76726620Y-660000D01*
X79340001Y-3273382D01*
X79340000Y-36726619D01*
X76726620Y-39340000D01*
X3273381Y-39340000D01*
X660000Y-36726620D01*
X660000Y-35598816D01*
X14175000Y-35598816D01*
X14175000Y-35901184D01*
X14233989Y-36197743D01*
X14349701Y-36477095D01*
X14517688Y-36728505D01*
X14731495Y-36942312D01*
X14825001Y-37004791D01*
X14825001Y-37666521D01*
X14820719Y-37710000D01*
X14837805Y-37883490D01*
X14888412Y-38050313D01*
X14970590Y-38204059D01*
X15053468Y-38305046D01*
X15053471Y-38305049D01*
X15081184Y-38338817D01*
X15114952Y-38366530D01*
X15593466Y-38845044D01*
X15621183Y-38878817D01*
X15755941Y-38989411D01*
X15909687Y-39071589D01*
X16076510Y-39122195D01*
X16206523Y-39135000D01*
X16206533Y-39135000D01*
X16249999Y-39139281D01*
X16293465Y-39135000D01*
X22456531Y-39135000D01*
X22500000Y-39139281D01*
X22543469Y-39135000D01*
X22543477Y-39135000D01*
X22673490Y-39122195D01*
X22840313Y-39071589D01*
X22994059Y-38989411D01*
X23128817Y-38878817D01*
X23156534Y-38845044D01*
X27095050Y-34906528D01*
X27128817Y-34878817D01*
X27239411Y-34744059D01*
X27321589Y-34590313D01*
X27372195Y-34423490D01*
X27385000Y-34293477D01*
X27385000Y-34293467D01*
X27389281Y-34250001D01*
X27385000Y-34206535D01*
X27385000Y-25162835D01*
X27376477Y-25119987D01*
X27372195Y-25076510D01*
X27359513Y-25034705D01*
X27350990Y-24991855D01*
X27334269Y-24951487D01*
X27321589Y-24909687D01*
X27300999Y-24871165D01*
X27284277Y-24830795D01*
X27260004Y-24794467D01*
X27239411Y-24755941D01*
X27211696Y-24722171D01*
X27187424Y-24685845D01*
X27156530Y-24654951D01*
X27128817Y-24621183D01*
X27095049Y-24593470D01*
X27064155Y-24562576D01*
X27027829Y-24538304D01*
X26994059Y-24510589D01*
X26955533Y-24489996D01*
X26919205Y-24465723D01*
X26878835Y-24449001D01*
X26840313Y-24428411D01*
X26798513Y-24415731D01*
X26758145Y-24399010D01*
X26715295Y-24390487D01*
X26673490Y-24377805D01*
X26630013Y-24373523D01*
X26587165Y-24365000D01*
X26543477Y-24365000D01*
X26500000Y-24360718D01*
X26456524Y-24365000D01*
X26412835Y-24365000D01*
X26369987Y-24373523D01*
X26326511Y-24377805D01*
X26284708Y-24390486D01*
X26241855Y-24399010D01*
X26201484Y-24415732D01*
X26159688Y-24428411D01*
X26121169Y-24449000D01*
X26080795Y-24465723D01*
X26044463Y-24489999D01*
X26005942Y-24510589D01*
X25972176Y-24538300D01*
X25935845Y-24562576D01*
X25904946Y-24593475D01*
X25871184Y-24621183D01*
X25843476Y-24654945D01*
X25812576Y-24685845D01*
X25788299Y-24722177D01*
X25760590Y-24755941D01*
X25740001Y-24794460D01*
X25715723Y-24830795D01*
X25698998Y-24871173D01*
X25678412Y-24909687D01*
X25665735Y-24951478D01*
X25649010Y-24991855D01*
X25640485Y-25034715D01*
X25627806Y-25076510D01*
X25623525Y-25119977D01*
X25615000Y-25162835D01*
X25615000Y-25337165D01*
X25615001Y-25337170D01*
X25615000Y-33883421D01*
X22133422Y-37365000D01*
X16616578Y-37365000D01*
X16595000Y-37343422D01*
X16595000Y-37004790D01*
X16688505Y-36942312D01*
X16902312Y-36728505D01*
X16980000Y-36612237D01*
X17057688Y-36728505D01*
X17271495Y-36942312D01*
X17522905Y-37110299D01*
X17802257Y-37226011D01*
X18098816Y-37285000D01*
X18401184Y-37285000D01*
X18697743Y-37226011D01*
X18977095Y-37110299D01*
X19228505Y-36942312D01*
X19442312Y-36728505D01*
X19520000Y-36612237D01*
X19597688Y-36728505D01*
X19811495Y-36942312D01*
X20062905Y-37110299D01*
X20342257Y-37226011D01*
X20638816Y-37285000D01*
X20941184Y-37285000D01*
X21237743Y-37226011D01*
X21517095Y-37110299D01*
X21768505Y-36942312D01*
X21982312Y-36728505D01*
X22150299Y-36477095D01*
X22266011Y-36197743D01*
X22325000Y-35901184D01*
X22325000Y-35598816D01*
X22303060Y-35488518D01*
X22845049Y-34946530D01*
X22878817Y-34918817D01*
X22911645Y-34878817D01*
X22989411Y-34784059D01*
X23071589Y-34630313D01*
X23122195Y-34463490D01*
X23135000Y-34333477D01*
X23135000Y-34333469D01*
X23139281Y-34290000D01*
X23135000Y-34246531D01*
X23135000Y-26038454D01*
X23167205Y-25990256D01*
X23245226Y-25801898D01*
X23285000Y-25601939D01*
X23285000Y-25398061D01*
X23245226Y-25198102D01*
X23167205Y-25009744D01*
X23053937Y-24840226D01*
X22909774Y-24696063D01*
X22740256Y-24582795D01*
X22551898Y-24504774D01*
X22351939Y-24465000D01*
X22148061Y-24465000D01*
X21948102Y-24504774D01*
X21759744Y-24582795D01*
X21590226Y-24696063D01*
X21446063Y-24840226D01*
X21332795Y-25009744D01*
X21254774Y-25198102D01*
X21215000Y-25398061D01*
X21215000Y-25601939D01*
X21254774Y-25801898D01*
X21332795Y-25990256D01*
X21365000Y-26038454D01*
X21365001Y-33923420D01*
X21051482Y-34236940D01*
X20941184Y-34215000D01*
X20638816Y-34215000D01*
X20342257Y-34273989D01*
X20062905Y-34389701D01*
X19811495Y-34557688D01*
X19597688Y-34771495D01*
X19520000Y-34887763D01*
X19442312Y-34771495D01*
X19228505Y-34557688D01*
X18977095Y-34389701D01*
X18697743Y-34273989D01*
X18401184Y-34215000D01*
X18098816Y-34215000D01*
X17802257Y-34273989D01*
X17522905Y-34389701D01*
X17271495Y-34557688D01*
X17057688Y-34771495D01*
X16980000Y-34887763D01*
X16902312Y-34771495D01*
X16688505Y-34557688D01*
X16437095Y-34389701D01*
X16157743Y-34273989D01*
X15861184Y-34215000D01*
X15558816Y-34215000D01*
X15262257Y-34273989D01*
X14982905Y-34389701D01*
X14731495Y-34557688D01*
X14517688Y-34771495D01*
X14349701Y-35022905D01*
X14233989Y-35302257D01*
X14175000Y-35598816D01*
X660000Y-35598816D01*
X660000Y-10649495D01*
X6015000Y-10649495D01*
X6015000Y-11040505D01*
X6091282Y-11424003D01*
X6240915Y-11785250D01*
X6458149Y-12110364D01*
X6734636Y-12386851D01*
X7059750Y-12604085D01*
X7412021Y-12750000D01*
X7059750Y-12895915D01*
X6734636Y-13113149D01*
X6458149Y-13389636D01*
X6240915Y-13714750D01*
X6091282Y-14075997D01*
X6015000Y-14459495D01*
X6015000Y-14850505D01*
X6091282Y-15234003D01*
X6240915Y-15595250D01*
X6458149Y-15920364D01*
X6734636Y-16196851D01*
X7059750Y-16414085D01*
X7420997Y-16563718D01*
X7804495Y-16640000D01*
X8195505Y-16640000D01*
X8579003Y-16563718D01*
X8940250Y-16414085D01*
X9265364Y-16196851D01*
X9541851Y-15920364D01*
X9712480Y-15665000D01*
X11295392Y-15665000D01*
X11345000Y-15669886D01*
X11542994Y-15650385D01*
X11673755Y-15610719D01*
X11733380Y-15592632D01*
X11908840Y-15498847D01*
X12062633Y-15372633D01*
X12094261Y-15334094D01*
X16553223Y-10875132D01*
X16659774Y-10803937D01*
X16803937Y-10659774D01*
X16917205Y-10490256D01*
X16995226Y-10301898D01*
X17006535Y-10245043D01*
X18866579Y-8385000D01*
X19456531Y-8385000D01*
X19500000Y-8389281D01*
X19543469Y-8385000D01*
X19543477Y-8385000D01*
X19673490Y-8372195D01*
X19840313Y-8321589D01*
X19994059Y-8239411D01*
X20128817Y-8128817D01*
X20156534Y-8095044D01*
X20995044Y-7256535D01*
X21051898Y-7245226D01*
X21240256Y-7167205D01*
X21409774Y-7053937D01*
X21553937Y-6909774D01*
X21667205Y-6740256D01*
X21745226Y-6551898D01*
X21785000Y-6351939D01*
X21785000Y-6148061D01*
X21745226Y-5948102D01*
X21667205Y-5759744D01*
X21553937Y-5590226D01*
X21409774Y-5446063D01*
X21240256Y-5332795D01*
X21051898Y-5254774D01*
X20851939Y-5215000D01*
X20648061Y-5215000D01*
X20448102Y-5254774D01*
X20259744Y-5332795D01*
X20090226Y-5446063D01*
X19946063Y-5590226D01*
X19832795Y-5759744D01*
X19754774Y-5948102D01*
X19743465Y-6004956D01*
X19133422Y-6615000D01*
X18543469Y-6615000D01*
X18500000Y-6610719D01*
X18456531Y-6615000D01*
X18456523Y-6615000D01*
X18326510Y-6627805D01*
X18159687Y-6678411D01*
X18043982Y-6740256D01*
X18005941Y-6760589D01*
X17904953Y-6843468D01*
X17904951Y-6843470D01*
X17871183Y-6871183D01*
X17843470Y-6904951D01*
X15754957Y-8993465D01*
X15698102Y-9004774D01*
X15509744Y-9082795D01*
X15340226Y-9196063D01*
X15196063Y-9340226D01*
X15124868Y-9446777D01*
X10926645Y-13645000D01*
X9712480Y-13645000D01*
X9541851Y-13389636D01*
X9265364Y-13113149D01*
X8940250Y-12895915D01*
X8587979Y-12750000D01*
X8940250Y-12604085D01*
X9265364Y-12386851D01*
X9541851Y-12110364D01*
X9759085Y-11785250D01*
X9908718Y-11424003D01*
X9985000Y-11040505D01*
X9985000Y-10649495D01*
X9908718Y-10265997D01*
X9759085Y-9904750D01*
X9541851Y-9579636D01*
X9265364Y-9303149D01*
X8940250Y-9085915D01*
X8579003Y-8936282D01*
X8195505Y-8860000D01*
X7804495Y-8860000D01*
X7420997Y-8936282D01*
X7059750Y-9085915D01*
X6734636Y-9303149D01*
X6458149Y-9579636D01*
X6240915Y-9904750D01*
X6091282Y-10265997D01*
X6015000Y-10649495D01*
X660000Y-10649495D01*
X660000Y-3273380D01*
X3273381Y-660000D01*
X39338421Y-660000D01*
X35133422Y-4865000D01*
%TA.AperFunction,Conductor*%
D26*
G36*
X35133422Y-4865000D02*
G01*
X25543469Y-4865000D01*
X25500000Y-4860719D01*
X25456531Y-4865000D01*
X25456523Y-4865000D01*
X25341306Y-4876348D01*
X25326509Y-4877805D01*
X25275903Y-4893157D01*
X25159687Y-4928411D01*
X25005941Y-5010589D01*
X25005939Y-5010590D01*
X25005940Y-5010590D01*
X24904953Y-5093468D01*
X24904951Y-5093470D01*
X24871183Y-5121183D01*
X24843470Y-5154951D01*
X19154955Y-10843467D01*
X19121183Y-10871183D01*
X19010589Y-11005941D01*
X18928411Y-11159687D01*
X18877805Y-11326510D01*
X18865000Y-11456523D01*
X18865000Y-11456531D01*
X18860719Y-11500000D01*
X18865000Y-11543469D01*
X18865000Y-11793476D01*
X18865001Y-11793485D01*
X18865000Y-16133421D01*
X18185848Y-16812574D01*
X18185845Y-16812576D01*
X18154951Y-16843470D01*
X18121183Y-16871183D01*
X18093470Y-16904951D01*
X18062576Y-16935845D01*
X18038304Y-16972171D01*
X18010589Y-17005941D01*
X17989996Y-17044467D01*
X17965723Y-17080795D01*
X17949001Y-17121165D01*
X17928411Y-17159687D01*
X17915731Y-17201487D01*
X17899010Y-17241855D01*
X17890487Y-17284705D01*
X17877805Y-17326510D01*
X17873523Y-17369987D01*
X17865000Y-17412835D01*
X17865000Y-17456523D01*
X17860718Y-17500000D01*
X17865000Y-17543477D01*
X17865000Y-17587165D01*
X17873523Y-17630013D01*
X17877805Y-17673490D01*
X17890487Y-17715295D01*
X17899010Y-17758145D01*
X17915731Y-17798513D01*
X17928411Y-17840313D01*
X17949001Y-17878835D01*
X17965723Y-17919205D01*
X17989996Y-17955533D01*
X18010589Y-17994059D01*
X18038304Y-18027829D01*
X18062576Y-18064155D01*
X18093470Y-18095049D01*
X18121183Y-18128817D01*
X18154951Y-18156530D01*
X18185845Y-18187424D01*
X18222171Y-18211696D01*
X18255941Y-18239411D01*
X18294467Y-18260004D01*
X18330795Y-18284277D01*
X18371165Y-18300999D01*
X18409687Y-18321589D01*
X18451487Y-18334269D01*
X18491855Y-18350990D01*
X18534705Y-18359513D01*
X18576510Y-18372195D01*
X18619987Y-18376477D01*
X18662835Y-18385000D01*
X18706531Y-18385000D01*
X18750000Y-18389281D01*
X18793469Y-18385000D01*
X18837165Y-18385000D01*
X18880013Y-18376477D01*
X18923490Y-18372195D01*
X18965295Y-18359513D01*
X19008145Y-18350990D01*
X19048513Y-18334269D01*
X19090313Y-18321589D01*
X19128835Y-18300999D01*
X19169205Y-18284277D01*
X19205533Y-18260004D01*
X19244059Y-18239411D01*
X19277829Y-18211696D01*
X19314155Y-18187424D01*
X19345049Y-18156530D01*
X19378817Y-18128817D01*
X19406530Y-18095049D01*
X19437424Y-18064155D01*
X19437426Y-18064152D01*
X20345050Y-17156529D01*
X20355368Y-17148061D01*
X33965000Y-17148061D01*
X33965000Y-17351939D01*
X34004774Y-17551898D01*
X34082795Y-17740256D01*
X34115001Y-17788455D01*
X34115000Y-19456531D01*
X34110719Y-19500000D01*
X34115000Y-19543469D01*
X34115000Y-19543476D01*
X34127805Y-19673489D01*
X34178411Y-19840312D01*
X34260589Y-19994058D01*
X34371183Y-20128817D01*
X34404956Y-20156534D01*
X35343470Y-21095049D01*
X35371183Y-21128817D01*
X35404951Y-21156530D01*
X35404953Y-21156532D01*
X35505941Y-21239411D01*
X35659686Y-21321589D01*
X35826510Y-21372195D01*
X35956523Y-21385000D01*
X35956531Y-21385000D01*
X36000000Y-21389281D01*
X36043469Y-21385000D01*
X37211546Y-21385000D01*
X37259744Y-21417205D01*
X37448102Y-21495226D01*
X37648061Y-21535000D01*
X37851939Y-21535000D01*
X38051898Y-21495226D01*
X38240256Y-21417205D01*
X38409774Y-21303937D01*
X38553937Y-21159774D01*
X38667205Y-20990256D01*
X38745226Y-20801898D01*
X38785000Y-20601939D01*
X38785000Y-20398061D01*
X38745226Y-20198102D01*
X38667205Y-20009744D01*
X38553937Y-19840226D01*
X38409774Y-19696063D01*
X38240256Y-19582795D01*
X38051898Y-19504774D01*
X37851939Y-19465000D01*
X37648061Y-19465000D01*
X37448102Y-19504774D01*
X37259744Y-19582795D01*
X37211546Y-19615000D01*
X36366579Y-19615000D01*
X35885000Y-19133422D01*
X35885000Y-17788454D01*
X35917205Y-17740256D01*
X35995226Y-17551898D01*
X36035000Y-17351939D01*
X36035000Y-17148061D01*
X35995226Y-16948102D01*
X35917205Y-16759744D01*
X35803937Y-16590226D01*
X35659774Y-16446063D01*
X35490256Y-16332795D01*
X35301898Y-16254774D01*
X35101939Y-16215000D01*
X34898061Y-16215000D01*
X34698102Y-16254774D01*
X34509744Y-16332795D01*
X34340226Y-16446063D01*
X34196063Y-16590226D01*
X34082795Y-16759744D01*
X34004774Y-16948102D01*
X33965000Y-17148061D01*
X20355368Y-17148061D01*
X20378817Y-17128817D01*
X20489411Y-16994059D01*
X20513975Y-16948102D01*
X20571589Y-16840314D01*
X20622195Y-16673490D01*
X20625493Y-16640000D01*
X20635000Y-16543477D01*
X20635000Y-16543469D01*
X20639281Y-16500000D01*
X20635000Y-16456531D01*
X20635000Y-11866578D01*
X21839260Y-10662318D01*
X30265000Y-10662318D01*
X30265000Y-11537683D01*
X30290828Y-11799921D01*
X30392896Y-12136395D01*
X30558646Y-12446491D01*
X30781709Y-12718292D01*
X31053510Y-12941354D01*
X31363606Y-13107104D01*
X31700080Y-13209172D01*
X32050000Y-13243636D01*
X32399921Y-13209172D01*
X32736395Y-13107104D01*
X33046491Y-12941354D01*
X33318292Y-12718292D01*
X33541354Y-12446491D01*
X33707104Y-12136395D01*
X33809172Y-11799921D01*
X33835000Y-11537682D01*
X33835000Y-10662318D01*
X34965000Y-10662318D01*
X34965000Y-11537683D01*
X34990828Y-11799921D01*
X35092896Y-12136395D01*
X35258646Y-12446491D01*
X35481709Y-12718292D01*
X35753510Y-12941354D01*
X36063606Y-13107104D01*
X36400080Y-13209172D01*
X36750000Y-13243636D01*
X37099921Y-13209172D01*
X37436395Y-13107104D01*
X37746491Y-12941354D01*
X38018292Y-12718292D01*
X38241354Y-12446491D01*
X38407104Y-12136395D01*
X38509172Y-11799921D01*
X38535000Y-11537682D01*
X38535000Y-10662317D01*
X38509172Y-10400079D01*
X38407104Y-10063605D01*
X38241354Y-9753509D01*
X38018292Y-9481708D01*
X37746490Y-9258646D01*
X37436394Y-9092896D01*
X37099920Y-8990828D01*
X36750000Y-8956364D01*
X36400079Y-8990828D01*
X36063605Y-9092896D01*
X35753509Y-9258646D01*
X35481708Y-9481708D01*
X35258646Y-9753510D01*
X35092896Y-10063606D01*
X34990828Y-10400080D01*
X34965000Y-10662318D01*
X33835000Y-10662318D01*
X33835000Y-10662317D01*
X33809172Y-10400079D01*
X33707104Y-10063605D01*
X33541354Y-9753509D01*
X33318292Y-9481708D01*
X33046490Y-9258646D01*
X32736394Y-9092896D01*
X32399920Y-8990828D01*
X32050000Y-8956364D01*
X31700079Y-8990828D01*
X31363605Y-9092896D01*
X31053509Y-9258646D01*
X30781708Y-9481708D01*
X30558646Y-9753510D01*
X30392896Y-10063606D01*
X30290828Y-10400080D01*
X30265000Y-10662318D01*
X21839260Y-10662318D01*
X25866579Y-6635000D01*
X35456531Y-6635000D01*
X35500000Y-6639281D01*
X35543469Y-6635000D01*
X35543477Y-6635000D01*
X35673490Y-6622195D01*
X35840313Y-6571589D01*
X35994059Y-6489411D01*
X36128817Y-6378817D01*
X36156534Y-6345044D01*
X40566580Y-1934999D01*
X51365000Y-1934999D01*
X51365000Y-2115000D01*
X42830322Y-2115000D01*
X42750000Y-2107089D01*
X42429483Y-2138657D01*
X42185805Y-2212576D01*
X42121285Y-2232148D01*
X41837248Y-2383969D01*
X41588286Y-2588286D01*
X41537084Y-2650677D01*
X40350681Y-3837080D01*
X40288287Y-3888286D01*
X40113726Y-4100990D01*
X40083970Y-4137248D01*
X39932148Y-4421286D01*
X39838658Y-4729484D01*
X39807089Y-5050000D01*
X39815001Y-5130329D01*
X39815000Y-10022252D01*
X39792896Y-10063606D01*
X39690828Y-10400080D01*
X39665000Y-10662318D01*
X39665000Y-11537683D01*
X39690828Y-11799921D01*
X39792896Y-12136395D01*
X39958646Y-12446491D01*
X40065000Y-12576083D01*
X40065001Y-22976313D01*
X38676315Y-24365000D01*
X36181963Y-24365000D01*
X35978493Y-24385040D01*
X35717419Y-24464236D01*
X35476812Y-24592843D01*
X35265919Y-24765919D01*
X35092843Y-24976812D01*
X34964236Y-25217419D01*
X34885040Y-25478493D01*
X34885000Y-25478899D01*
X34885000Y-21793465D01*
X34889281Y-21749999D01*
X34885000Y-21706533D01*
X34885000Y-21706523D01*
X34872195Y-21576510D01*
X34821589Y-21409687D01*
X34739411Y-21255941D01*
X34660488Y-21159774D01*
X34656532Y-21154953D01*
X34656530Y-21154951D01*
X34628817Y-21121183D01*
X34595050Y-21093471D01*
X33156534Y-19654956D01*
X33128817Y-19621183D01*
X32994059Y-19510589D01*
X32840313Y-19428411D01*
X32673490Y-19377805D01*
X32543477Y-19365000D01*
X32543469Y-19365000D01*
X32500000Y-19360719D01*
X32456531Y-19365000D01*
X22788454Y-19365000D01*
X22740256Y-19332795D01*
X22551898Y-19254774D01*
X22351939Y-19215000D01*
X22148061Y-19215000D01*
X21948102Y-19254774D01*
X21759744Y-19332795D01*
X21590226Y-19446063D01*
X21446063Y-19590226D01*
X21332795Y-19759744D01*
X21254774Y-19948102D01*
X21215000Y-20148061D01*
X21215000Y-20351939D01*
X21254774Y-20551898D01*
X21332795Y-20740256D01*
X21446063Y-20909774D01*
X21590226Y-21053937D01*
X21681613Y-21115000D01*
X19470132Y-21115000D01*
X14013143Y-15658012D01*
X13883622Y-15551717D01*
X13686446Y-15446324D01*
X13472498Y-15381423D01*
X13250000Y-15359509D01*
X13027502Y-15381423D01*
X12813554Y-15446324D01*
X12616378Y-15551717D01*
X12443552Y-15693552D01*
X12301717Y-15866378D01*
X12196324Y-16063554D01*
X12131423Y-16277502D01*
X12109509Y-16500000D01*
X12131423Y-16722498D01*
X12196324Y-16936446D01*
X12301717Y-17133622D01*
X12408012Y-17263143D01*
X13548567Y-18403698D01*
X13509712Y-18415485D01*
X13466855Y-18424010D01*
X13426481Y-18440733D01*
X13384686Y-18453412D01*
X13346168Y-18474000D01*
X13305795Y-18490723D01*
X13269464Y-18514999D01*
X13230940Y-18535590D01*
X13197170Y-18563304D01*
X13160845Y-18587576D01*
X13129953Y-18618468D01*
X9883422Y-21865000D01*
X6543476Y-21865000D01*
X6500000Y-21860718D01*
X6456523Y-21865000D01*
X6412835Y-21865000D01*
X6369987Y-21873523D01*
X6326510Y-21877805D01*
X6284705Y-21890487D01*
X6241855Y-21899010D01*
X6201487Y-21915731D01*
X6159687Y-21928411D01*
X6121165Y-21949001D01*
X6080795Y-21965723D01*
X6044467Y-21989996D01*
X6005941Y-22010589D01*
X5972171Y-22038304D01*
X5935845Y-22062576D01*
X5904951Y-22093470D01*
X5871183Y-22121183D01*
X5843470Y-22154951D01*
X5812576Y-22185845D01*
X5788304Y-22222171D01*
X5760589Y-22255941D01*
X5739996Y-22294467D01*
X5715723Y-22330795D01*
X5699001Y-22371165D01*
X5678411Y-22409687D01*
X5665731Y-22451487D01*
X5649010Y-22491855D01*
X5640487Y-22534705D01*
X5627805Y-22576510D01*
X5623523Y-22619987D01*
X5615000Y-22662835D01*
X5615000Y-22706523D01*
X5610718Y-22750000D01*
X5615000Y-22793477D01*
X5615001Y-28162830D01*
X5615000Y-28162835D01*
X5615000Y-28337165D01*
X5623525Y-28380023D01*
X5627806Y-28423490D01*
X5640485Y-28465285D01*
X5649010Y-28508145D01*
X5665735Y-28548522D01*
X5678412Y-28590313D01*
X5698998Y-28628827D01*
X5715723Y-28669205D01*
X5740001Y-28705540D01*
X5760590Y-28744059D01*
X5788299Y-28777823D01*
X5812576Y-28814155D01*
X5843476Y-28845055D01*
X5871184Y-28878817D01*
X5904946Y-28906525D01*
X5935845Y-28937424D01*
X5972176Y-28961700D01*
X6005942Y-28989411D01*
X6044463Y-29010001D01*
X6080795Y-29034277D01*
X6121169Y-29051000D01*
X6159688Y-29071589D01*
X6201484Y-29084268D01*
X6241855Y-29100990D01*
X6284708Y-29109514D01*
X6326511Y-29122195D01*
X6369987Y-29126477D01*
X6412835Y-29135000D01*
X6456524Y-29135000D01*
X6500000Y-29139282D01*
X6543477Y-29135000D01*
X6587165Y-29135000D01*
X6630013Y-29126477D01*
X6673490Y-29122195D01*
X6715295Y-29109513D01*
X6758145Y-29100990D01*
X6798513Y-29084269D01*
X6840313Y-29071589D01*
X6878835Y-29050999D01*
X6919205Y-29034277D01*
X6955533Y-29010004D01*
X6994059Y-28989411D01*
X7027829Y-28961696D01*
X7064155Y-28937424D01*
X7095049Y-28906530D01*
X7128817Y-28878817D01*
X7156530Y-28845049D01*
X7187424Y-28814155D01*
X7211696Y-28777829D01*
X7239411Y-28744059D01*
X7260004Y-28705533D01*
X7284277Y-28669205D01*
X7300999Y-28628835D01*
X7321589Y-28590313D01*
X7334269Y-28548513D01*
X7350990Y-28508145D01*
X7359513Y-28465295D01*
X7372195Y-28423490D01*
X7376477Y-28380013D01*
X7385000Y-28337165D01*
X7385000Y-23635000D01*
X10206531Y-23635000D01*
X10250000Y-23639281D01*
X10293469Y-23635000D01*
X10293477Y-23635000D01*
X10423490Y-23622195D01*
X10590313Y-23571589D01*
X10744059Y-23489411D01*
X10878817Y-23378817D01*
X10906534Y-23345044D01*
X14381532Y-19870047D01*
X14412424Y-19839155D01*
X14436696Y-19802830D01*
X14464410Y-19769060D01*
X14485001Y-19730536D01*
X14509277Y-19694205D01*
X14526000Y-19653832D01*
X14546588Y-19615314D01*
X14559267Y-19573519D01*
X14575990Y-19533145D01*
X14584515Y-19490288D01*
X14596302Y-19451433D01*
X18158009Y-23013141D01*
X18193551Y-23056449D01*
X18366377Y-23198284D01*
X18563553Y-23303676D01*
X18777501Y-23368577D01*
X18881471Y-23378817D01*
X19000000Y-23390491D01*
X19055751Y-23385000D01*
X31805752Y-23385000D01*
X31972499Y-23368577D01*
X32186447Y-23303676D01*
X32383623Y-23198284D01*
X32556449Y-23056449D01*
X32698284Y-22883623D01*
X32803676Y-22686447D01*
X32868577Y-22472499D01*
X32890491Y-22250000D01*
X32868577Y-22027501D01*
X32803676Y-21813553D01*
X32794147Y-21795726D01*
X33115000Y-22116579D01*
X33115001Y-28706521D01*
X33110719Y-28750000D01*
X33127805Y-28923490D01*
X33178412Y-29090313D01*
X33260590Y-29244059D01*
X33343468Y-29345046D01*
X33343471Y-29345049D01*
X33371184Y-29378817D01*
X33404951Y-29406529D01*
X35243465Y-31245044D01*
X35254774Y-31301898D01*
X35332795Y-31490256D01*
X35446063Y-31659774D01*
X35590226Y-31803937D01*
X35759744Y-31917205D01*
X35948102Y-31995226D01*
X36148061Y-32035000D01*
X36351939Y-32035000D01*
X36551898Y-31995226D01*
X36740256Y-31917205D01*
X36909774Y-31803937D01*
X37053937Y-31659774D01*
X37167205Y-31490256D01*
X37245226Y-31301898D01*
X37285000Y-31101939D01*
X37285000Y-30898061D01*
X37245226Y-30698102D01*
X37167205Y-30509744D01*
X37053937Y-30340226D01*
X36909774Y-30196063D01*
X36740256Y-30082795D01*
X36551898Y-30004774D01*
X36495044Y-29993465D01*
X34885000Y-28383422D01*
X34885000Y-26021101D01*
X34885040Y-26021507D01*
X34964236Y-26282581D01*
X35092843Y-26523188D01*
X35265919Y-26734081D01*
X35476812Y-26907157D01*
X35717419Y-27035764D01*
X35978493Y-27114960D01*
X36181963Y-27135000D01*
X39181971Y-27135000D01*
X39250000Y-27141700D01*
X39318029Y-27135000D01*
X39318037Y-27135000D01*
X39521507Y-27114960D01*
X39782581Y-27035764D01*
X40023188Y-26907157D01*
X40234081Y-26734081D01*
X40277454Y-26681231D01*
X42381236Y-24577450D01*
X42434081Y-24534081D01*
X42490182Y-24465723D01*
X42607157Y-24323188D01*
X42735764Y-24082581D01*
X42814960Y-23821507D01*
X42835000Y-23618037D01*
X42835000Y-23618029D01*
X42841700Y-23550000D01*
X42835000Y-23481971D01*
X42835000Y-12576083D01*
X42941354Y-12446491D01*
X43107104Y-12136395D01*
X43209172Y-11799921D01*
X43235000Y-11537682D01*
X43235000Y-10662317D01*
X43209172Y-10400079D01*
X43107104Y-10063605D01*
X43085000Y-10022251D01*
X43085000Y-5727239D01*
X43427239Y-5385000D01*
X50216974Y-5385000D01*
X49800987Y-5800987D01*
X49722017Y-5897213D01*
X49663336Y-6006996D01*
X49627201Y-6126118D01*
X49615000Y-6250000D01*
X49615000Y-16750000D01*
X49627201Y-16873882D01*
X49663336Y-16993004D01*
X49722017Y-17102787D01*
X49800987Y-17199013D01*
X50300987Y-17699013D01*
X50397213Y-17777983D01*
X50506996Y-17836664D01*
X50626118Y-17872799D01*
X50750000Y-17885000D01*
X53000000Y-17885000D01*
X53123882Y-17872799D01*
X53243004Y-17836664D01*
X53352787Y-17777983D01*
X53449013Y-17699013D01*
X53949013Y-17199013D01*
X54027983Y-17102787D01*
X54086664Y-16993004D01*
X54122799Y-16873882D01*
X54135000Y-16750000D01*
X54135000Y-14459495D01*
X70015000Y-14459495D01*
X70015000Y-14850505D01*
X70091282Y-15234003D01*
X70240915Y-15595250D01*
X70458149Y-15920364D01*
X70734636Y-16196851D01*
X71059750Y-16414085D01*
X71420997Y-16563718D01*
X71804495Y-16640000D01*
X72195505Y-16640000D01*
X72579003Y-16563718D01*
X72940250Y-16414085D01*
X73265364Y-16196851D01*
X73541851Y-15920364D01*
X73759085Y-15595250D01*
X73908718Y-15234003D01*
X73985000Y-14850505D01*
X73985000Y-14459495D01*
X73908718Y-14075997D01*
X73759085Y-13714750D01*
X73541851Y-13389636D01*
X73265364Y-13113149D01*
X72940250Y-12895915D01*
X72579003Y-12746282D01*
X72195505Y-12670000D01*
X71804495Y-12670000D01*
X71420997Y-12746282D01*
X71059750Y-12895915D01*
X70734636Y-13113149D01*
X70458149Y-13389636D01*
X70240915Y-13714750D01*
X70091282Y-14075997D01*
X70015000Y-14459495D01*
X54135000Y-14459495D01*
X54135000Y-7763026D01*
X54949013Y-6949013D01*
X55027983Y-6852787D01*
X55086664Y-6743004D01*
X55122799Y-6623882D01*
X55135000Y-6500000D01*
X55135000Y-6135000D01*
X59750000Y-6135000D01*
X59873882Y-6122799D01*
X59993004Y-6086664D01*
X60102787Y-6027983D01*
X60199013Y-5949013D01*
X60449013Y-5699013D01*
X60527983Y-5602787D01*
X60586664Y-5493004D01*
X60622799Y-5373882D01*
X60635000Y-5250000D01*
X60635000Y-1750000D01*
X60622799Y-1626118D01*
X60586664Y-1506996D01*
X60527983Y-1397213D01*
X60449013Y-1300987D01*
X60199013Y-1050987D01*
X60102787Y-972017D01*
X59993004Y-913336D01*
X59873882Y-877201D01*
X59750000Y-865000D01*
X54866579Y-865000D01*
X54661578Y-660000D01*
X76726620Y-660000D01*
X79340001Y-3273382D01*
X79340000Y-36726619D01*
X76726620Y-39340000D01*
X3273381Y-39340000D01*
X660000Y-36726620D01*
X660000Y-35598816D01*
X14175000Y-35598816D01*
X14175000Y-35901184D01*
X14233989Y-36197743D01*
X14349701Y-36477095D01*
X14517688Y-36728505D01*
X14731495Y-36942312D01*
X14825001Y-37004791D01*
X14825001Y-37666521D01*
X14820719Y-37710000D01*
X14837805Y-37883490D01*
X14888412Y-38050313D01*
X14970590Y-38204059D01*
X15053468Y-38305046D01*
X15053471Y-38305049D01*
X15081184Y-38338817D01*
X15114952Y-38366530D01*
X15593466Y-38845044D01*
X15621183Y-38878817D01*
X15755941Y-38989411D01*
X15909687Y-39071589D01*
X16076510Y-39122195D01*
X16206523Y-39135000D01*
X16206533Y-39135000D01*
X16249999Y-39139281D01*
X16293465Y-39135000D01*
X22456531Y-39135000D01*
X22500000Y-39139281D01*
X22543469Y-39135000D01*
X22543477Y-39135000D01*
X22673490Y-39122195D01*
X22840313Y-39071589D01*
X22994059Y-38989411D01*
X23128817Y-38878817D01*
X23156534Y-38845044D01*
X27095050Y-34906528D01*
X27128817Y-34878817D01*
X27239411Y-34744059D01*
X27321589Y-34590313D01*
X27372195Y-34423490D01*
X27385000Y-34293477D01*
X27385000Y-34293467D01*
X27389281Y-34250001D01*
X27385000Y-34206535D01*
X27385000Y-25162835D01*
X27376477Y-25119987D01*
X27372195Y-25076510D01*
X27359513Y-25034705D01*
X27350990Y-24991855D01*
X27334269Y-24951487D01*
X27321589Y-24909687D01*
X27300999Y-24871165D01*
X27284277Y-24830795D01*
X27260004Y-24794467D01*
X27239411Y-24755941D01*
X27211696Y-24722171D01*
X27187424Y-24685845D01*
X27156530Y-24654951D01*
X27128817Y-24621183D01*
X27095049Y-24593470D01*
X27064155Y-24562576D01*
X27027829Y-24538304D01*
X26994059Y-24510589D01*
X26955533Y-24489996D01*
X26919205Y-24465723D01*
X26878835Y-24449001D01*
X26840313Y-24428411D01*
X26798513Y-24415731D01*
X26758145Y-24399010D01*
X26715295Y-24390487D01*
X26673490Y-24377805D01*
X26630013Y-24373523D01*
X26587165Y-24365000D01*
X26543477Y-24365000D01*
X26500000Y-24360718D01*
X26456524Y-24365000D01*
X26412835Y-24365000D01*
X26369987Y-24373523D01*
X26326511Y-24377805D01*
X26284708Y-24390486D01*
X26241855Y-24399010D01*
X26201484Y-24415732D01*
X26159688Y-24428411D01*
X26121169Y-24449000D01*
X26080795Y-24465723D01*
X26044463Y-24489999D01*
X26005942Y-24510589D01*
X25972176Y-24538300D01*
X25935845Y-24562576D01*
X25904946Y-24593475D01*
X25871184Y-24621183D01*
X25843476Y-24654945D01*
X25812576Y-24685845D01*
X25788299Y-24722177D01*
X25760590Y-24755941D01*
X25740001Y-24794460D01*
X25715723Y-24830795D01*
X25698998Y-24871173D01*
X25678412Y-24909687D01*
X25665735Y-24951478D01*
X25649010Y-24991855D01*
X25640485Y-25034715D01*
X25627806Y-25076510D01*
X25623525Y-25119977D01*
X25615000Y-25162835D01*
X25615000Y-25337165D01*
X25615001Y-25337170D01*
X25615000Y-33883421D01*
X22133422Y-37365000D01*
X16616578Y-37365000D01*
X16595000Y-37343422D01*
X16595000Y-37004790D01*
X16688505Y-36942312D01*
X16902312Y-36728505D01*
X16980000Y-36612237D01*
X17057688Y-36728505D01*
X17271495Y-36942312D01*
X17522905Y-37110299D01*
X17802257Y-37226011D01*
X18098816Y-37285000D01*
X18401184Y-37285000D01*
X18697743Y-37226011D01*
X18977095Y-37110299D01*
X19228505Y-36942312D01*
X19442312Y-36728505D01*
X19520000Y-36612237D01*
X19597688Y-36728505D01*
X19811495Y-36942312D01*
X20062905Y-37110299D01*
X20342257Y-37226011D01*
X20638816Y-37285000D01*
X20941184Y-37285000D01*
X21237743Y-37226011D01*
X21517095Y-37110299D01*
X21768505Y-36942312D01*
X21982312Y-36728505D01*
X22150299Y-36477095D01*
X22266011Y-36197743D01*
X22325000Y-35901184D01*
X22325000Y-35598816D01*
X22303060Y-35488518D01*
X22845049Y-34946530D01*
X22878817Y-34918817D01*
X22911645Y-34878817D01*
X22989411Y-34784059D01*
X23071589Y-34630313D01*
X23122195Y-34463490D01*
X23135000Y-34333477D01*
X23135000Y-34333469D01*
X23139281Y-34290000D01*
X23135000Y-34246531D01*
X23135000Y-26038454D01*
X23167205Y-25990256D01*
X23245226Y-25801898D01*
X23285000Y-25601939D01*
X23285000Y-25398061D01*
X23245226Y-25198102D01*
X23167205Y-25009744D01*
X23053937Y-24840226D01*
X22909774Y-24696063D01*
X22740256Y-24582795D01*
X22551898Y-24504774D01*
X22351939Y-24465000D01*
X22148061Y-24465000D01*
X21948102Y-24504774D01*
X21759744Y-24582795D01*
X21590226Y-24696063D01*
X21446063Y-24840226D01*
X21332795Y-25009744D01*
X21254774Y-25198102D01*
X21215000Y-25398061D01*
X21215000Y-25601939D01*
X21254774Y-25801898D01*
X21332795Y-25990256D01*
X21365000Y-26038454D01*
X21365001Y-33923420D01*
X21051482Y-34236940D01*
X20941184Y-34215000D01*
X20638816Y-34215000D01*
X20342257Y-34273989D01*
X20062905Y-34389701D01*
X19811495Y-34557688D01*
X19597688Y-34771495D01*
X19520000Y-34887763D01*
X19442312Y-34771495D01*
X19228505Y-34557688D01*
X18977095Y-34389701D01*
X18697743Y-34273989D01*
X18401184Y-34215000D01*
X18098816Y-34215000D01*
X17802257Y-34273989D01*
X17522905Y-34389701D01*
X17271495Y-34557688D01*
X17057688Y-34771495D01*
X16980000Y-34887763D01*
X16902312Y-34771495D01*
X16688505Y-34557688D01*
X16437095Y-34389701D01*
X16157743Y-34273989D01*
X15861184Y-34215000D01*
X15558816Y-34215000D01*
X15262257Y-34273989D01*
X14982905Y-34389701D01*
X14731495Y-34557688D01*
X14517688Y-34771495D01*
X14349701Y-35022905D01*
X14233989Y-35302257D01*
X14175000Y-35598816D01*
X660000Y-35598816D01*
X660000Y-10649495D01*
X6015000Y-10649495D01*
X6015000Y-11040505D01*
X6091282Y-11424003D01*
X6240915Y-11785250D01*
X6458149Y-12110364D01*
X6734636Y-12386851D01*
X7059750Y-12604085D01*
X7412021Y-12750000D01*
X7059750Y-12895915D01*
X6734636Y-13113149D01*
X6458149Y-13389636D01*
X6240915Y-13714750D01*
X6091282Y-14075997D01*
X6015000Y-14459495D01*
X6015000Y-14850505D01*
X6091282Y-15234003D01*
X6240915Y-15595250D01*
X6458149Y-15920364D01*
X6734636Y-16196851D01*
X7059750Y-16414085D01*
X7420997Y-16563718D01*
X7804495Y-16640000D01*
X8195505Y-16640000D01*
X8579003Y-16563718D01*
X8940250Y-16414085D01*
X9265364Y-16196851D01*
X9541851Y-15920364D01*
X9712480Y-15665000D01*
X11295392Y-15665000D01*
X11345000Y-15669886D01*
X11542994Y-15650385D01*
X11673755Y-15610719D01*
X11733380Y-15592632D01*
X11908840Y-15498847D01*
X12062633Y-15372633D01*
X12094261Y-15334094D01*
X16553223Y-10875132D01*
X16659774Y-10803937D01*
X16803937Y-10659774D01*
X16917205Y-10490256D01*
X16995226Y-10301898D01*
X17006535Y-10245043D01*
X18866579Y-8385000D01*
X19456531Y-8385000D01*
X19500000Y-8389281D01*
X19543469Y-8385000D01*
X19543477Y-8385000D01*
X19673490Y-8372195D01*
X19840313Y-8321589D01*
X19994059Y-8239411D01*
X20128817Y-8128817D01*
X20156534Y-8095044D01*
X20995044Y-7256535D01*
X21051898Y-7245226D01*
X21240256Y-7167205D01*
X21409774Y-7053937D01*
X21553937Y-6909774D01*
X21667205Y-6740256D01*
X21745226Y-6551898D01*
X21785000Y-6351939D01*
X21785000Y-6148061D01*
X21745226Y-5948102D01*
X21667205Y-5759744D01*
X21553937Y-5590226D01*
X21409774Y-5446063D01*
X21240256Y-5332795D01*
X21051898Y-5254774D01*
X20851939Y-5215000D01*
X20648061Y-5215000D01*
X20448102Y-5254774D01*
X20259744Y-5332795D01*
X20090226Y-5446063D01*
X19946063Y-5590226D01*
X19832795Y-5759744D01*
X19754774Y-5948102D01*
X19743465Y-6004956D01*
X19133422Y-6615000D01*
X18543469Y-6615000D01*
X18500000Y-6610719D01*
X18456531Y-6615000D01*
X18456523Y-6615000D01*
X18326510Y-6627805D01*
X18159687Y-6678411D01*
X18043982Y-6740256D01*
X18005941Y-6760589D01*
X17904953Y-6843468D01*
X17904951Y-6843470D01*
X17871183Y-6871183D01*
X17843470Y-6904951D01*
X15754957Y-8993465D01*
X15698102Y-9004774D01*
X15509744Y-9082795D01*
X15340226Y-9196063D01*
X15196063Y-9340226D01*
X15124868Y-9446777D01*
X10926645Y-13645000D01*
X9712480Y-13645000D01*
X9541851Y-13389636D01*
X9265364Y-13113149D01*
X8940250Y-12895915D01*
X8587979Y-12750000D01*
X8940250Y-12604085D01*
X9265364Y-12386851D01*
X9541851Y-12110364D01*
X9759085Y-11785250D01*
X9908718Y-11424003D01*
X9985000Y-11040505D01*
X9985000Y-10649495D01*
X9908718Y-10265997D01*
X9759085Y-9904750D01*
X9541851Y-9579636D01*
X9265364Y-9303149D01*
X8940250Y-9085915D01*
X8579003Y-8936282D01*
X8195505Y-8860000D01*
X7804495Y-8860000D01*
X7420997Y-8936282D01*
X7059750Y-9085915D01*
X6734636Y-9303149D01*
X6458149Y-9579636D01*
X6240915Y-9904750D01*
X6091282Y-10265997D01*
X6015000Y-10649495D01*
X660000Y-10649495D01*
X660000Y-3273380D01*
X3273381Y-660000D01*
X39338421Y-660000D01*
X35133422Y-4865000D01*
G37*
%TD.AperFunction*%
%TD*%
D27*
%TO.N,SMPS_Pwr*%
X54130195Y-2158013D02*
X54130201Y-2158018D01*
X54149396Y-2177213D01*
X54171968Y-2192295D01*
X54192958Y-2209521D01*
X54216903Y-2222320D01*
X54239477Y-2237403D01*
X54264564Y-2247795D01*
X54288505Y-2260591D01*
X54314477Y-2268470D01*
X54339571Y-2278864D01*
X54366210Y-2284163D01*
X54392181Y-2292041D01*
X54419191Y-2294701D01*
X54445830Y-2300000D01*
X54472992Y-2300000D01*
X54500000Y-2302660D01*
X54527008Y-2300000D01*
X54554170Y-2300000D01*
X54580809Y-2294701D01*
X54607819Y-2292041D01*
X54633789Y-2284163D01*
X54660429Y-2278864D01*
X54685525Y-2268469D01*
X54711494Y-2260591D01*
X54735432Y-2247796D01*
X54760523Y-2237403D01*
X54783098Y-2222319D01*
X54807042Y-2209521D01*
X54828030Y-2192297D01*
X54850604Y-2177213D01*
X54869804Y-2158013D01*
X54890790Y-2140790D01*
X54908013Y-2119804D01*
X54927213Y-2100604D01*
X54942297Y-2078030D01*
X54959521Y-2057042D01*
X54972319Y-2033098D01*
X54987403Y-2010523D01*
X54997796Y-1985432D01*
X55010591Y-1961494D01*
X55018469Y-1935525D01*
X55028864Y-1910429D01*
X55034163Y-1883789D01*
X55042041Y-1857819D01*
X55044701Y-1830809D01*
X55050000Y-1804170D01*
X55050000Y-1777008D01*
X55052660Y-1750000D01*
X55050000Y-1722992D01*
X55050000Y-1695830D01*
X55044701Y-1669191D01*
X55042041Y-1642181D01*
X55034163Y-1616210D01*
X55030939Y-1600000D01*
X59708578Y-1600000D01*
X59900000Y-1791422D01*
X59900000Y-5208578D01*
X59708578Y-5400000D01*
X52291422Y-5400000D01*
X52100000Y-5208578D01*
X52100000Y-1791422D01*
X52291422Y-1600000D01*
X53572183Y-1600000D01*
X54130195Y-2158013D01*
%TA.AperFunction,Conductor*%
D26*
G36*
X54130195Y-2158013D02*
G01*
X54130201Y-2158018D01*
X54149396Y-2177213D01*
X54171968Y-2192295D01*
X54192958Y-2209521D01*
X54216903Y-2222320D01*
X54239477Y-2237403D01*
X54264564Y-2247795D01*
X54288505Y-2260591D01*
X54314477Y-2268470D01*
X54339571Y-2278864D01*
X54366210Y-2284163D01*
X54392181Y-2292041D01*
X54419191Y-2294701D01*
X54445830Y-2300000D01*
X54472992Y-2300000D01*
X54500000Y-2302660D01*
X54527008Y-2300000D01*
X54554170Y-2300000D01*
X54580809Y-2294701D01*
X54607819Y-2292041D01*
X54633789Y-2284163D01*
X54660429Y-2278864D01*
X54685525Y-2268469D01*
X54711494Y-2260591D01*
X54735432Y-2247796D01*
X54760523Y-2237403D01*
X54783098Y-2222319D01*
X54807042Y-2209521D01*
X54828030Y-2192297D01*
X54850604Y-2177213D01*
X54869804Y-2158013D01*
X54890790Y-2140790D01*
X54908013Y-2119804D01*
X54927213Y-2100604D01*
X54942297Y-2078030D01*
X54959521Y-2057042D01*
X54972319Y-2033098D01*
X54987403Y-2010523D01*
X54997796Y-1985432D01*
X55010591Y-1961494D01*
X55018469Y-1935525D01*
X55028864Y-1910429D01*
X55034163Y-1883789D01*
X55042041Y-1857819D01*
X55044701Y-1830809D01*
X55050000Y-1804170D01*
X55050000Y-1777008D01*
X55052660Y-1750000D01*
X55050000Y-1722992D01*
X55050000Y-1695830D01*
X55044701Y-1669191D01*
X55042041Y-1642181D01*
X55034163Y-1616210D01*
X55030939Y-1600000D01*
X59708578Y-1600000D01*
X59900000Y-1791422D01*
X59900000Y-5208578D01*
X59708578Y-5400000D01*
X52291422Y-5400000D01*
X52100000Y-5208578D01*
X52100000Y-1791422D01*
X52291422Y-1600000D01*
X53572183Y-1600000D01*
X54130195Y-2158013D01*
G37*
%TD.AperFunction*%
%TD*%
D27*
%TO.N,Net-(L1-Pad2)*%
X54400000Y-6041422D02*
X54400000Y-6458578D01*
X53429289Y-7429289D01*
X53416853Y-7444443D01*
X53407612Y-7461732D01*
X53401921Y-7480491D01*
X53400000Y-7500000D01*
X53400000Y-16708578D01*
X52958578Y-17150000D01*
X50791422Y-17150000D01*
X50350000Y-16708578D01*
X50350000Y-6291422D01*
X50791422Y-5850000D01*
X54208578Y-5850000D01*
X54400000Y-6041422D01*
%TA.AperFunction,Conductor*%
D26*
G36*
X54400000Y-6041422D02*
G01*
X54400000Y-6458578D01*
X53429289Y-7429289D01*
X53416853Y-7444443D01*
X53407612Y-7461732D01*
X53401921Y-7480491D01*
X53400000Y-7500000D01*
X53400000Y-16708578D01*
X52958578Y-17150000D01*
X50791422Y-17150000D01*
X50350000Y-16708578D01*
X50350000Y-6291422D01*
X50791422Y-5850000D01*
X54208578Y-5850000D01*
X54400000Y-6041422D01*
G37*
%TD.AperFunction*%
%TD*%
M02*
