%TF.GenerationSoftware,KiCad,Pcbnew,(5.1.10)-1*%
%TF.CreationDate,2021-06-27T16:37:14+02:00*%
%TF.ProjectId,BatteryBoost,42617474-6572-4794-926f-6f73742e6b69,rev?*%
%TF.SameCoordinates,Original*%
%TF.FileFunction,Soldermask,Top*%
%TF.FilePolarity,Negative*%
%FSLAX46Y46*%
G04 Gerber Fmt 4.6, Leading zero omitted, Abs format (unit mm)*
G04 Created by KiCad (PCBNEW (5.1.10)-1) date 2021-06-27 16:37:14*
%MOMM*%
%LPD*%
G01*
G04 APERTURE LIST*
%ADD10C,0.150000*%
%ADD11C,0.100000*%
%TA.AperFunction,Profile*%
%ADD12C,0.050000*%
%TD*%
%ADD13C,0.120000*%
%ADD14R,1.200000X2.000000*%
%ADD15R,1.560000X0.650000*%
%ADD16R,2.290000X3.000000*%
%ADD17O,2.300000X3.000000*%
%ADD18C,1.800000*%
%ADD19C,3.000000*%
%ADD20R,2.900000X5.400000*%
%ADD21C,2.700000*%
%ADD22O,1.100000X1.800000*%
%ADD23R,0.400000X1.250000*%
%ADD24C,1.290000*%
%ADD25R,2.500000X2.300000*%
%ADD26C,5.600000*%
%ADD27C,3.600000*%
G04 APERTURE END LIST*
D10*
X24150000Y-4750000D02*
X24150000Y-2850000D01*
X24900000Y-5300000D02*
X24900000Y-2300000D01*
X26350000Y-2750000D02*
X26350000Y-4650000D01*
X25600000Y-2300000D02*
X25600000Y-5300000D01*
D11*
G36*
X27450000Y-5950000D02*
G01*
X26750000Y-5950000D01*
X27450000Y-5250000D01*
X27450000Y-5950000D01*
G37*
X27450000Y-5950000D02*
X26750000Y-5950000D01*
X27450000Y-5250000D01*
X27450000Y-5950000D01*
G36*
X23750000Y-5950000D02*
G01*
X23050000Y-5950000D01*
X23050000Y-5250000D01*
X23750000Y-5950000D01*
G37*
X23750000Y-5950000D02*
X23050000Y-5950000D01*
X23050000Y-5250000D01*
X23750000Y-5950000D01*
G36*
X27450000Y-2250000D02*
G01*
X26750000Y-1550000D01*
X27450000Y-1550000D01*
X27450000Y-2250000D01*
G37*
X27450000Y-2250000D02*
X26750000Y-1550000D01*
X27450000Y-1550000D01*
X27450000Y-2250000D01*
G36*
X23050000Y-2250000D02*
G01*
X23050000Y-1550000D01*
X23750000Y-1550000D01*
X23050000Y-2250000D01*
G37*
X23050000Y-2250000D02*
X23050000Y-1550000D01*
X23750000Y-1550000D01*
X23050000Y-2250000D01*
D10*
X5500000Y-31250000D02*
X7000000Y-29750000D01*
X5000000Y-31250000D02*
X6500000Y-29750000D01*
X4500000Y-31250000D02*
X6000000Y-29750000D01*
X4000000Y-31250000D02*
X5500000Y-29750000D01*
X3500000Y-31250000D02*
X5000000Y-29750000D01*
X3000000Y-31250000D02*
X4500000Y-29750000D01*
D11*
G36*
X65900000Y-19150000D02*
G01*
X64750000Y-19150000D01*
X65300000Y-18600000D01*
X66450000Y-18600000D01*
X65900000Y-19150000D01*
G37*
X65900000Y-19150000D02*
X64750000Y-19150000D01*
X65300000Y-18600000D01*
X66450000Y-18600000D01*
X65900000Y-19150000D01*
G36*
X58850000Y-24750000D02*
G01*
X57850000Y-25550000D01*
X57850000Y-23950000D01*
X58850000Y-24750000D01*
G37*
X58850000Y-24750000D02*
X57850000Y-25550000D01*
X57850000Y-23950000D01*
X58850000Y-24750000D01*
G36*
X75700000Y-22000000D02*
G01*
X75000000Y-22700000D01*
X74300000Y-22000000D01*
X75000000Y-21300000D01*
X75700000Y-22000000D01*
G37*
X75700000Y-22000000D02*
X75000000Y-22700000D01*
X74300000Y-22000000D01*
X75000000Y-21300000D01*
X75700000Y-22000000D01*
G36*
X72400000Y-25000000D02*
G01*
X71600000Y-24200000D01*
X71600000Y-21800000D01*
X72400000Y-21000000D01*
X72400000Y-25000000D01*
G37*
X72400000Y-25000000D02*
X71600000Y-24200000D01*
X71600000Y-21800000D01*
X72400000Y-21000000D01*
X72400000Y-25000000D01*
G36*
X67900000Y-21200000D02*
G01*
X66100000Y-21200000D01*
X65200000Y-20300000D01*
X68800000Y-20300000D01*
X67900000Y-21200000D01*
G37*
X67900000Y-21200000D02*
X66100000Y-21200000D01*
X65200000Y-20300000D01*
X68800000Y-20300000D01*
X67900000Y-21200000D01*
D12*
X3000000Y-40000000D02*
X0Y-37000000D01*
X80000000Y-37000000D02*
X77000000Y-40000000D01*
X77000000Y0D02*
X80000000Y-3000000D01*
X0Y-3000000D02*
X3000000Y0D01*
X80000000Y-37000000D02*
X80000000Y-3000000D01*
X3000000Y-40000000D02*
X77000000Y-40000000D01*
X77000000Y0D02*
X3000000Y0D01*
X0Y-3000000D02*
X0Y-37000000D01*
D13*
%TO.C,J5*%
X19850000Y-1600000D02*
X21250000Y-1600000D01*
X19850000Y-3300000D02*
X21250000Y-3300000D01*
X21250000Y-1600000D02*
X21250000Y-3300000D01*
D11*
G36*
X21250000Y-3300000D02*
G01*
X19850000Y-3300000D01*
X19850000Y-1600000D01*
X21250000Y-1600000D01*
X21250000Y-3300000D01*
G37*
X21250000Y-3300000D02*
X19850000Y-3300000D01*
X19850000Y-1600000D01*
X21250000Y-1600000D01*
X21250000Y-3300000D01*
D13*
X12650000Y-1600000D02*
X11250000Y-1600000D01*
X11250000Y-3300000D02*
X11250000Y-1600000D01*
D11*
G36*
X11250000Y-1600000D02*
G01*
X12650000Y-1600000D01*
X12650000Y-3300000D01*
X11250000Y-3300000D01*
X11250000Y-1600000D01*
G37*
X11250000Y-1600000D02*
X12650000Y-1600000D01*
X12650000Y-3300000D01*
X11250000Y-3300000D01*
X11250000Y-1600000D01*
D13*
X12650000Y-3300000D02*
X11250000Y-3300000D01*
%TD*%
D14*
%TO.C,L2*%
X63300000Y-24800000D03*
X60700000Y-24800000D03*
%TD*%
D15*
%TO.C,U3*%
X36350000Y-21450000D03*
X36350000Y-20500000D03*
X36350000Y-19550000D03*
X33650000Y-19550000D03*
X33650000Y-21450000D03*
X33650000Y-20500000D03*
%TD*%
%TO.C,R16*%
G36*
G01*
X32800000Y-17875000D02*
X32800000Y-16625000D01*
G75*
G02*
X33050000Y-16375000I250000J0D01*
G01*
X33850000Y-16375000D01*
G75*
G02*
X34100000Y-16625000I0J-250000D01*
G01*
X34100000Y-17875000D01*
G75*
G02*
X33850000Y-18125000I-250000J0D01*
G01*
X33050000Y-18125000D01*
G75*
G02*
X32800000Y-17875000I0J250000D01*
G01*
G37*
G36*
G01*
X35900000Y-17875000D02*
X35900000Y-16625000D01*
G75*
G02*
X36150000Y-16375000I250000J0D01*
G01*
X36950000Y-16375000D01*
G75*
G02*
X37200000Y-16625000I0J-250000D01*
G01*
X37200000Y-17875000D01*
G75*
G02*
X36950000Y-18125000I-250000J0D01*
G01*
X36150000Y-18125000D01*
G75*
G02*
X35900000Y-17875000I0J250000D01*
G01*
G37*
%TD*%
%TO.C,R15*%
G36*
G01*
X31625000Y-24450000D02*
X30375000Y-24450000D01*
G75*
G02*
X30125000Y-24200000I0J250000D01*
G01*
X30125000Y-23400000D01*
G75*
G02*
X30375000Y-23150000I250000J0D01*
G01*
X31625000Y-23150000D01*
G75*
G02*
X31875000Y-23400000I0J-250000D01*
G01*
X31875000Y-24200000D01*
G75*
G02*
X31625000Y-24450000I-250000J0D01*
G01*
G37*
G36*
G01*
X31625000Y-21350000D02*
X30375000Y-21350000D01*
G75*
G02*
X30125000Y-21100000I0J250000D01*
G01*
X30125000Y-20300000D01*
G75*
G02*
X30375000Y-20050000I250000J0D01*
G01*
X31625000Y-20050000D01*
G75*
G02*
X31875000Y-20300000I0J-250000D01*
G01*
X31875000Y-21100000D01*
G75*
G02*
X31625000Y-21350000I-250000J0D01*
G01*
G37*
%TD*%
%TO.C,Q4*%
G36*
G01*
X38550000Y-18245000D02*
X38550000Y-17945000D01*
G75*
G02*
X38700000Y-17795000I150000J0D01*
G01*
X40350000Y-17795000D01*
G75*
G02*
X40500000Y-17945000I0J-150000D01*
G01*
X40500000Y-18245000D01*
G75*
G02*
X40350000Y-18395000I-150000J0D01*
G01*
X38700000Y-18395000D01*
G75*
G02*
X38550000Y-18245000I0J150000D01*
G01*
G37*
G36*
G01*
X38550000Y-19515000D02*
X38550000Y-19215000D01*
G75*
G02*
X38700000Y-19065000I150000J0D01*
G01*
X40350000Y-19065000D01*
G75*
G02*
X40500000Y-19215000I0J-150000D01*
G01*
X40500000Y-19515000D01*
G75*
G02*
X40350000Y-19665000I-150000J0D01*
G01*
X38700000Y-19665000D01*
G75*
G02*
X38550000Y-19515000I0J150000D01*
G01*
G37*
G36*
G01*
X38550000Y-20785000D02*
X38550000Y-20485000D01*
G75*
G02*
X38700000Y-20335000I150000J0D01*
G01*
X40350000Y-20335000D01*
G75*
G02*
X40500000Y-20485000I0J-150000D01*
G01*
X40500000Y-20785000D01*
G75*
G02*
X40350000Y-20935000I-150000J0D01*
G01*
X38700000Y-20935000D01*
G75*
G02*
X38550000Y-20785000I0J150000D01*
G01*
G37*
G36*
G01*
X38550000Y-22055000D02*
X38550000Y-21755000D01*
G75*
G02*
X38700000Y-21605000I150000J0D01*
G01*
X40350000Y-21605000D01*
G75*
G02*
X40500000Y-21755000I0J-150000D01*
G01*
X40500000Y-22055000D01*
G75*
G02*
X40350000Y-22205000I-150000J0D01*
G01*
X38700000Y-22205000D01*
G75*
G02*
X38550000Y-22055000I0J150000D01*
G01*
G37*
G36*
G01*
X43500000Y-22055000D02*
X43500000Y-21755000D01*
G75*
G02*
X43650000Y-21605000I150000J0D01*
G01*
X45300000Y-21605000D01*
G75*
G02*
X45450000Y-21755000I0J-150000D01*
G01*
X45450000Y-22055000D01*
G75*
G02*
X45300000Y-22205000I-150000J0D01*
G01*
X43650000Y-22205000D01*
G75*
G02*
X43500000Y-22055000I0J150000D01*
G01*
G37*
G36*
G01*
X43500000Y-20785000D02*
X43500000Y-20485000D01*
G75*
G02*
X43650000Y-20335000I150000J0D01*
G01*
X45300000Y-20335000D01*
G75*
G02*
X45450000Y-20485000I0J-150000D01*
G01*
X45450000Y-20785000D01*
G75*
G02*
X45300000Y-20935000I-150000J0D01*
G01*
X43650000Y-20935000D01*
G75*
G02*
X43500000Y-20785000I0J150000D01*
G01*
G37*
G36*
G01*
X43500000Y-19515000D02*
X43500000Y-19215000D01*
G75*
G02*
X43650000Y-19065000I150000J0D01*
G01*
X45300000Y-19065000D01*
G75*
G02*
X45450000Y-19215000I0J-150000D01*
G01*
X45450000Y-19515000D01*
G75*
G02*
X45300000Y-19665000I-150000J0D01*
G01*
X43650000Y-19665000D01*
G75*
G02*
X43500000Y-19515000I0J150000D01*
G01*
G37*
G36*
G01*
X43500000Y-18245000D02*
X43500000Y-17945000D01*
G75*
G02*
X43650000Y-17795000I150000J0D01*
G01*
X45300000Y-17795000D01*
G75*
G02*
X45450000Y-17945000I0J-150000D01*
G01*
X45450000Y-18245000D01*
G75*
G02*
X45300000Y-18395000I-150000J0D01*
G01*
X43650000Y-18395000D01*
G75*
G02*
X43500000Y-18245000I0J150000D01*
G01*
G37*
%TD*%
%TO.C,C9*%
G36*
G01*
X27849999Y-20025000D02*
X29150001Y-20025000D01*
G75*
G02*
X29400000Y-20274999I0J-249999D01*
G01*
X29400000Y-21100001D01*
G75*
G02*
X29150001Y-21350000I-249999J0D01*
G01*
X27849999Y-21350000D01*
G75*
G02*
X27600000Y-21100001I0J249999D01*
G01*
X27600000Y-20274999D01*
G75*
G02*
X27849999Y-20025000I249999J0D01*
G01*
G37*
G36*
G01*
X27849999Y-23150000D02*
X29150001Y-23150000D01*
G75*
G02*
X29400000Y-23399999I0J-249999D01*
G01*
X29400000Y-24225001D01*
G75*
G02*
X29150001Y-24475000I-249999J0D01*
G01*
X27849999Y-24475000D01*
G75*
G02*
X27600000Y-24225001I0J249999D01*
G01*
X27600000Y-23399999D01*
G75*
G02*
X27849999Y-23150000I249999J0D01*
G01*
G37*
%TD*%
%TO.C,C3*%
G36*
G01*
X64849999Y-3275000D02*
X66150001Y-3275000D01*
G75*
G02*
X66400000Y-3524999I0J-249999D01*
G01*
X66400000Y-4350001D01*
G75*
G02*
X66150001Y-4600000I-249999J0D01*
G01*
X64849999Y-4600000D01*
G75*
G02*
X64600000Y-4350001I0J249999D01*
G01*
X64600000Y-3524999D01*
G75*
G02*
X64849999Y-3275000I249999J0D01*
G01*
G37*
G36*
G01*
X64849999Y-6400000D02*
X66150001Y-6400000D01*
G75*
G02*
X66400000Y-6649999I0J-249999D01*
G01*
X66400000Y-7475001D01*
G75*
G02*
X66150001Y-7725000I-249999J0D01*
G01*
X64849999Y-7725000D01*
G75*
G02*
X64600000Y-7475001I0J249999D01*
G01*
X64600000Y-6649999D01*
G75*
G02*
X64849999Y-6400000I249999J0D01*
G01*
G37*
%TD*%
%TO.C,R2*%
G36*
G01*
X44625000Y-14150000D02*
X45875000Y-14150000D01*
G75*
G02*
X46125000Y-14400000I0J-250000D01*
G01*
X46125000Y-15200000D01*
G75*
G02*
X45875000Y-15450000I-250000J0D01*
G01*
X44625000Y-15450000D01*
G75*
G02*
X44375000Y-15200000I0J250000D01*
G01*
X44375000Y-14400000D01*
G75*
G02*
X44625000Y-14150000I250000J0D01*
G01*
G37*
G36*
G01*
X44625000Y-11050000D02*
X45875000Y-11050000D01*
G75*
G02*
X46125000Y-11300000I0J-250000D01*
G01*
X46125000Y-12100000D01*
G75*
G02*
X45875000Y-12350000I-250000J0D01*
G01*
X44625000Y-12350000D01*
G75*
G02*
X44375000Y-12100000I0J250000D01*
G01*
X44375000Y-11300000D01*
G75*
G02*
X44625000Y-11050000I250000J0D01*
G01*
G37*
%TD*%
%TO.C,R10*%
G36*
G01*
X22100000Y-15125000D02*
X22100000Y-16375000D01*
G75*
G02*
X21850000Y-16625000I-250000J0D01*
G01*
X21050000Y-16625000D01*
G75*
G02*
X20800000Y-16375000I0J250000D01*
G01*
X20800000Y-15125000D01*
G75*
G02*
X21050000Y-14875000I250000J0D01*
G01*
X21850000Y-14875000D01*
G75*
G02*
X22100000Y-15125000I0J-250000D01*
G01*
G37*
G36*
G01*
X25200000Y-15125000D02*
X25200000Y-16375000D01*
G75*
G02*
X24950000Y-16625000I-250000J0D01*
G01*
X24150000Y-16625000D01*
G75*
G02*
X23900000Y-16375000I0J250000D01*
G01*
X23900000Y-15125000D01*
G75*
G02*
X24150000Y-14875000I250000J0D01*
G01*
X24950000Y-14875000D01*
G75*
G02*
X25200000Y-15125000I0J-250000D01*
G01*
G37*
%TD*%
%TO.C,Q1*%
G36*
G01*
X20550000Y-9745000D02*
X20550000Y-9445000D01*
G75*
G02*
X20700000Y-9295000I150000J0D01*
G01*
X22050000Y-9295000D01*
G75*
G02*
X22200000Y-9445000I0J-150000D01*
G01*
X22200000Y-9745000D01*
G75*
G02*
X22050000Y-9895000I-150000J0D01*
G01*
X20700000Y-9895000D01*
G75*
G02*
X20550000Y-9745000I0J150000D01*
G01*
G37*
G36*
G01*
X20550000Y-11015000D02*
X20550000Y-10715000D01*
G75*
G02*
X20700000Y-10565000I150000J0D01*
G01*
X22050000Y-10565000D01*
G75*
G02*
X22200000Y-10715000I0J-150000D01*
G01*
X22200000Y-11015000D01*
G75*
G02*
X22050000Y-11165000I-150000J0D01*
G01*
X20700000Y-11165000D01*
G75*
G02*
X20550000Y-11015000I0J150000D01*
G01*
G37*
G36*
G01*
X20550000Y-12285000D02*
X20550000Y-11985000D01*
G75*
G02*
X20700000Y-11835000I150000J0D01*
G01*
X22050000Y-11835000D01*
G75*
G02*
X22200000Y-11985000I0J-150000D01*
G01*
X22200000Y-12285000D01*
G75*
G02*
X22050000Y-12435000I-150000J0D01*
G01*
X20700000Y-12435000D01*
G75*
G02*
X20550000Y-12285000I0J150000D01*
G01*
G37*
G36*
G01*
X20550000Y-13555000D02*
X20550000Y-13255000D01*
G75*
G02*
X20700000Y-13105000I150000J0D01*
G01*
X22050000Y-13105000D01*
G75*
G02*
X22200000Y-13255000I0J-150000D01*
G01*
X22200000Y-13555000D01*
G75*
G02*
X22050000Y-13705000I-150000J0D01*
G01*
X20700000Y-13705000D01*
G75*
G02*
X20550000Y-13555000I0J150000D01*
G01*
G37*
G36*
G01*
X25800000Y-13555000D02*
X25800000Y-13255000D01*
G75*
G02*
X25950000Y-13105000I150000J0D01*
G01*
X27300000Y-13105000D01*
G75*
G02*
X27450000Y-13255000I0J-150000D01*
G01*
X27450000Y-13555000D01*
G75*
G02*
X27300000Y-13705000I-150000J0D01*
G01*
X25950000Y-13705000D01*
G75*
G02*
X25800000Y-13555000I0J150000D01*
G01*
G37*
G36*
G01*
X25800000Y-12285000D02*
X25800000Y-11985000D01*
G75*
G02*
X25950000Y-11835000I150000J0D01*
G01*
X27300000Y-11835000D01*
G75*
G02*
X27450000Y-11985000I0J-150000D01*
G01*
X27450000Y-12285000D01*
G75*
G02*
X27300000Y-12435000I-150000J0D01*
G01*
X25950000Y-12435000D01*
G75*
G02*
X25800000Y-12285000I0J150000D01*
G01*
G37*
G36*
G01*
X25800000Y-11015000D02*
X25800000Y-10715000D01*
G75*
G02*
X25950000Y-10565000I150000J0D01*
G01*
X27300000Y-10565000D01*
G75*
G02*
X27450000Y-10715000I0J-150000D01*
G01*
X27450000Y-11015000D01*
G75*
G02*
X27300000Y-11165000I-150000J0D01*
G01*
X25950000Y-11165000D01*
G75*
G02*
X25800000Y-11015000I0J150000D01*
G01*
G37*
G36*
G01*
X25800000Y-9745000D02*
X25800000Y-9445000D01*
G75*
G02*
X25950000Y-9295000I150000J0D01*
G01*
X27300000Y-9295000D01*
G75*
G02*
X27450000Y-9445000I0J-150000D01*
G01*
X27450000Y-9745000D01*
G75*
G02*
X27300000Y-9895000I-150000J0D01*
G01*
X25950000Y-9895000D01*
G75*
G02*
X25800000Y-9745000I0J150000D01*
G01*
G37*
%TD*%
%TO.C,Q2*%
G36*
G01*
X13950000Y-13255000D02*
X13950000Y-13555000D01*
G75*
G02*
X13800000Y-13705000I-150000J0D01*
G01*
X12450000Y-13705000D01*
G75*
G02*
X12300000Y-13555000I0J150000D01*
G01*
X12300000Y-13255000D01*
G75*
G02*
X12450000Y-13105000I150000J0D01*
G01*
X13800000Y-13105000D01*
G75*
G02*
X13950000Y-13255000I0J-150000D01*
G01*
G37*
G36*
G01*
X13950000Y-11985000D02*
X13950000Y-12285000D01*
G75*
G02*
X13800000Y-12435000I-150000J0D01*
G01*
X12450000Y-12435000D01*
G75*
G02*
X12300000Y-12285000I0J150000D01*
G01*
X12300000Y-11985000D01*
G75*
G02*
X12450000Y-11835000I150000J0D01*
G01*
X13800000Y-11835000D01*
G75*
G02*
X13950000Y-11985000I0J-150000D01*
G01*
G37*
G36*
G01*
X13950000Y-10715000D02*
X13950000Y-11015000D01*
G75*
G02*
X13800000Y-11165000I-150000J0D01*
G01*
X12450000Y-11165000D01*
G75*
G02*
X12300000Y-11015000I0J150000D01*
G01*
X12300000Y-10715000D01*
G75*
G02*
X12450000Y-10565000I150000J0D01*
G01*
X13800000Y-10565000D01*
G75*
G02*
X13950000Y-10715000I0J-150000D01*
G01*
G37*
G36*
G01*
X13950000Y-9445000D02*
X13950000Y-9745000D01*
G75*
G02*
X13800000Y-9895000I-150000J0D01*
G01*
X12450000Y-9895000D01*
G75*
G02*
X12300000Y-9745000I0J150000D01*
G01*
X12300000Y-9445000D01*
G75*
G02*
X12450000Y-9295000I150000J0D01*
G01*
X13800000Y-9295000D01*
G75*
G02*
X13950000Y-9445000I0J-150000D01*
G01*
G37*
G36*
G01*
X19200000Y-9445000D02*
X19200000Y-9745000D01*
G75*
G02*
X19050000Y-9895000I-150000J0D01*
G01*
X17700000Y-9895000D01*
G75*
G02*
X17550000Y-9745000I0J150000D01*
G01*
X17550000Y-9445000D01*
G75*
G02*
X17700000Y-9295000I150000J0D01*
G01*
X19050000Y-9295000D01*
G75*
G02*
X19200000Y-9445000I0J-150000D01*
G01*
G37*
G36*
G01*
X19200000Y-10715000D02*
X19200000Y-11015000D01*
G75*
G02*
X19050000Y-11165000I-150000J0D01*
G01*
X17700000Y-11165000D01*
G75*
G02*
X17550000Y-11015000I0J150000D01*
G01*
X17550000Y-10715000D01*
G75*
G02*
X17700000Y-10565000I150000J0D01*
G01*
X19050000Y-10565000D01*
G75*
G02*
X19200000Y-10715000I0J-150000D01*
G01*
G37*
G36*
G01*
X19200000Y-11985000D02*
X19200000Y-12285000D01*
G75*
G02*
X19050000Y-12435000I-150000J0D01*
G01*
X17700000Y-12435000D01*
G75*
G02*
X17550000Y-12285000I0J150000D01*
G01*
X17550000Y-11985000D01*
G75*
G02*
X17700000Y-11835000I150000J0D01*
G01*
X19050000Y-11835000D01*
G75*
G02*
X19200000Y-11985000I0J-150000D01*
G01*
G37*
G36*
G01*
X19200000Y-13255000D02*
X19200000Y-13555000D01*
G75*
G02*
X19050000Y-13705000I-150000J0D01*
G01*
X17700000Y-13705000D01*
G75*
G02*
X17550000Y-13555000I0J150000D01*
G01*
X17550000Y-13255000D01*
G75*
G02*
X17700000Y-13105000I150000J0D01*
G01*
X19050000Y-13105000D01*
G75*
G02*
X19200000Y-13255000I0J-150000D01*
G01*
G37*
%TD*%
%TO.C,U2*%
G36*
G01*
X14700000Y-26005000D02*
X14700000Y-26305000D01*
G75*
G02*
X14550000Y-26455000I-150000J0D01*
G01*
X12900000Y-26455000D01*
G75*
G02*
X12750000Y-26305000I0J150000D01*
G01*
X12750000Y-26005000D01*
G75*
G02*
X12900000Y-25855000I150000J0D01*
G01*
X14550000Y-25855000D01*
G75*
G02*
X14700000Y-26005000I0J-150000D01*
G01*
G37*
G36*
G01*
X14700000Y-24735000D02*
X14700000Y-25035000D01*
G75*
G02*
X14550000Y-25185000I-150000J0D01*
G01*
X12900000Y-25185000D01*
G75*
G02*
X12750000Y-25035000I0J150000D01*
G01*
X12750000Y-24735000D01*
G75*
G02*
X12900000Y-24585000I150000J0D01*
G01*
X14550000Y-24585000D01*
G75*
G02*
X14700000Y-24735000I0J-150000D01*
G01*
G37*
G36*
G01*
X14700000Y-23465000D02*
X14700000Y-23765000D01*
G75*
G02*
X14550000Y-23915000I-150000J0D01*
G01*
X12900000Y-23915000D01*
G75*
G02*
X12750000Y-23765000I0J150000D01*
G01*
X12750000Y-23465000D01*
G75*
G02*
X12900000Y-23315000I150000J0D01*
G01*
X14550000Y-23315000D01*
G75*
G02*
X14700000Y-23465000I0J-150000D01*
G01*
G37*
G36*
G01*
X14700000Y-22195000D02*
X14700000Y-22495000D01*
G75*
G02*
X14550000Y-22645000I-150000J0D01*
G01*
X12900000Y-22645000D01*
G75*
G02*
X12750000Y-22495000I0J150000D01*
G01*
X12750000Y-22195000D01*
G75*
G02*
X12900000Y-22045000I150000J0D01*
G01*
X14550000Y-22045000D01*
G75*
G02*
X14700000Y-22195000I0J-150000D01*
G01*
G37*
G36*
G01*
X9750000Y-22195000D02*
X9750000Y-22495000D01*
G75*
G02*
X9600000Y-22645000I-150000J0D01*
G01*
X7950000Y-22645000D01*
G75*
G02*
X7800000Y-22495000I0J150000D01*
G01*
X7800000Y-22195000D01*
G75*
G02*
X7950000Y-22045000I150000J0D01*
G01*
X9600000Y-22045000D01*
G75*
G02*
X9750000Y-22195000I0J-150000D01*
G01*
G37*
G36*
G01*
X9750000Y-23465000D02*
X9750000Y-23765000D01*
G75*
G02*
X9600000Y-23915000I-150000J0D01*
G01*
X7950000Y-23915000D01*
G75*
G02*
X7800000Y-23765000I0J150000D01*
G01*
X7800000Y-23465000D01*
G75*
G02*
X7950000Y-23315000I150000J0D01*
G01*
X9600000Y-23315000D01*
G75*
G02*
X9750000Y-23465000I0J-150000D01*
G01*
G37*
G36*
G01*
X9750000Y-24735000D02*
X9750000Y-25035000D01*
G75*
G02*
X9600000Y-25185000I-150000J0D01*
G01*
X7950000Y-25185000D01*
G75*
G02*
X7800000Y-25035000I0J150000D01*
G01*
X7800000Y-24735000D01*
G75*
G02*
X7950000Y-24585000I150000J0D01*
G01*
X9600000Y-24585000D01*
G75*
G02*
X9750000Y-24735000I0J-150000D01*
G01*
G37*
G36*
G01*
X9750000Y-26005000D02*
X9750000Y-26305000D01*
G75*
G02*
X9600000Y-26455000I-150000J0D01*
G01*
X7950000Y-26455000D01*
G75*
G02*
X7800000Y-26305000I0J150000D01*
G01*
X7800000Y-26005000D01*
G75*
G02*
X7950000Y-25855000I150000J0D01*
G01*
X9600000Y-25855000D01*
G75*
G02*
X9750000Y-26005000I0J-150000D01*
G01*
G37*
D16*
X11250000Y-24250000D03*
%TD*%
%TO.C,U1*%
G36*
G01*
X57500000Y-6255000D02*
X57500000Y-6555000D01*
G75*
G02*
X57350000Y-6705000I-150000J0D01*
G01*
X55700000Y-6705000D01*
G75*
G02*
X55550000Y-6555000I0J150000D01*
G01*
X55550000Y-6255000D01*
G75*
G02*
X55700000Y-6105000I150000J0D01*
G01*
X57350000Y-6105000D01*
G75*
G02*
X57500000Y-6255000I0J-150000D01*
G01*
G37*
G36*
G01*
X57500000Y-4985000D02*
X57500000Y-5285000D01*
G75*
G02*
X57350000Y-5435000I-150000J0D01*
G01*
X55700000Y-5435000D01*
G75*
G02*
X55550000Y-5285000I0J150000D01*
G01*
X55550000Y-4985000D01*
G75*
G02*
X55700000Y-4835000I150000J0D01*
G01*
X57350000Y-4835000D01*
G75*
G02*
X57500000Y-4985000I0J-150000D01*
G01*
G37*
G36*
G01*
X57500000Y-3715000D02*
X57500000Y-4015000D01*
G75*
G02*
X57350000Y-4165000I-150000J0D01*
G01*
X55700000Y-4165000D01*
G75*
G02*
X55550000Y-4015000I0J150000D01*
G01*
X55550000Y-3715000D01*
G75*
G02*
X55700000Y-3565000I150000J0D01*
G01*
X57350000Y-3565000D01*
G75*
G02*
X57500000Y-3715000I0J-150000D01*
G01*
G37*
G36*
G01*
X57500000Y-2445000D02*
X57500000Y-2745000D01*
G75*
G02*
X57350000Y-2895000I-150000J0D01*
G01*
X55700000Y-2895000D01*
G75*
G02*
X55550000Y-2745000I0J150000D01*
G01*
X55550000Y-2445000D01*
G75*
G02*
X55700000Y-2295000I150000J0D01*
G01*
X57350000Y-2295000D01*
G75*
G02*
X57500000Y-2445000I0J-150000D01*
G01*
G37*
G36*
G01*
X62450000Y-2445000D02*
X62450000Y-2745000D01*
G75*
G02*
X62300000Y-2895000I-150000J0D01*
G01*
X60650000Y-2895000D01*
G75*
G02*
X60500000Y-2745000I0J150000D01*
G01*
X60500000Y-2445000D01*
G75*
G02*
X60650000Y-2295000I150000J0D01*
G01*
X62300000Y-2295000D01*
G75*
G02*
X62450000Y-2445000I0J-150000D01*
G01*
G37*
G36*
G01*
X62450000Y-3715000D02*
X62450000Y-4015000D01*
G75*
G02*
X62300000Y-4165000I-150000J0D01*
G01*
X60650000Y-4165000D01*
G75*
G02*
X60500000Y-4015000I0J150000D01*
G01*
X60500000Y-3715000D01*
G75*
G02*
X60650000Y-3565000I150000J0D01*
G01*
X62300000Y-3565000D01*
G75*
G02*
X62450000Y-3715000I0J-150000D01*
G01*
G37*
G36*
G01*
X62450000Y-4985000D02*
X62450000Y-5285000D01*
G75*
G02*
X62300000Y-5435000I-150000J0D01*
G01*
X60650000Y-5435000D01*
G75*
G02*
X60500000Y-5285000I0J150000D01*
G01*
X60500000Y-4985000D01*
G75*
G02*
X60650000Y-4835000I150000J0D01*
G01*
X62300000Y-4835000D01*
G75*
G02*
X62450000Y-4985000I0J-150000D01*
G01*
G37*
G36*
G01*
X62450000Y-6255000D02*
X62450000Y-6555000D01*
G75*
G02*
X62300000Y-6705000I-150000J0D01*
G01*
X60650000Y-6705000D01*
G75*
G02*
X60500000Y-6555000I0J150000D01*
G01*
X60500000Y-6255000D01*
G75*
G02*
X60650000Y-6105000I150000J0D01*
G01*
X62300000Y-6105000D01*
G75*
G02*
X62450000Y-6255000I0J-150000D01*
G01*
G37*
%TD*%
D17*
%TO.C,SW1*%
X32050000Y-11100000D03*
X36750000Y-11100000D03*
X41450000Y-11100000D03*
%TD*%
D18*
%TO.C,RV1*%
X20790000Y-35750000D03*
X18250000Y-35750000D03*
X15710000Y-35750000D03*
%TD*%
%TO.C,R12*%
G36*
G01*
X47300000Y-4875000D02*
X47300000Y-3625000D01*
G75*
G02*
X47550000Y-3375000I250000J0D01*
G01*
X48350000Y-3375000D01*
G75*
G02*
X48600000Y-3625000I0J-250000D01*
G01*
X48600000Y-4875000D01*
G75*
G02*
X48350000Y-5125000I-250000J0D01*
G01*
X47550000Y-5125000D01*
G75*
G02*
X47300000Y-4875000I0J250000D01*
G01*
G37*
G36*
G01*
X50400000Y-4875000D02*
X50400000Y-3625000D01*
G75*
G02*
X50650000Y-3375000I250000J0D01*
G01*
X51450000Y-3375000D01*
G75*
G02*
X51700000Y-3625000I0J-250000D01*
G01*
X51700000Y-4875000D01*
G75*
G02*
X51450000Y-5125000I-250000J0D01*
G01*
X50650000Y-5125000D01*
G75*
G02*
X50400000Y-4875000I0J250000D01*
G01*
G37*
%TD*%
%TO.C,R11*%
G36*
G01*
X12400000Y-30375000D02*
X12400000Y-31625000D01*
G75*
G02*
X12150000Y-31875000I-250000J0D01*
G01*
X11350000Y-31875000D01*
G75*
G02*
X11100000Y-31625000I0J250000D01*
G01*
X11100000Y-30375000D01*
G75*
G02*
X11350000Y-30125000I250000J0D01*
G01*
X12150000Y-30125000D01*
G75*
G02*
X12400000Y-30375000I0J-250000D01*
G01*
G37*
G36*
G01*
X9300000Y-30375000D02*
X9300000Y-31625000D01*
G75*
G02*
X9050000Y-31875000I-250000J0D01*
G01*
X8250000Y-31875000D01*
G75*
G02*
X8000000Y-31625000I0J250000D01*
G01*
X8000000Y-30375000D01*
G75*
G02*
X8250000Y-30125000I250000J0D01*
G01*
X9050000Y-30125000D01*
G75*
G02*
X9300000Y-30375000I0J-250000D01*
G01*
G37*
%TD*%
%TO.C,R9*%
G36*
G01*
X21625000Y-18050000D02*
X22875000Y-18050000D01*
G75*
G02*
X23125000Y-18300000I0J-250000D01*
G01*
X23125000Y-19100000D01*
G75*
G02*
X22875000Y-19350000I-250000J0D01*
G01*
X21625000Y-19350000D01*
G75*
G02*
X21375000Y-19100000I0J250000D01*
G01*
X21375000Y-18300000D01*
G75*
G02*
X21625000Y-18050000I250000J0D01*
G01*
G37*
G36*
G01*
X21625000Y-21150000D02*
X22875000Y-21150000D01*
G75*
G02*
X23125000Y-21400000I0J-250000D01*
G01*
X23125000Y-22200000D01*
G75*
G02*
X22875000Y-22450000I-250000J0D01*
G01*
X21625000Y-22450000D01*
G75*
G02*
X21375000Y-22200000I0J250000D01*
G01*
X21375000Y-21400000D01*
G75*
G02*
X21625000Y-21150000I250000J0D01*
G01*
G37*
%TD*%
%TO.C,R8*%
G36*
G01*
X5125000Y-25800000D02*
X3875000Y-25800000D01*
G75*
G02*
X3625000Y-25550000I0J250000D01*
G01*
X3625000Y-24750000D01*
G75*
G02*
X3875000Y-24500000I250000J0D01*
G01*
X5125000Y-24500000D01*
G75*
G02*
X5375000Y-24750000I0J-250000D01*
G01*
X5375000Y-25550000D01*
G75*
G02*
X5125000Y-25800000I-250000J0D01*
G01*
G37*
G36*
G01*
X5125000Y-28900000D02*
X3875000Y-28900000D01*
G75*
G02*
X3625000Y-28650000I0J250000D01*
G01*
X3625000Y-27850000D01*
G75*
G02*
X3875000Y-27600000I250000J0D01*
G01*
X5125000Y-27600000D01*
G75*
G02*
X5375000Y-27850000I0J-250000D01*
G01*
X5375000Y-28650000D01*
G75*
G02*
X5125000Y-28900000I-250000J0D01*
G01*
G37*
%TD*%
%TO.C,R7*%
G36*
G01*
X21625000Y-23300000D02*
X22875000Y-23300000D01*
G75*
G02*
X23125000Y-23550000I0J-250000D01*
G01*
X23125000Y-24350000D01*
G75*
G02*
X22875000Y-24600000I-250000J0D01*
G01*
X21625000Y-24600000D01*
G75*
G02*
X21375000Y-24350000I0J250000D01*
G01*
X21375000Y-23550000D01*
G75*
G02*
X21625000Y-23300000I250000J0D01*
G01*
G37*
G36*
G01*
X21625000Y-26400000D02*
X22875000Y-26400000D01*
G75*
G02*
X23125000Y-26650000I0J-250000D01*
G01*
X23125000Y-27450000D01*
G75*
G02*
X22875000Y-27700000I-250000J0D01*
G01*
X21625000Y-27700000D01*
G75*
G02*
X21375000Y-27450000I0J250000D01*
G01*
X21375000Y-26650000D01*
G75*
G02*
X21625000Y-26400000I250000J0D01*
G01*
G37*
%TD*%
%TO.C,R6*%
G36*
G01*
X25375000Y-22450000D02*
X24125000Y-22450000D01*
G75*
G02*
X23875000Y-22200000I0J250000D01*
G01*
X23875000Y-21400000D01*
G75*
G02*
X24125000Y-21150000I250000J0D01*
G01*
X25375000Y-21150000D01*
G75*
G02*
X25625000Y-21400000I0J-250000D01*
G01*
X25625000Y-22200000D01*
G75*
G02*
X25375000Y-22450000I-250000J0D01*
G01*
G37*
G36*
G01*
X25375000Y-19350000D02*
X24125000Y-19350000D01*
G75*
G02*
X23875000Y-19100000I0J250000D01*
G01*
X23875000Y-18300000D01*
G75*
G02*
X24125000Y-18050000I250000J0D01*
G01*
X25375000Y-18050000D01*
G75*
G02*
X25625000Y-18300000I0J-250000D01*
G01*
X25625000Y-19100000D01*
G75*
G02*
X25375000Y-19350000I-250000J0D01*
G01*
G37*
%TD*%
%TO.C,R5*%
G36*
G01*
X3875000Y-22150000D02*
X5125000Y-22150000D01*
G75*
G02*
X5375000Y-22400000I0J-250000D01*
G01*
X5375000Y-23200000D01*
G75*
G02*
X5125000Y-23450000I-250000J0D01*
G01*
X3875000Y-23450000D01*
G75*
G02*
X3625000Y-23200000I0J250000D01*
G01*
X3625000Y-22400000D01*
G75*
G02*
X3875000Y-22150000I250000J0D01*
G01*
G37*
G36*
G01*
X3875000Y-19050000D02*
X5125000Y-19050000D01*
G75*
G02*
X5375000Y-19300000I0J-250000D01*
G01*
X5375000Y-20100000D01*
G75*
G02*
X5125000Y-20350000I-250000J0D01*
G01*
X3875000Y-20350000D01*
G75*
G02*
X3625000Y-20100000I0J250000D01*
G01*
X3625000Y-19300000D01*
G75*
G02*
X3875000Y-19050000I250000J0D01*
G01*
G37*
%TD*%
%TO.C,R4*%
G36*
G01*
X19125000Y-23300000D02*
X20375000Y-23300000D01*
G75*
G02*
X20625000Y-23550000I0J-250000D01*
G01*
X20625000Y-24350000D01*
G75*
G02*
X20375000Y-24600000I-250000J0D01*
G01*
X19125000Y-24600000D01*
G75*
G02*
X18875000Y-24350000I0J250000D01*
G01*
X18875000Y-23550000D01*
G75*
G02*
X19125000Y-23300000I250000J0D01*
G01*
G37*
G36*
G01*
X19125000Y-26400000D02*
X20375000Y-26400000D01*
G75*
G02*
X20625000Y-26650000I0J-250000D01*
G01*
X20625000Y-27450000D01*
G75*
G02*
X20375000Y-27700000I-250000J0D01*
G01*
X19125000Y-27700000D01*
G75*
G02*
X18875000Y-27450000I0J250000D01*
G01*
X18875000Y-26650000D01*
G75*
G02*
X19125000Y-26400000I250000J0D01*
G01*
G37*
%TD*%
%TO.C,R3*%
G36*
G01*
X25375000Y-27700000D02*
X24125000Y-27700000D01*
G75*
G02*
X23875000Y-27450000I0J250000D01*
G01*
X23875000Y-26650000D01*
G75*
G02*
X24125000Y-26400000I250000J0D01*
G01*
X25375000Y-26400000D01*
G75*
G02*
X25625000Y-26650000I0J-250000D01*
G01*
X25625000Y-27450000D01*
G75*
G02*
X25375000Y-27700000I-250000J0D01*
G01*
G37*
G36*
G01*
X25375000Y-24600000D02*
X24125000Y-24600000D01*
G75*
G02*
X23875000Y-24350000I0J250000D01*
G01*
X23875000Y-23550000D01*
G75*
G02*
X24125000Y-23300000I250000J0D01*
G01*
X25375000Y-23300000D01*
G75*
G02*
X25625000Y-23550000I0J-250000D01*
G01*
X25625000Y-24350000D01*
G75*
G02*
X25375000Y-24600000I-250000J0D01*
G01*
G37*
%TD*%
%TO.C,R1*%
G36*
G01*
X51700000Y-5875000D02*
X51700000Y-7125000D01*
G75*
G02*
X51450000Y-7375000I-250000J0D01*
G01*
X50650000Y-7375000D01*
G75*
G02*
X50400000Y-7125000I0J250000D01*
G01*
X50400000Y-5875000D01*
G75*
G02*
X50650000Y-5625000I250000J0D01*
G01*
X51450000Y-5625000D01*
G75*
G02*
X51700000Y-5875000I0J-250000D01*
G01*
G37*
G36*
G01*
X48600000Y-5875000D02*
X48600000Y-7125000D01*
G75*
G02*
X48350000Y-7375000I-250000J0D01*
G01*
X47550000Y-7375000D01*
G75*
G02*
X47300000Y-7125000I0J250000D01*
G01*
X47300000Y-5875000D01*
G75*
G02*
X47550000Y-5625000I250000J0D01*
G01*
X48350000Y-5625000D01*
G75*
G02*
X48600000Y-5875000I0J-250000D01*
G01*
G37*
%TD*%
D19*
%TO.C,L1*%
X48350000Y-15250000D03*
X60150000Y-15250000D03*
D20*
X49300000Y-15250000D03*
X59200000Y-15250000D03*
%TD*%
D21*
%TO.C,J7*%
X72000000Y-14655000D03*
X72000000Y-10845000D03*
%TD*%
%TO.C,J6*%
X8000000Y-10845000D03*
X8000000Y-14655000D03*
%TD*%
D22*
%TO.C,J5*%
X12650000Y-2450000D03*
G36*
G01*
X17750000Y-1950000D02*
X17750000Y-2950000D01*
G75*
G02*
X17250000Y-3450000I-500000J0D01*
G01*
X15250000Y-3450000D01*
G75*
G02*
X14750000Y-2950000I0J500000D01*
G01*
X14750000Y-1950000D01*
G75*
G02*
X15250000Y-1450000I500000J0D01*
G01*
X17250000Y-1450000D01*
G75*
G02*
X17750000Y-1950000I0J-500000D01*
G01*
G37*
D23*
X14900000Y-5250000D03*
X15600000Y-5250000D03*
X16250000Y-5250000D03*
X16900000Y-5250000D03*
X17550000Y-5250000D03*
D24*
X13825000Y-5250000D03*
X18675000Y-5250000D03*
D22*
X12650000Y-2450000D03*
X19850000Y-2450000D03*
%TD*%
%TO.C,D4*%
G36*
G01*
X50275000Y-2375000D02*
X50275000Y-1125000D01*
G75*
G02*
X50525000Y-875000I250000J0D01*
G01*
X51450000Y-875000D01*
G75*
G02*
X51700000Y-1125000I0J-250000D01*
G01*
X51700000Y-2375000D01*
G75*
G02*
X51450000Y-2625000I-250000J0D01*
G01*
X50525000Y-2625000D01*
G75*
G02*
X50275000Y-2375000I0J250000D01*
G01*
G37*
G36*
G01*
X47300000Y-2375000D02*
X47300000Y-1125000D01*
G75*
G02*
X47550000Y-875000I250000J0D01*
G01*
X48475000Y-875000D01*
G75*
G02*
X48725000Y-1125000I0J-250000D01*
G01*
X48725000Y-2375000D01*
G75*
G02*
X48475000Y-2625000I-250000J0D01*
G01*
X47550000Y-2625000D01*
G75*
G02*
X47300000Y-2375000I0J250000D01*
G01*
G37*
%TD*%
%TO.C,D3*%
G36*
G01*
X2625000Y-25962500D02*
X1375000Y-25962500D01*
G75*
G02*
X1125000Y-25712500I0J250000D01*
G01*
X1125000Y-24787500D01*
G75*
G02*
X1375000Y-24537500I250000J0D01*
G01*
X2625000Y-24537500D01*
G75*
G02*
X2875000Y-24787500I0J-250000D01*
G01*
X2875000Y-25712500D01*
G75*
G02*
X2625000Y-25962500I-250000J0D01*
G01*
G37*
G36*
G01*
X2625000Y-28937500D02*
X1375000Y-28937500D01*
G75*
G02*
X1125000Y-28687500I0J250000D01*
G01*
X1125000Y-27762500D01*
G75*
G02*
X1375000Y-27512500I250000J0D01*
G01*
X2625000Y-27512500D01*
G75*
G02*
X2875000Y-27762500I0J-250000D01*
G01*
X2875000Y-28687500D01*
G75*
G02*
X2625000Y-28937500I-250000J0D01*
G01*
G37*
%TD*%
D25*
%TO.C,D2*%
X50100000Y-24750000D03*
X54400000Y-24750000D03*
%TD*%
%TO.C,D1*%
G36*
G01*
X2625000Y-20475000D02*
X1375000Y-20475000D01*
G75*
G02*
X1125000Y-20225000I0J250000D01*
G01*
X1125000Y-19300000D01*
G75*
G02*
X1375000Y-19050000I250000J0D01*
G01*
X2625000Y-19050000D01*
G75*
G02*
X2875000Y-19300000I0J-250000D01*
G01*
X2875000Y-20225000D01*
G75*
G02*
X2625000Y-20475000I-250000J0D01*
G01*
G37*
G36*
G01*
X2625000Y-23450000D02*
X1375000Y-23450000D01*
G75*
G02*
X1125000Y-23200000I0J250000D01*
G01*
X1125000Y-22275000D01*
G75*
G02*
X1375000Y-22025000I250000J0D01*
G01*
X2625000Y-22025000D01*
G75*
G02*
X2875000Y-22275000I0J-250000D01*
G01*
X2875000Y-23200000D01*
G75*
G02*
X2625000Y-23450000I-250000J0D01*
G01*
G37*
%TD*%
%TO.C,C8*%
G36*
G01*
X56250000Y-34750000D02*
X58250000Y-34750000D01*
G75*
G02*
X58500000Y-35000000I0J-250000D01*
G01*
X58500000Y-38900000D01*
G75*
G02*
X58250000Y-39150000I-250000J0D01*
G01*
X56250000Y-39150000D01*
G75*
G02*
X56000000Y-38900000I0J250000D01*
G01*
X56000000Y-35000000D01*
G75*
G02*
X56250000Y-34750000I250000J0D01*
G01*
G37*
G36*
G01*
X56250000Y-27350000D02*
X58250000Y-27350000D01*
G75*
G02*
X58500000Y-27600000I0J-250000D01*
G01*
X58500000Y-31500000D01*
G75*
G02*
X58250000Y-31750000I-250000J0D01*
G01*
X56250000Y-31750000D01*
G75*
G02*
X56000000Y-31500000I0J250000D01*
G01*
X56000000Y-27600000D01*
G75*
G02*
X56250000Y-27350000I250000J0D01*
G01*
G37*
%TD*%
%TO.C,C7*%
G36*
G01*
X37750000Y-34750000D02*
X39750000Y-34750000D01*
G75*
G02*
X40000000Y-35000000I0J-250000D01*
G01*
X40000000Y-38900000D01*
G75*
G02*
X39750000Y-39150000I-250000J0D01*
G01*
X37750000Y-39150000D01*
G75*
G02*
X37500000Y-38900000I0J250000D01*
G01*
X37500000Y-35000000D01*
G75*
G02*
X37750000Y-34750000I250000J0D01*
G01*
G37*
G36*
G01*
X37750000Y-27350000D02*
X39750000Y-27350000D01*
G75*
G02*
X40000000Y-27600000I0J-250000D01*
G01*
X40000000Y-31500000D01*
G75*
G02*
X39750000Y-31750000I-250000J0D01*
G01*
X37750000Y-31750000D01*
G75*
G02*
X37500000Y-31500000I0J250000D01*
G01*
X37500000Y-27600000D01*
G75*
G02*
X37750000Y-27350000I250000J0D01*
G01*
G37*
%TD*%
%TO.C,C6*%
G36*
G01*
X65500000Y-34750000D02*
X67500000Y-34750000D01*
G75*
G02*
X67750000Y-35000000I0J-250000D01*
G01*
X67750000Y-38900000D01*
G75*
G02*
X67500000Y-39150000I-250000J0D01*
G01*
X65500000Y-39150000D01*
G75*
G02*
X65250000Y-38900000I0J250000D01*
G01*
X65250000Y-35000000D01*
G75*
G02*
X65500000Y-34750000I250000J0D01*
G01*
G37*
G36*
G01*
X65500000Y-27350000D02*
X67500000Y-27350000D01*
G75*
G02*
X67750000Y-27600000I0J-250000D01*
G01*
X67750000Y-31500000D01*
G75*
G02*
X67500000Y-31750000I-250000J0D01*
G01*
X65500000Y-31750000D01*
G75*
G02*
X65250000Y-31500000I0J250000D01*
G01*
X65250000Y-27600000D01*
G75*
G02*
X65500000Y-27350000I250000J0D01*
G01*
G37*
%TD*%
%TO.C,C5*%
G36*
G01*
X11087500Y-20650001D02*
X11087500Y-19349999D01*
G75*
G02*
X11337499Y-19100000I249999J0D01*
G01*
X12162501Y-19100000D01*
G75*
G02*
X12412500Y-19349999I0J-249999D01*
G01*
X12412500Y-20650001D01*
G75*
G02*
X12162501Y-20900000I-249999J0D01*
G01*
X11337499Y-20900000D01*
G75*
G02*
X11087500Y-20650001I0J249999D01*
G01*
G37*
G36*
G01*
X7962500Y-20650001D02*
X7962500Y-19349999D01*
G75*
G02*
X8212499Y-19100000I249999J0D01*
G01*
X9037501Y-19100000D01*
G75*
G02*
X9287500Y-19349999I0J-249999D01*
G01*
X9287500Y-20650001D01*
G75*
G02*
X9037501Y-20900000I-249999J0D01*
G01*
X8212499Y-20900000D01*
G75*
G02*
X7962500Y-20650001I0J249999D01*
G01*
G37*
%TD*%
%TO.C,C4*%
G36*
G01*
X47000000Y-34750000D02*
X49000000Y-34750000D01*
G75*
G02*
X49250000Y-35000000I0J-250000D01*
G01*
X49250000Y-38900000D01*
G75*
G02*
X49000000Y-39150000I-250000J0D01*
G01*
X47000000Y-39150000D01*
G75*
G02*
X46750000Y-38900000I0J250000D01*
G01*
X46750000Y-35000000D01*
G75*
G02*
X47000000Y-34750000I250000J0D01*
G01*
G37*
G36*
G01*
X47000000Y-27350000D02*
X49000000Y-27350000D01*
G75*
G02*
X49250000Y-27600000I0J-250000D01*
G01*
X49250000Y-31500000D01*
G75*
G02*
X49000000Y-31750000I-250000J0D01*
G01*
X47000000Y-31750000D01*
G75*
G02*
X46750000Y-31500000I0J250000D01*
G01*
X46750000Y-27600000D01*
G75*
G02*
X47000000Y-27350000I250000J0D01*
G01*
G37*
%TD*%
%TO.C,C2*%
G36*
G01*
X11150000Y-29150001D02*
X11150000Y-27849999D01*
G75*
G02*
X11399999Y-27600000I249999J0D01*
G01*
X12225001Y-27600000D01*
G75*
G02*
X12475000Y-27849999I0J-249999D01*
G01*
X12475000Y-29150001D01*
G75*
G02*
X12225001Y-29400000I-249999J0D01*
G01*
X11399999Y-29400000D01*
G75*
G02*
X11150000Y-29150001I0J249999D01*
G01*
G37*
G36*
G01*
X8025000Y-29150001D02*
X8025000Y-27849999D01*
G75*
G02*
X8274999Y-27600000I249999J0D01*
G01*
X9100001Y-27600000D01*
G75*
G02*
X9350000Y-27849999I0J-249999D01*
G01*
X9350000Y-29150001D01*
G75*
G02*
X9100001Y-29400000I-249999J0D01*
G01*
X8274999Y-29400000D01*
G75*
G02*
X8025000Y-29150001I0J249999D01*
G01*
G37*
%TD*%
%TO.C,C1*%
G36*
G01*
X28500000Y-34750000D02*
X30500000Y-34750000D01*
G75*
G02*
X30750000Y-35000000I0J-250000D01*
G01*
X30750000Y-38900000D01*
G75*
G02*
X30500000Y-39150000I-250000J0D01*
G01*
X28500000Y-39150000D01*
G75*
G02*
X28250000Y-38900000I0J250000D01*
G01*
X28250000Y-35000000D01*
G75*
G02*
X28500000Y-34750000I250000J0D01*
G01*
G37*
G36*
G01*
X28500000Y-27350000D02*
X30500000Y-27350000D01*
G75*
G02*
X30750000Y-27600000I0J-250000D01*
G01*
X30750000Y-31500000D01*
G75*
G02*
X30500000Y-31750000I-250000J0D01*
G01*
X28500000Y-31750000D01*
G75*
G02*
X28250000Y-31500000I0J250000D01*
G01*
X28250000Y-27600000D01*
G75*
G02*
X28500000Y-27350000I250000J0D01*
G01*
G37*
%TD*%
D26*
%TO.C,J4*%
X4250000Y-35750000D03*
D27*
X4250000Y-35750000D03*
%TD*%
D26*
%TO.C,J3*%
X75750000Y-4250000D03*
D27*
X75750000Y-4250000D03*
%TD*%
D26*
%TO.C,J2*%
X75750000Y-35750000D03*
D27*
X75750000Y-35750000D03*
%TD*%
D26*
%TO.C,J1*%
X4250000Y-4250000D03*
D27*
X4250000Y-4250000D03*
%TD*%
M02*
