M48
; DRILL file {KiCad (5.1.10)-1} date 06/27/21 16:28:45
; FORMAT={-:-/ absolute / metric / decimal}
; #@! TF.CreationDate,2021-06-27T16:28:45+02:00
; #@! TF.GenerationSoftware,Kicad,Pcbnew,(5.1.10)-1
; #@! TF.FileFunction,Plated,1,2,PTH
FMAT,2
METRIC
T1C0.300
T2C0.400
T3C0.500
T4C0.700
T5C0.800
T6C1.200
T7C1.300
T8C3.200
%
G90
G05
T1
X6.5Y-22.75
X6.5Y-28.25
X7.0Y-31.0
X7.0Y-32.25
X8.25Y-33.0
X12.25Y-18.25
X13.5Y-29.5
X13.725Y-19.275
X15.5Y-23.75
X15.75Y-28.0
X18.75Y-17.5
X26.0Y-16.75
X26.5Y-25.25
X27.75Y-35.0
X28.5Y-34.25
X29.5Y-34.25
X30.5Y-34.25
X31.25Y-35.0
X37.0Y-35.0
X37.75Y-34.25
X38.75Y-34.25
X39.75Y-34.25
X40.5Y-35.0
X46.0Y-2.0
X46.25Y-35.0
X47.0Y-34.25
X48.0Y-34.25
X49.0Y-34.25
X49.75Y-35.0
X52.75Y-2.25
X52.75Y-3.25
X52.75Y-4.25
X53.75Y-3.25
X53.75Y-4.25
X54.5Y-1.75
X54.75Y-3.75
X55.5Y-35.0
X56.25Y-34.25
X57.25Y-34.25
X58.25Y-3.9
X58.25Y-34.25
X59.0Y-35.0
X59.25Y-2.9
X59.25Y-3.9
X59.25Y-4.9
X63.25Y-2.5
X63.5Y-5.25
X64.0Y-7.25
X64.75Y-35.0
X65.5Y-8.5
X65.5Y-34.25
X66.5Y-34.25
X67.0Y-7.25
X67.5Y-34.25
X68.25Y-35.0
T2
X13.25Y-16.5
X16.0Y-10.0
X20.75Y-6.25
X22.25Y-20.25
X22.25Y-25.5
X30.25Y-22.25
X31.75Y-22.25
X35.0Y-17.25
X36.25Y-25.75
X36.25Y-31.0
X37.25Y-25.75
X37.75Y-20.5
X38.25Y-25.75
X39.25Y-25.75
X51.5Y-13.5
X51.5Y-14.5
X51.5Y-15.5
X51.5Y-16.5
X52.4Y-6.3
X52.9Y-7.1
X53.4Y-6.3
T4
X13.825Y-5.25
X18.675Y-5.25
T5
X15.71Y-35.75
X18.25Y-35.75
X20.79Y-35.75
T7
X8.0Y-10.845
X8.0Y-14.655
X72.0Y-10.845
X72.0Y-14.655
T8
X4.25Y-4.25
X4.25Y-35.75
X75.75Y-4.25
X75.75Y-35.75
T3
G00X12.65Y-2.05
M15
G01X12.65Y-2.85
M16
G05
G00X12.65Y-2.05
M15
G01X12.65Y-2.85
M16
G05
G00X19.85Y-2.85
M15
G01X19.85Y-2.05
M16
G05
T6
G00X32.05Y-10.85
M15
G01X32.05Y-11.35
M16
G05
G00X36.75Y-10.85
M15
G01X36.75Y-11.35
M16
G05
G00X41.45Y-10.85
M15
G01X41.45Y-11.35
M16
G05
T0
M30
